<?xml version="1.0" encoding="UTF-8" standalone="no"?>
<svg
   width="437.978px"
   height="682.466px"
   viewBox="0 0 437.978 682.466"
   enable-background="new 0 0 437.978 682.466"
   xml:space="preserve"
   version="1.1"
   id="svg34"
   sodipodi:docname="10.8.svg"
   inkscape:version="1.3.2 (091e20e, 2023-11-25, custom)"
   xmlns:inkscape="http://www.inkscape.org/namespaces/inkscape"
   xmlns:sodipodi="http://sodipodi.sourceforge.net/DTD/sodipodi-0.dtd"
   xmlns="http://www.w3.org/2000/svg"
   xmlns:svg="http://www.w3.org/2000/svg"><defs
   id="defs34" /><sodipodi:namedview
   id="namedview34"
   pagecolor="#505050"
   bordercolor="#eeeeee"
   borderopacity="1"
   inkscape:showpageshadow="0"
   inkscape:pageopacity="0"
   inkscape:pagecheckerboard="0"
   inkscape:deskcolor="#505050"
   inkscape:zoom="0.59563407"
   inkscape:cx="653.08554"
   inkscape:cy="276.17628"
   inkscape:window-width="1920"
   inkscape:window-height="1009"
   inkscape:window-x="-8"
   inkscape:window-y="-8"
   inkscape:window-maximized="1"
   inkscape:current-layer="layer1" />
			
				
				
				
				
				
				
				
			
				
				
				
				
				
				
				
			
			
				
				
				
				
				
				
				
				
				
				
				
				
				
				
				
				
				
				
<g
   inkscape:groupmode="layer"
   id="layer1"
   inkscape:label="Layer 1"><path
     fill="#000066"
     d="M218.874,6.529c0,0,100,110.667,217.036,159.053v392.271c0,0-29.327,16.083-82.304,65.276     c-52.978,49.194-99.332,56.764-132.444,57.709c-33.111,0.944-79.467-5.678-132.444-55.817     C35.74,574.883,25.333,568.26,3.575,557.854V166.529C3.575,166.529,122.378,116.268,218.874,6.529z"
     id="path1" /><path
     fill="#FFFFFF"
     d="M219.507,458.898c0,0-83.015-85.853-197.957-136.229v-26.251c0,0,67.404,12.062,198.666,121.328      c0,0,101.462-94.367,194.409-119.91v26.961C414.625,324.798,334.449,351.051,219.507,458.898z"
     id="path2" /><path
     fill="#FFFFFF"
     d="M414.541,546.528c0,0-58.306,45.637-75.333,62.666c-17.029,17.027-50.877,51.918-119.7,51.918      c-68.824,0-99.281-33.694-110.633-42.918s-38.505-41.157-85.333-71.666v-35.477c0,0,55.624,39.101,94.667,75.81      c20.582,19.352,46.019,41.754,101.667,43.333c47,1.334,80.479-23.974,100.666-43.666c20.959-20.445,70.671-58.097,94.085-75.126      L414.541,546.528z"
     id="path3" /><path
     fill="#FFFFFF"
     d="M415.335,487.988c0,0-69.534,50.376-86.562,67.405c-17.029,17.028-206.471,11.352-217.824,2.129      c-11.353-9.224-42.571-39.733-89.399-70.244v-35.476c0,0,62.438,39.024,96.495,73.79l205.761-2.837      c0,0,48.957-42.572,90.819-68.114L415.335,487.988z"
     id="path4" /><path
     fill="#FFFFFF"
     d="M414.625,429.099c0,0-75.919,49.666-96.494,72.371c-16.173,17.845-187.314,6.386-198.667-2.839      c-11.352-9.224-53.214-43.989-97.914-70.242v-32.638c0,0,69.533,39.732,103.59,74.5l185.894-0.71      c0,0,61.729-48.247,103.591-73.79V429.099z"
     id="path5" /><path
     fill="#FFFFFF"
     d="M414.625,377.067c0,0-61.019,28.38-107.847,72.844c-17.465,16.582-170.286-0.237-181.638-9.461      c-11.352-9.223-67.168-50.139-103.59-65.748V343.72c0,0,66.222,27.198,100.279,61.965l179.272,7.331      c0,0,67.168-48.247,113.523-69.296V377.067z"
     id="path6" /><path
     fill="#FFFFFF"
     d="M218.797,44.409c0,0,88.69,96.495,195.828,148.29v32.638c0,0-100.752-48.248-195.828-139.776      c0,0-113.523,107.848-197.247,139.776v-31.219C21.551,194.118,123.721,147.29,218.797,44.409z"
     id="path7" /><path
     fill="#FFFFFF"
     d="M218.797,111.813c0,0,80.886,81.595,195.828,131.971v26.252c0,0-64.566-9.933-195.828-119.2      c0,0-104.299,95.076-197.247,120.619v-26.962C21.551,244.494,103.854,219.661,218.797,111.813z"
     id="path8" /><path
     fill="#FFFFFF"
     stroke="#000066"
     stroke-width="4"
     d="M125.667,348.271H315.82l22.704,29.799     c0,0-13.719,28.381-13.245,52.505c0.475,24.124,6.625,39.261,13.245,56.29c6.621,17.027,7.097,74.735-31.218,99.806     c-38.314,25.069-55.816,8.987-87.509,33.111c0,0-8.16-8.811-39.733-13.718c-34.967-5.435-69.061-25.543-78.521-57.708     c-9.459-32.166-3.31-66.695,3.311-83.725c6.622-17.027,14.664-58.653-5.203-88.452L125.667,348.271z"
     id="path9" /><path
     fill="#CC0000"
     d="M127.289,555.748c-4.291-5.314-7.513-11.122-9.19-17.326c-6.646-24.59-3.547-58.18,1.656-70.243      c2.333-5.409,5.932-12.116,7.568-23.887v-0.001L127.289,555.748z"
     id="path10" /><path
     fill="#CC0000"
     d="M277.09,582.587c5.142-1.861,10.843-4.444,17.402-8.221V444.175h-17.578L277.09,582.587z"
     id="path11" /><path
     fill="#CC0000"
     d="M247.292,589.862c5.265-1.379,9.02-2.047,14.413-3.113V444.175h-14.413V589.862z"
     id="path12" /><path
     fill="#CC0000"
     d="M232.747,594.12c-3.193,0.886-6.919,3.37-11.53,7.687c0,0-5.086-6.681-15.255-8.841l0.091-148.763      l27.108,0.089L232.747,594.12z"
     id="path13" /><path
     fill="#CC0000"
     d="M174.876,585.912c3.837,1.102,7.643,1.983,11.338,2.648c1.772,0.319,3.458,0.649,5.061,0.987      l-0.178-145.314h-16.532L174.876,585.912z"
     id="path14" /><path
     fill="#CC0000"
     d="M141.75,569.641c5.369,3.957,11.881,7.659,17.975,10.406V444.291h-18.211L141.75,569.641z"
     id="path15" /><path
     fill="#CC0000"
     d="M314.519,444.233c2.204,17.44,7.206,32.39,10.997,44.522c4.101,13.121,6.214,50.756-16.378,74.419      V444.41L314.519,444.233z"
     id="path16" /><path
     fill="none"
     stroke="#000066"
     stroke-width="0.5"
     d="M126.85,444.057c0,16.258-14.19,28.854-12.062,65.513     c1.536,26.455,4.021,42.572,24.124,58.182c17.449,13.548,36.041,18.615,57.235,22.468c18.21,3.31,25.307,11.589,25.307,11.589     s5.438-7.096,18.92-10.643c10.719-2.822,50.141-8.042,66.695-25.779c16.9-18.11,20.813-34.295,20.813-57.473     c0-23.177-10.405-36.659-13.48-63.384"
     id="path17" /><path
     fill="#000066"
     stroke="#CC0000"
     stroke-width="0.25"
     d="M313.905,440.773c-0.521-4.115-1.323-6.522-1.396-10.437     c-0.472-25.779,13.244-48.01,13.244-48.01l-14.59-19.705l-177.455-0.161l-15.61,18.447c9.697,16.082,10.17,40.442,9.46,60.072     L313.905,440.773z"
     id="path18" /><polygon
     fill="#FFFFFF"
     stroke="#CC0000"
     stroke-width="0.25"
     points="180.912,387.622 173.995,383.188 166.9,387.751       168.762,379.906 163.125,374.522 170.891,374.584 173.729,366.07 176.744,374.407 184.41,374.434 178.695,379.817 "
     id="polygon18" /><polygon
     fill="#FFFFFF"
     stroke="#CC0000"
     stroke-width="0.25"
     points="208.317,387.622 201.4,383.188 194.305,387.751       196.167,379.906 190.53,374.522 198.295,374.584 201.134,366.07 204.149,374.407 211.815,374.434 206.101,379.817 "
     id="polygon19" /><polygon
     fill="#FFFFFF"
     stroke="#CC0000"
     stroke-width="0.25"
     points="245.479,387.622 238.561,383.188 231.466,387.751       233.328,379.906 227.691,374.522 235.457,374.584 238.294,366.07 241.31,374.407 248.976,374.434 243.261,379.817 "
     id="polygon20" /><polygon
     fill="#FFFFFF"
     stroke="#CC0000"
     stroke-width="0.25"
     points="274.037,387.622 267.12,383.188 260.024,387.751       261.886,379.906 256.25,374.522 264.015,374.584 266.853,366.07 269.869,374.407 277.536,374.434 271.82,379.817 "
     id="polygon21" /><polygon
     fill="#FFFFFF"
     stroke="#CC0000"
     stroke-width="0.25"
     points="300.466,387.622 293.548,383.188 286.454,387.751       288.316,379.906 282.679,374.522 290.445,374.584 293.283,366.07 296.298,374.407 303.964,374.434 298.25,379.817 "
     id="polygon22" /><polygon
     fill="#FFFFFF"
     stroke="#CC0000"
     stroke-width="0.25"
     points="151.999,387.622 145.082,383.188 137.987,387.751       139.849,379.906 134.211,374.522 141.978,374.584 144.816,366.07 147.831,374.407 155.497,374.434 149.782,379.817 "
     id="polygon23" /><polygon
     fill="#FFFFFF"
     stroke="#CC0000"
     stroke-width="0.25"
     points="180.912,433.267 173.995,428.833 166.9,433.396       168.762,425.552 163.125,420.167 170.891,420.229 173.729,411.715 176.744,420.053 184.41,420.078 178.695,425.463 "
     id="polygon24" /><polygon
     fill="#FFFFFF"
     stroke="#CC0000"
     stroke-width="0.25"
     points="208.317,433.267 201.4,428.833 194.305,433.396       196.167,425.552 190.53,420.167 198.295,420.229 201.134,411.715 204.149,420.053 211.815,420.078 206.101,425.463 "
     id="polygon25" /><polygon
     fill="#FFFFFF"
     stroke="#CC0000"
     stroke-width="0.25"
     points="245.479,433.267 238.561,428.833 231.466,433.396       233.328,425.552 227.691,420.167 235.457,420.229 238.294,411.715 241.31,420.053 248.976,420.078 243.261,425.463 "
     id="polygon26" /><polygon
     fill="#FFFFFF"
     stroke="#CC0000"
     stroke-width="0.25"
     points="274.037,433.267 267.12,428.833 260.024,433.396       261.886,425.552 256.25,420.167 264.015,420.229 266.853,411.715 269.869,420.053 277.536,420.078 271.82,425.463 "
     id="polygon27" /><polygon
     fill="#FFFFFF"
     stroke="#CC0000"
     stroke-width="0.25"
     points="300.466,433.267 293.548,428.833 286.454,433.396       288.316,425.552 282.679,420.167 290.445,420.229 293.283,411.715 296.298,420.053 303.964,420.078 298.25,425.463 "
     id="polygon28" /><polygon
     fill="#FFFFFF"
     stroke="#CC0000"
     stroke-width="0.25"
     points="259.848,409.617 252.93,405.183 245.834,409.746       247.698,401.901 242.06,396.518 249.826,396.58 252.665,388.065 255.679,396.402 263.346,396.429 257.63,401.813 "
     id="polygon29" /><polygon
     fill="#FFFFFF"
     stroke="#CC0000"
     stroke-width="0.25"
     points="288.169,409.617 281.251,405.183 274.156,409.746       276.018,401.901 270.381,396.518 278.147,396.58 280.986,388.065 284,396.402 291.667,396.429 285.952,401.813 "
     id="polygon30" /><polygon
     fill="#FFFFFF"
     stroke="#CC0000"
     stroke-width="0.25"
     points="165.718,409.617 158.8,405.183 151.705,409.746       153.567,401.901 147.93,396.518 155.696,396.58 158.534,388.065 161.55,396.402 169.216,396.429 163.5,401.813 "
     id="polygon31" /><polygon
     fill="#FFFFFF"
     stroke="#CC0000"
     stroke-width="0.25"
     points="194.512,409.617 187.594,405.183 180.499,409.746       182.361,401.901 176.724,396.518 184.49,396.58 187.328,388.065 190.343,396.402 198.009,396.429 192.295,401.813 "
     id="polygon32" /><polygon
     fill="#FFFFFF"
     stroke="#CC0000"
     stroke-width="0.25"
     points="151.999,433.267 145.082,428.833 137.987,433.396       139.849,425.552 134.211,420.167 141.978,420.229 144.816,411.715 147.831,420.053 155.497,420.078 149.782,425.463 "
     id="polygon33" /><path
     fill="#FFFFFF"
     stroke="#CC0000"
     stroke-width="0.25"
     d="M213.057,441.75c-1.922-19.533-1.936-45.996,5.617-72.489      c0,0,0.413-1.655,1.183-1.597c0.766,0.058,1.182,1.538,1.182,1.538s8.462,33.416,4.613,72.548"
     id="path33" /><path
     fill="#FFFFFF"
     stroke="#000066"
     stroke-width="0.5"
     d="M213.234,443.523c1.023,9.147,2.525,17.357,3.697,22.684      c-5.476,0.866-9.668,5.596-9.668,11.315c0,2.149,0.602,4.152,1.631,5.872c-48.307,15.788-82.658,51.911-82.658,51.911      s-1.035,1.138-0.678,1.818c0.359,0.684,1.982,0.155,1.982,0.155c41.716-12.026,72.345-39.15,84.054-50.789      c1.96,1.563,4.438,2.503,7.139,2.503c3.191,0,6.075-1.307,8.155-3.41c35.33,36.999,83.311,52.316,83.311,52.316      s1.477,0.436,1.931-0.182c0.462-0.62-0.721-1.854-0.721-1.854c-28.98-32.253-66.689-47.986-82.306-53.465      c0.698-1.482,1.1-3.132,1.1-4.877c0-5.421-3.763-9.95-8.817-11.148c1.819-7.439,3.436-15.719,4.267-22.939"
     id="path34" /><path
     style="fill:#ffffff;fill-opacity:1;stroke:none;stroke-linecap:round"
     d="m 218.989,233.85374 -50.41406,35.61133 50.41406,36.05273 50.41406,-36.05273 z"
     id="path34-1" /></g></svg>
