<?xml version="1.0" encoding="UTF-8" standalone="no"?>
<!-- Generator: Adobe Illustrator 13.0.2, SVG Export Plug-In . SVG Version: 6.00 Build 14948)  -->

<svg
   version="1.1"
   x="0px"
   y="0px"
   width="436px"
   height="417px"
   viewBox="0 0 436 417"
   enable-background="new 0 0 436 417"
   xml:space="preserve"
   id="svg32"
   sodipodi:docname="6.svg"
   inkscape:version="1.3.2 (091e20e, 2023-11-25, custom)"
   xmlns:inkscape="http://www.inkscape.org/namespaces/inkscape"
   xmlns:sodipodi="http://sodipodi.sourceforge.net/DTD/sodipodi-0.dtd"
   xmlns="http://www.w3.org/2000/svg"
   xmlns:svg="http://www.w3.org/2000/svg"><defs
   id="defs32">
	
	

		
		
	</defs><sodipodi:namedview
   id="namedview32"
   pagecolor="#505050"
   bordercolor="#eeeeee"
   borderopacity="1"
   inkscape:showpageshadow="0"
   inkscape:pageopacity="0"
   inkscape:pagecheckerboard="0"
   inkscape:deskcolor="#505050"
   inkscape:zoom="1.8486239"
   inkscape:cx="218"
   inkscape:cy="208.5335"
   inkscape:window-width="1920"
   inkscape:window-height="1009"
   inkscape:window-x="-8"
   inkscape:window-y="-8"
   inkscape:window-maximized="1"
   inkscape:current-layer="layer1" />


<g
   inkscape:groupmode="layer"
   id="layer1"
   inkscape:label="Layer 1"><g
     id="Layer_3">
			<path
   fill="#000066"
   d="m 217.333,121 c 0,0 116.667,-82 217.036,-120 v 291.327 c 0,0 -29.327,16.083 -82.304,65.276 -52.978,49.194 -99.332,56.764 -132.444,57.709 C 186.51,416.256 140.154,409.634 87.177,359.495 34.2,309.356 23.792,302.733 2.034,292.327 V 1.947 C 2.034,1.947 85,29 217.333,121 Z"
   id="path1" />
			<g
   id="bottom_5_lines">
				<path
   fill="#ffffff"
   d="m 217.967,193.372 c 0,0 -83.015,-85.853 -197.957,-136.229 V 30.892 c 0,0 67.404,12.062 198.666,121.328 0,0 101.462,-94.367 194.409,-119.91 v 26.961 c 0,0 -80.177,26.253 -195.118,134.101 z"
   id="path2" />
				<path
   fill="#ffffff"
   d="m 413,281.002 c 0,0 -58.306,45.637 -75.333,62.666 -17.029,17.027 -50.877,51.918 -119.7,51.918 -68.824,0 -99.281,-33.694 -110.633,-42.918 C 95.982,343.444 68.828,311.511 22,281.002 v -35.477 c 0,0 55.624,39.101 94.667,75.81 20.582,19.352 46.019,41.754 101.667,43.333 47,1.334 80.479,-23.974 100.666,-43.666 20.959,-20.445 70.671,-58.097 94.085,-75.126 z"
   id="path3" />
				<path
   fill="#ffffff"
   d="m 413.795,222.462 c 0,0 -69.534,50.376 -86.562,67.405 -17.029,17.028 -206.471,11.352 -217.824,2.129 C 98.056,282.772 66.838,252.263 20.01,221.752 v -35.476 c 0,0 62.438,39.024 96.495,73.79 l 205.761,-2.837 c 0,0 48.957,-42.572 90.819,-68.114 z"
   id="path4" />
				<path
   fill="#ffffff"
   d="m 413.085,163.572 c 0,0 -75.919,49.666 -96.494,72.371 -16.173,17.845 -187.314,6.386 -198.667,-2.839 C 106.572,223.88 64.71,189.115 20.01,162.862 v -32.638 c 0,0 69.533,39.732 103.59,74.5 l 185.894,-0.71 c 0,0 61.729,-48.247 103.591,-73.79 z"
   id="path5" />
				<path
   fill="#ffffff"
   d="m 413.085,111.541 c 0,0 -61.019,28.38 -107.847,72.844 C 287.773,200.967 134.952,184.148 123.6,174.924 112.248,165.701 56.432,124.785 20.01,109.176 V 78.193 c 0,0 66.222,27.198 100.279,61.965 l 179.272,7.331 c 0,0 67.168,-48.247 113.523,-69.296 v 33.348 z"
   id="path6" />
			</g>
		</g><g
     id="Layer_2">
			<path
   fill="#ffffff"
   stroke="#000066"
   stroke-width="4"
   d="m 124.127,82.744 h 190.152 l 22.704,29.799 c 0,0 -13.719,28.381 -13.245,52.505 0.475,24.124 6.625,39.261 13.245,56.29 6.621,17.027 7.097,74.735 -31.218,99.806 -38.314,25.069 -55.816,8.987 -87.509,33.111 0,0 -8.16,-8.811 -39.733,-13.718 -34.967,-5.435 -69.061,-25.543 -78.521,-57.708 -9.459,-32.166 -3.31,-66.695 3.311,-83.725 6.622,-17.027 14.664,-58.653 -5.203,-88.452 z"
   id="path7" />
			<g
   id="stripes_1_">
				<path
   fill="#cc0000"
   d="m 125.749,290.222 c -4.291,-5.314 -7.513,-11.122 -9.19,-17.326 -6.646,-24.59 -3.547,-58.18 1.656,-70.243 2.333,-5.409 5.932,-12.116 7.568,-23.887 v -0.001 z"
   id="path8" />
				<path
   fill="#cc0000"
   d="m 275.55,317.061 c 5.142,-1.861 10.843,-4.444 17.402,-8.221 V 178.648 h -17.578 z"
   id="path9" />
				<path
   fill="#cc0000"
   d="m 245.751,324.336 c 5.265,-1.379 9.02,-2.047 14.413,-3.113 V 178.648 h -14.413 z"
   id="path10" />
				<path
   fill="#cc0000"
   d="m 231.206,328.594 c -3.193,0.886 -6.919,3.37 -11.53,7.687 0,0 -5.086,-6.681 -15.255,-8.841 l 0.091,-148.763 27.108,0.089 z"
   id="path11" />
				<path
   fill="#cc0000"
   d="m 173.335,320.386 c 3.837,1.102 7.643,1.983 11.338,2.648 1.772,0.319 3.458,0.649 5.061,0.987 l -0.178,-145.314 h -16.532 z"
   id="path12" />
				<path
   fill="#cc0000"
   d="m 140.21,304.114 c 5.369,3.957 11.881,7.659 17.975,10.406 V 178.765 h -18.211 z"
   id="path13" />
				<path
   fill="#cc0000"
   d="m 312.979,178.707 c 2.204,17.44 7.206,32.39 10.997,44.522 4.101,13.121 6.214,50.756 -16.378,74.419 V 178.884 Z"
   id="path14" />
			</g>
			<path
   fill="none"
   stroke="#000066"
   stroke-width="0.5"
   d="m 125.31,178.53 c 0,16.258 -14.19,28.854 -12.062,65.513 1.536,26.455 4.021,42.572 24.124,58.182 17.449,13.548 36.041,18.615 57.235,22.468 18.21,3.31 25.307,11.589 25.307,11.589 0,0 5.438,-7.096 18.92,-10.643 10.719,-2.822 50.141,-8.042 66.695,-25.779 16.9,-18.11 20.813,-34.295 20.813,-57.473 0,-23.177 -10.405,-36.659 -13.48,-63.384"
   id="path15" />
			<path
   fill="#000066"
   stroke="#cc0000"
   stroke-width="0.25"
   d="m 312.364,175.247 c -0.521,-4.115 -1.323,-6.522 -1.396,-10.437 -0.472,-25.779 13.244,-48.01 13.244,-48.01 l -14.59,-19.705 -177.455,-0.161 -15.61,18.447 c 9.697,16.082 10.17,40.442 9.46,60.072 z"
   id="path16" />
			<g
   id="stars_1_">
				<polygon
   fill="#ffffff"
   stroke="#cc0000"
   stroke-width="0.25"
   points="161.584,108.996 169.35,109.058 172.188,100.544 175.203,108.881 182.87,108.907 177.155,114.291 179.372,122.096 172.454,117.661 165.359,122.225 167.221,114.38 "
   id="polygon16" />
				<polygon
   fill="#ffffff"
   stroke="#cc0000"
   stroke-width="0.25"
   points="188.989,108.996 196.755,109.058 199.593,100.544 202.609,108.881 210.275,108.907 204.56,114.291 206.777,122.096 199.859,117.661 192.765,122.225 194.627,114.38 "
   id="polygon17" />
				<polygon
   fill="#ffffff"
   stroke="#cc0000"
   stroke-width="0.25"
   points="226.15,108.996 233.916,109.058 236.754,100.544 239.77,108.881 247.436,108.907 241.721,114.291 243.938,122.096 237.021,117.661 229.926,122.225 231.787,114.38 "
   id="polygon18" />
				<polygon
   fill="#ffffff"
   stroke="#cc0000"
   stroke-width="0.25"
   points="254.709,108.996 262.475,109.058 265.313,100.544 268.328,108.881 275.995,108.907 270.279,114.291 272.496,122.096 265.579,117.661 258.483,122.225 260.346,114.38 "
   id="polygon19" />
				<polygon
   fill="#ffffff"
   stroke="#cc0000"
   stroke-width="0.25"
   points="281.139,108.996 288.904,109.058 291.742,100.544 294.758,108.881 302.424,108.907 296.709,114.291 298.926,122.096 292.008,117.661 284.913,122.225 286.775,114.38 "
   id="polygon20" />
				<polygon
   fill="#ffffff"
   stroke="#cc0000"
   stroke-width="0.25"
   points="132.671,108.996 140.437,109.058 143.275,100.544 146.291,108.881 153.957,108.907 148.242,114.291 150.458,122.096 143.541,117.661 136.446,122.225 138.308,114.38 "
   id="polygon21" />
				<polygon
   fill="#ffffff"
   stroke="#cc0000"
   stroke-width="0.25"
   points="161.584,154.641 169.35,154.703 172.188,146.188 175.203,154.526 182.87,154.552 177.155,159.937 179.372,167.74 172.454,163.307 165.359,167.87 167.221,160.025 "
   id="polygon22" />
				<polygon
   fill="#ffffff"
   stroke="#cc0000"
   stroke-width="0.25"
   points="188.989,154.641 196.755,154.703 199.593,146.188 202.609,154.526 210.275,154.552 204.56,159.937 206.777,167.74 199.859,163.307 192.765,167.87 194.627,160.025 "
   id="polygon23" />
				<polygon
   fill="#ffffff"
   stroke="#cc0000"
   stroke-width="0.25"
   points="226.15,154.641 233.916,154.703 236.754,146.188 239.77,154.526 247.436,154.552 241.721,159.937 243.938,167.74 237.021,163.307 229.926,167.87 231.787,160.025 "
   id="polygon24" />
				<polygon
   fill="#ffffff"
   stroke="#cc0000"
   stroke-width="0.25"
   points="254.709,154.641 262.475,154.703 265.313,146.188 268.328,154.526 275.995,154.552 270.279,159.937 272.496,167.74 265.579,163.307 258.483,167.87 260.346,160.025 "
   id="polygon25" />
				<polygon
   fill="#ffffff"
   stroke="#cc0000"
   stroke-width="0.25"
   points="281.139,154.641 288.904,154.703 291.742,146.188 294.758,154.526 302.424,154.552 296.709,159.937 298.926,167.74 292.008,163.307 284.913,167.87 286.775,160.025 "
   id="polygon26" />
				<polygon
   fill="#ffffff"
   stroke="#cc0000"
   stroke-width="0.25"
   points="240.52,130.991 248.285,131.054 251.124,122.539 254.139,130.876 261.806,130.902 256.09,136.286 258.308,144.091 251.39,139.656 244.294,144.22 246.157,136.375 "
   id="polygon27" />
				<polygon
   fill="#ffffff"
   stroke="#cc0000"
   stroke-width="0.25"
   points="268.841,130.991 276.606,131.054 279.445,122.539 282.46,130.876 290.126,130.902 284.411,136.286 286.629,144.091 279.711,139.656 272.615,144.22 274.478,136.375 "
   id="polygon28" />
				<polygon
   fill="#ffffff"
   stroke="#cc0000"
   stroke-width="0.25"
   points="146.389,130.991 154.155,131.054 156.994,122.539 160.009,130.876 167.675,130.902 161.96,136.286 164.177,144.091 157.26,139.656 150.164,144.22 152.027,136.375 "
   id="polygon29" />
				<polygon
   fill="#ffffff"
   stroke="#cc0000"
   stroke-width="0.25"
   points="175.184,130.991 182.949,131.054 185.787,122.539 188.803,130.876 196.469,130.902 190.754,136.286 192.971,144.091 186.054,139.656 178.958,144.22 180.821,136.375 "
   id="polygon30" />
				<polygon
   fill="#ffffff"
   stroke="#cc0000"
   stroke-width="0.25"
   points="132.671,154.641 140.437,154.703 143.275,146.188 146.291,154.526 153.957,154.552 148.242,159.937 150.458,167.74 143.541,163.307 136.446,167.87 138.308,160.025 "
   id="polygon31" />
			</g>
			<g
   id="propeller_1_">
				<path
   fill="#ffffff"
   stroke="#cc0000"
   stroke-width="0.25"
   d="m 211.517,176.224 c -1.922,-19.533 -1.936,-45.996 5.617,-72.489 0,0 0.413,-1.655 1.183,-1.597 0.766,0.058 1.182,1.538 1.182,1.538 0,0 8.462,33.416 4.613,72.548"
   id="path31" />
				<path
   fill="#ffffff"
   stroke="#000066"
   stroke-width="0.5"
   d="m 211.694,177.997 c 1.023,9.147 2.525,17.357 3.697,22.684 -5.476,0.866 -9.668,5.596 -9.668,11.315 0,2.149 0.602,4.152 1.631,5.872 -48.307,15.788 -82.658,51.911 -82.658,51.911 0,0 -1.035,1.138 -0.678,1.818 0.359,0.684 1.982,0.155 1.982,0.155 41.716,-12.026 72.345,-39.15 84.054,-50.789 1.96,1.563 4.438,2.503 7.139,2.503 3.191,0 6.075,-1.307 8.155,-3.41 35.33,36.999 83.311,52.316 83.311,52.316 0,0 1.477,0.436 1.931,-0.182 0.462,-0.62 -0.721,-1.854 -0.721,-1.854 -28.98,-32.253 -66.689,-47.986 -82.306,-53.465 0.698,-1.482 1.1,-3.132 1.1,-4.877 0,-5.421 -3.763,-9.95 -8.817,-11.148 1.819,-7.439 3.436,-15.719 4.267,-22.939"
   id="path32" />
			</g>
		</g></g></svg>
