<svg xmlns="http://www.w3.org/2000/svg" viewBox="0 0 243.91 238.63"><defs><style>.a{fill:#fff;}.b{fill:#ffcd00;}.c,.e{fill:#001689;}.d{fill:#c10230;}.e{stroke:#2e3191;stroke-width:0.25px;}</style></defs><path class="a" d="M419.62,404.6c-1.84-3.21-1.84-6.2-3.21-11.48s-3.44-9.18-9.64-9.18-11.49,4.36-14.7,14.23l.14.69c1.06,3.74,7.28,30.43-25.11,47.34l-.6.33c-14.9,8.19-47.71,16.74-60.27,32.65-12.56-15.91-45.37-24.46-60.28-32.65l-.59-.33c-28-14.6-27.15-36.5-25.72-44.61-.09,0-.14-.08-.14-.12l-.32.15.69-3.45c-3.21-9.87-8.49-14.23-14.7-14.23s-8.26,3.9-9.64,9.18-1.38,8.27-3.21,11.48-7.12,13.55-6.89,16.07,2.3,5.74,3.9,6.66,5.28,2.53,5.28,2.53C193,439.5,196,450.75,207,460.39s28,18.6,48.91,27.1,31,10.79,50.05,25.48c19.06-14.69,29.16-17,50-25.48s37.89-17.45,48.91-27.1,14-20.89,12.39-30.53c0,0,3.68-1.61,5.29-2.53s3.67-4.13,3.9-6.66-5.05-12.86-6.89-16.07" transform="translate(-183.95 -276.27)"/><path class="b" d="M420.77,404a20.17,20.17,0,0,1-2-6.39l-1.06-4.74c-1.39-5.32-3.69-10.24-11-10.24-5.06,0-11.94,2.64-16,15.21l-.11.35,1.73,8.67,1.73-4.65c3.69-9.9,7.95-14.92,12.69-14.92s6.39,5.09,6.39,6.39a11.2,11.2,0,0,1-2.56,5.57L406,390.92l-1.31,1c-3.58,2.69-6.35,5.21-6.35,10.44,0,.44,0,.89,0,1.37.48,5.68,4.7,11,8.1,15.31l1.38,1.74c3.13,3.89,6.36,7.92,6.36,15,0,7.64-4.48,15.82-12.61,23.06-7.27,6.45-18.36,13.32-30.42,18.82-5,2.3-11.28,4.7-17.91,7.24-7,2.7-14.32,5.5-20,8.15-12.51,5.86-21,10.76-27.42,15.8-6.41-5-14.91-9.94-27.41-15.8-5.67-2.65-12.95-5.45-20-8.15-6.63-2.54-12.89-4.94-17.91-7.24-12.06-5.5-23.15-12.37-30.41-18.82-8.14-7.24-12.62-15.42-12.62-23.06,0-7.05,3.24-11.08,6.36-15l.92-1.15.46-.59c3.4-4.29,7.63-9.63,8.1-15.31,0-.48.06-.93.06-1.37,0-5.23-2.77-7.75-6.36-10.44l-1.31-1-4.52,8.37a11.29,11.29,0,0,1-2.56-5.57c0-1.3,1.67-6.39,6.4-6.39s9,5,12.68,14.92l1.73,4.65,1.74-8.67-.12-.35c-4.09-12.57-11-15.21-16-15.21-7.33,0-9.62,4.92-11,10.24L193,397.64a19.66,19.66,0,0,1-2,6.4c-.07.13-7.07,12.72-7.07,16.65a1.93,1.93,0,0,0,0,.25c.25,2.83,2.45,6.53,4.61,7.76,1.15.66,3.23,1.61,4.45,2.16a29.79,29.79,0,0,0-.28,4c0,7.14,2.43,17.24,13.28,26.73,10.47,9.17,26.6,18.11,49.3,27.34l10.54,4.17c14.32,5.57,23.78,9.24,39.18,21.12l.86.66.86-.66c15.41-11.88,24.86-15.55,39.18-21.12l10.55-4.17c22.7-9.23,38.82-18.17,49.3-27.34,10.85-9.49,13.28-19.59,13.28-26.73a31.52,31.52,0,0,0-.28-4c1.22-.55,3.3-1.5,4.45-2.16,2.15-1.23,4.35-4.93,4.61-7.76,0-.07,0-.16,0-.25,0-3.94-7-16.52-7.09-16.65m-213.72-8c1.84,2.07,3.29,3.25,2.07,5.74-1.05,2.13-5.12-.07-5.12-.07l3.05-5.67M187.76,422.2c-.91-2.53.69-5.28,2.07-7.35a75.92,75.92,0,0,0,5.28-10.56,57.43,57.43,0,0,0,1.38-5.74,12.24,12.24,0,0,0,6.66,6.65,18.17,18.17,0,0,0,5.71.95,29.72,29.72,0,0,1-4.79,8.47c-1.64,2-6.89,8.49-9,13.08-4.13-1.6-6.43-3-7.35-5.5m214.8-20.44c-1.22-2.49.24-3.67,2.07-5.74l3.05,5.67s-4.07,2.2-5.12.07m21.36,20.44c-.92,2.52-3.22,3.9-7.35,5.51-2.07-4.6-7.32-11.07-8.95-13.09a29.56,29.56,0,0,1-4.8-8.46,18.49,18.49,0,0,0,5.71-1,12.27,12.27,0,0,0,6.66-6.66,57.43,57.43,0,0,0,1.38,5.74,75.92,75.92,0,0,0,5.28,10.56c1.38,2.07,3,4.82,2.07,7.35" transform="translate(-183.95 -276.27)"/><path class="b" d="M245.36,446.2l.59.33c14.91,8.19,47.72,16.74,60.28,32.65,12.56-15.91,45.37-24.46,60.27-32.65l.6-.33c32.39-16.91,26.17-43.6,25.11-47.34-.08-.29-.14-.45-.14-.45-6.85-27-6.47-36.17-6.47-36.17-3.25-39.31,15.13-60.92,15.13-60.92L376,276.27H236.5l-24.77,25.05s18.38,21.61,15.13,60.92c0,0,.37,9.13-6.48,36.17a24.24,24.24,0,0,0-.74,3.18c-1.43,8.11-2.25,30,25.72,44.61" transform="translate(-183.95 -276.27)"/><path class="c" d="M306.12,470.49c-11.8-14.95-42.65-21.12-56.66-28.82l-.56-.32C216.11,424.24,227,396.44,227,396.44c6.31-25.43,5.6-34.38,5.6-34.38,3-36.95-13.59-59.42-13.59-59.42l20-21H373.37l20.23,20.32S376.73,325,379.72,362c0,0-.81,9,5.51,34.47,0,0,10.91,27.8-21.89,44.91l-.56.32c-14,7.7-44.85,13.87-56.66,28.82" transform="translate(-183.95 -276.27)"/><polyline class="a" points="194.83 140.07 49.15 139.78 122.24 13.77 194.83 140.07"/><path class="d" d="M315.48,376.66a9.67,9.67,0,0,0-6.89-11.94c11.42-46.54.81-62.88-2.5-62.88s-13.92,16.34-2.5,62.88a9.67,9.67,0,0,0-6.89,11.94c-46,13.37-54.86,30.73-53.21,33.6s21.11,3.89,55.7-29.27a9.73,9.73,0,0,0,13.8,0c34.59,33.16,54,32.14,55.69,29.27s-7.18-20.23-53.2-33.6" transform="translate(-183.95 -276.27)"/><path class="c" d="M221.52,439.71l1.42-.78.52.66-3.57,5.86-.65-.83a11.52,11.52,0,0,0,1.26-5.05,5.91,5.91,0,0,0-1.13-3.61,2.55,2.55,0,0,0-3-.95c-1.19.36-2.52,1.63-4,3.82a14.12,14.12,0,0,0-2.58,6.23,5.29,5.29,0,0,0,1.13,3.87,3.47,3.47,0,0,0,3.12,1.52,4.86,4.86,0,0,0,2.8-1.68l.64.81a5,5,0,0,1-3.89,2.08,4.84,4.84,0,0,1-3.72-2.13A10.76,10.76,0,0,1,207.7,443a12,12,0,0,1,2-7.06q2.36-3.52,5.43-3.53a5.63,5.63,0,0,1,4.52,2.42,8,8,0,0,1,1.19,2.08,12.83,12.83,0,0,1,.65,2.85" transform="translate(-183.95 -276.27)"/><path class="c" d="M225.73,441.56l6.85,4.93-.56.92-1.23-.89a1,1,0,0,0-.68-.25.72.72,0,0,0-.49.37l-6.8,11.16a.85.85,0,0,0-.15.69,1.35,1.35,0,0,0,.57.72l1.1.8-.55.91L216.94,456l.55-.92,1.06.76a1.43,1.43,0,0,0,.88.36.78.78,0,0,0,.57-.42l6.73-11a.94.94,0,0,0,.16-.75,1.15,1.15,0,0,0-.52-.65l-1.19-.87.55-.91" transform="translate(-183.95 -276.27)"/><path class="c" d="M234.09,447.65l7.17,3.94-.54.93-.78-.43a2.62,2.62,0,0,0-1.16-.43.57.57,0,0,0-.5.27,3,3,0,0,0-.24.91l-1.47,10.88,7.41-5.9a4.72,4.72,0,0,0,1.11-1.26,1.31,1.31,0,0,0,.17-1.13,1.85,1.85,0,0,0-.92-.92l-.66-.37.53-.92,5.66,3.11-.54.92-.43-.23a1.67,1.67,0,0,0-1.19-.16,4.3,4.3,0,0,0-1.6.89L234,467.29l-1.17-.64L235,450.79a2,2,0,0,0-.1-1.21,2.52,2.52,0,0,0-1-.84l-.3-.16.53-.93" transform="translate(-183.95 -276.27)"/><path class="c" d="M251.3,457.05l7.62,3.31-.46,1-1.37-.59a1.06,1.06,0,0,0-.73-.1.77.77,0,0,0-.45.44l-5.55,11.83a.79.79,0,0,0-.06.69,1.21,1.21,0,0,0,.67.56l1.23.53-.46,1-7.62-3.31.45-1,1.18.51a1.49,1.49,0,0,0,.95.16.89.89,0,0,0,.53-.5l5.49-11.7a.9.9,0,0,0,.07-.74,1.1,1.1,0,0,0-.62-.51l-1.33-.58.46-1" transform="translate(-183.95 -276.27)"/><path class="c" d="M260.36,462.06l.36-1,7.91,3.06-.37,1-1.33-.52a1.23,1.23,0,0,0-.88-.08,1,1,0,0,0-.49.64L261.32,477a1.39,1.39,0,0,0-.11,1,1.89,1.89,0,0,0,1,.6l2.22.86a3.24,3.24,0,0,0,2.75-.32,8.77,8.77,0,0,0,3-3.25l.91.36-2.54,6L255,477l.36-1,1.36.53a1,1,0,0,0,.77,0,1,1,0,0,0,.47-.58l4.36-12.15a.87.87,0,0,0,0-.73,1.44,1.44,0,0,0-.74-.51l-1.23-.47" transform="translate(-183.95 -276.27)"/><path class="c" d="M286.71,476.24l-3.33,5.22,5.15,2.49Zm2.26-3.45,4.28,18.15a3.25,3.25,0,0,0,.47,1.14,2,2,0,0,0,.78.62l.59.28-.13,1.07-7.56-3.66.13-1.07.7.35a2.54,2.54,0,0,0,1.18.36.39.39,0,0,0,.38-.36,2.05,2.05,0,0,0-.07-.65l-.88-3.74-6-2.92-.74,1.15a3.14,3.14,0,0,0-.52,1.16,2.23,2.23,0,0,0,.39,1.46,3.33,3.33,0,0,0,1.38,1.16l.51.24-.12,1.06-6.13-3,.12-1.06.35.17a1.38,1.38,0,0,0,1.09.11,2.24,2.24,0,0,0,1.15-.93l7.45-11.72,1.23.59" transform="translate(-183.95 -276.27)"/><path class="e" d="M296.05,478.12l7.66,5.28v1.07l-1.39-1c-.29-.2-.51-.29-.64-.24s-.21.19-.2.44l.09,13.07a1.5,1.5,0,0,0,.22.8,2.7,2.7,0,0,0,.79.79l1.24.85v1.07L296.18,495V494l1.17.8a1.44,1.44,0,0,0,.85.37c.16-.05.24-.21.24-.51l-.09-12.92a1.68,1.68,0,0,0-.23-.86,2.34,2.34,0,0,0-.72-.72l-1.33-.92Z" transform="translate(-183.95 -276.27)"/><path class="c" d="M310.9,489.69l1.19-.74a7.44,7.44,0,0,0,2.5-2.52,5.88,5.88,0,0,0,.68-2.95c0-1.09-.22-1.75-.68-2s-1.23,0-2.34.7a3.61,3.61,0,0,0-1.12.93,2.4,2.4,0,0,0-.23,1.19Zm-5-4.65,7.35-4.56a7.93,7.93,0,0,1,2.92-1.24,1.81,1.81,0,0,1,1.68.48,2.69,2.69,0,0,1,.55,1.8,6.91,6.91,0,0,1-1.39,3.91,13.92,13.92,0,0,1-3.26,3.17,3.33,3.33,0,0,1,1.71-.36,1.66,1.66,0,0,1,1,.77,7.61,7.61,0,0,1,1,2.38,3,3,0,0,0,.41,1.15.31.31,0,0,0,.41,0c.41-.26.66-1.09.74-2.51l.85-.52a8.74,8.74,0,0,1-.79,3.58,5.29,5.29,0,0,1-2,2.15,2.2,2.2,0,0,1-1.45.45,1.2,1.2,0,0,1-.83-.8,14,14,0,0,1-.48-2,11,11,0,0,0-.63-2.49,1.07,1.07,0,0,0-.73-.65,1.67,1.67,0,0,0-1.1.33l-1,.64V497c0,.28.07.45.2.52a.76.76,0,0,0,.67-.13l1.27-.78v1.07l-7.13,4.41V501l1.11-.69a1.74,1.74,0,0,0,.65-.67,1.81,1.81,0,0,0,.22-.89V485.91c0-.36-.07-.57-.2-.66s-.33-.05-.57.11l-1.21.74V485" transform="translate(-183.95 -276.27)"/><path class="e" d="M333.17,477.53l1.8-.84a4.41,4.41,0,0,0,1.61-1.26,4.3,4.3,0,0,0,.87-1.64,6.33,6.33,0,0,0,0-2.33c-.22-1.39-.69-2.22-1.42-2.5a5.43,5.43,0,0,0-3.7,1.27,1,1,0,0,0-.15.77Zm-6.6-6,8.52-4a4.21,4.21,0,0,1,3.7-.26,3.44,3.44,0,0,1,1.85,2.74,5.62,5.62,0,0,1-.35,3,6.87,6.87,0,0,1-1.79,2.59,9.64,9.64,0,0,1-2.46,1.7l-2.7,1.25.89,5.6a.78.78,0,0,0,.34.62.65.65,0,0,0,.62,0l1.67-.78.17,1.08-7.75,3.61-.17-1.08,1.3-.6a1.31,1.31,0,0,0,.62-.56,1.35,1.35,0,0,0,.1-.83l-2.07-13.07a.75.75,0,0,0-.34-.59.6.6,0,0,0-.58,0l-1.4.65Z" transform="translate(-183.95 -276.27)"/><path class="c" d="M345.37,468l-.72,7.11,4.87-1.94Zm.49-4.73,9.79,12.18a1.81,1.81,0,0,0,.77.62,1.31,1.31,0,0,0,.83-.09l.56-.22.29,1L351,479.62l-.28-1,.67-.26a2.71,2.71,0,0,0,1-.62.69.69,0,0,0,.16-.61,1.63,1.63,0,0,0-.28-.51l-2-2.52-5.71,2.27-.16,1.58a4.06,4.06,0,0,0,0,1.4,1.36,1.36,0,0,0,.82,1,2,2,0,0,0,1.47-.1l.49-.19.28,1-5.78,2.3-.29-1,.33-.13a1.82,1.82,0,0,0,.88-.77,4.15,4.15,0,0,0,.55-1.71l1.6-16,1.12-.44" transform="translate(-183.95 -276.27)"/><path class="e" d="M350.8,461.39l12.81-5.72,3.09,5.65-.9.4a13.2,13.2,0,0,0-2.21-2.53,4.16,4.16,0,0,0-1.87-1,2.75,2.75,0,0,0-1.63.2,1,1,0,0,0-.56.48.77.77,0,0,0,.05.64l5.64,11.8a.9.9,0,0,0,.47.47.78.78,0,0,0,.6,0l1.66-.75.46,1-7.84,3.5-.46-1,1.59-.71a.77.77,0,0,0,.46-.46.78.78,0,0,0-.06-.66L356.5,461a.87.87,0,0,0-.51-.51,1,1,0,0,0-.76.1c-1.68.75-2.06,2.86-1.11,6.34l-.88.39Z" transform="translate(-183.95 -276.27)"/><path class="c" d="M373.52,459.1l1.18-.64a4,4,0,0,0,2-2.2,3.43,3.43,0,0,0-.42-2.61,3,3,0,0,0-1.71-1.76,3.54,3.54,0,0,0-2.64.58c-.59.32-.93.59-1,.81a1.51,1.51,0,0,0,.23,1.06Zm-8.3-4.22,7.27-3.93a8.08,8.08,0,0,1,3.14-1.06,4,4,0,0,1,2.32.45,3.85,3.85,0,0,1,1.44,5.07,7.89,7.89,0,0,1-2.72,2.77,4.37,4.37,0,0,1,2-.29,3.76,3.76,0,0,1,1.66.69,12.06,12.06,0,0,1,2.27,2.14,4.55,4.55,0,0,0,1,1,.54.54,0,0,0,.53,0q.62-.34-.15-2.22l.83-.45a5.47,5.47,0,0,1,.57,3.18,2.85,2.85,0,0,1-1.54,1.88,2.37,2.37,0,0,1-3-.35,16.77,16.77,0,0,1-1.48-1.82,16,16,0,0,0-1.89-2.22,2.31,2.31,0,0,0-1.19-.58,2,2,0,0,0-1.25.27l-1,.55,2.73,5.58a.8.8,0,0,0,.48.46,1.06,1.06,0,0,0,.78-.1l1.27-.69.47,1-7.06,3.82-.47-1,1.09-.59a1,1,0,0,0,.52-.59,1.09,1.09,0,0,0-.11-.79l-5.6-11.42a1.08,1.08,0,0,0-.53-.59.81.81,0,0,0-.68.09l-1.18.64-.47-1" transform="translate(-183.95 -276.27)"/><path class="c" d="M385,443.65a3.45,3.45,0,0,0-1.2,2,5.59,5.59,0,0,0,.28,2.91,16.5,16.5,0,0,0,2.19,4.14,16.1,16.1,0,0,0,3,3.54,4.14,4.14,0,0,0,2.41,1,3,3,0,0,0,2.1-.74,3.66,3.66,0,0,0,1.26-3.3q-.15-2.16-2.62-5.77a16.07,16.07,0,0,0-3-3.5,4,4,0,0,0-2.37-1A3.06,3.06,0,0,0,385,443.65Zm-.67-.87a6.63,6.63,0,0,1,3.69-1.52,6.94,6.94,0,0,1,3.95.85,9.64,9.64,0,0,1,3.34,3.11,10.25,10.25,0,0,1,1.89,6.69,7.63,7.63,0,0,1-2.8,5.58,6.35,6.35,0,0,1-3.67,1.51,7.14,7.14,0,0,1-3.87-.87,9.57,9.57,0,0,1-3.36-3.17,10.26,10.26,0,0,1-1.93-6.67,7.55,7.55,0,0,1,2.76-5.51" transform="translate(-183.95 -276.27)"/><path class="c" d="M391.3,438.28l-.63-.86,4.26-7,.64.86-.72,1.18a1.66,1.66,0,0,0-.29.91,1.59,1.59,0,0,0,.34.84l7.56,10.2c.31.41.55.61.71.6s.39-.27.68-.75l1.2-2a5.08,5.08,0,0,0,.47-3.1,14.41,14.41,0,0,0-1.6-4.81l.5-.82,3.71,5.56-7.31,12-.63-.86.73-1.21a1.31,1.31,0,0,0,.22-.81,1.52,1.52,0,0,0-.3-.78L393.07,437c-.19-.25-.37-.36-.54-.34s-.36.21-.56.55l-.67,1.09" transform="translate(-183.95 -276.27)"/></svg>