<?xml version="1.0" encoding="UTF-8" standalone="no"?>
<!-- Generator: Adobe Illustrator 13.0.2, SVG Export Plug-In . SVG Version: 6.00 Build 14948)  -->

<svg
   version="1.1"
   x="0px"
   y="0px"
   width="437px"
   height="313px"
   viewBox="0 0 437 313"
   enable-background="new 0 0 437 313"
   xml:space="preserve"
   id="svg28"
   sodipodi:docname="2.svg"
   inkscape:version="1.3.2 (091e20e, 2023-11-25, custom)"
   xmlns:inkscape="http://www.inkscape.org/namespaces/inkscape"
   xmlns:sodipodi="http://sodipodi.sourceforge.net/DTD/sodipodi-0.dtd"
   xmlns="http://www.w3.org/2000/svg"
   xmlns:svg="http://www.w3.org/2000/svg"><defs
   id="defs28">
	
	

		
		
	</defs><sodipodi:namedview
   id="namedview28"
   pagecolor="#505050"
   bordercolor="#eeeeee"
   borderopacity="1"
   inkscape:showpageshadow="0"
   inkscape:pageopacity="0"
   inkscape:pagecheckerboard="0"
   inkscape:deskcolor="#505050"
   inkscape:zoom="1.8443936"
   inkscape:cx="218.5"
   inkscape:cy="156.41998"
   inkscape:window-width="1920"
   inkscape:window-height="1009"
   inkscape:window-x="-8"
   inkscape:window-y="-8"
   inkscape:window-maximized="1"
   inkscape:current-layer="layer1" />


<g
   inkscape:groupmode="layer"
   id="layer1"
   inkscape:label="Layer 1"><g
     id="Layer_3">
			<path
   fill="#000066"
   d="M 226,134 C 226,134 335,41 435.369,3 L 435,72 c 0,0 -62,37 -93,60 -58.061,43.077 -83,66 -121.379,64 C 187.541,194.276 164.722,189.86 108,144 61,106 24.792,84.406 3.034,74 V 3.947 C 3.034,3.947 93.667,42 226,134 Z"
   id="path1" />
			<g
   id="bottom_5_lines">
				<path
   fill="#ffffff"
   d="m 414.085,65.541 c 0,0 -61.019,28.38 -107.847,72.844 C 288.773,154.967 135.952,138.148 124.6,128.924 113.248,119.701 57.432,78.785 21.01,63.176 V 32.193 c 0,0 66.222,27.198 100.279,61.965 l 179.272,7.331 c 0,0 67.168,-48.247 113.523,-69.296 v 33.348 z"
   id="path2" />
			</g>
		</g><g
     id="Layer_2">
			<path
   fill="#ffffff"
   stroke="#000066"
   stroke-width="4"
   d="m 125.127,36.744 h 190.152 l 22.704,29.799 c 0,0 -13.719,28.381 -13.245,52.505 0.475,24.124 6.625,39.261 13.245,56.29 6.621,17.027 7.097,74.735 -31.218,99.806 -38.314,25.069 -55.816,8.987 -87.509,33.111 0,0 -8.16,-8.811 -39.733,-13.718 -34.967,-5.435 -69.061,-25.543 -78.521,-57.708 -9.459,-32.166 -3.31,-66.695 3.311,-83.725 6.622,-17.027 14.664,-58.653 -5.203,-88.452 z"
   id="path3" />
			<g
   id="stripes_1_">
				<path
   fill="#cc0000"
   d="m 126.749,244.222 c -4.291,-5.314 -7.513,-11.122 -9.19,-17.326 -6.646,-24.59 -3.547,-58.18 1.656,-70.243 2.333,-5.409 5.932,-12.116 7.568,-23.887 v -0.001 z"
   id="path4" />
				<path
   fill="#cc0000"
   d="m 276.55,271.061 c 5.142,-1.861 10.843,-4.444 17.402,-8.221 V 132.648 h -17.578 z"
   id="path5" />
				<path
   fill="#cc0000"
   d="m 246.751,278.336 c 5.265,-1.379 9.02,-2.047 14.413,-3.113 V 132.648 h -14.413 z"
   id="path6" />
				<path
   fill="#cc0000"
   d="m 232.206,282.594 c -3.193,0.886 -6.919,3.37 -11.53,7.687 0,0 -5.086,-6.681 -15.255,-8.841 l 0.091,-148.763 27.108,0.089 z"
   id="path7" />
				<path
   fill="#cc0000"
   d="m 174.335,274.386 c 3.837,1.102 7.643,1.983 11.338,2.648 1.772,0.319 3.458,0.649 5.061,0.987 l -0.178,-145.314 h -16.532 z"
   id="path8" />
				<path
   fill="#cc0000"
   d="m 141.21,258.114 c 5.369,3.957 11.881,7.659 17.975,10.406 V 132.765 h -18.211 z"
   id="path9" />
				<path
   fill="#cc0000"
   d="m 313.979,132.707 c 2.204,17.44 7.206,32.39 10.997,44.522 4.101,13.121 6.214,50.756 -16.378,74.419 V 132.884 Z"
   id="path10" />
			</g>
			<path
   fill="none"
   stroke="#000066"
   stroke-width="0.5"
   d="m 126.31,132.53 c 0,16.258 -14.19,28.854 -12.062,65.513 1.536,26.455 4.021,42.572 24.124,58.182 17.449,13.548 36.041,18.615 57.235,22.468 18.21,3.31 25.307,11.589 25.307,11.589 0,0 5.438,-7.096 18.92,-10.643 10.719,-2.822 50.141,-8.042 66.695,-25.779 16.9,-18.11 20.813,-34.295 20.813,-57.473 0,-23.177 -10.405,-36.659 -13.48,-63.384"
   id="path11" />
			<path
   fill="#000066"
   stroke="#cc0000"
   stroke-width="0.25"
   d="m 313.364,129.247 c -0.521,-4.115 -1.323,-6.522 -1.396,-10.437 -0.472,-25.779 13.244,-48.01 13.244,-48.01 l -14.59,-19.705 -177.455,-0.161 -15.61,18.447 c 9.697,16.082 10.17,40.442 9.46,60.072 z"
   id="path12" />
			<g
   id="stars_1_">
				<polygon
   fill="#ffffff"
   stroke="#cc0000"
   stroke-width="0.25"
   points="162.584,62.996 170.35,63.058 173.188,54.544 176.203,62.881 183.87,62.907 178.155,68.291 180.372,76.096 173.454,71.661 166.359,76.225 168.221,68.38 "
   id="polygon12" />
				<polygon
   fill="#ffffff"
   stroke="#cc0000"
   stroke-width="0.25"
   points="189.989,62.996 197.755,63.058 200.593,54.544 203.609,62.881 211.275,62.907 205.56,68.291 207.777,76.096 200.859,71.661 193.765,76.225 195.627,68.38 "
   id="polygon13" />
				<polygon
   fill="#ffffff"
   stroke="#cc0000"
   stroke-width="0.25"
   points="227.15,62.996 234.916,63.058 237.754,54.544 240.77,62.881 248.436,62.907 242.721,68.291 244.938,76.096 238.021,71.661 230.926,76.225 232.787,68.38 "
   id="polygon14" />
				<polygon
   fill="#ffffff"
   stroke="#cc0000"
   stroke-width="0.25"
   points="255.709,62.996 263.475,63.058 266.313,54.544 269.328,62.881 276.995,62.907 271.279,68.291 273.496,76.096 266.579,71.661 259.483,76.225 261.346,68.38 "
   id="polygon15" />
				<polygon
   fill="#ffffff"
   stroke="#cc0000"
   stroke-width="0.25"
   points="282.139,62.996 289.904,63.058 292.742,54.544 295.758,62.881 303.424,62.907 297.709,68.291 299.926,76.096 293.008,71.661 285.913,76.225 287.775,68.38 "
   id="polygon16" />
				<polygon
   fill="#ffffff"
   stroke="#cc0000"
   stroke-width="0.25"
   points="133.671,62.996 141.437,63.058 144.275,54.544 147.291,62.881 154.957,62.907 149.242,68.291 151.458,76.096 144.541,71.661 137.446,76.225 139.308,68.38 "
   id="polygon17" />
				<polygon
   fill="#ffffff"
   stroke="#cc0000"
   stroke-width="0.25"
   points="162.584,108.641 170.35,108.703 173.188,100.188 176.203,108.526 183.87,108.552 178.155,113.937 180.372,121.74 173.454,117.307 166.359,121.87 168.221,114.025 "
   id="polygon18" />
				<polygon
   fill="#ffffff"
   stroke="#cc0000"
   stroke-width="0.25"
   points="189.989,108.641 197.755,108.703 200.593,100.188 203.609,108.526 211.275,108.552 205.56,113.937 207.777,121.74 200.859,117.307 193.765,121.87 195.627,114.025 "
   id="polygon19" />
				<polygon
   fill="#ffffff"
   stroke="#cc0000"
   stroke-width="0.25"
   points="227.15,108.641 234.916,108.703 237.754,100.188 240.77,108.526 248.436,108.552 242.721,113.937 244.938,121.74 238.021,117.307 230.926,121.87 232.787,114.025 "
   id="polygon20" />
				<polygon
   fill="#ffffff"
   stroke="#cc0000"
   stroke-width="0.25"
   points="255.709,108.641 263.475,108.703 266.313,100.188 269.328,108.526 276.995,108.552 271.279,113.937 273.496,121.74 266.579,117.307 259.483,121.87 261.346,114.025 "
   id="polygon21" />
				<polygon
   fill="#ffffff"
   stroke="#cc0000"
   stroke-width="0.25"
   points="282.139,108.641 289.904,108.703 292.742,100.188 295.758,108.526 303.424,108.552 297.709,113.937 299.926,121.74 293.008,117.307 285.913,121.87 287.775,114.025 "
   id="polygon22" />
				<polygon
   fill="#ffffff"
   stroke="#cc0000"
   stroke-width="0.25"
   points="241.52,84.991 249.285,85.054 252.124,76.539 255.139,84.876 262.806,84.902 257.09,90.286 259.308,98.091 252.39,93.656 245.294,98.22 247.157,90.375 "
   id="polygon23" />
				<polygon
   fill="#ffffff"
   stroke="#cc0000"
   stroke-width="0.25"
   points="269.841,84.991 277.606,85.054 280.445,76.539 283.46,84.876 291.126,84.902 285.411,90.286 287.629,98.091 280.711,93.656 273.615,98.22 275.478,90.375 "
   id="polygon24" />
				<polygon
   fill="#ffffff"
   stroke="#cc0000"
   stroke-width="0.25"
   points="147.389,84.991 155.155,85.054 157.994,76.539 161.009,84.876 168.675,84.902 162.96,90.286 165.177,98.091 158.26,93.656 151.164,98.22 153.027,90.375 "
   id="polygon25" />
				<polygon
   fill="#ffffff"
   stroke="#cc0000"
   stroke-width="0.25"
   points="176.184,84.991 183.949,85.054 186.787,76.539 189.803,84.876 197.469,84.902 191.754,90.286 193.971,98.091 187.054,93.656 179.958,98.22 181.821,90.375 "
   id="polygon26" />
				<polygon
   fill="#ffffff"
   stroke="#cc0000"
   stroke-width="0.25"
   points="133.671,108.641 141.437,108.703 144.275,100.188 147.291,108.526 154.957,108.552 149.242,113.937 151.458,121.74 144.541,117.307 137.446,121.87 139.308,114.025 "
   id="polygon27" />
			</g>
			<g
   id="propeller_1_">
				<path
   fill="#ffffff"
   stroke="#cc0000"
   stroke-width="0.25"
   d="m 212.517,130.224 c -1.922,-19.533 -1.936,-45.996 5.617,-72.489 0,0 0.413,-1.655 1.183,-1.597 0.766,0.058 1.182,1.538 1.182,1.538 0,0 8.462,33.416 4.613,72.548"
   id="path27" />
				<path
   fill="#ffffff"
   stroke="#000066"
   stroke-width="0.5"
   d="m 212.694,131.997 c 1.023,9.147 2.525,17.357 3.697,22.684 -5.476,0.866 -9.668,5.596 -9.668,11.315 0,2.149 0.602,4.152 1.631,5.872 -48.307,15.788 -82.658,51.911 -82.658,51.911 0,0 -1.035,1.138 -0.678,1.818 0.359,0.684 1.982,0.155 1.982,0.155 41.716,-12.026 72.345,-39.15 84.054,-50.789 1.96,1.563 4.438,2.503 7.139,2.503 3.191,0 6.075,-1.307 8.155,-3.41 35.33,36.999 83.311,52.316 83.311,52.316 0,0 1.477,0.436 1.931,-0.182 0.462,-0.62 -0.721,-1.854 -0.721,-1.854 -28.98,-32.253 -66.689,-47.986 -82.306,-53.465 0.698,-1.482 1.1,-3.132 1.1,-4.877 0,-5.421 -3.763,-9.95 -8.817,-11.148 1.819,-7.439 3.436,-15.719 4.267,-22.939"
   id="path28" />
			</g>
		</g></g></svg>
