<?xml version="1.0" encoding="UTF-8" standalone="no"?>
<svg
   width="476px"
   height="674px"
   viewBox="0 0 476 674"
   enable-background="new 0 0 476 674"
   xml:space="preserve"
   version="1.1"
   id="svg33"
   sodipodi:docname="7.svg"
   inkscape:version="1.3.2 (091e20e, 2023-11-25, custom)"
   xmlns:inkscape="http://www.inkscape.org/namespaces/inkscape"
   xmlns:sodipodi="http://sodipodi.sourceforge.net/DTD/sodipodi-0.dtd"
   xmlns="http://www.w3.org/2000/svg"
   xmlns:svg="http://www.w3.org/2000/svg"><defs
   id="defs33" /><sodipodi:namedview
   id="namedview33"
   pagecolor="#505050"
   bordercolor="#eeeeee"
   borderopacity="1"
   inkscape:showpageshadow="0"
   inkscape:pageopacity="0"
   inkscape:pagecheckerboard="0"
   inkscape:deskcolor="#505050"
   inkscape:zoom="1.2062315"
   inkscape:cx="237.93112"
   inkscape:cy="337"
   inkscape:window-width="1920"
   inkscape:window-height="1009"
   inkscape:window-x="-8"
   inkscape:window-y="-8"
   inkscape:window-maximized="1"
   inkscape:current-layer="layer1" />
			
				
				
				
				
				
				
			
				
				
				
				
				
				
				
			
			
				
				
				
				
				
				
				
				
				
				
				
				
				
				
				
				
				
				
<g
   inkscape:groupmode="layer"
   id="layer1"
   inkscape:label="Layer 1"><path
     fill="#000066"
     d="M238.059,4.004c0,0,113.453,112.421,236.186,159.864v373.357c0,0-31.974,17.533-89.73,71.165     c-57.756,53.632-108.293,61.885-144.393,62.915c-36.099,1.03-86.637-6.19-144.393-60.853     C37.971,555.79,26.625,548.57,2.904,537.226V164.9C2.904,164.9,120.482,119.52,238.059,4.004z"
     id="path1" /><path
     fill="#FFFFFF"
     d="M238.316,421.711c0,0-90.503-93.598-215.815-148.519v-28.621c0,0,73.486,13.15,216.59,132.274      c0,0,110.616-102.88,211.949-130.728v29.395C451.04,275.513,363.63,304.134,238.316,421.711z"
     id="path2" /><path
     fill="#FFFFFF"
     d="M451.813,519.176c0,0-61.883,47.96-80.447,66.524s-58.015,56.468-133.049,56.468      c-75.032,0-111.388-37.129-123.765-47.186c-12.376-10.056-40.997-43.318-92.051-76.58v-38.676c0,0,65.75,42.544,102.88,80.446      h226.646c0,0,73.485-62.656,99.013-81.221L451.813,519.176z"
     id="path3" /><path
     fill="#FFFFFF"
     d="M451.813,453.426c0,0-75.806,54.921-94.371,73.485c-18.564,18.565-225.098,12.377-237.475,2.32      c-12.376-10.056-46.412-43.317-97.466-76.58v-38.676c0,0,68.071,42.544,105.201,80.447l224.325-3.095      c0,0,53.373-46.412,99.013-74.258L451.813,453.426z"
     id="path4" /><path
     fill="#FFFFFF"
     d="M451.04,389.223c0,0-82.769,54.147-105.201,78.9c-17.632,19.454-204.213,6.961-216.59-3.095      S71.234,417.07,22.501,388.449v-35.583c0,0,75.806,43.318,112.936,81.221l202.667-0.772c0,0,67.297-52.602,112.937-80.448      V389.223z"
     id="path5" /><path
     fill="#FFFFFF"
     d="M451.04,332.498c0,0-66.524,30.94-117.578,79.416c-19.039,18.079-185.648-0.258-198.025-10.314      c-12.376-10.056-73.228-54.662-112.936-71.68v-33.777c0,0,72.197,29.651,109.327,67.554l195.446,7.994      c0,0,73.228-52.601,123.767-75.548V332.498z"
     id="path6" /><path
     fill="#FFFFFF"
     d="M237.544,41.131c0,0,88.184,88.957,213.496,143.878v28.621c0,0-70.393-10.83-213.496-129.954      c0,0-113.709,103.653-215.043,131.501v-29.395C22.501,185.782,112.231,158.709,237.544,41.131z"
     id="path7" /><path
     fill="#FFFFFF"
     stroke="#000066"
     stroke-width="4"
     d="M134.921,338.169h207.308l24.753,32.488     c0,0-14.957,30.941-14.44,57.242c0.517,26.3,7.222,42.803,14.44,61.367s7.735,81.479-34.035,108.81     c-41.771,27.332-60.851,9.8-95.403,36.101c0,0-8.896-9.606-43.317-14.957c-38.123-5.924-75.292-27.847-85.605-62.914     c-10.314-35.067-3.609-72.712,3.61-91.277c7.22-18.564,15.987-63.944-5.672-96.433L134.921,338.169z"
     id="path8" /><path
     fill="#CC0000"
     d="M136.689,564.366c-4.677-5.795-8.19-12.126-10.019-18.89c-7.246-26.808-3.868-63.429,1.805-76.58      c2.543-5.896,6.467-13.21,8.251-26.042v-0.001L136.689,564.366z"
     id="path9" /><path
     fill="#CC0000"
     d="M300.005,593.626c5.604-2.029,11.823-4.845,18.973-8.963V442.727h-19.164L300.005,593.626z"
     id="path10" /><path
     fill="#CC0000"
     d="M267.518,601.558c5.74-1.504,9.835-2.231,15.715-3.396V442.727h-15.715V601.558z"
     id="path11" /><path
     fill="#CC0000"
     d="M251.661,606.198c-3.481,0.967-7.543,3.674-12.57,8.381c0,0-5.545-7.282-16.631-9.638l0.099-162.184      l29.554,0.097L251.661,606.198z"
     id="path12" /><path
     fill="#CC0000"
     d="M188.57,597.25c4.183,1.202,8.333,2.164,12.361,2.889c1.932,0.347,3.769,0.707,5.518,1.076      l-0.194-158.425h-18.023L188.57,597.25z"
     id="path13" /><path
     fill="#CC0000"
     d="M152.455,579.512c5.854,4.313,12.953,8.35,19.596,11.345V442.854h-19.854L152.455,579.512z"
     id="path14" /><path
     fill="#CC0000"
     d="M340.811,442.79c2.404,19.015,7.856,35.312,11.99,48.538c4.47,14.307,6.774,55.335-17.855,81.135      v-129.48L340.811,442.79z"
     id="path15" /><path
     fill="none"
     stroke="#000066"
     stroke-width="0.5"
     d="M136.211,442.598c0,17.726-15.471,31.458-13.15,71.424     c1.675,28.841,4.384,46.412,26.3,63.43c19.023,14.771,39.293,20.295,62.399,24.494c19.854,3.609,27.59,12.636,27.59,12.636     s5.93-7.735,20.627-11.604c11.686-3.076,54.664-8.767,72.712-28.105c18.426-19.743,22.69-37.388,22.69-62.656     s-11.345-39.967-14.696-69.104"
     id="path16" /><path
     fill="#000066"
     stroke="#CC0000"
     stroke-width="0.25"
     d="M340.142,439.019c-0.568-4.487-1.443-7.111-1.521-11.378     c-0.516-28.105,14.438-52.342,14.438-52.342l-15.905-21.482l-193.465-0.177l-17.018,20.111     c10.572,17.533,11.087,44.092,10.314,65.493L340.142,439.019z"
     id="path17" /><polygon
     fill="#FFFFFF"
     stroke="#CC0000"
     stroke-width="0.25"
     points="195.15,381.071 187.608,376.237 179.874,381.212       181.904,372.659 175.758,366.79 184.224,366.857 187.319,357.576 190.606,366.664 198.964,366.693 192.733,372.563 "
     id="polygon17" /><polygon
     fill="#FFFFFF"
     stroke="#CC0000"
     stroke-width="0.25"
     points="225.028,381.071 217.485,376.237 209.751,381.212       211.781,372.659 205.636,366.79 214.102,366.857 217.196,357.576 220.484,366.664 228.841,366.693 222.61,372.563 "
     id="polygon18" /><polygon
     fill="#FFFFFF"
     stroke="#CC0000"
     stroke-width="0.25"
     points="265.543,381.071 258,376.237 250.265,381.212       252.296,372.659 246.149,366.79 254.616,366.857 257.71,357.576 260.997,366.664 269.355,366.693 263.125,372.563 "
     id="polygon19" /><polygon
     fill="#FFFFFF"
     stroke="#CC0000"
     stroke-width="0.25"
     points="296.677,381.071 289.135,376.237 281.399,381.212       283.431,372.659 277.283,366.79 285.751,366.857 288.845,357.576 292.132,366.664 300.49,366.693 294.26,372.563 "
     id="polygon20" /><polygon
     fill="#FFFFFF"
     stroke="#CC0000"
     stroke-width="0.25"
     points="325.491,381.071 317.949,376.237 310.214,381.212       312.244,372.659 306.098,366.79 314.565,366.857 317.659,357.576 320.946,366.664 329.305,366.693 323.074,372.563 "
     id="polygon21" /><polygon
     fill="#FFFFFF"
     stroke="#CC0000"
     stroke-width="0.25"
     points="163.629,381.071 156.087,376.237 148.352,381.212       150.382,372.659 144.236,366.79 152.703,366.857 155.797,357.576 159.084,366.664 167.442,366.693 161.211,372.563 "
     id="polygon22" /><polygon
     fill="#FFFFFF"
     stroke="#CC0000"
     stroke-width="0.25"
     points="195.15,430.835 187.608,426 179.874,430.975       181.904,422.423 175.758,416.553 184.224,416.621 187.319,407.338 190.606,416.427 198.964,416.456 192.733,422.326 "
     id="polygon23" /><polygon
     fill="#FFFFFF"
     stroke="#CC0000"
     stroke-width="0.25"
     points="225.028,430.835 217.485,426 209.751,430.975       211.781,422.423 205.636,416.553 214.102,416.621 217.196,407.338 220.484,416.427 228.841,416.456 222.61,422.326 "
     id="polygon24" /><polygon
     fill="#FFFFFF"
     stroke="#CC0000"
     stroke-width="0.25"
     points="265.543,430.835 258,426 250.265,430.975       252.296,422.423 246.149,416.553 254.616,416.621 257.71,407.338 260.997,416.427 269.355,416.456 263.125,422.326 "
     id="polygon25" /><polygon
     fill="#FFFFFF"
     stroke="#CC0000"
     stroke-width="0.25"
     points="296.677,430.835 289.135,426 281.399,430.975       283.431,422.423 277.283,416.553 285.751,416.621 288.845,407.338 292.132,416.427 300.49,416.456 294.26,422.326 "
     id="polygon26" /><polygon
     fill="#FFFFFF"
     stroke="#CC0000"
     stroke-width="0.25"
     points="325.491,430.835 317.949,426 310.214,430.975       312.244,422.423 306.098,416.553 314.565,416.621 317.659,407.338 320.946,416.427 329.305,416.456 323.074,422.326 "
     id="polygon27" /><polygon
     fill="#FFFFFF"
     stroke="#CC0000"
     stroke-width="0.25"
     points="281.208,405.052 273.666,400.216 265.931,405.191       267.961,396.639 261.814,390.77 270.281,390.838 273.376,381.555 276.663,390.644 285.021,390.673 278.791,396.542 "
     id="polygon28" /><polygon
     fill="#FFFFFF"
     stroke="#CC0000"
     stroke-width="0.25"
     points="312.084,405.052 304.542,400.216 296.807,405.191       298.837,396.639 292.691,390.77 301.157,390.838 304.252,381.555 307.539,390.644 315.897,390.673 309.667,396.542 "
     id="polygon29" /><polygon
     fill="#FFFFFF"
     stroke="#CC0000"
     stroke-width="0.25"
     points="178.586,405.052 171.043,400.216 163.308,405.191       165.338,396.639 159.192,390.77 167.659,390.838 170.753,381.555 174.04,390.644 182.398,390.673 176.168,396.542 "
     id="polygon30" /><polygon
     fill="#FFFFFF"
     stroke="#CC0000"
     stroke-width="0.25"
     points="209.977,405.052 202.436,400.216 194.699,405.191       196.729,396.639 190.584,390.77 199.051,390.838 202.145,381.555 205.433,390.644 213.79,390.673 207.559,396.542 "
     id="polygon31" /><polygon
     fill="#FFFFFF"
     stroke="#CC0000"
     stroke-width="0.25"
     points="163.629,430.835 156.087,426 148.352,430.975       150.382,422.423 144.236,416.553 152.703,416.621 155.797,407.338 159.084,416.427 167.442,416.456 161.211,422.326 "
     id="polygon32" /><path
     fill="#FFFFFF"
     stroke="#CC0000"
     stroke-width="0.25"
     d="M230.194,440.082c-2.095-21.294-2.109-50.146,6.125-79.029      c0,0,0.451-1.803,1.289-1.74c0.836,0.064,1.289,1.678,1.289,1.678s9.226,36.431,5.028,79.092"
     id="path32" /><path
     fill="#FFFFFF"
     stroke="#000066"
     stroke-width="0.5"
     d="M230.389,442.016c1.115,9.974,2.753,18.925,4.03,24.73      c-5.971,0.944-10.541,6.102-10.541,12.336c0,2.343,0.657,4.528,1.778,6.403c-52.665,17.211-90.115,56.593-90.115,56.593      s-1.128,1.241-0.74,1.982c0.391,0.746,2.161,0.171,2.161,0.171c45.479-13.112,78.873-42.684,91.637-55.373      c2.138,1.704,4.839,2.729,7.784,2.729c3.479,0,6.623-1.424,8.892-3.717c38.517,40.338,90.826,57.036,90.826,57.036      s1.609,0.475,2.104-0.198c0.503-0.677-0.786-2.02-0.786-2.02c-31.595-35.163-72.705-52.316-89.731-58.29      c0.762-1.614,1.2-3.413,1.2-5.316c0-5.908-4.104-10.848-9.613-12.155c1.983-8.109,3.745-17.135,4.65-25.008"
     id="path33" /></g></svg>
