<?xml version="1.0" encoding="UTF-8" standalone="no"?>
<!-- Generator: Adobe Illustrator 13.0.2, SVG Export Plug-In . SVG Version: 6.00 Build 14948)  -->

<svg
   version="1.1"
   x="0px"
   y="0px"
   width="438px"
   height="756px"
   viewBox="0 0 438 756"
   enable-background="new 0 0 438 756"
   xml:space="preserve"
   id="svg35"
   sodipodi:docname="9.svg"
   inkscape:version="1.3.2 (091e20e, 2023-11-25, custom)"
   xmlns:inkscape="http://www.inkscape.org/namespaces/inkscape"
   xmlns:sodipodi="http://sodipodi.sourceforge.net/DTD/sodipodi-0.dtd"
   xmlns="http://www.w3.org/2000/svg"
   xmlns:svg="http://www.w3.org/2000/svg"><defs
   id="defs35">
	
	

		
		
	</defs><sodipodi:namedview
   id="namedview35"
   pagecolor="#505050"
   bordercolor="#eeeeee"
   borderopacity="1"
   inkscape:showpageshadow="0"
   inkscape:pageopacity="0"
   inkscape:pagecheckerboard="0"
   inkscape:deskcolor="#505050"
   inkscape:zoom="1.0753968"
   inkscape:cx="219.45387"
   inkscape:cy="378"
   inkscape:window-width="1920"
   inkscape:window-height="1009"
   inkscape:window-x="-8"
   inkscape:window-y="-8"
   inkscape:window-maximized="1"
   inkscape:current-layer="layer1" />


<g
   inkscape:groupmode="layer"
   id="layer1"
   inkscape:label="Layer 1"><g
     id="Layer_3">
			<path
   fill="#000066"
   d="m 218.729,6 c 0,0 111.631,122.038 216.641,170.285 v 455.04 c 0,0 -29.327,16.083 -82.304,65.276 -52.978,49.194 -99.332,56.764 -132.444,57.709 -33.111,0.944 -79.467,-5.678 -132.444,-55.817 C 35.2,648.354 24.792,641.731 3.034,631.325 V 177.232 c 0,0 119.199,-61.493 215.695,-171.232 z"
   id="path1" />
			<g
   id="bottom_5_lines">
				<path
   fill="#ffffff"
   d="m 218.967,525.37 c 0,0 -83.015,-85.853 -197.957,-136.229 V 362.89 c 0,0 67.404,12.062 198.666,121.328 0,0 101.462,-94.367 194.409,-119.91 v 26.961 c 0,10e-4 -80.177,26.253 -195.118,134.101 z"
   id="path2" />
				<path
   fill="#ffffff"
   d="m 414.795,614.771 c 0,0 -56.763,43.989 -73.79,61.019 -17.029,17.027 -53.215,51.795 -122.038,51.795 -68.824,0 -102.172,-34.058 -113.524,-43.281 C 94.091,675.081 67.839,644.571 21.01,614.062 v -35.477 c 0,0 60.309,39.023 94.366,73.791 h 207.889 c 0,0 67.405,-57.472 90.819,-74.501 z"
   id="path3" />
				<path
   fill="#ffffff"
   d="m 414.795,554.46 c 0,0 -69.534,50.376 -86.562,67.405 -17.029,17.028 -206.471,11.352 -217.824,2.129 C 99.056,614.77 67.838,584.261 21.01,553.75 v -35.476 c 0,0 62.438,39.024 96.495,73.79 l 205.761,-2.837 c 0,0 48.957,-42.572 90.819,-68.114 z"
   id="path4" />
				<path
   fill="#ffffff"
   d="m 414.085,495.57 c 0,0 -75.919,49.666 -96.494,72.371 -16.173,17.845 -187.314,6.386 -198.667,-2.839 C 107.572,555.878 65.71,521.113 21.01,494.86 v -32.638 c 0,0 69.533,39.732 103.59,74.5 l 185.894,-0.71 c 0,0 61.729,-48.247 103.591,-73.79 z"
   id="path5" />
				<path
   fill="#ffffff"
   d="m 414.085,443.539 c 0,0 -61.019,28.38 -107.847,72.844 C 288.773,532.965 135.952,516.146 124.6,506.922 113.248,497.699 57.432,456.783 21.01,441.174 v -30.982 c 0,0 66.222,27.198 100.279,61.965 l 179.272,7.331 c 0,0 67.168,-48.247 113.523,-69.296 v 33.347 z"
   id="path6" />
			</g>
			<g
   id="top_3_lines">
				<path
   fill="#ffffff"
   d="m 218.257,43.604 c 0,0 88.69,96.495 195.828,148.29 v 37.604 c 0,0 -100.752,-53.214 -195.828,-144.742 0,0 -124.166,118.49 -197.247,144.742 V 198.28 c 0,0 102.171,-51.795 197.247,-154.676 z"
   id="path7" />
				<path
   fill="#ffffff"
   d="m 218.257,108.881 c 0,0 88.69,96.495 195.828,148.29 v 32.638 c 0,0 -100.752,-48.248 -195.828,-139.776 0,0 -113.523,107.848 -197.247,139.776 V 258.59 c 0,0 102.171,-46.829 197.247,-149.709 z"
   id="path8" />
				<path
   fill="#ffffff"
   d="m 218.257,176.285 c 0,0 80.886,81.595 195.828,131.971 v 26.252 c 0,0 -64.566,-9.933 -195.828,-119.2 0,0 -104.299,95.076 -197.247,120.619 v -26.962 c 0,0.001 82.304,-24.832 197.247,-132.68 z"
   id="path9" />
			</g>
		</g><g
     id="Layer_2">
			<path
   fill="#ffffff"
   stroke="#000066"
   stroke-width="4"
   d="m 124.127,448.742 h 190.152 l 22.704,29.799 c 0,0 -13.719,28.381 -13.245,52.505 0.475,24.124 6.625,39.261 13.245,56.29 6.621,17.027 7.097,74.735 -31.218,99.806 -38.314,25.069 -55.816,8.987 -87.509,33.111 0,0 -8.16,-8.811 -39.733,-13.718 -34.967,-5.435 -69.061,-25.543 -78.521,-57.708 -9.459,-32.166 -3.31,-66.695 3.311,-83.725 6.622,-17.027 14.664,-58.653 -5.203,-88.452 z"
   id="path10" />
			<g
   id="stripes_1_">
				<path
   fill="#cc0000"
   d="m 125.749,656.22 c -4.291,-5.314 -7.513,-11.122 -9.19,-17.326 -6.646,-24.59 -3.547,-58.18 1.656,-70.243 2.333,-5.409 5.932,-12.116 7.568,-23.887 v -10e-4 z"
   id="path11" />
				<path
   fill="#cc0000"
   d="m 275.55,683.059 c 5.142,-1.861 10.843,-4.444 17.402,-8.221 V 544.646 h -17.578 z"
   id="path12" />
				<path
   fill="#cc0000"
   d="m 245.751,690.334 c 5.265,-1.379 9.02,-2.047 14.413,-3.113 V 544.646 h -14.413 z"
   id="path13" />
				<path
   fill="#cc0000"
   d="m 231.206,694.592 c -3.193,0.886 -6.919,3.37 -11.53,7.687 0,0 -5.086,-6.681 -15.255,-8.841 l 0.091,-148.763 27.108,0.089 z"
   id="path14" />
				<path
   fill="#cc0000"
   d="m 173.335,686.384 c 3.837,1.102 7.643,1.983 11.338,2.648 1.772,0.319 3.458,0.649 5.061,0.987 l -0.178,-145.314 h -16.532 z"
   id="path15" />
				<path
   fill="#cc0000"
   d="m 140.21,670.112 c 5.369,3.957 11.881,7.659 17.975,10.406 V 544.763 h -18.211 z"
   id="path16" />
				<path
   fill="#cc0000"
   d="m 312.979,544.705 c 2.204,17.44 7.206,32.39 10.997,44.522 4.101,13.121 6.214,50.756 -16.378,74.419 V 544.882 Z"
   id="path17" />
			</g>
			<path
   fill="none"
   stroke="#000066"
   stroke-width="0.5"
   d="m 125.31,544.528 c 0,16.258 -14.19,28.854 -12.062,65.513 1.536,26.455 4.021,42.572 24.124,58.182 17.449,13.548 36.041,18.615 57.235,22.468 18.21,3.31 25.307,11.589 25.307,11.589 0,0 5.438,-7.096 18.92,-10.643 10.719,-2.822 50.141,-8.042 66.695,-25.779 16.9,-18.11 20.813,-34.295 20.813,-57.473 0,-23.177 -10.405,-36.659 -13.48,-63.384"
   id="path18" />
			<path
   fill="#000066"
   stroke="#cc0000"
   stroke-width="0.25"
   d="m 312.364,541.245 c -0.521,-4.115 -1.323,-6.522 -1.396,-10.437 -0.472,-25.779 13.244,-48.01 13.244,-48.01 l -14.59,-19.705 -177.455,-0.161 -15.61,18.447 c 9.697,16.082 10.17,40.442 9.46,60.072 z"
   id="path19" />
			<g
   id="stars_1_">
				<polygon
   fill="#ffffff"
   stroke="#cc0000"
   stroke-width="0.25"
   points="161.584,474.994 169.35,475.056 172.188,466.542 175.203,474.879 182.87,474.905 177.155,480.289 179.372,488.094 172.454,483.659 165.359,488.223 167.221,480.378 "
   id="polygon19" />
				<polygon
   fill="#ffffff"
   stroke="#cc0000"
   stroke-width="0.25"
   points="188.989,474.994 196.755,475.056 199.593,466.542 202.609,474.879 210.275,474.905 204.56,480.289 206.777,488.094 199.859,483.659 192.765,488.223 194.627,480.378 "
   id="polygon20" />
				<polygon
   fill="#ffffff"
   stroke="#cc0000"
   stroke-width="0.25"
   points="226.15,474.994 233.916,475.056 236.754,466.542 239.77,474.879 247.436,474.905 241.721,480.289 243.938,488.094 237.021,483.659 229.926,488.223 231.787,480.378 "
   id="polygon21" />
				<polygon
   fill="#ffffff"
   stroke="#cc0000"
   stroke-width="0.25"
   points="254.709,474.994 262.475,475.056 265.313,466.542 268.328,474.879 275.995,474.905 270.279,480.289 272.496,488.094 265.579,483.659 258.483,488.223 260.346,480.378 "
   id="polygon22" />
				<polygon
   fill="#ffffff"
   stroke="#cc0000"
   stroke-width="0.25"
   points="281.139,474.994 288.904,475.056 291.742,466.542 294.758,474.879 302.424,474.905 296.709,480.289 298.926,488.094 292.008,483.659 284.913,488.223 286.775,480.378 "
   id="polygon23" />
				<polygon
   fill="#ffffff"
   stroke="#cc0000"
   stroke-width="0.25"
   points="132.671,474.994 140.437,475.056 143.275,466.542 146.291,474.879 153.957,474.905 148.242,480.289 150.458,488.094 143.541,483.659 136.446,488.223 138.308,480.378 "
   id="polygon24" />
				<polygon
   fill="#ffffff"
   stroke="#cc0000"
   stroke-width="0.25"
   points="161.584,520.639 169.35,520.701 172.188,512.187 175.203,520.524 182.87,520.55 177.155,525.935 179.372,533.738 172.454,529.305 165.359,533.868 167.221,526.023 "
   id="polygon25" />
				<polygon
   fill="#ffffff"
   stroke="#cc0000"
   stroke-width="0.25"
   points="188.989,520.639 196.755,520.701 199.593,512.187 202.609,520.524 210.275,520.55 204.56,525.935 206.777,533.738 199.859,529.305 192.765,533.868 194.627,526.023 "
   id="polygon26" />
				<polygon
   fill="#ffffff"
   stroke="#cc0000"
   stroke-width="0.25"
   points="226.15,520.639 233.916,520.701 236.754,512.187 239.77,520.524 247.436,520.55 241.721,525.935 243.938,533.738 237.021,529.305 229.926,533.868 231.787,526.023 "
   id="polygon27" />
				<polygon
   fill="#ffffff"
   stroke="#cc0000"
   stroke-width="0.25"
   points="254.709,520.639 262.475,520.701 265.313,512.187 268.328,520.524 275.995,520.55 270.279,525.935 272.496,533.738 265.579,529.305 258.483,533.868 260.346,526.023 "
   id="polygon28" />
				<polygon
   fill="#ffffff"
   stroke="#cc0000"
   stroke-width="0.25"
   points="281.139,520.639 288.904,520.701 291.742,512.187 294.758,520.524 302.424,520.55 296.709,525.935 298.926,533.738 292.008,529.305 284.913,533.868 286.775,526.023 "
   id="polygon29" />
				<polygon
   fill="#ffffff"
   stroke="#cc0000"
   stroke-width="0.25"
   points="240.52,496.989 248.285,497.052 251.124,488.537 254.139,496.874 261.806,496.9 256.09,502.284 258.308,510.089 251.39,505.654 244.294,510.218 246.157,502.373 "
   id="polygon30" />
				<polygon
   fill="#ffffff"
   stroke="#cc0000"
   stroke-width="0.25"
   points="268.841,496.989 276.606,497.052 279.445,488.537 282.46,496.874 290.126,496.9 284.411,502.284 286.629,510.089 279.711,505.654 272.615,510.218 274.478,502.373 "
   id="polygon31" />
				<polygon
   fill="#ffffff"
   stroke="#cc0000"
   stroke-width="0.25"
   points="146.389,496.989 154.155,497.052 156.994,488.537 160.009,496.874 167.675,496.9 161.96,502.284 164.177,510.089 157.26,505.654 150.164,510.218 152.027,502.373 "
   id="polygon32" />
				<polygon
   fill="#ffffff"
   stroke="#cc0000"
   stroke-width="0.25"
   points="175.184,496.989 182.949,497.052 185.787,488.537 188.803,496.874 196.469,496.9 190.754,502.284 192.971,510.089 186.054,505.654 178.958,510.218 180.821,502.373 "
   id="polygon33" />
				<polygon
   fill="#ffffff"
   stroke="#cc0000"
   stroke-width="0.25"
   points="132.671,520.639 140.437,520.701 143.275,512.187 146.291,520.524 153.957,520.55 148.242,525.935 150.458,533.738 143.541,529.305 136.446,533.868 138.308,526.023 "
   id="polygon34" />
			</g>
			<g
   id="propeller_1_">
				<path
   fill="#ffffff"
   stroke="#cc0000"
   stroke-width="0.25"
   d="m 211.517,542.222 c -1.922,-19.533 -1.936,-45.996 5.617,-72.489 0,0 0.413,-1.655 1.183,-1.597 0.766,0.058 1.182,1.538 1.182,1.538 0,0 8.462,33.416 4.613,72.548"
   id="path34" />
				<path
   fill="#ffffff"
   stroke="#000066"
   stroke-width="0.5"
   d="m 211.694,543.995 c 1.023,9.147 2.525,17.357 3.697,22.684 -5.477,0.866 -9.669,5.596 -9.669,11.315 0,2.149 0.602,4.152 1.631,5.872 -48.307,15.788 -82.658,51.911 -82.658,51.911 0,0 -1.035,1.138 -0.678,1.818 0.359,0.684 1.982,0.155 1.982,0.155 41.716,-12.026 72.345,-39.15 84.054,-50.789 1.96,1.563 4.438,2.503 7.139,2.503 3.191,0 6.075,-1.307 8.155,-3.41 35.33,36.999 83.311,52.316 83.311,52.316 0,0 1.477,0.436 1.931,-0.182 0.462,-0.62 -0.721,-1.854 -0.721,-1.854 -28.98,-32.253 -66.689,-47.986 -82.306,-53.465 0.698,-1.482 1.1,-3.132 1.1,-4.877 0,-5.421 -3.763,-9.95 -8.817,-11.148 1.819,-7.439 3.436,-15.719 4.267,-22.939"
   id="path35" />
			</g>
		</g></g></svg>
