<?xml version="1.0" encoding="UTF-8" standalone="no"?>
<svg
   width="111"
   height="31"
   version="1.1"
   id="svg5"
   sodipodi:docname="1.svg"
   xml:space="preserve"
   inkscape:version="1.3.2 (091e20e, 2023-11-25, custom)"
   xmlns:inkscape="http://www.inkscape.org/namespaces/inkscape"
   xmlns:sodipodi="http://sodipodi.sourceforge.net/DTD/sodipodi-0.dtd"
   xmlns="http://www.w3.org/2000/svg"
   xmlns:svg="http://www.w3.org/2000/svg"
   xmlns:rdf="http://www.w3.org/1999/02/22-rdf-syntax-ns#"
   xmlns:cc="http://creativecommons.org/ns#"
   xmlns:dc="http://purl.org/dc/elements/1.1/"><title
     id="title12">USAF Medal of Honor</title><defs
     id="defs5"><inkscape:path-effect
       effect="mirror_symmetry"
       start_point="51.744261,2.3142322"
       end_point="51.076951,60.442666"
       center_point="51.410606,31.378449"
       id="path-effect12"
       is_visible="true"
       lpeversion="1.2"
       lpesatellites=""
       mode="vertical"
       discard_orig_path="false"
       fuse_paths="false"
       oposite_fuse="false"
       split_items="false"
       split_open="false"
       link_styles="false" /><inkscape:path-effect
       effect="mirror_symmetry"
       start_point="93.746082,-17.429163"
       end_point="93.078772,40.699271"
       center_point="93.412427,11.635054"
       id="path-effect11"
       is_visible="true"
       lpeversion="1.2"
       lpesatellites=""
       mode="vertical"
       discard_orig_path="false"
       fuse_paths="false"
       oposite_fuse="false"
       split_items="false"
       split_open="false"
       link_styles="false" /></defs><sodipodi:namedview
     id="namedview5"
     pagecolor="#505050"
     bordercolor="#eeeeee"
     borderopacity="1"
     inkscape:showpageshadow="0"
     inkscape:pageopacity="0"
     inkscape:pagecheckerboard="0"
     inkscape:deskcolor="#505050"
     inkscape:zoom="5.1344871"
     inkscape:cx="35.446579"
     inkscape:cy="18.599716"
     inkscape:window-width="1920"
     inkscape:window-height="1009"
     inkscape:window-x="-8"
     inkscape:window-y="-8"
     inkscape:window-maximized="1"
     inkscape:current-layer="svg5" /><g
     id="g1"><!-- Solid background color --><rect
       fill="#1e3581"
       width="111"
       height="31"
       id="rect1"
       style="fill:#3d90cc;fill-opacity:1" /><!-- Dark Blue background --></g><g
     id="g3"><path
       id="path10"
       style="fill:#ffffff;stroke-width:7.0875"
       inkscape:transform-center-x="-0.0079791458"
       inkscape:transform-center-y="-0.40515295"
       d="M -34.298044 -8.7604468 L -36.40271 -3.4625476 L -42.103938 -3.2972403 L -37.713726 0.34271122 L -39.318588 5.8148373 L -34.499938 2.7640935 L -29.793552 5.982789 L -31.202573 0.45774968 L -26.69026 -3.0287222 L -32.381771 -3.3907478 L -34.298044 -8.7604468 z M 51.825208 -7.771758 L 49.786169 -2.4474657 L 44.087847 -2.2161946 L 48.518933 1.3729469 L 46.983445 6.8641834 L 51.762483 3.75438 L 56.509827 6.9149407 L 55.031011 1.4074142 L 59.503628 -2.1307928 L 53.807697 -2.4269386 L 51.825208 -7.771758 z M -76.302694 10.983371 L -78.407361 16.28127 L -84.104926 16.446619 L -79.714714 20.086571 L -81.319576 25.558697 L -76.500926 22.507953 L -71.794539 25.726649 L -73.207224 20.201567 L -68.691248 16.715137 L -74.382759 16.353112 L -76.302694 10.983371 z M 8.5643806 11.957639 L 6.459714 17.255538 L 0.75848638 17.420845 L 5.1486982 21.060797 L 3.5438362 26.532923 L 8.3624863 23.482179 L 13.072535 26.700917 L 11.659851 21.175835 L 16.175827 17.689405 L 10.484316 17.32738 L 8.5643806 11.957639 z M 93.365533 12.93115 L 91.322832 18.2554 L 85.62451 18.486671 L 90.059258 22.075855 L 88.520108 27.567049 L 93.299145 24.457246 L 98.04649 27.617807 L 96.567673 22.11028 L 101.04029 18.572073 L 95.348022 18.275969 L 93.365533 12.93115 z "
       transform="matrix(0.53323155,-0.00612146,0.00612146,0.53323155,50.877582,9.8676425)"
       inkscape:label="stars" /><!-- Vertical stripes on the ribbon --><!-- White stripe --><!-- Red on top of the white stripe --></g><g
     id="g5"
     style="display:inline"><!-- This creates the ribbon knit effect --><path
       stroke="#000000"
       stroke-width="105"
       stroke-dasharray="1"
       opacity="0.25"
       d="M 55.5,0 V 31"
       id="path3" /><path
       stroke="#000000"
       stroke-width="3"
       stroke-dasharray="1"
       stroke-dashoffset="1"
       opacity="0.25"
       d="M 1.5,0 V 31"
       id="path4" /><path
       stroke="#000000"
       stroke-width="3"
       stroke-dasharray="1"
       stroke-dashoffset="1"
       opacity="0.25"
       d="M 109.5,0 V 31"
       id="path5" /></g><metadata
     id="metadata12"><rdf:RDF><cc:Work
         rdf:about=""><dc:title>USAF Medal of Honor</dc:title></cc:Work></rdf:RDF></metadata></svg>
