<?xml version="1.0" encoding="UTF-8" standalone="no"?>
<svg
   sodipodi:docname="87.svg"
   inkscape:version="1.3.2 (091e20e, 2023-11-25, custom)"
   id="svg2"
   viewBox="0 0 35.391304 9.789474"
   height="31.000002"
   width="111"
   version="1.0"
   xmlns:inkscape="http://www.inkscape.org/namespaces/inkscape"
   xmlns:sodipodi="http://sodipodi.sourceforge.net/DTD/sodipodi-0.dtd"
   xmlns:xlink="http://www.w3.org/1999/xlink"
   xmlns="http://www.w3.org/2000/svg"
   xmlns:svg="http://www.w3.org/2000/svg"
   xmlns:rdf="http://www.w3.org/1999/02/22-rdf-syntax-ns#"
   xmlns:cc="http://creativecommons.org/ns#"
   xmlns:dc="http://purl.org/dc/elements/1.1/">
  <title
     id="title2">USAF Republic of Vietnam Campaign Medal</title>
  <metadata
     id="metadata16">
    <rdf:RDF>
      <cc:Work
         rdf:about="">
        <dc:format>image/svg+xml</dc:format>
        <dc:type
           rdf:resource="http://purl.org/dc/dcmitype/StillImage" />
        <dc:title>USAF Republic of Vietnam Campaign Medal</dc:title>
      </cc:Work>
    </rdf:RDF>
  </metadata>
  <defs
     id="defs14">
    <linearGradient
       id="linearGradient3783">
      <stop
         id="stop3785"
         offset="0"
         style="stop-color:#bcbcbc;stop-opacity:1;" />
      <stop
         style="stop-color:#d1d1d1;stop-opacity:1;"
         offset="0.50794017"
         id="stop3795" />
      <stop
         id="stop3787"
         offset="1"
         style="stop-color:#afafaf;stop-opacity:1;" />
    </linearGradient>
    <inkscape:path-effect
       lpeversion="0"
       is_visible="true"
       id="path-effect3075"
       effect="spiro" />
    <linearGradient
       id="linearGradient3948">
      <stop
         id="stop3950"
         offset="0"
         style="stop-color:#dbd5d5;stop-opacity:1;" />
      <stop
         id="stop3952"
         offset="1"
         style="stop-color:#dbd5d5;stop-opacity:1;" />
    </linearGradient>
    <linearGradient
       id="linearGradient4111"
       inkscape:swatch="gradient">
      <stop
         id="stop4113"
         offset="0"
         style="stop-color:#000000;stop-opacity:1;" />
      <stop
         id="stop4115"
         offset="1"
         style="stop-color:#000000;stop-opacity:0;" />
    </linearGradient>
    <inkscape:path-effect
       lpeversion="0"
       is_visible="true"
       id="path-effect4010"
       effect="spiro" />
    <inkscape:path-effect
       lpeversion="0"
       is_visible="true"
       id="path-effect4006"
       effect="spiro" />
    <inkscape:path-effect
       lpeversion="0"
       is_visible="true"
       id="path-effect3075-1"
       effect="spiro" />
    <inkscape:path-effect
       lpeversion="0"
       is_visible="true"
       id="path-effect3075-1-7"
       effect="spiro" />
    <inkscape:path-effect
       lpeversion="0"
       is_visible="true"
       id="path-effect3075-1-7-4"
       effect="spiro" />
    <linearGradient
       gradientTransform="matrix(0.12918307,0,0,0.12918307,0,-8.93e-6)"
       gradientUnits="userSpaceOnUse"
       y2="44.112473"
       x2="235.56853"
       y1="44.112473"
       x1="90.924232"
       id="linearGradient3793"
       xlink:href="#linearGradient3783"
       inkscape:collect="always" />
  </defs>
  <sodipodi:namedview
     inkscape:document-rotation="0"
     inkscape:guide-bbox="true"
     showguides="true"
     inkscape:current-layer="svg2"
     inkscape:window-maximized="1"
     inkscape:window-y="-8"
     inkscape:window-x="-8"
     inkscape:cy="19.133318"
     inkscape:cx="35.344457"
     inkscape:zoom="7.1864168"
     fit-margin-bottom="0"
     fit-margin-right="0"
     fit-margin-left="0"
     fit-margin-top="0"
     showgrid="false"
     id="namedview12"
     inkscape:window-height="1009"
     inkscape:window-width="1920"
     inkscape:pageshadow="2"
     inkscape:pageopacity="0"
     guidetolerance="10"
     gridtolerance="10"
     objecttolerance="10"
     borderopacity="1"
     bordercolor="#666666"
     pagecolor="#ffffff"
     inkscape:showpageshadow="0"
     inkscape:pagecheckerboard="0"
     inkscape:deskcolor="#505050" />
  <g
     id="g2">
    <path
       inkscape:connector-curvature="0"
       id="path6"
       d="M 0,-0.05505925 V 9.8289959 h 35.391303 v -9.88405515 z"
       style="fill:#4a7729;fill-opacity:1;stroke-width:0.129183" />
    <path
       inkscape:connector-curvature="0"
       id="rect3118"
       d="M 1.6178881,-0.05505925 H 6.4715527 V 9.8289959 H 1.6178881 Z"
       style="display:inline;fill:#ffffff;fill-rule:evenodd;stroke:none;stroke-width:0.129183" />
    <path
       id="rect3118-1"
       d="m 14.459876,-0.05505925 h 6.471553 V 9.8289959 h -6.471553 z"
       style="display:inline;fill:#ffffff;fill-rule:evenodd;stroke:none;stroke-width:0.129183"
       inkscape:connector-curvature="0" />
    <path
       inkscape:connector-curvature="0"
       id="rect3118-17"
       d="M 33.773413,-0.05505925 H 28.919751 V 9.8289959 h 4.853662 z"
       style="display:inline;fill:#ffffff;fill-rule:evenodd;stroke:none;stroke-width:0.129183" />
  </g>
  <g
     id="g5"
     style="display:inline"
     transform="matrix(0.31884058,0,0,0.31884058,0,-0.05505839)">
    <!-- This creates the ribbon knit effect -->
    <path
       stroke="#000000"
       stroke-width="105"
       stroke-dasharray="1"
       opacity="0.25"
       d="M 55.5,0 V 31"
       id="path3" />
    <path
       stroke="#000000"
       stroke-width="3"
       stroke-dasharray="1"
       stroke-dashoffset="1"
       opacity="0.25"
       d="M 1.5,0 V 31"
       id="path4" />
    <path
       stroke="#000000"
       stroke-width="3"
       stroke-dasharray="1"
       stroke-dashoffset="1"
       opacity="0.25"
       d="M 109.5,0 V 31"
       id="path5" />
  </g>
  <g
     id="g1"
     style="display:inline">
    <g
       id="g1458"
       style="stroke-width:1.1779"
       transform="matrix(0.83910712,0,0,0.85893941,0,-0.00776706)">
      <path
         style="fill:url(#linearGradient3793);fill-opacity:1;stroke:none;stroke-width:0.152165"
         d="m 13.597619,4.7622895 1.154044,2.1434479 -2.578692,1.8765541 5.332478,-0.024952 0.477537,-1.1259348 8.284514,0.1849607 0.406626,-0.9356038 2.08524,-0.033269 L 28.574901,4.78517 30.004365,2.6267074 24.961847,2.6148252 24.567903,3.6173868 17.375565,3.570216 16.801527,4.7732956 Z"
         id="path3073"
         inkscape:path-effect="#path-effect3075-1-7-4"
         inkscape:original-d="m 13.597619,4.7622895 c 0,0.05838 1.154044,2.1434479 1.154044,2.1434479 l -2.578692,1.8765541 c 1.6693,-0.3375235 3.735951,0.6308898 5.332478,-0.024952 L 17.982986,7.6314047 26.2675,7.8163654 26.674126,6.8807616 28.759366,6.8474925 28.574901,4.78517 30.004365,2.6267074 24.961847,2.6148252 24.567903,3.6173868 17.375565,3.570216 16.801527,4.7732956 Z"
         inkscape:connector-curvature="0"
         sodipodi:nodetypes="ccccccccccccccc" />
      <path
         style="display:inline;fill:#7e7e7e;stroke-width:0.0596736"
         d="m 15.921548,8.9476961 c -0.0026,-0.0026 -0.833456,-0.00475 -1.846354,-0.00477 -1.190113,-2.43e-5 -1.845105,-0.00566 -1.851447,-0.015941 -0.0054,-0.00875 -0.02405,-0.015904 -0.04146,-0.015904 -0.03929,0 -0.158472,-0.073868 -0.170708,-0.1058029 -0.02399,-0.062621 0.04746,-0.1649895 0.153282,-0.2196105 0.0236,-0.012181 0.05174,-0.029422 0.06252,-0.038313 0.01079,-0.00889 0.03045,-0.025259 0.0437,-0.036373 0.01325,-0.011114 0.02834,-0.020207 0.03355,-0.020207 0.0052,0 0.02904,-0.018186 0.05297,-0.040414 0.02393,-0.022227 0.05267,-0.040414 0.06386,-0.040414 0.01119,0 0.02034,-0.00727 0.02034,-0.016166 0,-0.00889 0.0098,-0.016166 0.02171,-0.016166 0.01194,0 0.03516,-0.014888 0.0516,-0.033086 0.01644,-0.018197 0.0557,-0.045084 0.08724,-0.059749 0.03154,-0.014665 0.06315,-0.036149 0.07025,-0.047742 0.0071,-0.011594 0.01997,-0.02108 0.02859,-0.02108 0.01856,0 0.1388,-0.076812 0.18347,-0.1172005 0.01721,-0.015559 0.039,-0.028429 0.04842,-0.0286 0.0094,-1.521e-4 0.04618,-0.025711 0.08169,-0.056757 0.03551,-0.031046 0.07727,-0.060495 0.09281,-0.065442 0.01553,-0.00495 0.02824,-0.015779 0.02824,-0.024071 0,-0.00829 0.0109,-0.015077 0.02421,-0.015077 0.01332,0 0.02421,-0.00562 0.02421,-0.012489 0,-0.00687 0.02542,-0.026201 0.05649,-0.04296 0.03107,-0.016759 0.05649,-0.036599 0.05649,-0.04409 0,-0.00749 0.01002,-0.01362 0.02226,-0.01362 0.01225,0 0.0522,-0.029098 0.08879,-0.064662 0.03659,-0.035564 0.07196,-0.06468 0.07861,-0.0647 0.0066,-1.62e-5 0.03751,-0.02226 0.06858,-0.049419 0.03107,-0.02716 0.07712,-0.060408 0.102345,-0.073884 0.03811,-0.020364 0.286033,-0.1916047 0.341504,-0.2358775 0.117219,-0.093554 0.185383,-0.1419154 0.200025,-0.1419154 0.0098,0 0.01786,-0.00727 0.01786,-0.016166 0,-0.00889 0.0076,-0.016166 0.01682,-0.016166 0.01583,0 0.03409,-0.01265 0.0875,-0.060622 0.01237,-0.011114 0.03028,-0.020207 0.03979,-0.020207 0.0095,0 0.01729,-0.00562 0.01729,-0.012489 0,-0.00687 0.02542,-0.026201 0.05649,-0.04296 0.03107,-0.016759 0.05649,-0.036599 0.05649,-0.04409 0,-0.00749 0.0091,-0.013862 0.02018,-0.014158 0.04609,-0.00123 0.123509,-0.096456 0.07841,-0.096456 -0.0079,0 -0.01853,-0.016512 -0.02359,-0.036695 -0.0051,-0.020182 -0.024,-0.052613 -0.0421,-0.072069 -0.0181,-0.019456 -0.0329,-0.043303 -0.0329,-0.052993 0,-0.00969 -0.02542,-0.05742 -0.05649,-0.1060666 -0.03107,-0.048646 -0.05649,-0.093893 -0.05649,-0.1005472 0,-0.00665 -0.01816,-0.038863 -0.04035,-0.071574 -0.02219,-0.032711 -0.04035,-0.070772 -0.04035,-0.084581 0,-0.013808 -0.0066,-0.025106 -0.01456,-0.025106 -0.008,0 -0.02168,-0.020445 -0.03037,-0.045433 -0.0087,-0.024989 -0.02576,-0.055905 -0.03792,-0.068704 -0.02645,-0.027834 -0.110823,-0.156306 -0.110823,-0.1687359 0,-0.00481 -0.01952,-0.039523 -0.04339,-0.077133 -0.04212,-0.066378 -0.08667,-0.147707 -0.218993,-0.399778 -0.035,-0.066683 -0.06936,-0.1248792 -0.07635,-0.1293252 -0.01676,-0.010668 -0.06477,-0.092589 -0.145573,-0.2484261 -0.03627,-0.069952 -0.07752,-0.1387709 -0.09165,-0.1529323 -0.01414,-0.014161 -0.03524,-0.048597 -0.04689,-0.076523 -0.02732,-0.065486 -0.132274,-0.1705905 -0.184154,-0.1844152 -0.04964,-0.013228 -0.06307,-0.07278 -0.02115,-0.093759 0.01607,-0.00804 0.231382,-0.015427 0.478464,-0.016407 0.305982,-0.00122 0.456201,-0.00757 0.471069,-0.019926 0.02201,-0.018301 0.437908,-0.014352 0.612989,0.00582 0.04439,0.00511 0.496192,0.012539 1.004015,0.0165 0.809346,0.00631 0.925809,0.00419 0.943526,-0.01719 0.01825,-0.022028 0.08303,-0.1904456 0.104462,-0.2715895 0.01074,-0.040681 0.03452,-0.099888 0.06383,-0.1589251 0.01249,-0.025171 0.02272,-0.056187 0.02272,-0.068923 0,-0.012737 0.0064,-0.035789 0.01418,-0.051228 0.06206,-0.1228558 0.13108,-0.3194636 0.13108,-0.3733996 0,-0.019738 0.0228,-0.079772 0.05067,-0.1334083 l 0.05067,-0.097521 1.29298,0.011562 c 0.711139,0.00636 1.906702,0.012725 2.656808,0.014145 0.750105,0.00142 1.779062,0.00413 2.286571,0.00603 0.948315,0.00354 0.992263,9.481e-4 1.011691,-0.059615 0.0046,-0.014476 0.01942,-0.044506 0.03285,-0.066734 0.01342,-0.022227 0.03627,-0.069512 0.05077,-0.1050763 0.0145,-0.035564 0.03302,-0.077294 0.04115,-0.092733 0.0081,-0.015439 0.01478,-0.035245 0.01478,-0.044013 0,-0.00877 0.01903,-0.057971 0.04229,-0.1093373 0.07682,-0.1696627 0.08683,-0.1950407 0.08683,-0.2201672 0,-0.013691 0.0073,-0.029389 0.01614,-0.034883 0.0089,-0.0055 0.01649,-0.033204 0.01691,-0.061575 4.25e-4,-0.028371 0.01456,-0.077045 0.0314,-0.1081635 0.01685,-0.031119 0.03787,-0.072325 0.04672,-0.09157 0.01672,-0.036358 0.07133,-0.062747 0.09698,-0.046869 0.0081,0.00503 1.160885,0.0092 2.5617,0.00927 1.879896,1.014e-4 2.557886,0.00498 2.588749,0.018663 0.04238,0.018789 0.08733,0.088249 0.06575,0.1016059 -0.0065,0.00401 -0.02122,0.035987 -0.03278,0.07107 -0.01156,0.035083 -0.03826,0.082415 -0.05934,0.1051818 -0.02108,0.022767 -0.03832,0.048044 -0.03832,0.056172 0,0.00813 -0.02907,0.043 -0.06459,0.077492 -0.03553,0.034493 -0.08245,0.099226 -0.104274,0.1438522 -0.02182,0.044626 -0.05449,0.097062 -0.0726,0.1165247 -0.0181,0.019463 -0.03298,0.044784 -0.03306,0.05627 0,0.011485 -0.04366,0.065989 -0.09684,0.1211197 -0.05318,0.05513 -0.0967,0.1061264 -0.0967,0.1133244 0,0.0072 -0.01659,0.0312 -0.03686,0.053337 -0.02027,0.022137 -0.05045,0.069347 -0.06707,0.104911 -0.01662,0.035564 -0.06093,0.09996 -0.09848,0.1431008 -0.03755,0.043141 -0.07804,0.0977 -0.08997,0.121242 -0.02162,0.042672 -0.09428,0.1486977 -0.112413,0.1640465 -0.02563,0.021691 -0.176244,0.2412072 -0.176244,0.2568663 0,0.00987 -0.0056,0.017949 -0.01247,0.017949 -0.0069,0 -0.02542,0.024084 -0.04125,0.05352 -0.02492,0.046355 -0.04621,0.075428 -0.12153,0.1659569 -0.008,0.00957 -0.01898,0.031398 -0.02448,0.048497 -0.0055,0.017099 -0.03,0.052913 -0.05443,0.079586 -0.07258,0.079228 -0.10375,0.1610445 -0.08154,0.2140329 0.0176,0.041996 0.03258,0.2134199 0.05471,0.6263133 0.0052,0.097656 0.01726,0.1920468 0.02672,0.2097577 0.0186,0.034806 0.04181,0.300187 0.0545,0.623038 0.0044,0.1111387 0.01479,0.208981 0.02316,0.2174273 0.0084,0.00845 0.01553,0.048457 0.01592,0.088911 4.05e-4,0.040454 0.0068,0.1050743 0.01422,0.1435997 0.0081,0.042157 0.0071,0.091054 -0.0027,0.1228091 -0.01422,0.046398 -0.02772,0.05623 -0.111959,0.081503 -0.08378,0.025137 -0.107778,0.026192 -0.191403,0.00842 -0.05882,-0.012502 -0.125236,-0.015694 -0.172602,-0.00829 -0.04235,0.00662 -0.436511,0.016671 -0.875922,0.022346 l -0.798929,0.010319 -0.03565,0.072745 c -0.01961,0.04001 -0.03595,0.094933 -0.03631,0.1220506 -3.55e-4,0.027118 -0.0068,0.056216 -0.01427,0.064662 -0.0075,0.00845 -0.02658,0.059005 -0.04242,0.112351 -0.01585,0.053347 -0.03514,0.1039046 -0.04288,0.1123515 -0.0077,0.00845 -0.01406,0.02778 -0.01406,0.042963 0,0.025304 -0.07146,0.1784512 -0.101019,0.2164949 -0.05128,0.065995 -0.07593,0.087431 -0.129901,0.1129336 -0.05132,0.024249 -0.07128,0.026029 -0.12105,0.010796 -0.04005,-0.012257 -0.387882,-0.021181 -1.060279,-0.027201 -0.550373,-0.00493 -1.026099,-0.00982 -1.057168,-0.010861 -0.03107,-0.00104 -0.107331,-3.042e-4 -0.16947,0.00162 -0.06214,0.00194 -0.149295,3.549e-4 -0.19368,-0.00347 -0.04438,-0.00385 -0.781578,-0.011837 -1.638207,-0.01775 -1.049698,-0.00725 -1.580125,-0.016571 -1.626876,-0.028602 -0.05341,-0.013744 -0.07821,-0.013114 -0.10778,0.00274 -0.02336,0.012521 -0.05626,0.016062 -0.08396,0.00904 -0.08772,-0.022254 -0.474711,-0.027743 -0.499562,-0.00709 -0.01781,0.014807 -0.03154,0.014892 -0.05898,3.549e-4 -0.02631,-0.01393 -0.255426,-0.017779 -0.866737,-0.014561 l -0.830971,0.00438 -0.03569,0.075299 c -0.01963,0.041414 -0.04334,0.080035 -0.05269,0.085824 -0.0094,0.00579 -0.017,0.030801 -0.017,0.055583 0,0.046606 -0.03904,0.1393038 -0.06558,0.1557361 -0.0083,0.00515 -0.01512,0.030323 -0.01512,0.055947 0,0.025624 -0.0073,0.051085 -0.01614,0.05658 -0.0089,0.00549 -0.01614,0.027748 -0.01614,0.049451 0,0.021703 -0.0067,0.03946 -0.01486,0.03946 -0.0082,0 -0.01963,0.02174 -0.02545,0.048311 -0.0058,0.026571 -0.0173,0.052462 -0.02549,0.057534 -0.0082,0.00507 -0.015,0.025161 -0.01513,0.044641 -2.69e-4,0.040719 -0.03414,0.1428635 -0.07046,0.2124855 -0.03632,0.069626 -0.154585,0.1866597 -0.188619,0.1866597 -0.01611,0 -0.03379,0.00728 -0.03928,0.016173 -0.0063,0.010289 -0.222492,0.016367 -0.594097,0.016706 -0.321264,3.042e-4 -0.640802,0.00232 -0.710083,0.0045 -0.06928,0.00218 -0.128092,0.00184 -0.130689,-7.656e-4 z M 16.626514,8.676423 c 0.140047,-0.00504 0.265854,-0.013479 0.279571,-0.018752 0.01971,-0.00758 0.01217,-0.022686 -0.03598,-0.072074 -0.03351,-0.034369 -0.06737,-0.062489 -0.07525,-0.062489 -0.0079,0 -0.04403,-0.025461 -0.08033,-0.05658 l -0.066,-0.05658 h -0.351221 c -0.235502,0 -0.354795,0.00579 -0.362066,0.017574 -0.006,0.00967 -0.02637,0.013049 -0.04534,0.00752 -0.06385,-0.018612 -0.359444,-0.026547 -0.400896,-0.010762 -0.02689,0.010238 -0.04665,0.01005 -0.05723,-5.476e-4 -0.01299,-0.013008 -0.17024,-0.012528 -0.334949,0.00102 -0.0089,7.3e-4 -0.07522,-0.00296 -0.147438,-0.00821 -0.08457,-0.00614 -0.135034,-0.00348 -0.141796,0.00748 -0.0071,0.011531 -0.02395,0.011891 -0.05224,0.00112 -0.02683,-0.010216 -0.04844,-0.010325 -0.06049,-3.042e-4 -0.01163,0.00967 -0.02774,0.00989 -0.04242,5.932e-4 -0.03328,-0.021081 -0.134623,-0.019134 -0.156732,0.00301 -0.01363,0.013655 -0.03033,0.013834 -0.06375,6.845e-4 -0.04316,-0.01698 -0.147857,-0.014294 -0.257226,0.0066 -0.02956,0.00565 -0.05508,0.0023 -0.06148,-0.00806 -0.01369,-0.022182 -0.113976,-0.023163 -0.15437,-0.00151 -0.01834,0.00983 -0.03388,0.010309 -0.0395,0.00121 -0.0054,-0.00871 -0.238126,-0.015463 -0.554878,-0.016104 -0.52353,-0.00106 -0.547022,2.028e-4 -0.580159,0.031121 -0.01899,0.017725 -0.03895,0.032227 -0.04436,0.032227 -0.0054,0 -0.03363,0.018186 -0.06272,0.040414 -0.0291,0.022228 -0.06017,0.040415 -0.06905,0.040415 -0.0089,0 -0.0293,0.014549 -0.04536,0.032331 -0.02853,0.031578 -0.02819,0.032331 0.0147,0.032331 0.02415,0 0.0564,0.0067 0.07167,0.014881 0.01527,0.00818 0.310758,0.019652 0.656643,0.025483 0.903634,0.015234 2.855167,0.03461 2.969178,0.029479 0.05326,-0.0024 0.211424,-0.00848 0.351471,-0.013524 z M 17.36968,8.664558 c 0.04262,-0.04528 0.06811,-0.1287295 0.06116,-0.2002294 -0.002,-0.02057 -0.185679,-0.2160356 -0.203007,-0.2160356 -0.0061,0 -0.0311,-0.020051 -0.05557,-0.044559 -0.02447,-0.024508 -0.0721,-0.066337 -0.105856,-0.092953 -0.03375,-0.026616 -0.09409,-0.077491 -0.134089,-0.1130552 -0.04,-0.035564 -0.08804,-0.07532 -0.106757,-0.088345 -0.01872,-0.013026 -0.04672,-0.035365 -0.06222,-0.049643 -0.05061,-0.046614 -0.179864,-0.1024495 -0.229715,-0.099233 -0.02682,0.00173 -0.0996,0.00525 -0.161739,0.00783 -0.08032,0.00333 -0.111728,0.010549 -0.108648,0.024977 0.0046,0.021493 0.102547,0.118392 0.214822,0.2124976 0.03713,0.031118 0.09743,0.083665 0.133995,0.1167686 0.03657,0.033104 0.07279,0.060383 0.0805,0.060621 0.0077,2.535e-4 0.04305,0.02953 0.07856,0.065094 0.03551,0.035564 0.06968,0.064663 0.07595,0.064663 0.0063,0 0.0523,0.04001 0.102311,0.088911 0.05001,0.048901 0.09518,0.088911 0.100381,0.088911 0.01665,0 0.18562,0.1298647 0.18562,0.1426577 0,0.00677 0.0236,0.020068 0.05245,0.029548 0.02885,0.00948 0.05479,0.018258 0.05764,0.019509 0.0029,0.00125 0.01375,-0.00682 0.02421,-0.017934 z m 0.205593,-0.4809274 c 0.0069,-0.013336 0.02448,-0.053346 0.03914,-0.088911 0.01465,-0.035564 0.03292,-0.079212 0.04059,-0.096994 0.0077,-0.017782 0.01763,-0.054155 0.02214,-0.080828 0.0045,-0.026673 0.01311,-0.068501 0.01912,-0.092952 l 0.01093,-0.044455 -0.135036,-0.00229 c -0.428533,-0.00725 -0.530438,-0.00498 -0.530452,0.011813 -1.6e-5,0.021379 0.07793,0.093251 0.181561,0.16741 0.04217,0.030174 0.07666,0.059791 0.07666,0.065814 0,0.034791 0.20399,0.1955436 0.24037,0.1894209 0.01236,-0.00208 0.0281,-0.014695 0.03497,-0.028032 z m -1.789441,-8.467e-4 c 0.403771,-0.00164 0.541659,-0.00701 0.536287,-0.020884 -0.004,-0.010274 -0.03072,-0.034951 -0.05943,-0.054836 -0.02871,-0.019886 -0.113938,-0.094242 -0.189392,-0.1652359 -0.07545,-0.070994 -0.144453,-0.1292964 -0.15333,-0.1295616 -0.02348,-6.996e-4 -0.09498,-0.066199 -0.128032,-0.1172725 -0.03162,-0.048867 -0.03967,-0.2132105 -0.01298,-0.2651453 0.0085,-0.016636 0.02042,-0.062217 0.02639,-0.101291 0.006,-0.039074 0.02512,-0.091119 0.04256,-0.1156552 0.01744,-0.024536 0.03172,-0.055972 0.03172,-0.069857 0,-0.024307 0.007,-0.042681 0.07812,-0.2053194 0.01777,-0.040645 0.03733,-0.1006598 0.04346,-0.1333661 0.0061,-0.032707 0.01759,-0.059467 0.02548,-0.059467 0.0079,0 0.01434,-0.015524 0.01434,-0.034497 0,-0.050872 0.03466,-0.1637702 0.05927,-0.1930943 0.01178,-0.014037 0.02143,-0.039861 0.02143,-0.057388 0,-0.017526 0.0063,-0.038777 0.01398,-0.047224 0.0077,-0.00845 0.027,-0.064747 0.04292,-0.1251104 0.01591,-0.060364 0.03504,-0.1135339 0.04251,-0.1181548 0.0075,-0.00462 0.01368,-0.02434 0.01381,-0.043821 1.27e-4,-0.01948 0.01102,-0.066427 0.0242,-0.1043275 0.02369,-0.068122 0.03347,-0.09068 0.06988,-0.1612315 0.01026,-0.019885 0.01866,-0.050554 0.01866,-0.068156 0,-0.017601 0.0119,-0.059528 0.02645,-0.093172 0.01455,-0.033643 0.03355,-0.079356 0.04223,-0.1015836 0.0087,-0.022227 0.0222,-0.053046 0.03004,-0.068484 0.0078,-0.015439 0.01426,-0.049993 0.01426,-0.076787 v -0.048716 l -0.609284,-0.00171 c -0.335106,-9.431e-4 -0.871962,-0.00276 -1.193013,-0.00404 -0.321051,-0.00128 -0.589187,0.00313 -0.595859,0.00982 -0.0067,0.00668 -0.0046,0.028505 0.0046,0.048497 0.05605,0.1218043 0.113102,0.2283956 0.134769,0.2518044 0.01376,0.014866 0.03841,0.052489 0.05477,0.083608 0.01636,0.031119 0.03982,0.074766 0.05213,0.096993 0.01231,0.022228 0.0382,0.072843 0.05753,0.1124772 0.01933,0.039635 0.04784,0.084767 0.06334,0.1002932 0.0155,0.015526 0.04328,0.059481 0.06173,0.097676 0.03972,0.082231 0.09639,0.1793208 0.111317,0.1906885 0.0058,0.00445 0.01938,0.026269 0.03009,0.048497 0.01072,0.022228 0.03792,0.069513 0.06045,0.1050764 0.02253,0.035564 0.04533,0.077393 0.05067,0.092953 0.0053,0.015559 0.01611,0.02829 0.02396,0.02829 0.0078,0 0.01426,0.00762 0.01426,0.016942 0,0.00932 0.02542,0.056743 0.05649,0.1053902 0.08001,0.1252793 0.07566,0.1535402 -0.03632,0.2358289 -0.05104,0.03751 -0.09523,0.074112 -0.09819,0.081338 -0.003,0.00723 -0.01252,0.013138 -0.02125,0.013138 -0.0087,0 -0.03968,0.018187 -0.06877,0.040414 -0.02909,0.022227 -0.05818,0.040414 -0.06464,0.040414 -0.0065,0 -0.02289,0.011178 -0.03653,0.02484 -0.01364,0.013662 -0.08757,0.066091 -0.164283,0.1165089 -0.07671,0.050418 -0.148337,0.099255 -0.15916,0.1085266 -0.01082,0.00927 -0.05675,0.042318 -0.102057,0.073437 -0.04531,0.031119 -0.108265,0.076585 -0.139905,0.1010349 -0.03164,0.024451 -0.06742,0.044455 -0.07952,0.044455 -0.01209,0 -0.02199,0.00551 -0.02199,0.012253 0,0.00674 -0.04876,0.04493 -0.108361,0.084869 -0.114961,0.07704 -0.139057,0.095149 -0.219964,0.165311 -0.02803,0.024309 -0.05672,0.044313 -0.06375,0.044455 -0.007,1.521e-4 -0.02156,0.00766 -0.03228,0.016709 -0.01072,0.00905 -0.05084,0.038536 -0.08915,0.06553 -0.03831,0.026993 -0.06677,0.057782 -0.06324,0.068419 0.0044,0.013346 0.0707,0.020748 0.213865,0.023886 0.1141,0.0025 0.215188,0.010973 0.22464,0.018828 0.0095,0.00785 0.340018,0.015137 0.734592,0.016183 0.394573,0.00104 0.721189,0.00569 0.725812,0.010322 0.0046,0.00463 0.0232,0.0047 0.04129,1.521e-4 0.01808,-0.00455 0.277464,-0.00926 0.576398,-0.01047 z m 8.050791,-0.598094 c 0.137593,0.00196 0.714063,0.00692 1.281044,0.011012 0.930403,0.00672 1.033664,0.00491 1.059506,-0.018512 0.0301,-0.027285 0.0424,-0.064466 0.06221,-0.1881555 l 0.01205,-0.075226 -0.339881,-0.00928 c -0.186935,-0.0051 -0.412511,-0.012444 -0.501281,-0.016311 -0.08877,-0.00387 -0.782385,-0.012207 -1.541368,-0.018533 -1.53088,-0.012761 -2.155529,-0.019609 -2.743796,-0.030081 -0.217486,-0.00387 -0.940154,-0.00794 -1.605928,-0.00905 -0.84443,-0.0014 -1.225747,-0.00746 -1.26092,-0.020031 -0.02773,-0.00991 -0.06405,-0.01235 -0.0807,-0.00542 -0.05127,0.02134 -0.330746,0.027148 -0.354542,0.00737 -0.01379,-0.011462 -0.05795,-0.014224 -0.123004,-0.00769 -0.195124,0.019591 -1.139113,0.027508 -1.150135,0.00965 -0.01376,-0.022298 -0.08434,-0.021737 -0.09823,7.808e-4 -0.0068,0.01109 -0.03578,0.013771 -0.07762,0.00719 -0.03669,-0.00577 -0.110284,-0.014245 -0.163546,-0.01883 -0.096,-0.00826 -0.09711,-0.00787 -0.127904,0.04535 -0.01708,0.029527 -0.0364,0.057344 -0.04292,0.061816 -0.0065,0.00447 -0.01399,0.04294 -0.0166,0.085485 -0.0044,0.071345 -10e-4,0.079302 0.04292,0.1024207 0.03616,0.019011 0.06911,0.022147 0.13644,0.012985 0.117809,-0.016033 0.815554,-0.017729 1.129799,-0.00275 0.137593,0.00656 0.773105,0.015536 1.412248,0.019947 0.639143,0.00441 1.350916,0.011672 1.581718,0.016135 0.230802,0.00446 1.000678,0.012728 1.710838,0.018367 1.530762,0.012155 1.454626,0.01075 1.47101,0.027152 0.0072,0.00718 0.02776,0.00802 0.04574,0.00185 0.01798,-0.00617 0.145267,-0.0096 0.28286,-0.00764 z M 20.393929,7.0342916 c 0.01634,-0.016361 1.595016,-0.021635 2.264476,-0.00757 0.119839,0.00252 1.004108,0.010356 1.965042,0.017416 1.356192,0.00996 1.747153,0.00849 1.747153,-0.00658 0,-0.01068 0.01453,-0.049531 0.03228,-0.086336 0.01775,-0.036805 0.03228,-0.076562 0.03228,-0.08835 0,-0.011787 0.0069,-0.034063 0.01536,-0.049502 0.02329,-0.042565 0.06024,-0.1336967 0.08348,-0.2058923 0.01145,-0.035564 0.03021,-0.076147 0.04169,-0.090184 0.01148,-0.014037 0.02087,-0.041415 0.02087,-0.06084 0,-0.019426 0.0068,-0.047951 0.01514,-0.06339 0.02474,-0.045878 0.0978,-0.2531306 0.09835,-0.2789802 2.53e-4,-0.013148 0.01837,-0.060278 0.0402,-0.1047336 0.02183,-0.044456 0.03976,-0.095741 0.03984,-0.1139678 1.02e-4,-0.018227 0.0059,-0.040051 0.01303,-0.048497 0.0071,-0.00845 0.02626,-0.055367 0.0426,-0.1042682 0.01635,-0.048901 0.03597,-0.095822 0.04361,-0.1042686 0.0076,-0.00845 0.01388,-0.035296 0.01388,-0.059667 0,-0.02437 0.0073,-0.048806 0.01614,-0.054301 0.0089,-0.0055 0.01619,-0.022292 0.01624,-0.037327 4.8e-5,-0.015035 0.01095,-0.048172 0.02421,-0.073639 0.01326,-0.025467 0.02411,-0.056482 0.02411,-0.068923 0,-0.012441 0.0063,-0.035252 0.01398,-0.050691 0.02271,-0.045611 0.05367,-0.1379034 0.06236,-0.185883 0.0044,-0.024559 0.01451,-0.048631 0.02236,-0.053492 0.0079,-0.00486 0.01428,-0.026166 0.01428,-0.047345 0,-0.021178 0.0064,-0.042492 0.01431,-0.047364 0.0079,-0.00487 0.01926,-0.035295 0.02531,-0.067607 0.0061,-0.032312 0.01692,-0.070583 0.02416,-0.085048 0.0072,-0.014465 0.02026,-0.044486 0.02894,-0.066714 0.0087,-0.022228 0.02769,-0.06794 0.04223,-0.1015836 0.01455,-0.033643 0.02645,-0.075042 0.02645,-0.091998 0,-0.016955 0.0073,-0.035324 0.01614,-0.04082 0.0089,-0.00549 0.01614,-0.030956 0.01614,-0.056579 0,-0.025624 0.0073,-0.051085 0.01614,-0.05658 0.0089,-0.0055 0.01614,-0.033204 0.01614,-0.061575 -2e-6,-0.057791 0.0066,-0.056927 -0.260875,-0.033942 -0.06771,0.00582 -0.120405,0.00235 -0.142257,-0.00936 -0.02344,-0.012565 -0.04105,-0.013332 -0.05425,-0.00236 -0.02688,0.02234 -0.687804,0.022918 -0.714622,6.236e-4 -0.01411,-0.011729 -0.03011,-0.011601 -0.05254,4.056e-4 -0.04113,0.022046 -0.333181,0.022634 -0.374002,7.504e-4 -0.0219,-0.011739 -0.04013,-0.010729 -0.06285,0.00348 -0.0249,0.015574 -0.04379,0.015798 -0.08511,0.00101 -0.03613,-0.012931 -0.08406,-0.014655 -0.149944,-0.00539 -0.05326,0.00749 -0.107865,0.00785 -0.121341,7.96e-4 -0.02767,-0.014478 -0.344389,-0.00742 -0.397352,0.00885 -0.01906,0.00586 -0.03936,0.00272 -0.04536,-0.00702 -0.0075,-0.012124 -0.02033,-0.01255 -0.04119,-0.00136 -0.01762,0.00944 -0.03408,0.010154 -0.0393,0.0017 -0.01184,-0.019186 -3.489798,-0.02378 -3.501618,-0.00462 -0.01237,0.02004 -0.360877,0.022614 -0.37313,0.00276 -0.01349,-0.021862 -1.863746,-0.020869 -1.958664,0.00105 -0.0481,0.011108 -0.07679,0.010936 -0.0906,-5.425e-4 -0.01355,-0.011263 -0.293106,-0.015419 -0.848276,-0.01261 l -0.828066,0.00419 -0.02904,0.048497 c -0.04766,0.079593 -0.07849,0.1552874 -0.07849,0.1927282 0,0.019364 -0.0058,0.042118 -0.01283,0.050564 -0.0071,0.00845 -0.02639,0.057186 -0.04297,0.1083096 -0.01658,0.051124 -0.03623,0.092952 -0.04367,0.092952 -0.0074,0 -0.01352,0.021625 -0.01352,0.048055 0,0.040584 -0.04391,0.1586433 -0.09712,0.261143 -0.0075,0.014465 -0.01861,0.052736 -0.02466,0.085048 -0.0061,0.032311 -0.01744,0.062734 -0.02531,0.067607 -0.0079,0.00487 -0.01431,0.030397 -0.01431,0.056722 0,0.045198 -0.06956,0.1783609 -0.09925,0.1900182 -0.0076,0.00297 -0.01373,0.027798 -0.01373,0.055189 0,0.054117 -0.0466,0.1738243 -0.06767,0.1738243 -0.0072,0 -0.01303,0.016974 -0.01303,0.03772 0,0.020746 -0.005,0.042705 -0.01106,0.048798 -0.01636,0.016387 -0.0501,0.1202954 -0.06203,0.1910657 -0.0057,0.034041 -0.01706,0.061894 -0.02516,0.061894 -0.0081,0 -0.01472,0.014648 -0.01472,0.032551 0,0.032627 -0.0038,0.042624 -0.05376,0.1425396 -0.01482,0.029617 -0.02694,0.073721 -0.02694,0.09801 0,0.024289 -0.01682,0.080077 -0.03739,0.1239737 -0.02056,0.043897 -0.04725,0.1125477 -0.0593,0.1525576 -0.01205,0.04001 -0.02791,0.079656 -0.03524,0.088103 -0.0073,0.00845 -0.01333,0.034335 -0.01333,0.057531 0,0.023196 -0.01066,0.056295 -0.0237,0.073553 -0.01303,0.017259 -0.02393,0.051385 -0.02421,0.075835 -5.64e-4,0.048732 -0.01475,0.045593 0.241586,0.053451 0.735309,0.022541 1.179248,0.026139 1.225659,0.00993 0.03096,-0.010811 0.06354,-0.012699 0.07924,-0.00459 0.01466,0.00757 0.502378,0.019209 1.083821,0.025858 0.581443,0.00665 1.134032,0.013179 1.227976,0.014512 0.130811,0.00186 0.179942,0.00878 0.209819,0.029589 0.04591,0.031971 0.08217,0.035746 0.106764,0.011117 z M 17.594487,6.8795528 c -0.03773,-0.00396 -0.0686,-0.014053 -0.0686,-0.022433 0,-0.00838 -0.02255,-0.015236 -0.05011,-0.015236 -0.04444,0 -0.105552,-0.025189 -0.240439,-0.099113 -0.127453,-0.069849 -0.220295,-0.1907848 -0.28381,-0.3696903 -0.03324,-0.093616 -0.03224,-0.3927899 0.0016,-0.4901525 0.01293,-0.037159 0.02361,-0.094412 0.02374,-0.1272288 1.32e-4,-0.032816 0.0075,-0.064163 0.01638,-0.069658 0.0089,-0.00549 0.01614,-0.027077 0.01614,-0.047959 0,-0.04631 0.07548,-0.1985989 0.120517,-0.2431521 0.01805,-0.017854 0.04328,-0.052715 0.05608,-0.07747 0.03907,-0.075575 0.410539,-0.4325965 0.462932,-0.4449265 0.01222,-0.00287 0.02221,-0.011362 0.02221,-0.018861 0,-0.0075 0.04539,-0.036396 0.100875,-0.064217 0.111315,-0.055818 0.142296,-0.073581 0.213855,-0.1226129 0.02663,-0.018247 0.0811,-0.042962 0.12105,-0.054922 0.03995,-0.01196 0.108555,-0.038878 0.152463,-0.059816 0.04497,-0.021445 0.109752,-0.038071 0.148343,-0.038071 0.03768,0 0.073,-0.00727 0.07848,-0.016165 0.0057,-0.00916 0.08541,-0.016166 0.184061,-0.016166 0.210986,0 0.227509,0.010883 0.227509,0.1498506 0,0.049899 -0.0073,0.095222 -0.01614,0.1007166 -0.0089,0.00549 -0.01614,0.033632 -0.01614,0.062527 0,0.028895 -0.01066,0.066657 -0.0237,0.083916 -0.01303,0.017259 -0.02393,0.042541 -0.02421,0.056184 -6.59e-4,0.031865 -0.08219,0.080272 -0.135206,0.080272 -0.02252,0 -0.04543,0.00727 -0.05092,0.016166 -0.0055,0.00889 -0.03817,0.016166 -0.07263,0.016166 -0.03446,0 -0.06655,0.00632 -0.07132,0.014042 -0.0048,0.00772 -0.0382,0.018772 -0.07429,0.024553 -0.12793,0.020489 -0.22509,0.1053264 -0.148947,0.1300564 0.01553,0.00504 0.07841,0.056457 0.139727,0.1142487 0.06132,0.057791 0.116572,0.1050754 0.122793,0.1050754 0.01441,0 0.09659,0.1577575 0.09659,0.185417 0,0.011427 0.01009,0.029164 0.02242,0.039416 0.02411,0.02004 0.03533,0.056373 0.06036,0.1954732 0.02855,0.1586514 0.03428,0.2610294 0.01565,0.2796905 -0.0098,0.00977 -0.01773,0.031237 -0.01773,0.047712 0,0.016476 -0.01816,0.056719 -0.04035,0.089431 -0.02219,0.032711 -0.04035,0.070715 -0.04035,0.084454 0,0.035677 -0.215984,0.2899175 -0.246839,0.2905604 -0.007,1.521e-4 -0.03239,0.018453 -0.05632,0.040681 -0.02393,0.022228 -0.04935,0.040414 -0.05649,0.040414 -0.0071,0 -0.03256,0.018187 -0.05649,0.040414 -0.02393,0.022228 -0.0595,0.040414 -0.07904,0.040414 -0.01954,0 -0.04002,0.00727 -0.0455,0.016166 -0.0055,0.00889 -0.0271,0.016166 -0.04803,0.016166 -0.02093,0 -0.04047,0.00686 -0.04343,0.01524 -0.0061,0.017232 -0.292163,0.033404 -0.396774,0.022429 z M 17.93633,6.649729 c 0.0049,-0.00788 0.03434,-0.019125 0.06551,-0.024981 0.03117,-0.00586 0.05667,-0.016253 0.05667,-0.023104 0,-0.00685 0.0273,-0.027824 0.06067,-0.046607 0.05716,-0.032176 0.245992,-0.214941 0.245992,-0.2380866 0,-0.00588 0.01816,-0.034532 0.04035,-0.063674 0.02219,-0.029142 0.04035,-0.068237 0.04035,-0.086879 0,-0.018641 0.0073,-0.038388 0.01614,-0.043883 0.02271,-0.01406 0.02014,-0.289812 -0.0035,-0.3699337 -0.01077,-0.036596 -0.02893,-0.076151 -0.04035,-0.0879 -0.01142,-0.011749 -0.02076,-0.027183 -0.02076,-0.034296 0,-0.020855 -0.183667,-0.1947466 -0.205784,-0.1948313 -0.0111,-4.31e-5 -0.02018,-0.00735 -0.02018,-0.016243 0,-0.00889 -0.01634,-0.016397 -0.03631,-0.01668 -0.01997,-3.042e-4 -0.05041,-0.011195 -0.06765,-0.024249 -0.01723,-0.013054 -0.04078,-0.023734 -0.05233,-0.023734 -0.03311,0 -0.101948,-0.067456 -0.101948,-0.099909 0,-0.016179 0.0073,-0.029416 0.01614,-0.029416 0.0089,0 0.01614,-0.010912 0.01614,-0.024248 0,-0.013337 0.0073,-0.024248 0.01614,-0.024248 0.0089,0 0.01614,-0.00862 0.01614,-0.019165 0,-0.02596 0.06532,-0.093995 0.09024,-0.093995 0.01103,0 0.02247,-0.00617 0.02543,-0.013712 0.005,-0.012868 0.07329,-0.054046 0.236228,-0.1425527 0.0382,-0.020747 0.09042,-0.037723 0.116063,-0.037723 0.02564,0 0.0511,-0.00727 0.05659,-0.016166 0.0055,-0.00889 0.03105,-0.016166 0.05681,-0.016166 0.05566,0 0.112656,-0.054701 0.112656,-0.1081245 0,-0.045557 -0.04461,-0.048853 -0.17754,-0.013117 -0.04882,0.013126 -0.108841,0.023951 -0.133374,0.024057 -0.02453,1.014e-4 -0.05721,0.00682 -0.07263,0.014918 -0.01541,0.0081 -0.0716,0.035187 -0.124865,0.060193 -0.05326,0.025007 -0.119315,0.062027 -0.146784,0.082267 -0.02747,0.02024 -0.05449,0.036801 -0.06004,0.036801 -0.0056,0 -0.06661,0.037954 -0.135666,0.084344 -0.120628,0.081027 -0.391875,0.3348869 -0.391875,0.3667557 0,0.00847 -0.0091,0.025034 -0.02017,0.036817 -0.02564,0.027226 -0.09208,0.1417583 -0.103794,0.1789157 -0.0049,0.01556 -0.01533,0.02829 -0.02317,0.02829 -0.0078,0 -0.01426,0.017757 -0.01426,0.03946 0,0.021703 -0.0073,0.043956 -0.01614,0.049451 -0.0089,0.0055 -0.01614,0.02483 -0.01614,0.042966 0,0.018136 -0.01025,0.055898 -0.02278,0.083915 -0.04331,0.096855 -0.05895,0.3117915 -0.03393,0.4662935 0.01051,0.06494 0.02688,0.089986 0.113523,0.1737806 0.05568,0.053848 0.108666,0.097905 0.117746,0.097905 0.02205,0 0.122616,0.053386 0.129412,0.068704 0.0076,0.017223 0.386299,0.015116 0.396989,-0.00221 z M 17.759921,6.4920176 c -0.01775,-0.00365 -0.07342,-0.01508 -0.123694,-0.025399 -0.172689,-0.035441 -0.287248,-0.1872053 -0.290253,-0.3845189 -10e-4,-0.067425 0.02191,-0.1941762 0.0368,-0.2033957 0.0077,-0.00477 0.014,-0.022179 0.014,-0.038696 0,-0.016516 0.0054,-0.032455 0.01211,-0.035418 0.0067,-0.00297 0.02592,-0.0326 0.04281,-0.065858 0.05472,-0.1077675 0.166503,-0.2062634 0.234084,-0.2062634 0.01754,0 0.03638,-0.00727 0.04187,-0.016166 0.0125,-0.02026 0.224639,-0.021358 0.262494,-0.00136 0.01541,0.00814 0.05383,0.02599 0.08537,0.03966 0.07026,0.030451 0.0932,0.056047 0.161312,0.1799353 0.04324,0.078659 0.05344,0.1153281 0.05397,0.1939871 3.7e-4,0.055832 -0.0103,0.1210046 -0.02515,0.1535736 -0.01419,0.031119 -0.0342,0.078789 -0.04447,0.1059347 -0.01027,0.027146 -0.03526,0.067276 -0.05554,0.089178 -0.02028,0.021902 -0.04993,0.059788 -0.06589,0.084191 -0.01596,0.024402 -0.05537,0.055806 -0.08758,0.069786 -0.0322,0.01398 -0.0824,0.035723 -0.111554,0.048317 -0.05276,0.022797 -0.07922,0.02515 -0.140677,0.012512 z m 0.151118,-0.260386 c 0.03664,-0.025946 0.07537,-0.072997 0.09302,-0.113006 0.01663,-0.037703 0.03569,-0.06862 0.04235,-0.068704 0.03377,-4.056e-4 0.0081,-0.1210989 -0.04263,-0.2005615 -0.04964,-0.077715 -0.06141,-0.086613 -0.126432,-0.095539 -0.08488,-0.011653 -0.222336,0.024121 -0.222336,0.057864 0,0.00924 -0.01897,0.041706 -0.04215,0.072152 -0.0355,0.046617 -0.04206,0.071662 -0.04156,0.1586352 9.58e-4,0.1665172 0.05403,0.2278267 0.200515,0.2316303 0.05946,0.00155 0.0904,-0.0079 0.139228,-0.042471 z m 1.498694,0.5796322 c -0.03356,-0.00712 -0.08077,-0.022353 -0.10491,-0.033845 -0.02414,-0.011492 -0.06897,-0.032606 -0.09963,-0.046919 -0.06558,-0.030614 -0.258984,-0.2198686 -0.258984,-0.2534252 0,-0.012741 -0.0054,-0.023249 -0.01211,-0.023351 -0.01193,-2.028e-4 -0.04714,-0.071903 -0.08466,-0.1724462 -0.02489,-0.066689 0.002,-0.3859259 0.03878,-0.4596856 0.01414,-0.028384 0.0257,-0.07552 0.0257,-0.1047478 0,-0.029228 0.0073,-0.057638 0.01614,-0.063133 0.0089,-0.0055 0.01623,-0.025929 0.01633,-0.04541 1.12e-4,-0.01948 0.01826,-0.067078 0.04035,-0.1057725 0.02209,-0.038695 0.04016,-0.08443 0.04016,-0.1016347 0,-0.017204 0.03631,-0.083074 0.0807,-0.1463756 0.04438,-0.063302 0.0807,-0.1283148 0.0807,-0.1444723 0,-0.052139 0.481908,-0.5151832 0.53617,-0.5151832 0.0158,0 0.02873,-0.00641 0.02873,-0.014238 0,-0.029821 0.171516,-0.097796 0.266309,-0.1055428 0.05326,-0.00435 0.128444,-0.012752 0.167072,-0.018666 0.06579,-0.010072 0.09024,-0.0043 0.183754,0.043339 0.01541,0.00785 0.04264,0.014279 0.0605,0.014279 0.03655,0 0.232316,0.097908 0.284439,0.1422602 0.03902,0.033202 0.119299,0.1555971 0.119299,0.1818857 0,0.0097 0.0109,0.028554 0.02421,0.04189 0.01332,0.013337 0.02421,0.037848 0.02421,0.05447 0,0.016623 0.0073,0.034719 0.01614,0.040214 0.02802,0.017346 0.02009,0.4506217 -0.0099,0.5425522 -0.01434,0.043903 -0.03249,0.079824 -0.04035,0.079824 -0.0079,0 -0.01428,0.025076 -0.01428,0.055724 0,0.030649 -0.01907,0.090664 -0.04237,0.1333667 -0.0233,0.042703 -0.06549,0.1212891 -0.09374,0.1746354 -0.131252,0.2478192 -0.228551,0.3723446 -0.410512,0.5253828 -0.04757,0.04001 -0.09572,0.081517 -0.107006,0.092237 -0.01128,0.010721 -0.05104,0.03543 -0.08835,0.054909 -0.03731,0.01948 -0.0713,0.044452 -0.07553,0.055496 -0.0042,0.011043 -0.04172,0.032975 -0.08332,0.048737 -0.0416,0.015763 -0.09108,0.038645 -0.109955,0.050851 -0.04076,0.026353 -0.323848,0.041936 -0.414058,0.022793 z m 0.313999,-0.2138935 c 0.107005,-0.022648 0.172419,-0.050766 0.218447,-0.093898 0.0196,-0.018369 0.04009,-0.033398 0.04554,-0.033398 0.0054,0 0.01986,-0.00909 0.03204,-0.020207 0.277346,-0.2531083 0.356141,-0.3426934 0.487519,-0.5542809 0.0422,-0.067971 0.117492,-0.2316029 0.117492,-0.255357 0,-0.013764 0.0073,-0.029521 0.01614,-0.035016 0.0089,-0.00549 0.01614,-0.027318 0.01614,-0.048497 0,-0.021178 0.0073,-0.043002 0.01614,-0.048497 0.0089,-0.00549 0.01619,-0.044116 0.01624,-0.085824 4.8e-5,-0.041708 0.01095,-0.096669 0.02421,-0.1221363 0.02755,-0.052902 0.03186,-0.1328936 0.008,-0.1476837 -0.0089,-0.0055 -0.01614,-0.026858 -0.01614,-0.047472 0,-0.020615 -0.01089,-0.046537 -0.02421,-0.057605 -0.01331,-0.011069 -0.02421,-0.037676 -0.02421,-0.059128 0,-0.069789 -0.08904,-0.1874025 -0.169227,-0.2235399 -0.175948,-0.079289 -0.381217,-0.1256453 -0.40264,-0.090928 -0.0049,0.00791 -0.03255,0.018053 -0.06148,0.022543 -0.09367,0.014537 -0.284045,0.1060528 -0.300084,0.1442522 -0.003,0.00705 -0.0126,0.012813 -0.02142,0.012813 -0.03231,0 -0.304073,0.3199595 -0.304073,0.3579996 0,0.010362 -0.01676,0.041351 -0.03725,0.068863 -0.02049,0.027513 -0.05056,0.079121 -0.06683,0.1146853 -0.01627,0.035564 -0.04308,0.083972 -0.05959,0.1075724 -0.01651,0.0236 -0.03001,0.054517 -0.03001,0.068704 0,0.014187 -0.0073,0.025794 -0.01614,0.025794 -0.0089,0 -0.01614,0.021394 -0.01614,0.047543 0,0.026148 -0.0068,0.051779 -0.01521,0.056956 -0.0084,0.00518 -0.0201,0.042069 -0.02607,0.081981 -0.006,0.039912 -0.01729,0.076545 -0.02514,0.081405 -0.02011,0.012451 -0.01832,0.3302423 0.0019,0.3302423 0.0089,0 0.01614,0.020285 0.01614,0.045079 0,0.086374 0.09862,0.2294349 0.217505,0.3155211 0.0739,0.053511 0.240402,0.071582 0.382478,0.041511 z M 19.466724,6.3949425 c -0.02885,-0.014245 -0.05245,-0.031417 -0.05245,-0.038161 0,-0.00674 -0.01449,-0.016056 -0.0322,-0.020695 -0.01771,-0.00464 -0.03715,-0.021854 -0.04321,-0.038258 -0.0061,-0.016404 -0.01517,-0.033462 -0.02026,-0.037908 -0.04832,-0.042236 -0.07693,-0.2397876 -0.0515,-0.3556435 0.03315,-0.1510224 0.04859,-0.1980549 0.09719,-0.2959327 0.02749,-0.055361 0.04997,-0.1071252 0.04997,-0.115031 0,-0.00791 0.01676,-0.036884 0.03725,-0.064396 0.02049,-0.027513 0.04988,-0.077302 0.06532,-0.1106439 0.01544,-0.033342 0.03499,-0.060621 0.04345,-0.060621 0.0085,0 0.01538,-0.010912 0.01538,-0.024248 0,-0.013337 0.0065,-0.024248 0.01436,-0.024248 0.0079,0 0.02912,-0.031434 0.04715,-0.069853 0.01803,-0.038419 0.06059,-0.091038 0.09458,-0.1169303 0.03399,-0.025892 0.07812,-0.061224 0.09807,-0.078515 0.05806,-0.050326 0.148111,-0.073676 0.28514,-0.073937 0.122637,-2.535e-4 0.251558,0.034374 0.251558,0.06753 0,0.00718 0.0082,0.013055 0.0183,0.013055 0.01853,0 0.06332,0.045877 0.138152,0.1415118 0.03688,0.04714 0.0412,0.067283 0.04154,0.1939876 3.17e-4,0.1152967 -0.006,0.1526635 -0.03424,0.2024993 -0.01905,0.033612 -0.03463,0.072499 -0.03463,0.086416 0,0.028152 -0.04969,0.1242587 -0.06859,0.1326746 -0.0067,0.00297 -0.01211,0.016391 -0.01211,0.029837 0,0.027491 -0.04998,0.1235311 -0.06859,0.1318192 -0.0067,0.00297 -0.01211,0.014632 -0.01211,0.025929 0,0.011298 -0.01816,0.040165 -0.04035,0.064148 -0.02219,0.023984 -0.04042,0.048689 -0.0405,0.054899 -2.71e-4,0.020581 -0.135976,0.1601537 -0.201601,0.207348 -0.03551,0.025535 -0.08264,0.062796 -0.104745,0.082801 -0.0221,0.020005 -0.04934,0.036373 -0.06053,0.036373 -0.01119,0 -0.02034,0.00727 -0.02034,0.016166 0,0.00889 -0.01006,0.016166 -0.02237,0.016166 -0.0123,0 -0.04317,0.010867 -0.06859,0.024149 -0.06219,0.032487 -0.240755,0.031163 -0.308505,-0.00229 z m 0.344844,-0.225135 c 0.02766,-0.012377 0.07702,-0.05518 0.109697,-0.095119 0.03268,-0.039938 0.06815,-0.081974 0.07883,-0.093413 0.08207,-0.087886 0.269592,-0.4122257 0.269592,-0.4662961 0,-0.016005 0.0062,-0.032953 0.01383,-0.037662 0.0076,-0.00471 0.01789,-0.047896 0.02284,-0.09597 0.005,-0.048074 0.01838,-0.1024394 0.02984,-0.120812 0.01774,-0.028458 0.01638,-0.038327 -0.0092,-0.06664 -0.01652,-0.018279 -0.04283,-0.033235 -0.05846,-0.033235 -0.01564,0 -0.03085,-0.00677 -0.03381,-0.015036 -0.0062,-0.017309 -0.05508,-0.023388 -0.159315,-0.01981 -0.06614,0.00227 -0.08373,0.012322 -0.181574,0.1038048 -0.05959,0.05571 -0.108403,0.10845 -0.10848,0.1172005 -8.1e-5,0.00875 -0.02482,0.041979 -0.05497,0.073841 -0.06529,0.068984 -0.170848,0.2305538 -0.170848,0.2615156 0,0.012064 -0.01066,0.036056 -0.0237,0.053315 -0.01303,0.017259 -0.02393,0.04411 -0.02421,0.059669 -2.83e-4,0.015559 -0.0078,0.02829 -0.01665,0.02829 -0.0095,0 -0.01614,0.056994 -0.01614,0.1386512 0,0.1308631 0.0026,0.1412376 0.04597,0.1846977 0.0637,0.063799 0.175554,0.072774 0.286766,0.023009 z m 1.443937,-0.069288 c -0.05883,-0.00852 -0.07651,-0.019622 -0.100766,-0.063269 -0.01941,-0.034925 -0.02477,-0.062422 -0.01576,-0.080828 0.0075,-0.015343 0.02676,-0.055176 0.04278,-0.088518 0.01602,-0.033342 0.03525,-0.060621 0.04273,-0.060621 0.0075,0 0.0136,-0.011168 0.0136,-0.024817 0,-0.026944 0.03945,-0.094055 0.08461,-0.1439288 0.01561,-0.017236 0.02837,-0.035841 0.02837,-0.041344 0,-0.0055 0.02786,-0.022318 0.06191,-0.037366 0.05178,-0.022882 0.11772,-0.027359 0.402961,-0.027359 h 0.341048 l 0.05703,0.057119 c 0.06599,0.066097 0.0722,0.1151552 0.02666,0.2106191 -0.0167,0.035012 -0.04578,0.09786 -0.06461,0.1396638 -0.01883,0.041803 -0.05306,0.096362 -0.07607,0.1212419 l -0.04183,0.045236 -0.365653,0.00226 c -0.20111,0.00124 -0.397761,-0.0024 -0.437005,-0.00808 z m 0.735791,-0.2420094 c 0.01127,-0.014838 0.02071,-0.043346 0.021,-0.06335 5.12e-4,-0.036214 -6e-4,-0.036373 -0.25581,-0.036373 h -0.256324 l -0.04227,0.055501 c -0.02325,0.030525 -0.04227,0.059185 -0.04227,0.063686 0,0.014107 0.113189,0.018414 0.338119,0.012866 0.179574,-0.00443 0.220606,-0.010013 0.237551,-0.032331 z m 5.854952,0.8839138 c 0.520092,-0.00442 0.665117,-0.01016 0.681914,-0.026978 0.02204,-0.022063 0.02825,-0.1289851 0.01119,-0.192709 -0.0067,-0.02501 -0.02789,-0.040652 -0.06837,-0.050451 -0.06695,-0.016206 -0.230398,-0.012716 -0.259905,0.00555 -0.01086,0.00672 -0.03716,0.00287 -0.05846,-0.00854 -0.02944,-0.015782 -0.06411,-0.016958 -0.14462,-0.00491 -0.05824,0.00872 -0.10894,0.010916 -0.112661,0.00489 -0.0037,-0.00603 -0.23309,-0.012187 -0.509708,-0.01368 -0.561965,-0.00303 -0.552396,-0.00486 -0.572966,0.1096516 -0.0058,0.032121 -0.0179,0.067743 -0.02696,0.07916 -0.01139,0.014358 -0.01,0.032892 0.0046,0.060114 0.02009,0.037594 0.02905,0.03956 0.200147,0.043904 0.09851,0.0025 0.18275,0.00344 0.187188,0.00208 0.0044,-0.00136 0.305331,-0.00499 0.668649,-0.00808 z m 0.512608,-0.5380799 0.140229,-0.012743 -0.0052,-0.1719519 c -0.0029,-0.094573 -0.01206,-0.1901378 -0.02041,-0.2123653 -0.0083,-0.022228 -0.01694,-0.09861 -0.01908,-0.1697392 -0.0021,-0.071129 -0.01045,-0.1802466 -0.01845,-0.2424844 -0.008,-0.062237 -0.01477,-0.1644445 -0.01504,-0.227127 -2.53e-4,-0.062682 -0.007,-0.1208784 -0.01497,-0.1293247 -0.008,-0.00845 -0.01785,-0.088103 -0.02198,-0.1770134 -0.0056,-0.121067 -0.0015,-0.1748479 0.01631,-0.2141946 0.0131,-0.028896 0.03025,-0.052538 0.03812,-0.052538 0.0079,0 0.0143,-0.00917 0.0143,-0.020372 0,-0.011205 0.01816,-0.039985 0.04035,-0.063957 0.02219,-0.023972 0.04035,-0.049432 0.04035,-0.05658 0,-0.00715 0.01816,-0.032608 0.04035,-0.056579 0.02219,-0.023972 0.04041,-0.052995 0.04049,-0.064498 0,-0.011502 0.03755,-0.064559 0.08328,-0.1179063 0.04572,-0.053346 0.108727,-0.1369213 0.140006,-0.1857218 0.03128,-0.0488 0.07007,-0.1029124 0.08619,-0.1202487 0.01613,-0.017337 0.02932,-0.036293 0.02932,-0.042124 0,-0.00583 0.01815,-0.03174 0.04033,-0.057573 0.02218,-0.025833 0.04034,-0.051313 0.04035,-0.056621 1.1e-5,-0.00531 0.01487,-0.026805 0.03303,-0.047772 0.01815,-0.020967 0.04879,-0.063908 0.06808,-0.095426 0.01929,-0.031517 0.04801,-0.071406 0.06383,-0.088642 0.01582,-0.017236 0.02876,-0.039816 0.02876,-0.050178 0,-0.010362 0.01816,-0.038463 0.04035,-0.062447 0.07266,-0.078526 0.09066,-0.075138 -0.430278,-0.080971 -0.06799,-7.605e-4 -0.129119,-0.00684 -0.135845,-0.013508 -0.0067,-0.00667 -0.35578,-0.012124 -0.775679,-0.012124 -0.671993,0 -0.762339,0.00291 -0.754162,0.024248 0.0051,0.013337 0.02261,0.024248 0.03889,0.024248 0.01628,0 0.03351,0.00634 0.03829,0.014078 0.0048,0.00774 0.03124,0.018595 0.0588,0.024117 0.02756,0.00552 0.0706,0.024647 0.09563,0.042502 0.02504,0.017855 0.05991,0.032463 0.0775,0.032463 0.01759,0 0.05278,0.010867 0.07821,0.024148 0.02543,0.013282 0.05894,0.024194 0.07447,0.024248 0.01553,5.07e-5 0.02825,0.00737 0.02825,0.016265 0,0.00889 0.0131,0.016166 0.02911,0.016166 0.01601,0 0.05323,0.024922 0.08271,0.055382 0.05753,0.059455 0.05733,0.056628 0.01644,0.2275163 -0.01064,0.044455 -0.0244,0.084465 -0.03059,0.088911 -0.01686,0.012107 -0.03597,0.064961 -0.04969,0.137408 -0.0122,0.064459 -0.0488,0.1705571 -0.06412,0.1859044 -0.01353,0.013554 -0.05162,0.1185106 -0.0602,0.1658955 -0.0044,0.024559 -0.01451,0.048631 -0.02237,0.053492 -0.0079,0.00486 -0.01428,0.029804 -0.01428,0.055428 0,0.025624 -0.0073,0.051085 -0.01614,0.05658 -0.0089,0.00549 -0.01614,0.030494 -0.01614,0.055554 0,0.02506 -0.01089,0.05462 -0.02421,0.065688 -0.01332,0.011069 -0.02421,0.040628 -0.02421,0.065688 0,0.02506 -0.0073,0.050059 -0.01614,0.055554 -0.0089,0.00549 -0.01614,0.020993 -0.01614,0.03444 0,0.013447 -0.01089,0.035361 -0.02421,0.048697 -0.01331,0.013337 -0.02421,0.037848 -0.02421,0.054471 0,0.016623 -0.0073,0.034718 -0.01614,0.040213 -0.0089,0.00549 -0.01614,0.03296 -0.01614,0.061035 0,0.05485 -0.03683,0.1649166 -0.08388,0.2506453 -0.01601,0.029166 -0.0291,0.066928 -0.0291,0.083916 0,0.016987 -0.0067,0.035035 -0.0149,0.040107 -0.0082,0.00507 -0.02001,0.032543 -0.02626,0.061045 -0.0062,0.028502 -0.01884,0.06661 -0.02797,0.084684 -0.03921,0.07758 -0.04385,0.090857 -0.04395,0.1255946 -4.9e-5,0.020125 -0.01095,0.057428 -0.02421,0.082895 -0.01326,0.025467 -0.02411,0.056384 -0.02411,0.068704 0,0.01232 -0.0064,0.0224 -0.01431,0.0224 -0.0079,0 -0.01793,0.020005 -0.02237,0.044455 -0.0087,0.047818 -0.03966,0.1401575 -0.06233,0.1856853 -0.01718,0.034494 -0.01833,0.092797 -0.0019,0.094212 0.0067,5.73e-4 0.120517,0.00428 0.25302,0.00824 0.132503,0.00396 0.242666,0.00895 0.244805,0.011084 0.0097,0.00966 0.755835,1.014e-4 0.881147,-0.011283 z M 14.691411,5.1590676 c 0.01584,0.013165 0.02659,0.013922 0.03371,0.00238 0.01333,-0.02161 0.148629,-0.022266 0.161884,-7.859e-4 0.01396,0.022628 0.239716,0.020243 0.290807,-0.00307 0.0327,-0.014921 0.05863,-0.014824 0.115597,4.563e-4 0.05153,0.013805 0.07953,0.014613 0.09385,0.00271 0.01299,-0.010801 0.08122,-0.013648 0.187787,-0.00784 0.09206,0.00502 0.189167,0.00871 0.215798,0.00819 0.02663,-5.171e-4 0.0811,-0.00175 0.12105,-0.00274 0.03995,-9.886e-4 0.125107,0.00381 0.189246,0.010653 0.08714,0.0093 0.123009,0.00714 0.141908,-0.00857 0.01916,-0.015925 0.02982,-0.016485 0.04398,-0.00231 0.01114,0.011162 0.07262,0.018714 0.152339,0.018714 0.132411,0 0.133755,-4.056e-4 0.144516,-0.044455 0.006,-0.024451 0.0166,-0.048268 0.0236,-0.052927 0.02035,-0.013528 0.05455,-0.1589469 0.04065,-0.1728721 -0.0069,-0.00695 -0.518605,-0.01748 -1.137042,-0.02339 -0.618437,-0.00591 -1.157114,-0.014009 -1.19706,-0.017997 -0.03995,-0.00399 -0.07989,-0.00174 -0.08877,0.00499 -0.0089,0.00673 -0.112432,0.015494 -0.230123,0.019474 -0.117691,0.00398 -0.218819,0.012079 -0.224729,0.017998 -0.01328,0.013305 0.04572,0.1323653 0.09533,0.1923505 l 0.03672,0.044408 0.334841,0.00149 c 0.184163,8.214e-4 0.338761,0.00784 0.343552,0.015603 0.0048,0.00776 0.02639,0.00604 0.048,-0.00382 0.02938,-0.013406 0.04516,-0.013054 0.06255,0.00139 z m 12.73191,-1.1157783 c 0.01576,-0.00845 0.02866,-0.029225 0.02866,-0.04617 0,-0.016944 0.0073,-0.035304 0.01614,-0.040799 0.0089,-0.0055 0.01614,-0.030956 0.01614,-0.05658 0,-0.025624 0.0064,-0.050542 0.01419,-0.055373 0.02649,-0.016397 0.03146,-0.074416 0.0084,-0.097555 -0.01975,-0.019776 -0.486993,-0.023224 -3.302822,-0.024371 -2.106793,-8.569e-4 -3.285452,-0.00697 -3.295559,-0.017094 -0.01975,-0.019778 -0.149521,-0.020803 -0.161569,-0.00128 -0.0052,0.00843 -0.03426,0.0086 -0.06955,4.056e-4 -0.03334,-0.00775 -0.781371,-0.014382 -1.662301,-0.014746 -1.25896,-5.222e-4 -1.60864,0.00369 -1.634172,0.019656 -0.01842,0.011521 -0.03256,0.037883 -0.03266,0.060885 -9.6e-5,0.022312 -0.01099,0.076277 -0.02421,0.1199227 -0.03996,0.1319222 -0.06452,0.1226854 0.327009,0.1229618 0.193075,1.521e-4 0.361696,0.00699 0.374714,0.015241 0.01478,0.00936 0.03092,0.00897 0.04297,-0.00105 0.01192,-0.00991 0.117042,-0.012932 0.274921,-0.0079 0.299402,0.00954 0.246075,0.00946 0.753974,0.00112 0.252773,-0.00415 0.412812,-5.323e-4 0.432011,0.00976 0.0202,0.010828 1.267853,0.018454 3.695566,0.022588 2.015789,0.00343 3.669814,0.011208 3.675613,0.01728 0.01512,0.015833 0.488296,-0.00851 0.522575,-0.026887 z m -0.64321,-0.5461455 c 0.03931,-0.00131 0.04331,-0.00523 0.02627,-0.025792 -0.01105,-0.013337 -0.03373,-0.024248 -0.0504,-0.024248 -0.01667,0 -0.0303,-0.00727 -0.0303,-0.016166 0,-0.00889 -0.0183,-0.016166 -0.04067,-0.016166 -0.02237,0 -0.06943,-0.018186 -0.10459,-0.040414 -0.03515,-0.022227 -0.07453,-0.040414 -0.0875,-0.040414 -0.01297,0 -0.02807,-0.00727 -0.03355,-0.016166 -0.0055,-0.00889 -0.02477,-0.016166 -0.04285,-0.016166 -0.01808,0 -0.05578,-0.01195 -0.08378,-0.026557 -0.09412,-0.049097 -0.106863,-0.054271 -0.133647,-0.054271 L 26.02291,3.1399564 c -0.01318,0 -0.03658,-0.00681 -0.05199,-0.015135 -0.01541,-0.00832 -0.0716,-0.034623 -0.124866,-0.058442 -0.05326,-0.023819 -0.132009,-0.060655 -0.174994,-0.081859 -0.04299,-0.021203 -0.09163,-0.038552 -0.108091,-0.038552 -0.01646,0 -0.06409,-0.018186 -0.105824,-0.040414 -0.04174,-0.022228 -0.08859,-0.040415 -0.104116,-0.040415 -0.01553,0 -0.05984,-0.018098 -0.09847,-0.040219 -0.03863,-0.02212 -0.08616,-0.040307 -0.105605,-0.040414 -0.01945,-1.015e-4 -0.03985,-0.00747 -0.04534,-0.01636 -0.0055,-0.00889 -0.03383,-0.016166 -0.06298,-0.016166 -0.04665,0 -0.05755,0.00886 -0.09099,0.073983 -0.04536,0.088337 -0.03687,0.1092505 0.06618,0.163 0.108906,0.056802 0.284022,0.1348263 0.302602,0.1348263 l 0.240184,0.1128002 0.04534,0.016525 0.0389,0.016166 c 0.01479,0.00615 0.06307,0.018186 0.104811,0.040414 0.04174,0.022228 0.08579,0.040414 0.0979,0.040414 0.01211,0 0.02443,0.00546 0.02739,0.012124 0.0089,0.019952 0.110601,0.068704 0.143387,0.068704 0.01676,0 0.0559,0.014301 0.08697,0.031779 0.06622,0.037251 0.274199,0.04783 0.676802,0.034427 z M 25.496208,3.473695 c 0.01608,-0.010398 0.01063,-0.019409 -0.02202,-0.036373 -0.02387,-0.012402 -0.05356,-0.02255 -0.06598,-0.02255 -0.01242,0 -0.0352,-0.00692 -0.05061,-0.015382 C 25.311148,3.373892 25.220486,3.337779 25.152032,3.317502 25.116522,3.306984 25.066912,3.288195 25.04178,3.275747 25.01665,3.2633 24.98903,3.253116 24.9804,3.253116 c -0.0086,0 -0.04188,-0.017824 -0.07389,-0.039609 -0.06133,-0.041743 -0.11763,-0.034119 -0.11763,0.015929 0,0.013024 -0.0073,0.02368 -0.01614,0.02368 -0.0089,0 -0.01614,0.016731 -0.01614,0.037181 0,0.02045 -0.0067,0.044092 -0.01478,0.052538 -0.02275,0.02364 -0.02766,0.1203232 -0.0068,0.1332125 0.02662,0.01642 0.735509,0.014229 0.761153,-0.00235 z m 1.577733,-0.4165961 c 0.0063,-0.010136 0.01637,-0.010152 0.02853,-4.72e-5 0.02338,0.019431 0.411407,0.019466 0.423395,3.75e-5 0.01277,-0.020695 0.08299,-0.017226 0.120011,0.00593 0.02523,0.015784 0.03875,0.015869 0.06348,4.056e-4 0.04177,-0.026127 0.380214,-0.025734 0.42214,5.071e-4 0.02376,0.014865 0.03783,0.014665 0.0627,-8.924e-4 0.03832,-0.023966 0.107395,-0.026374 0.121064,-0.00422 0.0062,0.00999 0.02129,0.00863 0.04096,-0.00368 0.02438,-0.015249 0.04257,-0.015206 0.08331,2.028e-4 0.03446,0.013028 0.05755,0.014273 0.06813,0.00368 0.0099,-0.00991 0.20782,-0.016032 0.518519,-0.016032 h 0.50252 l 0.04302,-0.048357 c 0.02366,-0.026596 0.04302,-0.05204 0.04302,-0.056542 0,-0.0045 0.02632,-0.044883 0.0585,-0.089737 0.03217,-0.044853 0.05335,-0.086698 0.04707,-0.09299 -0.01145,-0.011457 -0.269513,-0.013645 -2.65103,-0.022478 -0.999888,-0.00371 -1.282832,-4.057e-4 -1.298461,0.015273 -0.01588,0.01591 -0.0129,0.020015 0.01457,0.020015 0.019,0 0.03904,0.00727 0.04453,0.016166 0.0055,0.00889 0.02589,0.016397 0.04534,0.01668 0.01945,3.042e-4 0.04946,0.011195 0.06669,0.024248 0.01723,0.013054 0.04332,0.023734 0.05798,0.023734 0.02198,0 0.168641,0.065305 0.293792,0.1308194 0.01541,0.00807 0.04213,0.014671 0.05937,0.014671 0.01724,0 0.04125,0.00909 0.05335,0.020207 0.05972,0.054829 0.08774,0.059256 0.371507,0.058696 0.16722,-3.549e-4 0.290331,-0.0071 0.295991,-0.016271 z"
         id="path4011"
         inkscape:connector-curvature="0"
         sodipodi:nodetypes="cscsccscssssscscsscscssssssscssssssssscscsssssssssscssscsssscccsscsssssscsssccsssssscsscscccsscsccsssccccsscccccscsccccsssscsccscssscscccsscsscscsssssssssccssccsccccssscsscscccccccccscccscssscssscccssssssscccssscsssssscscsccscscsscccssscssssssssssscsccssssssscssccsssscsccsssssscssssssscssssccscccscscccscscscssscsssssssscsssssssccccccsscscsssscsccscssccscccsccccsscsccscccccsccscccsccccscsscssscssscssssssssssscscssscssscccssssscsssssssscsssssssscssscscssssscssscsscscsccccssssssssscsccsssssssssscsssccsssssssssssssssscccsscscsscccscsssscsccsscssssscsscsscsssscsssssscssssscssssssssscsssssssssssssccssssssscsssssssssscsssscscscssssssssssscsssssscscsssssssscccsscscssssssscssscsssscssssssssscsssscsccscscsscscccsscccsssscccccccccscsscssssscsccssccccssccssscsssccsssscscccscscssscssscscscccsscscscccccssccccscccsccssccscscscccccssscsscccsssscccsscsscccsssssscssccsssscsscsssscccssscsscscsssssssssscsccsscccccccscssscscssccssssccc" />
    </g>
  </g>
</svg>
