<?xml version="1.0" encoding="UTF-8" standalone="no"?>
<!-- Created with Inkscape (http://www.inkscape.org/) -->

<svg
   width="31.75mm"
   height="57.943748mm"
   viewBox="0 0 31.75 57.943748"
   version="1.1"
   id="svg1"
   xml:space="preserve"
   inkscape:version="1.3.2 (091e20e, 2023-11-25, custom)"
   sodipodi:docname="1.svg"
   xmlns:inkscape="http://www.inkscape.org/namespaces/inkscape"
   xmlns:sodipodi="http://sodipodi.sourceforge.net/DTD/sodipodi-0.dtd"
   xmlns="http://www.w3.org/2000/svg"
   xmlns:svg="http://www.w3.org/2000/svg"><sodipodi:namedview
     id="namedview1"
     pagecolor="#505050"
     bordercolor="#eeeeee"
     borderopacity="1"
     inkscape:showpageshadow="0"
     inkscape:pageopacity="0"
     inkscape:pagecheckerboard="0"
     inkscape:deskcolor="#505050"
     inkscape:document-units="mm"
     inkscape:zoom="0.74029882"
     inkscape:cx="59.435459"
     inkscape:cy="110.09068"
     inkscape:window-width="1920"
     inkscape:window-height="1009"
     inkscape:window-x="-8"
     inkscape:window-y="-8"
     inkscape:window-maximized="1"
     inkscape:current-layer="layer1" /><defs
     id="defs1" /><g
     inkscape:label="Layer 1"
     inkscape:groupmode="layer"
     id="layer1"
     transform="translate(-89.200812,-119.52813)"><g
       id="g1"
       transform="matrix(0.26458333,0,0,0.26458333,89.200812,119.52813)"><path
         fill="#808080"
         d="M 0,219 12,0 h 96 l 12,219"
         id="path1" /><path
         fill="#eeeeee"
         stroke="#999999"
         stroke-width="0.9"
         d="m 1,208 0.3,-6.6 H 118.7 L 119,208 Z M 48,34 a 9.6,11 0 1 0 0,9.6 l -4,-1 A 5.5,7 0 1 1 44,35 Z m 1,16 9,-22 h 4 l 9,22 h -5 l -2,-5 h -8.3 l -2,5 z m 13.4,-9 -2.8,-7 -2.8,7 z M 73,50 V 28 h 9 a 7,7 0 1 1 0,14 h -5 v 8 z m 4,-12 h 4.6 a 3,3 0 1 0 0,-6 H 77 Z M 1,208 1.3,201.4 h 117.4 l 0.3,6.6 z"
         id="path2" /></g></g></svg>
