<?xml version="1.0" encoding="UTF-8" standalone="no"?>
<!-- Created with Inkscape (http://www.inkscape.org/) -->

<svg
   width="77.463882mm"
   height="111.26527mm"
   viewBox="0 0 77.463882 111.26527"
   version="1.1"
   id="svg1"
   xml:space="preserve"
   inkscape:version="1.3.2 (091e20e, 2023-11-25, custom)"
   sodipodi:docname="ajrotc_logo.svg"
   xmlns:inkscape="http://www.inkscape.org/namespaces/inkscape"
   xmlns:sodipodi="http://sodipodi.sourceforge.net/DTD/sodipodi-0.dtd"
   xmlns="http://www.w3.org/2000/svg"
   xmlns:svg="http://www.w3.org/2000/svg"
   xmlns:rdf="http://www.w3.org/1999/02/22-rdf-syntax-ns#"
   xmlns:cc="http://creativecommons.org/ns#"
   xmlns:dc="http://purl.org/dc/elements/1.1/"><title
     id="title155">Army JROTC Logo</title><sodipodi:namedview
     id="namedview1"
     pagecolor="#505050"
     bordercolor="#eeeeee"
     borderopacity="1"
     inkscape:showpageshadow="0"
     inkscape:pageopacity="0"
     inkscape:pagecheckerboard="0"
     inkscape:deskcolor="#505050"
     inkscape:document-units="mm"
     inkscape:zoom="0.72426347"
     inkscape:cx="161.54342"
     inkscape:cy="174.6602"
     inkscape:window-width="1920"
     inkscape:window-height="1009"
     inkscape:window-x="-8"
     inkscape:window-y="-8"
     inkscape:window-maximized="1"
     inkscape:current-layer="layer1" /><defs
     id="defs1" /><g
     inkscape:label="Layer 1"
     inkscape:groupmode="layer"
     id="layer1"
     transform="translate(-66.849228,-93.318909)"><g
       id="g154"
       inkscape:label="back"><path
         style="display:inline;fill:#fe0000;fill-opacity:1"
         d="m 101.78345,93.328153 c -1.49306,0.01905 -2.782626,0.06807 -3.662824,0.151412 -11.80831,1.118115 -17.314421,2.15935 -24.077084,4.553728 -4.29135,1.519389 -6.036251,2.653947 -6.771679,4.402827 -0.565214,1.34406 -0.562673,92.55719 0.0026,93.63615 1.140705,2.17736 4.121447,3.63524 10.737845,5.25084 6.410459,1.56531 11.696789,2.31772 19.293913,2.74712 2.703699,0.15281 5.153589,0.3166 5.444629,0.3638 h 5.2e-4 c 2.3898,0.38718 13.14548,-0.0277 16.53646,-0.63768 0.80036,-0.14397 2.70536,-0.43521 4.23333,-0.64751 5.2745,-0.73284 6.49263,-0.94605 9.26042,-1.61902 1.52797,-0.37152 4.14653,-1.09974 5.81928,-1.61851 3.50342,-1.0865 4.72879,-2.02228 5.31957,-4.06073 0.50715,-1.75002 0.53116,-92.0081 0.0248,-93.43668 -0.56293,-1.5882 -2.03845,-2.688313 -4.84312,-3.610629 -6.35567,-2.090068 -12.59572,-3.38357 -23.91585,-4.95732 -2.60999,-0.362845 -8.92361,-0.574944 -13.4028,-0.517798 z"
         id="path1" /><path
         style="display:inline;fill:#b4b4b4;fill-opacity:1"
         d="m 106.79193,114.12947 c 4.20572,-0.0453 8.12248,0.20904 11.43703,0.76688 0.80036,0.13469 2.28864,0.38532 3.30729,0.55655 1.74934,0.29407 6.83933,1.51248 8.86354,2.12184 3.08225,0.92784 7.91169,2.82963 8.53281,3.36 0.43452,0.37102 0.46303,1.83962 0.46303,23.86004 0,12.90565 -0.0777,25.25889 -0.1726,27.45155 -0.17008,3.92924 -0.18168,3.99128 -0.83768,4.29018 -1.2599,0.57404 -7.06092,2.60181 -7.98556,2.79156 -0.50932,0.10452 -2.35479,0.60908 -4.10104,1.12138 -3.33134,0.9773 -5.33086,1.39559 -9.92187,2.07378 -3.31056,0.48903 -12.96558,0.68639 -16.933338,0.34623 -3.459382,-0.29658 -6.717923,-0.85851 -9.657291,-1.66553 -0.873123,-0.23972 -2.743635,-0.67319 -4.156852,-0.96274 -4.487471,-0.9194 -13.034513,-3.73983 -13.907162,-4.58938 -0.267994,-0.2609 -0.3406,-5.23748 -0.3545,-24.25743 -0.01754,-23.99798 0.111747,-29.93521 0.661458,-30.37903 0.424282,-0.34254 7.081224,-2.63394 9.422681,-3.24321 1.091404,-0.284 2.996408,-0.80359 4.233333,-1.15497 1.236925,-0.35137 4.808808,-1.0065 7.9375,-1.45572 4.468778,-0.64164 8.963511,-0.9867 13.169221,-1.03198 z"
         id="path153" /><path
         id="path154"
         style="display:inline;fill:#ffffff;fill-opacity:1"
         d="m 104.99979,97.350647 c -7.028847,0.02636 -13.394832,0.543702 -17.065623,1.386479 -0.58208,0.133641 -1.772711,0.377085 -2.645833,0.541052 -4.560417,0.856412 -10.57487,2.459212 -12.100553,3.224612 -1.888072,0.9472 -1.912144,1.0768 -1.834514,9.94771 0.02451,2.80128 0.117173,5.09323 0.205673,5.09323 0.0885,0 2.38046,-0.7123 5.093229,-1.58285 7.643766,-2.45292 13.155422,-3.56189 21.842594,-4.39508 11.147717,-1.06919 25.161887,0.77774 37.490217,4.94078 1.68934,0.57046 3.21778,1.03715 3.39669,1.03715 0.25116,0 0.30526,-1.53292 0.23616,-6.72569 -0.0879,-6.60568 -0.1008,-6.73797 -0.70176,-7.37733 -1.00029,-1.06418 -6.4691,-2.90747 -10.76524,-3.628715 -0.7276,-0.122149 -3.28745,-0.579643 -5.68854,-1.016475 -6.91659,-1.25834 -9.53104,-1.474623 -17.4625,-1.444873 z M 71.518632,179.82107 c -0.321976,0.12355 -0.385506,1.16923 -0.385506,6.38203 0,6.98438 0.121481,7.61084 1.656746,8.55969 2.296638,1.4194 12.804775,4.0276 20.435962,5.07204 6.03686,0.82623 17.500796,1.02586 22.754166,0.39636 6.61707,-0.79291 11.8401,-1.89727 19.45876,-4.11396 1.08348,-0.31524 2.09461,-0.8289 2.70165,-1.37253 l 0.97048,-0.86868 0.0661,-6.80113 c 0.0365,-3.74063 7.7e-4,-6.86612 -0.078,-6.94532 -0.0792,-0.0793 -1.50324,0.34788 -3.16466,0.9493 -1.66141,0.60141 -3.61631,1.24216 -4.34392,1.42369 -0.7276,0.18153 -2.42368,0.65035 -3.76928,1.04179 -3.08596,0.89771 -6.23939,1.56682 -11.44426,2.42776 -8.32852,1.37762 -19.31948,0.80375 -28.707296,-1.49862 -4.938522,-1.21115 -10.337858,-2.65111 -10.847917,-2.89284 -1.659306,-0.78638 -4.973482,-1.88604 -5.303035,-1.75958 z" /></g><g
       id="g155"
       inkscape:label="emblum"><path
         style="display:inline;fill:#000000;fill-opacity:1"
         d="m 104.76053,115.68596 c -1.31596,0.017 -2.58124,0.45068 -3.21892,1.21905 -0.20751,0.25004 -1.00211,0.91572 -1.765271,1.4795 -1.404266,1.03739 -2.230022,2.27896 -2.57297,3.86746 -0.103515,0.47946 -0.474984,1.18158 -0.825789,1.56011 -1.155634,1.24695 -0.580765,3.4856 1.542541,6.00687 1.249855,1.48411 2.052599,2.93993 2.052588,3.72174 -4e-6,0.29665 -0.386957,0.85058 -0.859896,1.23093 -0.61377,0.49362 -1.006195,1.15973 -1.370975,2.32699 -0.496792,1.58968 -0.497413,1.6739 -0.03204,3.01273 0.651663,1.87478 1.033461,2.43257 1.915129,2.79777 0.652073,0.2701 0.806783,0.55663 1.168923,2.16472 0.34583,1.53555 0.35814,1.93128 0.0713,2.30891 -0.58063,0.76442 -0.44822,2.10768 0.25322,2.56728 0.60934,0.39925 0.62019,0.49281 0.93276,8.14214 0.1739,4.25597 0.37079,8.42264 0.43769,9.25938 0.14907,1.86384 -0.17149,1.96472 -1.74046,0.54726 -1.971776,-1.78138 -2.134894,-2.38345 -2.044834,-7.54735 0.05979,-3.42804 -7.37e-4,-4.55164 -0.250114,-4.63744 -0.181006,-0.0623 -0.451991,0.20946 -0.60203,0.6041 -0.150041,0.39464 -0.53765,1.08912 -0.861447,1.54306 l -0.589111,0.82527 -0.163297,-2.2009 c -0.08995,-1.21045 -0.292066,-2.32915 -0.449069,-2.48615 -0.204224,-0.20422 -0.687276,0.13979 -1.698087,1.20871 -0.777087,0.82176 -1.557754,1.49396 -1.734261,1.49396 -0.418362,0 -0.423893,0.0294 0.316776,-1.6216 0.679033,-1.5136 1.365633,-5.01084 1.113111,-5.66891 -0.175952,-0.45852 -1.230159,-0.29773 -2.254643,0.34365 -0.506555,0.31715 -0.604021,0.32414 -0.478007,0.0346 0.765238,-1.75816 1.504559,-3.66539 1.652612,-4.26382 0.245092,-0.99067 -0.4093,-1.20588 -1.940967,-0.6382 -0.656651,0.24337 -1.248918,0.38769 -1.316198,0.32039 -0.06728,-0.0673 0.279224,-0.59279 0.769462,-1.16737 1.350696,-1.5831 2.875276,-4.85145 2.875276,-6.16345 0,-0.63186 -0.559495,-0.62015 -1.852083,0.0393 -0.570488,0.29104 -1.085346,0.52916 -1.144116,0.52916 -0.05876,0 0.145056,-0.51373 0.452685,-1.14153 1.36868,-2.79318 2.014348,-4.77031 2.014348,-6.16758 0,-1.32422 -0.330206,-1.46615 -1.419552,-0.60927 -0.787228,0.61923 -0.777752,0.65742 -0.33848,-1.42265 0.350939,-1.66179 0.213603,-3.92035 -0.247531,-4.07262 -0.493048,-0.16281 -1.678655,0.9692 -3.030306,2.89388 -1.299621,1.8506 -1.302479,1.85282 -1.572513,1.14257 -0.148813,-0.39141 -0.270785,-0.82255 -0.270785,-0.9586 0,-0.40805 -0.577589,-0.2798 -0.969966,0.21549 -0.689749,0.87066 -2.119711,3.9011 -2.466,5.22552 -0.190242,0.72761 -0.423445,1.41232 -0.518314,1.52136 -0.200772,0.23078 -0.681789,-1.07801 -0.930176,-2.5306 -0.102387,-0.59877 -0.29907,-0.96729 -0.483175,-0.90589 -0.656075,0.21869 -1.534939,2.4895 -1.69292,4.3739 -0.168008,2.00399 -0.436908,2.26285 -0.729671,0.70228 -0.104084,-0.55481 -0.306816,-0.90301 -0.490409,-0.84181 -0.90945,0.30315 -1.280826,5.25558 -0.589112,7.85482 0.211196,0.79359 0.342996,1.48375 0.293006,1.53375 -0.04999,0.05 -0.532687,-0.51032 -1.072286,-1.2454 -0.539599,-0.73509 -1.08949,-1.26952 -1.222148,-1.18752 -0.768616,0.47503 0.32101,5.56769 1.652612,7.72459 l 0.530717,0.8599 h -1.34462 c -1.627543,0 -1.726717,0.35931 -0.589112,2.13113 0.777522,1.21099 2.888358,3.42512 3.265434,3.42512 0.116798,0 0.21239,0.1058 0.21239,0.23512 0,0.12933 -0.404932,0.31121 -0.900203,0.40411 -0.495273,0.0929 -0.958525,0.3202 -1.029395,0.50488 -0.240852,0.62765 2.386564,3.11469 4.129464,3.90881 0.916435,0.41756 0.896738,0.65109 -0.0832,0.9927 -1.739821,0.6065 -0.431366,1.69418 3.902604,3.24425 1.346067,0.48143 2.4473,0.93994 2.446879,1.01854 -4.21e-4,0.0785 -0.565968,0.44029 -1.256771,0.80409 -0.690801,0.3638 -1.229939,0.77851 -1.197859,0.9219 0.03208,0.1434 1.184255,0.40238 2.56005,0.57516 1.375795,0.17278 3.633863,0.62278 5.018298,0.99994 1.708072,0.46533 3.25025,0.69565 4.79764,0.71675 l 2.280481,0.031 -1.404048,0.78807 c -1.355975,0.76114 -3.918108,3.0053 -3.918108,3.43183 0,0.11458 0.534974,0.20825 1.188558,0.20825 0.961202,0 1.428986,-0.18441 2.447396,-0.96583 1.385373,-1.06299 3.758185,-2.20917 4.573885,-2.20917 0.63368,0 0.65701,0.20574 0.0935,0.82838 -0.31118,0.34387 -0.37087,0.67479 -0.21807,1.21129 0.11564,0.40605 0.22444,0.9998 0.24184,1.3193 0.0174,0.31949 0.23465,0.80496 0.48266,1.079 0.24801,0.27405 0.45062,0.79882 0.45062,1.16583 0,1.08996 0.51681,2.24575 1.13843,2.54609 1.71325,0.82775 3.35949,-0.1727 3.35949,-2.04173 0,-0.80541 0.16762,-1.21498 0.69866,-1.70739 0.48121,-0.44618 0.65357,-0.81994 0.55397,-1.20096 -0.0795,-0.30427 -0.0363,-0.62027 0.0956,-0.70177 0.37935,-0.23444 0.27865,-1.3422 -0.15451,-1.7017 -0.62523,-0.51887 -0.20333,-0.79185 0.73071,-0.47284 0.96292,0.32888 3.60188,2.04503 4.13824,2.69131 0.37934,0.45707 2.52588,0.60539 2.78123,0.19223 0.27377,-0.44297 -1.93494,-2.58869 -3.55172,-3.45043 -0.8937,-0.47633 -1.58708,-0.89866 -1.54048,-0.93896 0.0466,-0.0403 0.62053,0.002 1.27538,0.0935 1.6959,0.23785 5.24345,-0.11896 7.33805,-0.73846 1.95377,-0.57783 5.07041,-1.14309 6.22184,-1.12809 1.17614,0.0153 0.84716,-0.41688 -1.04334,-1.36994 -2.02941,-1.0231 -1.95301,-1.18296 0.84491,-1.76527 1.85876,-0.38684 6.01165,-2.32985 5.87612,-2.74919 -0.0513,-0.15873 -0.68025,-0.4774 -1.39733,-0.70848 l -1.30379,-0.42013 0.92604,-0.47594 c 1.27099,-0.65316 4.18161,-2.98696 4.52479,-3.6282 0.38404,-0.71758 0.21422,-0.81379 -1.47433,-0.83819 -0.80455,-0.0116 -1.46296,-0.10901 -1.46296,-0.21601 0,-0.107 0.40313,-0.38542 0.89555,-0.61909 1.20176,-0.57027 4.92528,-4.42315 4.92528,-5.09633 0,-0.61547 -1.35566,-0.98825 -2.52594,-0.69453 l -0.7059,0.17725 0.63769,-1.16065 c 0.3507,-0.63817 0.84882,-1.7237 1.1069,-2.41226 0.5163,-1.3776 0.91087,-5.23755 0.53331,-5.21725 -0.13014,0.007 -0.70159,0.66183 -1.27021,1.45521 -0.99237,1.3846 -1.71949,1.9189 -1.36943,1.00666 0.64019,-1.66831 0.84549,-6.54277 0.33797,-8.03104 -0.36885,-1.08162 -0.81152,-1.20844 -0.92346,-0.26458 -0.11037,0.93055 -0.60368,2.11667 -0.88005,2.11667 -0.12787,0 -0.23254,-0.82908 -0.23254,-1.84227 0,-1.72319 -0.57379,-3.90644 -1.32395,-5.0369 -0.2341,-0.35278 -0.29242,-0.35278 -0.524,0 -0.14329,0.21828 -0.26259,0.68092 -0.26459,1.02784 -0.005,0.82716 -0.56375,2.67633 -0.80822,2.67633 -0.10522,0 -0.32987,-0.55025 -0.49919,-1.22267 -0.57978,-2.30253 -2.58365,-6.18567 -3.19205,-6.18567 -0.12432,0 -0.36366,0.41673 -0.53175,0.92604 -0.16809,0.50933 -0.3856,0.92605 -0.4837,0.92605 -0.0981,0 -0.44739,-0.50602 -0.77618,-1.12448 -0.80194,-1.50847 -2.65145,-3.63802 -3.15949,-3.63802 -0.35259,0 -0.39322,0.42081 -0.29352,3.02513 l 0.11575,3.02514 -0.71882,-0.51159 c -0.39526,-0.28145 -0.80674,-0.5116 -0.91415,-0.5116 -0.64356,0 0.62236,5.00539 1.88153,7.44037 0.46061,0.89073 0.38704,0.90931 -1.26762,0.31626 -0.68792,-0.24651 -1.33235,-0.36728 -1.43195,-0.26768 -0.42844,0.42844 1.43658,4.73998 2.69957,6.24096 0.84388,1.00289 0.71391,1.25484 -0.43976,0.85266 -0.46571,-0.16234 -1.11917,-0.29507 -1.45211,-0.29507 -0.54852,0 -0.59159,0.0931 -0.46199,0.99219 0.0787,0.5457 0.48748,1.74944 0.90899,2.67529 0.42151,0.92584 0.76636,1.79177 0.76636,1.92391 0,0.13214 -0.4712,-5.6e-4 -1.04748,-0.29456 -1.1242,-0.57352 -1.86293,-0.68696 -1.86293,-0.28628 0,0.61099 0.83557,3.75808 1.44073,5.42654 0.36567,1.00813 0.60494,1.8931 0.53124,1.9668 -0.0737,0.0737 -0.90346,-0.62863 -1.84382,-1.56062 -2.01865,-2.00071 -2.2963,-1.9255 -2.46135,0.66662 -0.0602,0.94548 -0.19231,1.71928 -0.29352,1.71928 -0.2683,0 -1.23651,-1.36829 -1.45469,-2.05569 -0.25298,-0.79708 -0.63541,-0.74307 -0.97358,0.13746 -0.26516,0.69041 -0.21966,2.58357 0.17001,7.0776 0.15063,1.73719 0.112,1.92796 -0.62425,3.07423 -0.88179,1.37287 -2.52171,2.75127 -2.95486,2.48357 -0.1825,-0.11281 -0.23579,-0.8589 -0.14779,-2.07326 0.16332,-2.25271 0.33209,-5.62132 0.57619,-11.51661 0.16841,-4.0672 0.2162,-4.36477 0.79995,-4.94853 0.7223,-0.72229 0.79904,-1.59817 0.19792,-2.2624 -0.3703,-0.40919 -0.38391,-0.70313 -0.10748,-2.34197 0.27658,-1.63977 0.40958,-1.92243 1.06401,-2.26085 0.90037,-0.46559 1.60216,-1.43881 2.19212,-3.04064 0.40215,-1.092 0.40436,-1.32212 0.0253,-2.77812 -0.4211,-1.61759 -1.12461,-2.64638 -1.99885,-2.92385 -0.60759,-0.19285 -0.64287,-1.59034 -0.10438,-4.13102 0.67619,-3.19039 1.45243,-4.04181 4.45916,-4.89169 0.84409,-0.23858 1.88588,-0.76177 2.3151,-1.16272 0.65829,-0.61494 0.77918,-0.92958 0.77618,-2.01176 -0.006,-1.9646 -0.20416,-2.13005 -1.89239,-1.57613 -0.77576,0.25453 -2.29356,0.53275 -3.37292,0.61805 -1.86066,0.14698 -1.95069,0.12853 -1.73633,-0.34985 0.12435,-0.27751 0.23336,-0.9305 0.24236,-1.45159 0.0118,-0.67639 0.26256,-1.22792 0.87644,-1.92754 0.47295,-0.53898 0.85989,-1.08217 0.85989,-1.20716 0,-0.12502 -0.50602,-0.11158 -1.12448,0.03 -1.77725,0.40679 -4.44626,0.33619 -5.54746,-0.14677 -0.70099,-0.30743 -1.509,-0.44739 -2.29857,-0.43718 z"
         id="path139" /><path
         id="path155"
         style="fill:#fdb414;fill-opacity:1;stroke:none;stroke-width:1;stroke-dasharray:none;stroke-opacity:1"
         d="m 104.54969,116.25027 c 0.80773,0.0124 1.83774,0.23983 3.43028,0.65991 1.47813,0.3899 2.03045,0.42183 3.175,0.18448 0.76206,-0.15802 1.43222,-0.24357 1.48932,-0.19017 0.24442,0.22857 -0.62869,0.9029 -2.03295,1.56942 -2.03447,0.96562 -3.78279,1.03671 -7.19285,0.29352 l -2.77192,-0.6041 1.1684,-0.84646 c 1.02539,-0.74279 1.69622,-1.0825 2.73472,-1.0666 z m -3.32796,2.62361 c 0.51213,0.0118 1.11151,0.113 1.84691,0.29817 l 1.21337,0.30593 -0.96118,0.49299 c -0.60559,0.31068 -1.16885,0.90074 -1.52343,1.59577 -0.8104,1.58851 -0.54111,3.38947 0.9617,6.42648 0.64848,1.31052 1.36636,3.13121 1.59525,4.04575 0.52213,2.08621 0.45877,2.35745 -0.51056,2.18023 -0.6137,-0.11221 -0.85509,-0.3829 -1.25832,-1.41077 -0.60456,-1.54111 -2.04908,-3.82613 -2.875794,-4.54908 -0.332822,-0.29104 -0.945215,-1.24354 -1.361157,-2.11666 -1.249934,-2.6238 -0.944982,-5.07997 0.814937,-6.56084 0.593618,-0.4995 1.204714,-0.72772 2.058274,-0.70797 z m 9.96838,0.16588 c 0.35314,0.0142 0.42427,0.25165 0.42427,0.75913 0,0.81404 -0.59127,1.12054 -2.75384,1.42679 -1.80962,0.25628 -3.09958,0.94675 -3.63389,1.9451 -0.46628,0.87127 -0.37589,3.00327 0.23771,5.61774 0.30737,1.30969 0.63968,3.06586 0.73898,3.90261 0.15529,1.30918 0.11962,1.52135 -0.25528,1.52135 -0.23961,0 -0.47767,-0.14883 -0.52917,-0.33073 -0.0515,-0.1819 -0.30197,-1.10464 -0.55656,-2.05052 -0.2546,-0.94589 -1.00516,-2.79135 -1.6676,-4.10104 -1.01708,-2.01086 -1.20659,-2.62818 -1.22059,-3.96875 -0.0279,-2.66267 0.8421,-3.40617 4.34857,-3.71502 1.0914,-0.0961 2.63626,-0.3915 3.43286,-0.65629 0.71463,-0.23755 1.15988,-0.36143 1.43454,-0.35037 z m 6.83266,1.86811 c 0.0308,0.003 0.0516,0.009 0.0615,0.0191 0.36076,0.36077 0.10522,2.15231 -0.39843,2.79259 -0.62301,0.79203 -1.75567,1.14836 -5.16196,1.62471 -4.01937,0.56208 -4.49083,1.1706 -4.46123,5.75934 0.0195,3.02564 0.005,3.10885 -0.55758,3.10885 -0.51138,0 -0.5965,-0.18245 -0.74363,-1.59008 -0.0914,-0.87464 -0.46025,-2.86894 -0.81959,-4.43178 -0.49182,-2.13911 -0.59736,-3.08853 -0.42684,-3.8411 0.48393,-2.13565 1.49095,-2.57246 5.93503,-2.57246 2.47933,0 3.68729,-0.12295 4.89118,-0.49764 0.76932,-0.23947 1.46604,-0.39076 1.68155,-0.37155 z m -21.037992,3.32279 c 0.05961,0.005 0.07905,0.0794 0.0801,0.22583 0.0054,0.7597 1.325786,3.15917 2.349728,4.27002 0.985214,1.06884 2.356944,3.47093 2.792594,4.89066 0.16578,0.54021 0.0954,0.59531 -0.7612,0.59531 -0.77244,0 -0.94412,-0.0974 -0.94412,-0.53744 0,-0.91076 -0.689984,-2.25294 -1.959572,-3.81165 -2.113862,-2.59526 -2.82417,-4.65432 -1.876889,-5.44049 0.159985,-0.1328 0.259755,-0.19727 0.319361,-0.19224 z m -6.749459,1.77974 c 0.676485,0 -0.300531,4.65834 -1.326534,6.32519 -0.244988,0.39801 -0.891936,1.24245 -1.437638,1.87689 l -0.992188,1.15342 v -2.24586 c 0,-2.10424 0.05949,-2.34514 0.943095,-3.81785 0.943581,-1.57267 2.412922,-3.29179 2.813265,-3.29179 z m 21.536671,0.0196 c 0.13519,-1.6e-4 0.23597,0.021 0.28422,0.0692 0.0677,0.0677 -0.16749,0.70043 -0.52297,1.40612 -0.76649,1.52159 -1.24178,3.58605 -1.24178,5.39708 0,1.26519 -0.0256,1.31 -0.75758,1.31 -0.70093,0 -0.77041,-0.0919 -0.92604,-1.22732 -0.39834,-2.90621 -0.0454,-5.25272 0.92604,-6.15776 0.41911,-0.39045 1.65226,-0.79665 2.23811,-0.79737 z m 9.23509,0.11266 0.88005,0.92604 c 1.45796,1.53458 2.16518,3.2218 2.46084,5.86993 0.14645,1.31185 0.22419,2.42731 0.17259,2.47891 -0.15012,0.15013 -2.20524,-2.3267 -2.64945,-3.19308 -0.59314,-1.15688 -1.05486,-3.52607 -0.95291,-4.89118 z m -35.9177,3.15381 c 0.01891,-0.002 0.03586,0.002 0.05116,0.0114 0.120504,0.0745 0.367126,0.9209 0.548286,1.88102 0.457053,2.42229 0.166019,4.83992 -0.857828,7.12463 -0.456486,1.01865 -0.897876,1.93637 -0.981336,2.03915 -0.176901,0.21786 -1.604036,-3.68456 -1.604036,-4.38629 0,-1.38428 2.257502,-6.61919 2.843754,-6.66988 z m 40.83472,0.15348 c 0.47255,0 2.07188,3.82584 2.3952,5.72988 0.28589,1.68363 0.26085,1.94983 -0.35812,3.79254 l -0.66559,1.98179 -1.01906,-1.98179 c -1.00608,-1.95637 -1.01933,-2.02069 -1.02733,-5.0245 -0.009,-3.14027 0.19476,-4.49792 0.6749,-4.49792 z m -34.040303,1.62781 c 0.01226,0.002 0.02207,0.007 0.02946,0.0139 0.248681,0.24869 -0.996787,3.79694 -2.024166,5.76657 -0.56929,1.09141 -1.680123,2.84208 -2.468583,3.8902 -2.553219,3.39412 -3.851962,6.19448 -3.851962,8.30647 0,0.55072 -0.119062,1.07489 -0.264583,1.16479 -0.331379,0.2048 -0.329681,-0.15155 0.01344,-3.72432 0.432129,-4.49961 1.847895,-8.23461 4.359424,-11.49852 1.163968,-1.51266 3.82694,-3.98109 4.206978,-3.91914 z m 27.874783,0.48886 c 0.27243,0 2.92186,2.75193 3.96875,4.12223 2.24832,2.94284 3.89076,7.6348 4.20078,12.00236 0.18157,2.55785 0.008,3.21805 -0.29972,1.13947 -0.1023,-0.69122 -0.39471,-1.85208 -0.64958,-2.57969 -0.46739,-1.33432 -2.64407,-4.95231 -3.1781,-5.28236 -0.67826,-0.41919 -2.90973,-4.13502 -3.5512,-5.91334 -0.68024,-1.88578 -0.90605,-3.48867 -0.49093,-3.48867 z m -39.551073,1.88825 c 0.11168,0.009 0.186035,0.1468 0.186035,0.4439 0,0.28839 0.342779,1.17552 0.761194,1.97094 1.635991,3.11006 2.192516,5.73305 1.719275,8.09925 -0.09095,0.45475 -0.242173,0.82682 -0.336413,0.82682 -0.09424,0 -0.406778,-0.44296 -0.694532,-0.98443 -0.287752,-0.54148 -0.909523,-1.49458 -1.381827,-2.1177 -1.328673,-1.75294 -1.757427,-4.67418 -1.03663,-7.06314 0.221593,-0.73443 0.569691,-1.19197 0.782898,-1.17564 z m 50.742123,0.3576 c 0.41103,-0.0619 0.82654,2.78211 0.65164,4.59301 -0.22621,2.3421 -0.29323,2.52547 -1.5627,4.28035 -0.60145,0.83144 -1.22261,1.73035 -1.37976,1.9973 -0.24653,0.41876 -0.32759,0.31764 -0.59273,-0.73536 -0.46989,-1.86614 0.12843,-4.38998 1.78646,-7.53545 0.44604,-0.84619 0.811,-1.73985 0.81132,-1.98593 3.1e-4,-0.24607 0.11118,-0.51563 0.24598,-0.59893 0.0132,-0.008 0.0265,-0.013 0.0398,-0.015 z m -31.427023,1.14257 5.898353,0.10284 c 5.29478,0.0927 5.95436,0.15361 6.44301,0.59583 0.29941,0.27096 0.54416,0.66348 0.54416,0.87178 0,0.32111 -1.067,0.36594 -7.01146,0.29714 -3.8563,-0.0447 -7.011461,-0.15787 -7.011461,-0.25167 0,-0.0938 0.256233,-0.49591 0.568958,-0.89348 z m 10.020063,2.73213 c 3.08267,2.8e-4 3.36785,0.098 3.4556,0.43357 0.0686,0.26232 0.0297,0.73384 -0.0863,1.04748 -0.20957,0.5665 -0.25806,0.56995 -7.39128,0.51935 -7.590119,-0.0539 -7.789536,-0.088 -7.618655,-1.29346 l 0.0863,-0.60979 7.442955,-0.0703 c 1.74542,-0.0165 3.08382,-0.027 4.11138,-0.0269 z m -32.124656,0.0971 0.409794,0.93586 c 0.225245,0.51481 0.972025,1.6998 1.65933,2.63344 1.675613,2.27616 2.829669,4.81404 2.972428,6.53551 0.06407,0.7726 0.01244,1.39368 -0.114721,1.38028 -0.12716,-0.0134 -1.106856,-0.70229 -2.177129,-1.53065 -2.220697,-1.71878 -2.504309,-2.27532 -2.979146,-5.85339 -0.203731,-1.53516 -0.214279,-2.54288 -0.03411,-3.175 z m 56.494226,0.39688 c 0.43855,0 0.033,4.45479 -0.58291,6.40219 -0.52274,1.65279 -0.69346,1.87936 -2.53628,3.37344 -1.08653,0.88091 -2.03627,1.60145 -2.11047,1.60145 -0.0742,0 -0.13487,-0.80655 -0.13487,-1.79214 0,-1.60748 0.0965,-1.93837 0.93638,-3.21375 0.51498,-0.78195 1.45883,-2.00261 2.09754,-2.71302 0.63872,-0.71039 1.36481,-1.82402 1.61334,-2.47478 0.24852,-0.65075 0.57133,-1.18339 0.71727,-1.18339 z m -41.794349,0.18448 -0.16278,1.00149 c -0.218259,1.34497 -1.43366,3.28882 -3.859196,6.17224 -1.1074,1.31645 -2.42095,3.06635 -2.918685,3.88865 -0.497736,0.82229 -0.989997,1.93242 -1.09399,2.46651 -0.187934,0.96524 -0.189385,0.9633 -0.219625,-0.29972 -0.04253,-1.77631 0.672048,-4.76561 1.625224,-6.79907 0.909725,-1.94075 3.553033,-4.74003 5.472534,-5.79499 z m 26.954949,0.0599 c 0.70412,0.0381 3.12889,1.68866 4.30981,2.99361 1.95853,2.16424 3.5738,5.69325 3.9827,8.70077 0.0866,0.63692 0.21162,1.42596 0.27802,1.75338 0.0664,0.32742 -5.3e-4,0.59531 -0.14883,0.59531 -0.14829,0 -0.26963,-0.14883 -0.26975,-0.33073 -6.2e-4,-0.97674 -1.77168,-3.78109 -3.88503,-6.15156 -1.29736,-1.45521 -2.61109,-3.06255 -2.9192,-3.57188 -0.70581,-1.16672 -1.69602,-3.75843 -1.50792,-3.94653 0.0327,-0.0327 0.0874,-0.0463 0.1602,-0.0424 z m -18.06402,1.8805 c 1.67592,-0.004 4.0809,0.0509 6.99647,0.16589 4.31659,0.17024 4.40845,0.18605 4.24677,0.7276 -0.0909,0.30447 -0.3352,0.73205 -0.54312,0.95033 -0.31168,0.32717 -1.31666,0.39687 -5.72626,0.39687 -2.94155,0 -5.62342,-0.0391 -5.95984,-0.0868 -0.535026,-0.0758 -1.633797,-1.394 -1.636597,-1.96371 -6.1e-4,-0.12238 0.946663,-0.18591 2.622577,-0.19017 z m 4.78472,2.86856 0.8599,0.0832 0.85989,0.0827 -0.0832,1.45521 c -0.0459,0.80037 -0.14291,1.66357 -0.21601,1.91823 h -5.2e-4 c -0.0797,0.27767 -0.3902,0.46302 -0.77618,0.46302 -0.62503,0 -0.64389,-0.0575 -0.64389,-2.00091 z m -4.0044,0.0336 c 0.70093,0 0.77041,0.0919 0.92604,1.22732 0.0926,0.67515 0.16795,1.56812 0.16795,1.98437 0,0.56411 -0.12617,0.75706 -0.49661,0.75706 -0.39064,0 -0.58882,-0.36538 -0.92605,-1.7079 -0.56077,-2.23243 -0.55674,-2.26085 0.32867,-2.26085 z m 1.29862,0 h 0.95602 0.95601 v 1.98438 c 0,1.92287 -0.0197,1.98437 -0.64027,1.98437 -0.68318,0 -0.74987,-0.16502 -1.09916,-2.71198 z m 5.75676,0 c 0.87632,0 0.96238,0.34136 0.56637,2.24896 -0.28051,1.35127 -0.42231,1.60102 -0.95446,1.67742 -0.60761,0.0872 -0.62066,0.05 -0.45579,-1.32292 0.0933,-0.77696 0.17109,-1.68072 0.17209,-2.00814 0.002,-0.45998 0.15429,-0.59532 0.67179,-0.59532 z m 27.2743,0.87747 c 0.007,5.4e-4 0.0123,0.003 0.0165,0.007 0.28641,0.28641 -0.49995,3.26218 -1.25832,4.7625 -1.05094,2.07914 -1.40791,2.4657 -3.02204,3.27577 -0.72761,0.36515 -1.88864,1.06683 -2.5802,1.55908 -0.69156,0.49224 -1.31667,0.89504 -1.38907,0.89504 -0.21138,0 -0.15428,-0.65594 0.18552,-2.12804 0.37639,-1.6306 1.97113,-3.40454 4.72271,-5.25394 0.95292,-0.64048 2.06704,-1.63014 2.47582,-2.19883 0.38323,-0.53315 0.74947,-0.92694 0.84904,-0.91881 z m -61.084124,0.0486 1.158069,1.08004 c 0.637041,0.59417 1.812913,1.53954 2.613277,2.10065 2.583608,1.8113 3.845968,3.32832 4.365109,5.24619 0.597176,2.20615 0.484934,2.47733 -0.663526,1.60507 -0.507721,-0.38561 -1.693467,-1.05742 -2.634981,-1.49293 -0.941514,-0.43551 -1.871044,-0.98707 -2.065507,-1.22577 -0.810922,-0.99539 -2.449454,-4.76319 -2.605009,-5.99033 z m 44.249494,1.08056 c 0.14661,0.002 0.37489,0.059 0.73071,0.15451 3.16595,0.84993 5.84363,3.78122 6.67297,7.30498 0.38696,1.64415 0.2189,2.80314 -0.70951,4.88756 -0.37268,0.83674 -0.76411,1.52135 -0.86972,1.52135 -0.10561,0 -0.26758,-0.64464 -0.36018,-1.43247 -0.22066,-1.87751 -0.83282,-3.24281 -2.67839,-5.97586 -1.86058,-2.75529 -3.04736,-5.06222 -3.04736,-5.92419 0,-0.38711 0.0171,-0.53875 0.26148,-0.53588 z m -27.488243,0.34158 c 0.152354,0.002 0.239262,0.05 0.239262,0.15555 0,0.60756 -1.359366,3.25609 -2.677356,5.21622 -1.899133,2.82441 -2.774461,4.66508 -2.986381,6.2792 -0.08425,0.64168 -0.204624,1.21796 -0.267684,1.28106 -0.14754,0.14754 -0.885793,-1.27981 -1.366841,-2.64325 -0.750433,-2.12695 0.402239,-5.94158 2.36678,-7.83363 1.147159,-1.10483 3.869511,-2.46334 4.69222,-2.45515 z m 11.215333,2.59002 c 0.58756,6.4e-4 1.36143,0.0135 2.38074,0.0315 2.32577,0.0411 4.32777,0.17351 4.44882,0.29455 0.12104,0.12105 0.0256,0.41464 -0.21239,0.65267 -0.23803,0.23803 -0.57316,0.40838 -0.74466,0.37828 -0.17151,-0.0301 -1.979,-0.11944 -4.01629,-0.19844 -3.47987,-0.13501 -3.70417,-0.1757 -3.70417,-0.67283 0,-0.38267 0.0853,-0.48767 1.84795,-0.48576 z m 14.8792,1.58285 1.29398,0.74208 c 2.78103,1.5956 4.64775,4.26336 5.00951,7.15873 0.25732,2.05952 -0.0163,3.09586 -1.21853,4.61677 -0.58004,0.7338 -1.17045,1.33429 -1.31258,1.33429 -0.14214,0 -0.2589,-0.58451 -0.2589,-1.29915 0,-1.40899 -0.42369,-2.87901 -2.06602,-7.16752 -0.58516,-1.52797 -1.1502,-3.36492 -1.25574,-4.08192 z m -25.112681,0.32143 c 0.07269,-0.003 0.129031,0.0128 0.165365,0.0486 0.42999,0.42337 -0.314785,3.43218 -1.419035,5.7335 -0.971733,2.02514 -1.950624,5.15387 -2.114083,6.75617 -0.04127,0.40459 -0.465721,0.17733 -0.988053,-0.52916 -2.039406,-2.7585 -1.905203,-5.8938 0.382406,-8.92969 1.014038,-1.34574 3.270721,-3.05477 3.9734,-3.0794 z m 11.886101,0.017 c 0.38733,-0.005 0.3591,0.88342 0.43873,15.45384 0.038,6.95526 -0.16415,9.22167 -0.48163,5.40329 -0.14765,-1.77586 -0.67751,-17.15846 -0.67851,-19.71301 -5.5e-4,-0.94831 0.0819,-1.12448 0.52814,-1.12448 0.0738,0 0.13793,-0.0189 0.19327,-0.0196 z m 3.49694,0.002 c 0.0587,4.8e-4 0.12184,0.0371 0.18965,0.1049 0.17586,0.17586 -0.31245,16.80728 -0.6072,20.68194 -0.0775,1.01843 -0.19076,1.90178 -0.25166,1.96268 -0.16488,0.16486 -0.16409,0.19857 -0.11989,-7.78299 0.0641,-11.58182 0.22174,-14.97113 0.7891,-14.96653 z m -5.54488,0.0424 c 0.0463,-0.001 0.0994,0.006 0.15968,0.0181 0.27764,0.0539 0.51276,0.27451 0.52296,0.49041 0.0102,0.21591 0.10375,3.84555 0.20774,8.06566 0.10398,4.22009 0.25198,9.0719 0.32918,10.78177 0.0772,1.70987 0.0388,3.10885 -0.0853,3.10885 -0.19721,0 -0.78383,-8.56832 -1.31052,-19.14353 -0.14167,-2.84441 -0.14766,-3.3116 0.17622,-3.32125 z m 3.53777,0.014 c 0.0256,-0.001 0.0532,0.003 0.0822,0.008 0.55208,0.10693 0.55173,0.0953 0.36639,13.99087 -0.0964,7.23142 -0.23299,9.20324 -0.59221,8.5664 -0.0766,-0.13586 -0.16616,-5.28776 -0.19896,-11.44891 -0.0536,-10.05876 -0.0412,-11.09983 0.34262,-11.11663 z m 30.26378,1.56683 c 0.11734,0.005 0.19808,0.0239 0.23306,0.0589 0.26994,0.26994 -0.67046,1.68561 -1.82934,2.75383 -1.74199,1.6057 -2.94364,2.32649 -5.85391,3.51038 -1.44289,0.58697 -2.72485,1.06712 -2.8484,1.06712 -0.12355,0 0.12453,-0.69179 0.55138,-1.53737 0.87603,-1.7354 2.90124,-3.57459 5.14439,-4.67207 1.17269,-0.57373 3.7815,-1.21659 4.60282,-1.1808 z m -60.925994,0.29869 c 0.440124,-0.003 1.250026,0.21637 2.474268,0.62425 2.178746,0.7259 3.768796,1.63789 4.774385,2.73833 0.344769,0.37729 0.89721,0.98392 1.227316,1.34772 0.330105,0.36381 0.680887,0.92935 0.779797,1.25677 0.202621,0.67071 0.07942,0.69543 -1.046448,0.20981 -0.436561,-0.1883 -1.478147,-0.42521 -2.315104,-0.52658 -1.772729,-0.2147 -3.456602,-1.37994 -5.221904,-3.61322 -1.112438,-1.40733 -1.40585,-2.03185 -0.67231,-2.03708 z m 19.957438,2.84685 0.182935,0.97565 c 0.204144,1.08818 -0.259816,4.03743 -0.801502,5.0953 -0.19361,0.37811 -0.500733,1.3582 -0.682645,2.17816 -0.281658,1.26956 -0.269066,1.67208 0.08527,2.71198 0.301628,0.88523 0.329394,1.2194 0.101286,1.2144 -0.522025,-0.0109 -2.727837,-1.74955 -3.493844,-2.75384 -0.63261,-0.8294 -0.696494,-1.08943 -0.540019,-2.19883 0.292793,-2.07592 1.285163,-3.74692 3.304191,-5.56349 z m 20.356376,0.27595 c 0.46677,0 3.95184,3.66422 4.40387,4.63021 0.69542,1.48614 0.82953,3.54587 0.29766,4.5744 -0.23452,0.4535 -0.93203,1.16974 -1.5503,1.59163 -0.61828,0.42189 -1.39595,0.91 -1.72806,1.08469 -0.57523,0.30256 -0.59458,0.2826 -0.40876,-0.42375 0.38547,-1.46524 0.17787,-3.61972 -0.5178,-5.37176 -0.37557,-0.94588 -0.76409,-2.28475 -0.86299,-2.97501 -0.18762,-1.30926 0.0245,-3.11041 0.36638,-3.11041 z m -2.92178,1.59164 c 0.10255,0.002 0.74425,0.94499 1.42627,2.09496 2.71982,4.58591 2.73567,7.95794 0.0444,9.46661 -1.12775,0.6322 -5.38572,1.72953 -5.38572,1.38802 0,-0.1144 0.45908,-0.54582 1.0201,-0.95859 1.90335,-1.4004 3.21324,-3.38538 3.21324,-4.86947 0,-0.46099 -0.19836,-1.80614 -0.4408,-2.98949 -0.41426,-2.02201 -0.35122,-4.14214 0.12247,-4.13204 z m -14.630633,0.23823 0.08372,0.95756 c 0.04584,0.52674 -0.04346,1.77513 -0.198437,2.77399 -0.154978,0.99885 -0.282154,2.33558 -0.282154,2.97036 0,1.38856 1.063256,3.66642 2.073776,4.44314 0.387398,0.29778 1.002008,0.77063 1.365808,1.05058 0.73035,0.56203 0.44148,0.62729 -1.05834,0.23927 -3.39043,-0.87718 -4.548214,-1.56349 -5.193475,-3.07785 -0.835939,-1.96187 -0.301656,-4.08998 1.828312,-7.28535 z m 34.282143,1.30896 c 0.63592,9e-4 1.13249,0.0406 1.22008,0.12816 0.45133,0.45133 -2.90931,2.96149 -4.94285,3.69176 -0.65484,0.23517 -2.07118,0.5553 -3.14761,0.71159 -1.07643,0.15629 -2.05869,0.34704 -2.18281,0.42374 -0.12411,0.0767 -0.22583,-0.0188 -0.22583,-0.21187 0,-1.09651 3.63468,-3.71996 6.18877,-4.46743 0.58412,-0.17095 2.0304,-0.27745 3.09025,-0.27595 z m -54.211675,0.0305 c 0.374448,-7.2e-4 0.923985,0.0217 1.713073,0.0563 2.205386,0.0966 2.829211,0.22885 4.0566,0.86093 1.290557,0.6646 3.698834,2.86602 3.706234,3.3879 0.0016,0.10914 -0.205776,0.18098 -0.460437,0.15968 -3.636866,-0.30477 -4.275222,-0.44062 -5.857524,-1.24643 -1.991088,-1.01398 -3.384889,-2.03238 -3.772379,-2.75642 -0.185361,-0.34639 -0.209354,-0.46041 0.614433,-0.46199 z m 5.57847,4.99039 c 1.403339,-0.005 2.952507,0.15187 3.635954,0.36794 1.080272,0.34153 4.449038,2.49934 4.483448,2.87166 0.01456,0.15762 -2.286383,0.17745 -3.954798,0.0341 -1.200882,-0.10317 -3.161196,-0.72712 -5.196065,-1.65364 -2.765098,-1.25901 -2.542926,-1.60816 1.031461,-1.62006 z m 44.028835,0.0424 c 1.9656,0 2.73369,0.1553 2.73369,0.55293 0,0.37404 -2.44157,1.50446 -4.5403,2.10168 -1.82569,0.51953 -7.10137,1.09882 -7.10137,0.7798 0,-0.13804 2.33127,-1.97989 3.12849,-2.47168 0.69991,-0.43178 3.88775,-0.96273 5.77949,-0.96273 z m -37.218398,3.99303 c 1.504872,-0.0228 3.23545,0.45096 6.077666,1.6645 1.232507,0.52625 2.445985,0.95705 2.696476,0.95705 1.017736,0 0.655196,0.47036 -0.482658,0.62632 -2.315805,0.31742 -3.021332,0.2413 -7.100859,-0.76791 -1.455206,-0.35999 -3.300678,-0.7448 -4.101041,-0.85525 -0.800364,-0.11045 -1.452424,-0.31848 -1.449524,-0.46199 0.0073,-0.36363 2.921884,-1.14092 4.35994,-1.16272 z m 29.497428,0.30128 c 1.52206,-0.004 2.99018,0.30955 4.23591,0.94103 l 0.79272,0.40204 -2.24792,0.47025 c -1.23636,0.25884 -2.7837,0.66687 -3.43855,0.90641 -1.46023,0.53416 -5.697,0.73254 -7.62745,0.35708 -0.77532,-0.15079 -1.35209,-0.33152 -1.28209,-0.40152 0.07,-0.07 0.82345,-0.30752 1.67432,-0.52814 0.85087,-0.22062 2.35128,-0.75271 3.33416,-1.18235 1.46126,-0.63874 3.03683,-0.96072 4.5589,-0.9648 z m -17.7953,2.86546 c 0.13432,0 0.20412,0.0828 0.20412,0.24856 0,0.14552 -0.26789,0.26245 -0.59531,0.26045 -0.4814,-0.003 -0.51937,-0.0531 -0.19844,-0.26045 0.25648,-0.16575 0.45531,-0.24856 0.58963,-0.24856 z m -0.39998,1.04231 c 0.33246,0 0.6041,0.11906 0.6041,0.26458 0,0.14553 -0.21648,0.26459 -0.48111,0.26459 -1.19188,0 -3.230791,0.86645 -4.342882,1.84536 -1.371263,1.20705 -2.584339,1.78665 -2.584339,1.23507 0,-0.34761 1.523543,-1.69079 2.516642,-2.21899 0.962865,-0.51212 3.671329,-1.39061 4.287589,-1.39061 z m 6.90604,0.1788 c 0.59452,-0.0265 2.27912,0.37615 3.33882,0.84491 1.15275,0.50991 3.32383,2.2811 3.32383,2.71146 0,0.50119 -1.26363,0.19819 -1.87121,-0.44855 -0.79331,-0.84444 -3.30214,-2.38725 -4.28036,-2.6324 -0.40018,-0.10029 -0.7276,-0.27299 -0.7276,-0.38395 0,-0.0563 0.0793,-0.0853 0.21652,-0.0915 z m -4.8736,1.83038 c 0.40773,-0.004 0.91658,0.008 1.54771,0.0341 2.69283,0.11051 3.33315,0.29116 2.99155,0.84387 -0.23471,0.37981 -5.87245,0.39078 -6.10661,0.0119 -0.0939,-0.1519 -0.0418,-0.43179 0.11576,-0.62167 0.14665,-0.17669 0.55459,-0.26022 1.45159,-0.2682 z m 1.4981,1.95957 c 2.13351,0 2.62981,0.0732 2.62981,0.38757 0,0.21316 -0.23012,0.51081 -0.51159,0.66146 -0.80814,0.4325 -4.38825,0.34868 -4.77026,-0.11162 -0.6051,-0.72911 -0.0151,-0.93741 2.65204,-0.93741 z m -1.8681,1.8278 1.78593,0.0785 1.78594,0.078 -0.0806,1.05834 c -0.0509,0.66652 -0.28235,1.22975 -0.62477,1.52135 -0.74984,0.63855 -1.45091,0.57946 -2.21692,-0.18655 -0.4484,-0.44839 -0.64957,-0.94336 -0.64957,-1.59939 z" /></g><g
       id="g152"
       style="display:inline;fill:#fe0000;fill-opacity:1"
       inkscape:label="bottomtext"><path
         style="fill:#fe0000;fill-opacity:1"
         d="m 78.745468,193.88947 c -1.507,-1.15068 -1.744139,-1.71104 -0.984429,-2.32621 0.694398,-0.56229 1.045212,-0.59317 1.045212,-0.092 0,0.60938 1.558122,1.74332 2.39545,1.74332 0.964566,0 1.397119,-0.64107 1.963764,-2.91042 0.82913,-3.32057 0.850335,-3.35999 1.737534,-3.22978 0.756838,0.11108 0.786318,0.16255 0.617384,1.0779 -0.09757,0.52869 -0.453193,1.97328 -0.79027,3.21021 -0.772307,2.83404 -1.368597,3.43959 -3.387027,3.43959 -1.191421,0 -1.582221,-0.1373 -2.597618,-0.91262 z"
         id="path83" /><path
         style="fill:#fe0000;fill-opacity:1"
         d="m 126.96042,194.88048 c -0.61314,-0.22311 -1.85805,-1.45459 -2.27258,-2.24807 -0.48158,-0.92181 -0.47784,-2.88868 0.008,-4.05074 0.67891,-1.62486 3.16186,-2.6025 5.03752,-1.98348 1.05446,0.34801 1.09726,0.43846 0.51294,1.08413 -0.33804,0.37353 -0.56445,0.41167 -1.1768,0.19821 -0.94771,-0.33038 -2.07356,0.15099 -2.57443,1.10072 -0.70228,1.33166 0.0603,3.67488 1.39376,4.28242 0.82271,0.37485 2.04437,-0.10235 2.51545,-0.98257 l 0.33931,-0.634 0.75086,0.53466 0.75086,0.53465 -0.56613,0.76573 c -0.89882,1.21573 -3.28054,1.92156 -4.71846,1.39834 z"
         id="path82" /><path
         style="fill:#fe0000;fill-opacity:1"
         d="m 116.48298,196.87604 c -0.0696,-0.11263 -0.26245,-1.59171 -0.42853,-3.28686 l -0.30196,-3.08207 -1.4075,0.16542 -1.40749,0.16543 v -0.77985 c 0,-0.7318 0.0774,-0.78958 1.25677,-0.93774 0.69122,-0.0868 2.31338,-0.3373 3.60479,-0.55657 1.29141,-0.21927 2.38109,-0.36387 2.42152,-0.32134 0.0404,0.0425 0.11492,0.37499 0.16553,0.73879 0.0819,0.58836 -0.0396,0.69333 -1.09861,0.94988 l -1.19063,0.28842 2.9e-4,1.43137 c 1.6e-4,0.78726 0.0891,2.28159 0.19761,3.32075 l 0.19731,1.88938 -0.94127,0.10989 c -0.5177,0.0604 -0.99822,0.0177 -1.06783,-0.0949 z"
         id="path81" /><path
         id="path80"
         style="fill:#fe0000;fill-opacity:1"
         d="m 91.330859,188.45671 c -0.169109,-0.003 -0.390076,0.50137 -0.491442,1.11983 -0.101368,0.61847 -0.472007,2.41101 -0.823723,3.98322 -0.351715,1.57221 -0.570321,2.9712 -0.485242,3.10886 0.08508,0.13766 0.492449,0.25011 0.904855,0.25011 0.784498,0 1.070735,-0.38634 1.070735,-1.44436 0,-0.88303 0.51001,-1.17111 1.718759,-0.971 1.009689,0.16716 1.073731,0.23664 1.423685,1.54565 0.308512,1.15399 0.475738,1.38742 1.059367,1.47742 0.381225,0.0588 0.782279,0.12445 0.891419,0.14625 0.270669,0.0541 0.250724,-0.13721 -0.186036,-1.77819 l -0.378271,-1.42162 0.910539,-0.85886 c 0.770643,-0.72681 0.910321,-1.03679 0.906921,-2.01796 -0.0046,-1.31802 -0.147004,-1.61242 -0.997355,-2.06034 -0.513942,-0.27072 -4.579724,-1.06481 -5.524211,-1.07901 z m 1.810226,1.4919 c 0.72228,0.003 2.125084,0.33738 2.52181,0.66663 0.498532,0.41375 0.416632,1.6555 -0.142627,2.16162 -0.573881,0.51936 -2.399265,0.5839 -3.021521,0.10697 -0.34801,-0.26674 -0.389473,-0.55233 -0.214457,-1.47639 0.119352,-0.63017 0.320461,-1.24962 0.447001,-1.37615 0.05845,-0.0584 0.207555,-0.0835 0.409794,-0.0827 z" /><path
         id="path78"
         style="fill:#fe0000;fill-opacity:1"
         d="m 105.58994,189.51091 c -2.44521,0.001 -3.89744,1.67661 -3.89744,4.4974 0,1.98418 0.682,3.24247 2.08928,3.85506 3.08259,1.34188 5.96638,-0.69496 5.97638,-4.22093 0.007,-2.63307 -1.50576,-4.13253 -4.16822,-4.13153 z m 0.11834,1.32654 c 1.29952,-0.006 1.93958,0.99165 1.92908,3.00808 -0.009,1.68521 -0.25917,2.24764 -1.23094,2.76521 -0.7183,0.38261 -0.85166,0.38001 -1.66604,-0.032 -0.99311,-0.50249 -1.37261,-1.44194 -1.19063,-2.94711 0.26017,-2.15185 0.75138,-2.78714 2.15853,-2.79414 z" /></g><g
       id="g151"
       style="display:inline;fill:#fe0000;fill-opacity:1"
       inkscape:label="toptext"><path
         id="path150"
         style="fill:#fe0000;fill-opacity:1"
         d="m 104.13266,100.02284 c -0.31627,-0.002 -0.71996,0.0161 -1.13481,0.0537 l -1.50844,0.13694 -1.15187,3.83646 c -0.63316,2.10917 -1.152632,3.99748 -1.154964,4.19768 v 5.1e-4 c -0.002,0.24579 0.18654,0.31013 0.591696,0.20154 0.327418,-0.0877 0.738848,-0.16078 0.914158,-0.16278 0.17531,-0.002 0.39772,-0.42362 0.49402,-0.93689 0.20838,-1.11076 0.60053,-1.34497 2.38177,-1.42317 1.3412,-0.0589 1.34261,-0.0582 1.76475,1.01647 0.36664,0.93338 0.52977,1.07539 1.23714,1.07539 0.44825,0 0.81493,-0.10112 0.81493,-0.22479 0,-0.50393 -2.41931,-7.57286 -2.63808,-7.70806 -0.065,-0.0401 -0.29403,-0.0614 -0.6103,-0.063 z m -0.93172,1.3472 c 0.19849,-0.005 0.41193,0.40659 0.71261,1.21026 0.65049,1.73859 0.69507,2.26343 0.19327,2.26343 -0.20009,0 -0.73587,0.0744 -1.19062,0.16536 -0.96782,0.19357 -0.99218,0.0831 -0.44028,-1.99057 0.29394,-1.10443 0.50006,-1.64329 0.72502,-1.64848 z" /><path
         style="fill:#fe0000;fill-opacity:1"
         d="m 95.048313,108.16878 c -0.284039,-0.7402 0.106237,-1.24986 0.888204,-1.15992 0.578963,0.0666 0.729108,0.22008 0.729108,0.74533 0,0.52524 -0.150145,0.67872 -0.729108,0.74532 -0.475474,0.0547 -0.784453,-0.0604 -0.888204,-0.33073 z"
         id="path148" /><path
         id="path147"
         style="fill:#fe0000;fill-opacity:1"
         d="m 109.63,100.21352 -0.17415,2.38125 c -0.096,1.30969 -0.24289,3.06587 -0.32659,3.90261 l -0.15245,1.52135 h 0.76119 c 0.82579,0 1.08263,-0.37816 1.08263,-1.5937 0,-0.90634 0.33149,-1.15902 1.22473,-0.93483 0.48517,0.12177 0.8359,0.55326 1.29604,1.5937 0.51909,1.17378 0.76232,1.44262 1.37046,1.51722 0.40657,0.0499 0.78036,0.0667 0.83096,0.0372 0.0506,-0.0295 -0.16444,-0.73959 -0.47801,-1.57768 l -0.56999,-1.52394 0.9555,-0.8754 c 0.87101,-0.79801 0.94838,-0.98436 0.87488,-2.10581 -0.1193,-1.82006 -0.73157,-2.16236 -4.04937,-2.2624 z m 2.74505,1.19424 c 1.75086,0.007 2.14974,0.22899 2.14974,1.1989 0,0.48196 -0.18681,1.06374 -0.41548,1.29242 -0.22868,0.22867 -0.79423,0.40189 -1.25677,0.38499 -1.81467,-0.0662 -1.96169,-0.25449 -1.60197,-2.0531 0.1489,-0.74451 0.26086,-0.82621 1.12448,-0.82321 z" /><path
         style="fill:#fe0000;fill-opacity:1"
         d="m 88.397396,109.68413 c -0.45776,-0.0882 -0.595312,-0.29597 -0.595312,-0.89932 0,-0.69378 0.05927,-0.75294 0.511772,-0.51077 0.701349,0.37535 3.014739,0.34572 3.404061,-0.0436 0.362228,-0.36223 0.411149,-1.24199 0.09662,-1.73752 -0.117028,-0.18437 -1.004566,-0.43054 -1.972307,-0.54705 -2.207056,-0.2657 -2.833895,-0.77088 -2.833895,-2.28384 0,-1.3331 0.640258,-2.11687 2.048798,-2.50804 2.05882,-0.57176 3.507452,-0.30071 3.507452,0.65626 0,0.5863 -0.0659,0.60723 -1.459167,0.46344 -1.572102,-0.16226 -2.509583,0.30685 -2.509583,1.25577 0,0.7245 0.542217,0.97881 2.354434,1.10427 1.511795,0.10466 1.776533,0.21072 2.473738,0.99103 0.630896,0.70609 0.749709,1.02908 0.618985,1.6827 -0.399059,1.99529 -2.667526,2.95027 -5.645596,2.37667 z"
         id="path145" /><path
         style="fill:#fe0000;fill-opacity:1"
         d="m 125.43865,110.47782 c -0.45203,-0.087 -0.56622,-0.25385 -0.47343,-0.69157 0.98335,-4.63879 0.75517,-5.03507 -1.18225,-2.05318 -0.76394,1.17578 -1.49036,2.13778 -1.61427,2.13778 -0.24231,0 -0.35595,-0.38114 -1.02553,-3.43958 -0.23894,-1.09141 -0.5418,-1.98438 -0.67301,-1.98438 -0.13121,0 -0.42122,1.07157 -0.64447,2.38125 -0.39216,2.30065 -0.42829,2.37814 -1.06736,2.28924 -0.3638,-0.0506 -0.71296,-0.14181 -0.77592,-0.20266 -0.12738,-0.12313 0.99972,-7.55795 1.17186,-7.73009 0.0598,-0.0598 0.64334,-0.0286 1.29669,0.0694 l 1.18791,0.17814 0.44536,2.03655 c 0.62295,2.84865 0.67709,2.9097 1.5904,1.79323 0.42473,-0.51922 1.12186,-1.37347 1.54916,-1.89833 0.68818,-0.84531 0.88079,-0.93744 1.68643,-0.8067 0.50023,0.0812 0.9621,0.20018 1.02638,0.26446 0.0643,0.0643 -0.18315,1.40882 -0.54983,2.98787 -0.36668,1.57906 -0.73707,3.3175 -0.82309,3.8632 -0.086,0.54571 -0.24031,0.97598 -0.34286,0.95616 -0.10254,-0.0198 -0.45452,-0.0877 -0.78217,-0.15075 z"
         id="path144" /><path
         style="fill:#fe0000;fill-opacity:1"
         d="m 83.681174,110.28276 c -0.198916,-0.79254 0.02879,-1.20566 0.664545,-1.20566 0.756866,0 1.167954,0.65507 0.819583,1.30601 -0.408574,0.76342 -1.282159,0.70436 -1.484128,-0.10035 z"
         id="path143" /><path
         style="fill:#fe0000;fill-opacity:1"
         d="m 130.99531,111.78419 c -0.67261,-0.11079 -0.72804,-0.48289 -0.28981,-1.94558 0.25943,-0.86589 0.21425,-1.36936 -0.29955,-3.33799 -0.33277,-1.27507 -0.71257,-2.52667 -0.84397,-2.78133 -0.27418,-0.53132 0.14286,-0.61363 1.15648,-0.22825 0.48358,0.18386 0.69317,0.57591 0.96649,1.8079 0.53864,2.42795 0.55989,2.43617 2.38023,0.92126 1.49965,-1.24801 1.65946,-1.31802 2.38429,-1.04443 l 0.77689,0.29325 -1.75953,1.30423 c -2.58699,1.91757 -2.85921,2.21974 -3.22462,3.57937 -0.39492,1.46943 -0.47297,1.55904 -1.2469,1.43157 z"
         id="path142" /><path
         style="fill:#fe0000;fill-opacity:1"
         d="m 77.033761,111.73399 c -0.910663,-0.55526 -1.049255,-0.9252 -1.720327,-4.59194 -0.352074,-1.92373 -0.346196,-2.08453 0.08463,-2.3151 1.013274,-0.54229 1.169337,-0.31104 1.64299,2.43456 0.549182,3.18341 0.768301,3.66766 1.659609,3.66766 1.805972,0 2.037285,-0.90003 1.27577,-4.96398 -0.229525,-1.22489 -0.377464,-2.26694 -0.328754,-2.31565 0.04871,-0.0487 0.444862,-0.12736 0.880339,-0.17478 0.675392,-0.0735 0.803136,0.011 0.869067,0.57524 0.04251,0.3638 0.25087,1.38344 0.463021,2.26586 0.587762,2.44474 0.513726,4.1399 -0.209584,4.7987 -1.392224,1.26807 -3.163249,1.50569 -4.616761,0.61943 z"
         id="path141" /></g></g><metadata
     id="metadata155"><rdf:RDF><cc:Work
         rdf:about=""><dc:title>Army JROTC Logo</dc:title></cc:Work></rdf:RDF></metadata></svg>
