<?xml version="1.0" encoding="UTF-8" standalone="no"?>
<!-- Created with Inkscape (http://www.inkscape.org/) -->

<svg
   width="222mm"
   height="222mm"
   viewBox="0 0 222 222"
   version="1.1"
   id="svg1"
   inkscape:version="1.3.2 (091e20e, 2023-11-25, custom)"
   sodipodi:docname="AFJROTC_LOGO.svg"
   inkscape:export-filename="AFJROTC_LOGO.png"
   inkscape:export-xdpi="96"
   inkscape:export-ydpi="96"
   xmlns:inkscape="http://www.inkscape.org/namespaces/inkscape"
   xmlns:sodipodi="http://sodipodi.sourceforge.net/DTD/sodipodi-0.dtd"
   xmlns="http://www.w3.org/2000/svg"
   xmlns:svg="http://www.w3.org/2000/svg">
  <sodipodi:namedview
     id="namedview1"
     pagecolor="#505050"
     bordercolor="#eeeeee"
     borderopacity="1"
     inkscape:showpageshadow="0"
     inkscape:pageopacity="0"
     inkscape:pagecheckerboard="0"
     inkscape:deskcolor="#505050"
     inkscape:document-units="mm"
     inkscape:zoom="0.72426347"
     inkscape:cx="396.95499"
     inkscape:cy="561.25984"
     inkscape:window-width="1920"
     inkscape:window-height="1009"
     inkscape:window-x="-8"
     inkscape:window-y="-8"
     inkscape:window-maximized="1"
     inkscape:current-layer="layer1" />
  <defs
     id="defs1" />
  <g
     inkscape:label="Layer 1"
     inkscape:groupmode="layer"
     id="layer1">
    <g
       transform="matrix(0.03527778,0,0,-0.03527778,1.1641004,220.50855)"
       fill="#000000"
       stroke="none"
       id="g23"
       style="display:inline"
       inkscape:label="JROTC LOGO">
      <circle
         style="display:inline;fill:#ffffff;fill-opacity:1;stroke:#003399;stroke-width:208.97;stroke-dasharray:none;stroke-opacity:1"
         id="path26"
         cx="3117.3928"
         cy="-3102.6072"
         r="2992.4153"
         transform="scale(1,-1)"
         inkscape:label="inner_circle" />
      <path
         d="m 2588,5857 c -172,-34 -208,-44 -208,-58 0,-9 23,-133 51,-275 28,-143 53,-274 56,-292 5,-28 9,-33 27,-28 12,3 40,8 64,12 50,8 49,1 18,152 -17,80 -20,115 -12,117 6,2 66,14 134,26 l 123,23 -7,46 c -3,25 -10,49 -15,54 -7,7 -185,-21 -250,-40 -13,-4 -19,8 -29,61 -7,36 -10,69 -7,72 4,3 62,16 129,29 186,35 171,29 163,72 -9,53 -15,72 -23,71 -4,-1 -100,-20 -214,-42 z"
         id="path2"
         style="fill:#003399;fill-opacity:1" />
      <path
         d="m 3294,5884 c -98,-35 -164,-129 -185,-263 -33,-218 87,-372 291,-374 93,-1 147,20 206,77 71,70 96,139 98,266 1,85 -2,101 -27,152 -49,101 -150,159 -275,157 -37,0 -86,-7 -108,-15 z m 197,-117 c 70,-47 98,-125 80,-222 -24,-128 -78,-185 -173,-185 -60,0 -108,28 -138,81 -44,80 -26,231 38,303 44,49 138,60 193,23 z"
         id="path3"
         style="fill:#003399;fill-opacity:1" />
      <path
         d="m 3974,5455 c -74,-152 -134,-279 -134,-283 0,-4 25,-20 55,-35 l 56,-27 37,77 c 21,43 46,93 55,110 l 17,33 80,-40 c 44,-22 87,-51 95,-64 15,-23 15,-29 -14,-95 -17,-38 -34,-83 -37,-100 -6,-28 -3,-31 55,-60 72,-37 75,-37 68,-9 -4,14 7,51 28,99 35,77 44,134 25,169 -9,17 -5,21 31,30 126,34 161,208 59,294 -33,28 -133,80 -268,142 l -74,34 z m 296,75 c 44,-22 87,-51 96,-65 20,-31 12,-68 -22,-102 -20,-20 -30,-23 -57,-17 -27,5 -162,67 -176,80 -7,6 62,144 71,144 5,0 44,-18 88,-40 z"
         id="path4"
         style="fill:#003399;fill-opacity:1" />
      <path
         d="m 1495,5387 c -65,-38 -280,-208 -280,-222 0,-13 349,-470 367,-481 5,-3 31,11 58,31 l 50,37 -67,86 c -37,48 -71,92 -75,99 -11,14 135,123 166,123 14,1 46,-26 92,-77 81,-87 77,-87 159,-18 36,31 38,35 20,41 -11,4 -54,42 -95,85 -66,70 -79,79 -111,79 h -35 l 3,58 c 3,46 -1,65 -19,97 -47,80 -152,108 -233,62 z m 120,-132 c 24,-23 31,-57 19,-89 -5,-13 -35,-39 -150,-128 -8,-6 -27,12 -58,53 -26,34 -45,66 -44,71 2,5 35,33 73,63 81,63 120,71 160,30 z"
         id="path5"
         style="fill:#003399;fill-opacity:1" />
      <path
         d="m 4807,5175 c -94,-33 -188,-118 -238,-215 -35,-66 -38,-170 -9,-233 68,-144 233,-211 363,-148 26,13 47,28 47,35 0,7 -17,29 -39,50 l -39,38 -45,-16 c -58,-20 -105,-7 -146,39 -43,50 -48,92 -19,157 27,59 102,138 153,162 80,38 172,7 206,-70 18,-39 18,-46 5,-86 l -15,-42 46,-44 47,-43 18,23 c 25,33 41,112 34,162 -9,61 -62,144 -120,187 -75,57 -168,73 -249,44 z"
         id="path6"
         style="fill:#003499;fill-opacity:1" />
      <path
         d="m 916,4840 c -21,-28 -37,-52 -35,-54 2,-1 92,-72 199,-157 276,-218 277,-219 287,-219 8,0 73,80 77,94 1,6 -475,386 -484,386 -3,0 -23,-23 -44,-50 z"
         id="path7"
         style="fill:#003399;fill-opacity:1" />
      <path
         d="m 5420,4569 c -54,-29 -365,-192 -445,-232 -22,-11 -42,-22 -44,-23 -3,-3 196,-392 211,-411 7,-9 20,-7 54,10 24,11 44,25 44,31 0,5 -34,74 -75,153 -41,79 -75,146 -75,149 0,2 31,19 69,39 l 70,35 70,-134 71,-134 49,27 50,26 -70,133 c -39,74 -69,135 -67,136 15,12 109,58 112,55 2,-2 36,-67 76,-144 40,-77 75,-142 76,-144 4,-5 94,48 94,55 0,10 -205,404 -210,404 -3,0 -30,-14 -60,-31 z"
         id="path8"
         style="fill:#003399;fill-opacity:1" />
      <path
         d="m 570,4276 c -17,-36 -30,-69 -30,-74 0,-5 39,-46 88,-92 48,-46 153,-149 234,-229 81,-79 149,-143 151,-140 2,2 16,31 31,63 l 27,60 -50,50 -49,51 48,101 48,101 63,-9 c 34,-4 66,-5 70,-1 9,10 59,123 54,123 -16,0 -580,51 -613,56 l -43,5 z m 290,-87 c 47,-6 86,-12 88,-13 1,-2 -12,-33 -29,-69 -36,-78 -25,-80 -145,32 l -79,73 40,-6 c 22,-3 78,-11 125,-17 z"
         id="path9"
         style="fill:#003399;fill-opacity:1" />
      <path
         d="m 3881,3680 c -96,-20 -180,-95 -206,-184 -19,-63 -19,-90 1,-155 21,-72 90,-141 165,-166 154,-52 315,1 384,126 74,137 5,313 -144,364 -59,20 -144,26 -200,15 z m 159,-122 c 73,-38 102,-133 65,-211 -50,-106 -229,-111 -288,-9 -25,42 -24,122 0,165 22,39 94,77 143,77 20,0 56,-10 80,-22 z"
         id="path10"
         style="fill:#003399;fill-opacity:1" />
      <path
         d="m 1460,3465 c 0,-118 -3,-215 -6,-215 -3,0 -15,5 -26,11 -25,14 -98,-5 -98,-25 0,-14 45,-58 77,-75 55,-28 133,4 165,69 15,30 18,65 18,243 v 207 h -65 -65 z"
         id="path11"
         style="fill:#003399;fill-opacity:1" />
      <path
         d="m 1810,3525 c 0,-188 10,-239 56,-293 82,-96 307,-104 408,-14 47,42 56,86 56,280 v 182 h -65 -65 v -171 -171 l -33,-33 c -59,-59 -153,-55 -201,8 -19,26 -21,44 -24,198 l -3,169 h -65 -64 z"
         id="path12"
         style="fill:#003399;fill-opacity:1" />
      <path
         d="m 2560,3420 v -260 h 65 65 l 2,163 3,162 140,-162 139,-163 h 58 58 v 260 260 h -65 -64 l -3,-157 -3,-157 -138,157 -138,157 h -60 -59 z"
         id="path13"
         style="fill:#003399;fill-opacity:1" />
      <path
         d="m 3320,3420 v -260 h 65 65 v 260 260 h -65 -65 z"
         id="path14"
         style="fill:#003399;fill-opacity:1" />
      <path
         d="m 4460,3421 v -261 h 65 65 v 105 105 h 34 c 44,0 70,-31 117,-134 l 34,-76 h 72 72 l -16,38 c -32,78 -84,172 -104,191 l -21,19 21,7 c 59,19 87,136 45,192 -47,63 -62,68 -230,71 l -154,3 z m 258,147 c 17,-17 15,-64 -4,-82 -10,-11 -34,-16 -70,-16 h -54 v 55 55 h 58 c 32,0 63,-5 70,-12 z"
         id="path15"
         style="fill:#003399;fill-opacity:1" />
      <path
         d="m 2299,3009 c -188,-27 -345,-133 -427,-286 -109,-205 -74,-433 92,-599 109,-109 229,-161 395,-171 343,-20 615,191 637,496 26,352 -305,618 -697,560 z m 223,-229 c 78,-24 133,-69 173,-141 28,-50 30,-62 30,-154 0,-89 -3,-106 -27,-151 -35,-67 -92,-117 -164,-144 -83,-31 -215,-25 -290,13 -70,35 -130,106 -150,175 -24,80 -15,191 19,258 69,135 241,196 409,144 z"
         id="path16"
         style="fill:#003399;fill-opacity:1" />
      <path
         d="m 5111,3010 c -310,-43 -511,-251 -511,-529 0,-47 6,-109 14,-137 35,-131 134,-254 255,-317 107,-57 176,-71 336,-71 154,0 215,12 336,66 l 69,31 v 113 114 l -32,-14 c -18,-8 -59,-25 -90,-39 -97,-45 -173,-59 -278,-55 -76,3 -106,9 -152,30 -125,58 -192,156 -193,283 -1,272 328,400 643,250 41,-19 78,-35 83,-35 5,0 9,51 9,114 v 113 l -58,26 c -114,52 -297,75 -431,57 z"
         id="path17"
         style="fill:#003399;fill-opacity:1" />
      <path
         d="m 620,2481 v -521 h 130 130 v 215 215 h 40 c 53,0 98,-20 137,-61 34,-36 61,-88 138,-261 l 48,-108 h 143 144 l -24,53 c -144,319 -182,388 -231,418 l -26,15 48,33 c 89,60 128,140 121,244 -7,107 -68,196 -166,244 l -57,28 -287,3 -288,3 z m 500,293 c 54,-54 38,-146 -31,-181 -14,-7 -63,-13 -116,-13 h -93 v 116 116 l 105,-4 c 102,-3 106,-4 135,-34 z"
         id="path18"
         style="fill:#003399;fill-opacity:1" />
      <path
         d="m 3240,2905 v -95 h 190 190 v -425 -425 h 130 130 v 425 425 h 185 185 v 95 95 h -505 -505 z"
         id="path19"
         style="fill:#003399;fill-opacity:1" />
      <path
         d="m 3000,1815 c -109,-49 -33,-120 121,-113 118,5 170,54 107,101 -37,28 -177,35 -228,12 z"
         id="path20"
         style="fill:#003399;fill-opacity:1" />
      <path
         d="m 1213,1752 c -18,-18 -37,-49 -43,-68 -27,-81 21,-184 78,-169 38,9 50,22 63,65 11,36 10,40 -20,77 -18,23 -35,58 -39,84 l -8,44 z"
         id="path21"
         style="fill:#f70212;fill-opacity:1" />
      <path
         d="m 2600,1490 -495,-189 -90,43 c -195,95 -462,156 -680,156 -69,0 -84,-3 -109,-23 l -29,-24 44,-6 c 228,-32 619,-260 1006,-589 l 92,-78 h 753 l 753,1 98,144 97,144 44,-18 c 72,-32 155,-44 286,-44 207,0 398,42 565,123 158,76 237,163 220,241 -8,37 -76,94 -134,113 -248,82 -710,9 -926,-145 l -41,-29 -464,181 c -256,100 -472,183 -480,185 -8,2 -238,-82 -510,-186 z m 2290,-64 c 108,-40 129,-105 58,-182 -148,-161 -634,-229 -777,-108 -25,21 -31,33 -31,65 0,93 166,189 404,235 93,18 285,12 346,-10 z M 3840,1260 c 0,-20 -7,-20 -750,-20 -743,0 -750,0 -750,20 0,20 7,20 750,20 743,0 750,0 750,-20 z m 0,-200 c 0,-20 -7,-20 -750,-20 -743,0 -750,0 -750,20 0,20 7,20 750,20 743,0 750,0 750,-20 z"
         id="path22"
         style="fill:#003399;fill-opacity:1" />
      <path
         d="M 2225,600 2105,480 h 989 988 l -121,120 -120,120 h -748 -748 z"
         id="path23"
         style="fill:#003399;fill-opacity:1" />
      <path
         style="fill:#ffcc00;fill-opacity:1;stroke-width:3.79842"
         d="m 245.99766,233.57666 c 0,-1.12099 2.08747,-5.48415 6.67677,-13.95553 1.34752,-2.48739 6.34912,-12.34754 11.11469,-21.91147 l 8.6647,-17.38899 -13.22807,-26.46433 c -7.27545,-14.5554 -13.22809,-26.74233 -13.22809,-27.08211 0,-1.35328 5.28779,-0.48563 11.763,1.93017 12.09833,4.51363 44.74878,16.2319 54.06428,19.40373 4.97471,1.69383 12.88907,4.49803 17.58744,6.23156 4.69834,1.73357 14.87393,5.3991 22.61241,8.14573 7.73845,2.74659 16.55732,5.8981 19.59744,7.00328 3.0401,1.10522 8.83704,3.11812 12.88208,4.47309 8.45242,2.83133 13.2478,5.13614 13.2478,6.36721 0,2.17857 -1.41004,2.74769 -43.71732,17.64589 -8.29124,2.91973 -19.1452,6.76118 -24.11991,8.53656 -4.97474,1.7754 -14.69807,5.18848 -21.60743,7.58458 -16.21257,5.62238 -46.29343,16.1804 -48.23983,16.93158 -9.27315,3.57882 -14.06996,4.44786 -14.06996,2.54905 z"
         id="path32375"
         transform="matrix(9.9999998,0,0,-9.9999998,0,6220)" />
    </g>
  </g>
</svg>
