<?xml version="1.0" encoding="UTF-8" ?>
<!DOCTYPE svg PUBLIC "-//W3C//DTD SVG 1.1//EN" "http://www.w3.org/Graphics/SVG/1.1/DTD/svg11.dtd">
<svg width="600pt" height="590pt" viewBox="0 0 600 590" version="1.1" xmlns="http://www.w3.org/2000/svg">
<g id="#fcd525ff">
<path fill="#fcd525" opacity="1.00" d=" M 126.75 0.00 L 473.12 0.00 C 478.14 6.24 484.32 11.39 489.74 17.26 C 501.30 28.70 512.44 40.56 524.10 51.90 C 527.42 55.06 530.49 58.47 533.45 61.96 C 529.31 69.00 524.21 75.46 520.72 82.88 C 511.19 100.99 504.07 120.43 500.32 140.58 C 496.82 156.80 495.45 173.43 495.62 190.00 C 495.43 218.67 499.20 247.28 505.94 275.12 C 508.31 284.04 509.96 293.12 512.32 302.05 C 514.41 294.85 517.31 287.86 521.50 281.62 C 525.79 274.76 531.86 268.76 539.45 265.68 C 544.88 263.66 550.96 263.37 556.59 264.73 C 563.22 266.47 568.09 272.04 571.00 278.00 C 573.94 283.89 573.59 290.66 575.11 296.93 C 577.19 305.58 580.33 313.95 583.91 322.09 C 587.11 329.39 590.33 336.71 594.37 343.61 C 596.89 348.06 599.79 352.69 599.76 358.00 C 599.89 361.91 598.36 365.81 595.58 368.58 C 590.23 374.11 582.77 376.64 576.10 380.16 C 577.26 387.66 578.15 395.36 576.63 402.88 C 574.29 415.06 568.64 426.43 561.34 436.38 C 553.20 447.72 543.13 457.51 532.42 466.40 C 513.04 482.11 491.38 494.71 469.26 506.13 C 461.99 509.94 454.16 512.43 446.59 515.55 C 429.14 522.23 411.79 529.20 394.52 536.35 C 364.43 548.30 335.03 562.60 308.92 581.90 C 305.55 584.31 302.52 587.15 299.52 590.00 L 298.20 590.00 C 293.58 585.86 288.88 581.79 283.77 578.26 C 274.43 571.82 265.00 565.47 255.07 559.97 C 232.51 546.79 208.09 537.31 184.12 527.08 C 169.62 521.15 155.15 515.16 140.56 509.47 C 132.13 506.29 124.49 501.46 116.50 497.37 C 96.13 486.18 76.68 473.17 59.33 457.67 C 53.07 452.58 47.98 446.30 42.88 440.11 C 33.79 429.30 26.78 416.57 23.43 402.81 C 21.34 394.14 22.09 385.12 23.64 376.44 C 17.04 373.77 10.05 371.22 5.00 365.99 C 2.10 363.11 0.08 359.17 0.23 355.01 C 0.17 350.19 2.61 345.88 4.89 341.80 C 12.59 328.28 19.16 314.09 24.18 299.36 C 26.24 293.57 26.67 287.42 27.77 281.44 C 29.57 273.46 34.52 265.49 42.48 262.54 C 49.85 259.89 58.34 260.89 65.08 264.82 C 73.37 269.36 79.10 277.37 83.14 285.72 C 84.86 289.86 86.47 294.04 88.24 298.16 C 92.44 281.18 96.25 264.10 99.18 246.86 C 101.96 233.78 103.28 220.43 103.65 207.07 C 104.62 189.33 104.23 171.48 101.75 153.88 C 98.66 134.98 93.88 116.27 86.43 98.59 C 81.06 85.54 74.29 72.97 65.41 61.96 C 74.32 53.36 83.06 44.58 91.59 35.60 C 103.47 23.89 115.11 11.95 126.75 0.00 M 131.16 15.19 C 124.16 22.19 117.80 29.80 110.73 36.72 C 103.81 43.49 97.71 51.02 90.70 57.69 C 88.25 60.02 86.00 62.54 83.80 65.10 C 90.07 75.53 96.08 86.16 100.47 97.56 C 111.53 124.63 117.17 153.81 118.04 183.00 C 117.84 191.72 118.46 200.46 117.45 209.15 C 116.82 214.76 117.24 220.43 116.81 226.06 C 114.35 249.36 109.60 272.36 104.02 295.10 C 102.19 301.21 100.34 307.35 99.71 313.72 C 98.01 325.07 99.36 336.65 102.32 347.67 C 107.56 365.98 119.32 382.06 134.20 393.77 C 143.98 401.79 155.14 407.90 166.40 413.57 C 188.70 424.09 211.99 432.32 234.45 442.50 C 253.10 450.96 271.67 460.26 287.48 473.47 C 291.99 477.11 295.71 481.58 299.87 485.60 C 304.91 480.40 309.79 474.99 315.58 470.60 C 329.75 459.68 345.70 451.31 361.94 443.94 C 383.20 434.13 405.24 426.14 426.62 416.63 C 440.94 409.95 455.09 402.48 467.20 392.23 C 471.82 388.18 476.19 383.83 480.23 379.21 C 492.27 364.98 499.88 346.72 500.15 327.98 C 500.32 319.95 500.14 311.80 497.95 304.01 C 492.04 283.20 487.84 261.94 484.52 240.58 C 482.67 229.15 482.38 217.56 482.03 206.01 C 481.74 193.33 481.38 180.59 482.64 167.95 C 485.75 131.09 496.85 94.59 516.77 63.27 C 501.67 48.03 486.38 32.97 471.33 17.67 C 469.22 15.71 467.28 12.74 464.02 13.01 C 358.02 12.98 252.01 13.01 146.00 13.00 C 142.07 13.05 138.12 12.70 134.21 13.20 C 132.93 13.32 132.09 14.44 131.16 15.19 M 44.24 268.28 C 39.01 270.47 35.16 275.28 33.70 280.70 C 31.02 289.55 34.44 300.30 42.69 304.95 C 47.30 297.89 50.98 290.25 55.99 283.45 C 61.92 286.93 66.85 292.47 68.56 299.23 C 69.85 304.93 69.38 310.98 67.56 316.52 C 64.84 324.74 60.48 332.34 55.21 339.17 C 48.38 348.04 41.43 356.83 35.07 366.05 C 31.67 371.13 28.94 376.85 28.22 382.98 C 27.18 392.20 28.54 401.62 31.86 410.27 C 37.80 425.60 48.05 438.85 59.66 450.33 C 80.38 470.55 105.24 485.91 130.75 499.31 C 141.37 505.18 153.04 508.73 164.04 513.81 C 184.24 521.76 204.21 530.28 224.15 538.87 C 246.92 549.48 269.23 561.42 289.21 576.76 C 292.35 579.33 295.51 581.88 298.82 584.24 C 303.65 580.61 308.29 576.71 313.26 573.25 C 336.73 556.67 362.70 544.01 389.27 533.25 C 403.53 527.39 417.73 521.33 432.23 516.09 C 436.02 514.69 439.71 513.05 443.45 511.53 C 449.65 508.96 456.16 507.16 462.13 504.06 C 488.82 490.67 515.08 475.53 537.08 455.10 C 548.39 444.52 558.58 432.44 565.33 418.40 C 569.88 408.39 572.82 397.32 571.52 386.26 C 570.70 376.54 564.54 368.54 559.09 360.88 C 550.67 348.90 540.43 337.98 534.64 324.35 C 531.82 318.34 531.11 311.55 531.68 304.99 C 532.28 296.95 537.93 289.99 544.94 286.39 C 549.83 293.17 553.12 300.94 558.05 307.70 C 568.20 302.15 570.91 287.62 564.79 278.17 C 559.28 269.09 545.54 266.74 537.16 273.10 C 526.24 280.48 520.00 292.78 516.08 305.01 C 514.13 310.50 515.61 316.29 515.71 321.92 C 515.83 328.44 515.99 335.04 514.67 341.46 C 512.79 351.89 509.72 362.20 504.52 371.48 C 494.24 390.47 477.71 405.42 459.22 416.24 C 451.62 420.87 443.47 424.49 435.55 428.53 C 420.33 435.62 404.55 441.39 389.11 447.98 C 373.00 454.46 357.16 461.66 341.89 469.95 C 326.37 478.57 311.48 488.82 299.87 502.41 C 295.30 497.88 291.12 492.95 286.07 488.94 C 268.40 474.41 247.73 464.17 226.90 455.00 C 212.84 448.53 198.29 443.21 184.09 437.08 C 166.74 430.07 149.53 422.41 133.82 412.16 C 120.39 403.27 108.25 392.12 99.36 378.62 C 87.68 360.84 82.08 339.12 84.12 317.90 C 84.54 312.50 86.16 306.92 84.25 301.61 C 80.35 289.16 73.74 276.72 62.47 269.51 C 57.15 265.90 50.05 265.89 44.24 268.28 M 47.12 309.03 C 49.62 309.97 52.19 311.10 54.93 310.78 C 60.49 310.88 64.96 304.77 63.41 299.49 C 62.64 296.23 60.25 293.77 58.06 291.38 C 54.08 297.04 50.42 302.94 47.12 309.03 M 537.07 304.03 C 536.60 308.01 539.34 311.96 543.19 313.00 C 546.55 314.05 549.99 312.87 553.24 311.98 C 550.30 305.80 546.59 300.02 542.82 294.33 C 539.87 296.79 537.18 300.00 537.07 304.03 M 24.13 315.11 C 19.52 325.83 14.30 336.29 8.42 346.37 C 6.01 350.44 5.01 355.98 7.90 360.07 C 11.99 365.90 18.86 368.93 25.48 370.87 C 33.93 353.68 48.15 340.31 58.03 324.04 C 60.49 319.99 62.14 315.55 63.80 311.14 C 60.58 313.31 57.11 315.65 53.04 315.42 C 46.35 315.84 39.78 312.50 35.86 307.12 C 33.80 304.22 32.36 300.94 30.72 297.80 C 28.26 303.47 26.63 309.45 24.13 315.11 M 560.99 313.93 C 556.85 317.39 551.24 318.84 545.93 318.18 C 543.00 317.77 540.33 316.42 537.66 315.25 C 540.40 325.87 547.29 334.66 553.73 343.28 C 561.04 353.18 569.04 362.73 574.25 373.98 C 580.70 372.51 587.00 369.46 591.34 364.35 C 594.08 361.20 594.52 356.54 593.06 352.72 C 591.81 349.52 589.94 346.62 588.35 343.59 C 584.63 336.84 581.37 329.85 578.18 322.84 C 574.97 315.72 572.63 308.25 569.85 300.97 C 567.39 305.58 565.27 310.67 560.99 313.93 Z" />
<path fill="#fcd525" opacity="1.00" d=" M 245.46 102.33 C 249.71 101.08 254.07 100.07 258.53 100.12 L 259.63 100.19 C 260.02 104.13 260.10 108.12 259.44 112.03 C 257.80 122.39 256.76 132.83 255.39 143.22 C 253.78 153.57 254.61 164.09 253.44 174.49 C 249.91 176.59 246.44 178.78 242.99 181.00 C 241.39 172.07 239.17 163.14 239.50 154.00 C 239.47 142.58 241.84 131.36 242.64 120.00 C 243.03 114.03 244.21 108.16 245.46 102.33 Z" />
<path fill="#fcd525" opacity="1.00" d=" M 333.87 102.64 C 337.97 101.78 342.12 100.90 346.33 101.33 L 347.21 101.51 C 351.69 109.22 351.31 118.36 352.42 126.92 C 354.35 145.22 356.60 164.21 351.23 182.17 C 347.82 179.99 344.38 177.83 340.90 175.75 C 340.55 170.00 340.58 164.24 340.29 158.50 C 338.69 139.82 336.18 121.24 333.87 102.64 Z" />
<path fill="#fcd525" opacity="1.00" d=" M 237.32 107.05 C 239.16 106.53 241.12 106.72 243.01 106.62 C 242.33 115.43 240.91 124.16 240.09 132.96 C 239.11 140.34 239.60 147.81 238.58 155.19 C 237.30 164.71 241.10 173.80 242.21 183.12 C 242.56 186.23 241.11 189.13 240.11 191.99 C 238.66 195.55 237.94 199.33 236.80 202.98 C 236.39 202.98 235.58 202.98 235.18 202.98 C 231.43 190.23 226.20 177.56 226.56 164.01 C 226.94 153.01 225.75 141.90 227.69 131.00 C 228.54 125.81 228.90 120.51 230.31 115.43 C 231.27 111.81 233.71 108.39 237.32 107.05 Z" />
<path fill="#fcd525" opacity="1.00" d=" M 351.61 107.57 C 354.37 107.66 357.47 107.28 359.75 109.19 C 362.91 111.41 363.54 115.49 364.32 118.99 C 365.38 124.64 367.44 130.14 367.41 135.95 C 367.42 146.97 367.46 157.98 367.42 169.00 C 367.42 174.67 366.69 180.35 364.84 185.73 C 362.80 191.60 361.40 197.74 358.35 203.21 C 357.09 199.56 355.88 195.90 354.56 192.27 C 353.40 188.98 352.21 185.56 352.56 182.02 C 353.12 175.95 355.64 170.20 355.64 164.05 C 355.65 156.63 355.94 149.18 355.09 141.80 C 354.13 133.05 354.05 124.18 352.26 115.54 C 351.76 112.91 351.67 110.23 351.61 107.57 Z" />
<path fill="#fcd525" opacity="1.00" d=" M 212.95 133.97 C 214.70 131.93 216.56 129.71 219.19 128.81 C 221.55 128.38 223.96 128.57 226.34 128.59 C 225.25 141.37 225.18 154.21 225.45 167.03 C 225.98 178.63 229.76 189.72 233.53 200.60 C 235.37 205.57 235.55 210.92 235.29 216.16 C 236.73 207.82 238.93 199.64 241.38 191.55 C 242.49 188.12 243.58 184.62 245.51 181.55 C 247.99 177.49 253.26 175.62 257.82 176.71 C 259.56 177.08 261.31 178.80 260.64 180.70 C 259.47 187.25 255.83 192.94 253.19 198.95 C 250.26 205.56 249.40 212.83 248.81 219.96 C 248.42 224.40 248.82 228.85 249.51 233.24 C 249.60 233.91 249.78 235.23 249.87 235.89 C 250.41 241.96 251.68 247.94 252.20 254.01 C 252.74 260.33 251.33 267.06 254.10 273.02 C 256.39 277.83 259.32 282.33 262.63 286.49 C 264.12 288.64 266.84 288.99 269.15 289.68 C 268.17 293.12 267.04 296.82 263.96 298.99 C 259.85 302.74 254.14 303.42 248.81 303.45 C 250.97 303.68 253.12 303.95 255.28 304.25 C 253.76 309.72 249.93 314.72 244.38 316.48 C 235.02 319.34 224.34 319.22 215.69 314.29 C 213.12 312.96 211.82 310.26 210.39 307.91 C 218.55 309.23 226.74 313.59 235.10 310.89 C 239.71 308.90 243.07 304.93 247.34 302.37 C 244.09 301.03 241.19 299.04 239.24 296.07 C 244.23 295.71 249.22 295.70 254.21 295.50 C 249.55 295.24 244.85 295.46 240.20 294.99 C 233.89 293.59 229.24 288.14 227.38 282.14 C 233.28 284.00 239.02 286.84 245.34 286.89 C 242.00 284.39 237.67 284.64 233.85 283.40 C 230.53 282.37 227.18 280.72 225.13 277.81 C 223.03 274.95 222.94 271.25 222.50 267.87 C 228.41 271.44 234.05 276.13 241.18 276.85 C 239.04 276.04 237.20 274.60 234.99 273.95 C 229.68 272.28 224.56 268.92 222.08 263.78 C 220.22 260.02 220.62 255.72 220.75 251.67 C 223.70 255.53 226.58 259.59 230.57 262.46 C 233.00 264.32 235.93 265.28 238.77 266.30 C 234.14 262.96 228.39 260.75 225.14 255.83 C 222.39 251.45 223.45 246.09 224.68 241.40 C 226.65 244.74 228.35 248.25 230.65 251.39 C 232.59 254.06 235.25 256.07 237.85 258.06 C 234.81 254.46 231.30 251.21 228.79 247.19 C 226.81 244.01 225.78 239.97 227.09 236.34 C 228.04 233.24 230.80 231.29 233.08 229.21 C 235.44 235.28 236.29 242.12 240.62 247.26 C 238.91 242.24 236.47 237.44 235.53 232.19 C 234.59 227.10 234.68 221.91 234.70 216.76 C 234.36 219.00 234.05 221.24 233.70 223.47 C 231.70 222.10 229.98 220.36 228.41 218.53 C 225.12 213.97 221.68 209.37 219.78 204.02 C 216.77 195.97 216.40 187.30 214.77 178.93 C 213.63 173.15 213.52 167.25 213.32 161.38 C 212.75 152.82 212.74 144.24 212.64 135.67 C 212.72 135.25 212.87 134.40 212.95 133.97 Z" />
<path fill="#fcd525" opacity="1.00" d=" M 367.71 128.89 C 370.29 128.88 373.00 128.40 375.46 129.39 C 378.18 130.44 380.84 132.56 381.38 135.57 C 382.10 140.00 381.74 144.52 381.79 148.99 C 381.63 157.36 381.83 165.81 380.33 174.08 C 379.29 179.97 379.48 186.01 378.10 191.84 C 376.89 197.13 376.02 202.59 373.65 207.52 C 371.21 212.64 368.30 217.52 365.61 222.51 C 364.49 224.76 362.76 226.60 361.03 228.39 C 360.63 222.52 360.67 216.63 360.10 210.77 C 359.40 201.01 364.47 192.21 366.69 182.98 C 368.14 174.74 368.85 166.36 368.63 157.99 C 368.44 151.16 369.04 144.29 368.19 137.48 C 367.84 134.63 367.79 131.75 367.71 128.89 Z" />
<path fill="#fcd525" opacity="1.00" d=" M 203.68 158.55 C 205.81 156.96 208.54 157.82 210.96 157.84 C 211.71 161.87 212.27 165.93 212.40 170.03 C 212.51 176.19 214.41 182.12 214.98 188.23 C 215.74 195.94 217.16 203.91 221.57 210.45 C 225.12 216.20 230.05 220.96 233.33 226.88 C 231.20 229.05 229.05 231.22 226.89 233.37 C 224.67 231.87 222.32 230.42 220.69 228.24 C 212.77 217.91 208.23 205.50 204.69 193.09 C 202.66 184.80 200.34 176.50 199.72 167.95 C 199.41 164.44 200.80 160.67 203.68 158.55 Z" />
<path fill="#fcd525" opacity="1.00" d=" M 383.53 158.56 C 385.70 157.93 388.14 157.82 390.23 158.79 C 392.79 160.23 394.20 163.13 394.40 165.99 C 395.05 172.94 393.39 179.81 391.73 186.50 C 389.31 196.46 386.34 206.36 381.66 215.51 C 378.22 222.30 375.16 230.09 367.95 233.73 C 366.42 232.23 364.38 231.06 363.60 228.97 C 365.12 224.72 367.92 221.10 369.99 217.12 C 372.53 212.27 375.27 207.47 377.02 202.26 C 379.06 196.27 379.25 189.88 380.67 183.75 C 382.60 175.48 380.68 166.65 383.53 158.56 Z" />
<path fill="#fcd525" opacity="1.00" d=" M 187.91 179.79 C 187.07 174.76 191.45 168.87 196.85 169.70 C 199.07 169.79 199.19 172.38 199.37 174.03 C 199.93 180.99 202.19 187.64 203.85 194.38 C 207.16 205.50 211.02 216.71 217.81 226.25 C 220.13 229.66 223.69 231.92 226.30 235.09 C 226.14 238.48 223.98 241.20 222.04 243.80 C 214.67 240.62 209.77 233.81 205.80 227.12 C 201.52 219.08 197.30 210.96 194.44 202.29 C 191.55 195.02 189.10 187.54 187.91 179.79 Z" />
<path fill="#fcd525" opacity="1.00" d=" M 395.91 170.59 C 397.55 170.62 399.21 170.64 400.85 170.82 C 403.83 171.91 406.20 174.80 406.44 178.01 C 406.85 182.43 405.36 186.69 404.09 190.85 C 400.82 201.98 396.61 212.86 391.32 223.18 C 387.05 231.53 381.37 239.70 373.05 244.42 C 370.81 241.70 369.32 238.51 368.56 235.08 C 374.05 230.65 378.57 225.12 381.62 218.75 C 387.63 206.05 392.36 192.61 394.29 178.64 C 394.71 175.94 395.34 173.27 395.91 170.59 Z" />
<path fill="#fcd525" opacity="1.00" d=" M 334.74 182.04 C 334.38 179.21 337.60 177.52 340.05 177.62 C 345.23 178.03 349.81 181.79 351.54 186.65 C 354.93 195.81 357.58 205.26 359.42 214.85 C 360.61 220.96 360.85 227.29 359.74 233.44 C 358.90 238.51 356.92 243.29 355.29 248.14 C 358.94 242.84 360.43 236.53 362.26 230.47 C 364.33 232.19 366.79 233.78 367.76 236.43 C 369.53 241.03 368.53 246.58 365.32 250.32 C 362.92 253.23 360.29 255.95 358.03 258.97 C 360.52 257.22 363.08 255.43 364.90 252.94 C 367.27 249.74 369.01 246.13 371.04 242.72 C 371.72 245.73 372.66 248.79 372.36 251.92 C 371.96 255.78 369.60 259.26 366.38 261.36 C 363.16 263.46 359.86 265.46 356.93 267.96 C 362.48 265.83 367.95 262.60 371.22 257.50 C 372.52 255.79 373.97 254.20 375.03 252.32 C 376.06 258.73 374.60 266.12 369.31 270.35 C 364.96 273.60 359.76 275.40 355.02 278.00 C 361.82 276.87 367.45 272.81 373.36 269.59 C 373.01 271.75 372.78 273.95 372.11 276.04 C 370.86 279.55 367.86 282.22 364.48 283.65 C 360.35 285.52 355.42 285.10 351.70 287.90 C 357.21 287.51 362.33 285.30 367.63 283.95 C 366.96 286.07 366.72 288.48 365.10 290.14 C 362.44 293.04 359.09 295.85 355.00 296.19 C 350.73 296.51 346.44 296.24 342.16 296.47 C 345.55 296.72 348.95 296.88 352.34 297.13 C 349.13 299.02 345.81 301.21 341.96 301.35 C 339.45 301.59 337.37 299.90 335.55 298.42 C 332.13 295.39 329.07 291.99 326.01 288.61 C 327.75 288.25 329.56 288.04 331.18 287.27 C 333.14 285.83 334.45 283.71 335.73 281.68 C 339.25 275.64 342.50 269.07 342.55 261.91 C 342.59 253.96 344.33 246.20 345.40 238.36 C 346.59 231.72 346.89 224.91 345.79 218.24 C 344.65 211.43 343.94 204.36 340.82 198.10 C 338.38 192.94 335.26 187.84 334.74 182.04 Z" />
<path fill="#fcd525" opacity="1.00" d=" M 185.59 195.38 C 187.12 194.34 189.05 194.90 190.77 194.67 C 193.24 203.24 196.36 211.64 200.54 219.53 C 203.74 226.31 207.70 232.76 212.67 238.39 C 215.41 241.36 219.05 243.23 222.49 245.26 C 220.37 249.99 218.86 255.01 219.04 260.25 C 214.99 258.46 211.10 256.18 208.14 252.83 C 198.47 242.09 191.43 229.23 186.02 215.89 C 184.45 211.90 182.90 207.86 182.07 203.64 C 181.33 200.51 183.00 197.14 185.59 195.38 Z" />
<path fill="#fcd525" opacity="1.00" d=" M 404.25 194.76 C 407.46 195.38 411.14 196.67 412.17 200.16 C 412.87 203.64 411.66 207.13 410.66 210.43 C 406.67 221.78 401.37 232.66 394.81 242.75 C 390.15 249.64 384.93 256.78 377.07 260.24 C 377.12 255.04 374.30 250.64 372.38 246.01 C 376.55 243.48 380.92 240.92 383.78 236.84 C 393.27 224.33 399.51 209.64 404.25 194.76 Z" />
<path fill="#fcd525" opacity="1.00" d=" M 296.36 202.45 C 297.12 200.57 298.64 199.16 299.90 197.63 C 300.51 203.16 300.18 208.87 301.89 214.24 C 303.24 218.76 306.97 221.97 308.94 226.19 C 310.25 228.99 311.71 231.85 312.05 234.97 C 311.40 238.46 309.99 241.76 309.29 245.25 C 310.41 244.13 312.19 243.35 312.33 241.58 C 313.12 236.13 313.12 230.28 310.75 225.19 C 308.67 220.60 306.71 215.89 306.10 210.85 C 308.15 212.47 310.22 214.07 312.00 216.01 C 314.42 218.63 317.51 220.89 318.69 224.40 C 319.90 227.82 320.85 231.35 321.30 234.96 C 321.90 241.17 319.57 247.28 315.96 252.25 C 307.30 252.60 298.63 252.27 289.96 252.48 C 287.66 252.30 284.83 252.78 283.12 250.87 C 277.43 244.71 276.93 234.10 283.07 228.05 C 283.79 231.01 284.18 234.07 285.22 236.94 C 287.36 239.39 292.11 241.17 294.62 238.50 C 295.15 233.97 293.78 229.51 293.61 225.00 C 293.29 217.43 293.21 209.51 296.36 202.45 Z" />
<path fill="#fcd525" opacity="1.00" d=" M 185.68 230.74 C 186.87 229.53 188.60 229.07 190.05 228.23 C 196.18 238.35 201.77 249.24 211.08 256.90 C 213.89 259.32 217.67 260.26 220.43 262.73 C 221.84 267.17 221.61 271.92 222.14 276.51 C 219.79 276.22 217.34 276.07 215.30 274.74 C 210.37 271.83 205.38 268.75 201.58 264.40 C 194.80 256.50 188.48 248.02 184.47 238.35 C 183.34 235.84 184.22 232.92 185.68 230.74 Z" />
<path fill="#fcd525" opacity="1.00" d=" M 386.06 255.07 C 393.90 247.30 399.26 237.52 404.78 228.07 L 405.61 228.59 C 407.51 230.45 409.77 232.37 410.33 235.10 C 410.60 238.19 409.24 241.12 407.92 243.83 C 404.77 249.80 400.73 255.25 396.64 260.60 C 392.44 266.09 387.30 270.88 381.34 274.41 C 379.03 275.77 376.32 276.09 373.77 276.74 C 373.73 272.34 372.72 267.35 375.34 263.46 C 378.45 260.11 382.85 258.34 386.06 255.07 Z" />
<path fill="#fcd525" opacity="1.00" d=" M 187.22 249.95 C 187.63 249.94 188.45 249.90 188.86 249.89 C 191.85 253.06 193.94 256.96 196.77 260.27 C 201.76 266.24 207.39 271.98 214.44 275.45 C 217.78 277.15 221.74 277.14 225.01 278.95 C 226.66 282.62 227.71 286.54 229.32 290.24 C 219.58 291.71 210.33 286.97 202.96 281.06 C 196.86 276.15 190.74 270.66 187.59 263.34 C 186.08 259.13 184.49 254.03 187.22 249.95 Z" />
<path fill="#fcd525" opacity="1.00" d=" M 402.87 254.01 C 403.99 252.66 404.98 250.77 406.92 250.56 C 408.74 251.66 409.02 253.98 408.99 255.92 C 408.87 260.01 408.08 264.25 405.73 267.69 C 400.66 275.22 393.65 281.28 386.04 286.15 C 380.36 289.84 373.67 292.14 366.83 291.36 C 367.81 287.90 368.44 284.29 369.96 281.01 C 371.44 277.97 375.20 277.77 378.01 276.72 C 384.64 274.97 389.41 269.73 394.02 265.00 C 397.34 261.64 400.16 257.86 402.87 254.01 Z" />
<path fill="#fcd525" opacity="1.00" d=" M 281.76 253.92 C 286.16 253.53 290.59 253.51 295.01 253.58 C 302.15 253.72 309.30 253.29 316.44 253.88 C 316.26 254.37 315.91 255.37 315.73 255.87 C 309.88 256.88 303.90 256.08 298.00 256.28 C 292.82 256.12 287.55 256.90 282.45 255.81 C 282.28 255.34 281.93 254.39 281.76 253.92 Z" />
<path fill="#fcd525" opacity="1.00" d=" M 269.49 257.74 C 271.98 257.43 274.44 256.81 276.96 256.80 C 291.32 256.65 305.68 256.67 320.03 256.76 C 322.54 256.71 324.96 257.44 327.43 257.78 C 327.32 258.61 327.09 260.27 326.98 261.10 C 322.99 261.40 319.00 261.57 315.00 261.46 C 299.97 261.22 284.92 261.77 269.90 261.19 C 269.80 260.33 269.59 258.60 269.49 257.74 Z" />
<path fill="#fcd525" opacity="1.00" d=" M 275.52 262.85 C 284.00 262.32 292.50 262.72 301.00 262.61 C 308.44 262.72 315.91 262.26 323.34 262.93 C 322.68 265.52 322.11 268.20 320.57 270.44 C 318.34 273.87 316.12 277.55 312.66 279.89 C 309.86 280.71 306.88 280.42 304.00 280.46 C 298.65 280.31 293.30 280.50 287.95 280.46 C 285.98 280.30 283.50 280.59 282.21 278.75 C 278.46 274.26 276.14 268.65 275.52 262.85 Z" />
<path fill="#fcd525" opacity="1.00" d=" M 189.83 271.44 C 191.73 272.36 193.68 273.28 195.05 274.97 C 199.70 280.07 205.31 284.17 211.21 287.70 C 214.32 289.49 217.69 290.99 221.28 291.47 C 224.75 291.90 228.23 291.03 231.69 291.49 C 234.36 292.50 236.47 294.51 238.69 296.23 C 234.12 299.92 227.87 301.06 222.16 299.98 C 214.33 298.37 206.46 295.98 199.96 291.15 C 193.45 286.99 188.73 279.34 189.83 271.44 Z" />
<path fill="#fcd525" opacity="1.00" d=" M 392.69 282.65 C 397.21 279.38 400.49 274.72 405.17 271.65 C 405.54 275.14 405.91 278.90 404.11 282.09 C 400.47 289.31 392.70 292.86 385.66 295.92 C 377.51 299.72 367.60 301.08 359.30 296.98 C 361.07 295.43 362.63 293.25 365.13 292.92 C 369.56 292.22 374.26 293.18 378.49 291.35 C 383.64 289.22 388.25 285.98 392.69 282.65 Z" />
<path fill="#fcd525" opacity="1.00" d=" M 274.53 282.60 C 275.92 280.82 278.25 280.84 280.29 280.58 C 278.46 284.43 277.93 288.67 276.86 292.75 C 273.26 301.18 267.45 308.67 260.13 314.20 C 254.87 318.23 248.09 320.31 241.49 319.14 C 244.36 317.41 247.42 316.02 250.21 314.17 C 253.56 311.65 254.42 307.20 257.14 304.16 C 259.93 301.86 263.49 300.65 266.10 298.09 C 270.71 293.99 269.93 286.73 274.53 282.60 Z" />
<path fill="#fcd525" opacity="1.00" d=" M 281.42 282.13 C 285.51 281.04 289.82 281.68 294.00 281.59 C 300.29 281.79 306.62 281.17 312.89 281.79 C 314.75 281.83 315.26 283.90 316.41 284.99 C 310.29 285.53 304.14 285.26 298.00 285.28 C 291.86 285.26 285.72 285.46 279.59 285.07 C 280.16 284.07 280.78 283.09 281.42 282.13 Z" />
<path fill="#fcd525" opacity="1.00" d=" M 316.26 281.28 C 318.18 282.50 320.17 283.66 321.62 285.46 C 325.98 290.39 330.97 294.71 335.53 299.44 C 338.91 302.80 338.25 308.22 341.25 311.82 C 344.23 315.97 349.24 317.67 353.48 320.17 C 345.70 321.29 337.72 318.26 331.98 313.05 C 327.38 308.89 323.16 304.23 320.10 298.81 C 316.71 293.57 318.05 287.03 316.26 281.28 Z" />
<path fill="#fcd525" opacity="1.00" d=" M 278.76 285.97 C 291.47 285.47 304.20 285.62 316.92 285.89 C 315.13 300.78 313.58 315.69 311.89 330.59 C 311.39 337.18 311.12 343.79 310.95 350.39 C 309.59 361.78 308.66 373.21 307.47 384.62 C 307.37 386.48 306.96 388.48 307.93 390.20 C 310.08 394.47 310.93 399.25 311.23 403.98 C 310.58 407.35 308.47 410.59 305.45 412.30 C 300.65 414.08 294.29 413.29 291.16 408.86 C 287.50 404.12 290.14 397.93 289.74 392.50 C 290.99 391.36 292.26 390.23 293.53 389.10 L 293.52 388.24 C 293.67 380.92 292.20 373.71 291.17 366.50 C 288.95 352.25 286.97 337.97 284.44 323.78 C 283.70 319.23 283.31 314.63 282.64 310.07 C 281.52 302.01 279.79 294.05 278.76 285.97 Z" />
<path fill="#fcd525" opacity="1.00" d=" M 200.59 293.65 C 204.68 294.87 208.48 296.83 212.39 298.50 C 217.63 300.75 223.45 301.00 229.07 300.79 C 232.50 300.76 235.61 299.15 238.86 298.28 C 240.95 299.17 242.60 300.80 244.39 302.16 C 241.76 305.74 238.37 309.09 233.88 310.08 C 227.42 311.39 220.82 309.55 214.77 307.32 C 208.64 304.68 203.02 300.01 200.59 293.65 Z" />
<path fill="#fcd525" opacity="1.00" d=" M 384.73 297.50 C 387.85 296.17 390.94 294.77 394.15 293.65 C 393.10 296.25 391.98 298.92 389.93 300.90 C 383.97 307.21 375.35 310.14 366.96 311.34 C 359.20 312.32 351.90 307.12 348.81 300.22 C 351.16 299.03 353.45 297.55 356.07 297.01 C 359.56 297.90 362.65 300.02 366.27 300.48 C 372.55 301.34 378.94 299.96 384.73 297.50 Z" />
<path fill="#fcd525" opacity="1.00" d=" M 338.78 302.03 C 341.80 301.67 344.82 301.32 347.84 301.03 C 349.82 303.98 351.64 307.20 354.58 309.33 C 358.89 312.14 364.30 313.17 369.35 312.19 C 374.15 311.50 378.53 309.34 383.14 307.98 C 385.58 309.02 383.51 311.27 382.24 312.31 C 377.69 316.02 371.94 318.46 366.02 318.52 C 360.95 318.57 355.76 318.79 350.83 317.41 C 344.14 315.35 339.28 308.98 338.78 302.03 Z" />
<path fill="#fcd525" opacity="1.00" d=" M 249.59 330.74 C 254.01 329.72 258.60 330.41 263.09 330.51 C 261.74 333.06 260.36 335.61 258.79 338.04 C 254.26 344.19 250.14 350.64 246.03 357.07 C 243.40 361.38 239.62 364.92 237.69 369.65 C 243.96 369.99 250.26 369.54 256.52 370.34 C 249.67 378.99 244.23 388.64 237.33 397.24 C 234.14 401.24 231.26 405.47 228.41 409.71 C 230.68 411.01 232.92 412.37 235.19 413.69 C 234.95 414.28 234.48 415.48 234.25 416.07 C 226.92 417.96 220.19 421.49 213.30 424.53 C 212.30 416.65 212.43 408.72 212.87 400.81 C 215.39 402.09 217.93 403.33 220.44 404.65 C 224.61 397.71 228.84 390.79 232.80 383.71 C 233.72 381.95 234.46 380.09 235.27 378.28 C 230.69 378.15 226.11 378.09 221.54 377.84 C 222.52 375.11 223.42 372.33 225.02 369.88 C 231.04 359.86 237.59 350.15 243.11 339.83 C 245.02 336.67 246.46 332.90 249.59 330.74 Z" />
<path fill="#fcd525" opacity="1.00" d=" M 189.27 340.34 C 193.10 336.91 196.26 331.38 201.95 331.21 C 207.36 330.88 212.79 331.18 218.20 331.36 C 215.40 333.85 212.52 336.27 209.40 338.36 C 203.38 342.27 197.71 346.68 191.76 350.70 C 189.95 351.76 188.82 353.56 187.36 355.01 C 191.86 355.51 196.40 355.43 200.91 355.26 C 195.95 360.18 191.08 365.28 185.23 369.19 C 178.31 374.10 172.47 380.33 166.10 385.90 C 167.87 387.76 169.63 389.64 171.38 391.52 C 164.71 393.32 157.88 394.42 151.04 395.37 C 151.51 389.03 152.45 382.72 154.00 376.55 C 156.08 377.86 158.16 379.19 160.21 380.55 C 165.35 375.59 170.79 370.86 175.04 365.08 C 175.73 364.15 176.39 363.20 177.07 362.26 C 173.29 362.20 169.51 362.17 165.74 361.86 C 167.23 360.02 168.79 358.20 170.79 356.89 C 177.56 352.09 183.55 346.32 189.27 340.34 Z" />
<path fill="#fcd525" opacity="1.00" d=" M 381.51 331.06 C 386.01 330.65 390.55 330.24 395.08 330.61 C 400.56 330.82 404.07 335.58 407.82 338.95 C 414.26 345.37 421.41 351.01 428.11 357.14 C 427.95 357.66 427.63 358.70 427.47 359.22 C 424.30 359.33 421.13 359.45 417.96 359.48 C 422.42 364.53 427.35 369.14 431.94 374.06 C 434.05 376.26 436.41 378.19 438.73 380.17 C 440.65 379.05 442.57 377.93 444.50 376.82 C 445.64 380.88 446.75 384.95 447.63 389.08 L 447.71 390.00 C 447.88 392.37 447.80 394.76 447.80 397.14 C 440.71 396.05 433.70 394.56 426.70 392.99 C 428.36 391.21 430.04 389.43 431.73 387.67 C 428.28 383.93 424.35 380.68 420.19 377.75 C 416.76 374.89 413.68 371.63 410.44 368.56 C 405.71 363.87 400.42 359.66 396.73 354.04 C 401.53 353.77 406.34 353.84 411.15 353.69 C 408.66 351.53 406.05 349.50 403.25 347.77 C 398.74 344.97 394.68 341.53 390.31 338.53 C 387.09 336.40 384.19 333.83 381.51 331.06 Z" />
<path fill="#fcd525" opacity="1.00" d=" M 336.79 331.73 C 340.07 331.66 343.47 331.12 346.67 332.09 C 350.20 335.17 351.85 339.76 354.49 343.54 C 359.67 351.18 364.05 359.31 369.07 367.04 C 371.15 370.27 372.90 373.69 374.51 377.18 C 369.38 377.44 364.25 377.49 359.12 377.34 C 364.75 387.24 370.90 396.83 376.82 406.56 C 379.26 405.30 381.74 404.10 384.21 402.90 C 384.56 410.26 384.54 417.63 384.23 424.99 C 381.47 424.08 378.71 423.18 375.95 422.29 C 370.83 420.62 365.72 418.86 360.87 416.52 C 362.77 414.79 364.55 412.89 366.77 411.54 C 366.02 409.87 365.31 408.17 364.46 406.56 C 357.12 394.24 348.73 382.57 341.47 370.20 C 347.93 370.39 354.39 370.67 360.86 370.66 C 352.76 357.73 344.14 345.11 336.79 331.73 Z" />
</g>
<g id="#014d97ff">
<path fill="#014d97" opacity="1.00" d=" M 131.16 15.19 C 132.09 14.44 132.93 13.32 134.21 13.20 C 138.12 12.70 142.07 13.05 146.00 13.00 C 252.01 13.01 358.02 12.98 464.02 13.01 C 467.28 12.74 469.22 15.71 471.33 17.67 C 486.38 32.97 501.67 48.03 516.77 63.27 C 496.85 94.59 485.75 131.09 482.64 167.95 C 481.38 180.59 481.74 193.33 482.03 206.01 C 482.38 217.56 482.67 229.15 484.52 240.58 C 487.84 261.94 492.04 283.20 497.95 304.01 C 500.14 311.80 500.32 319.95 500.15 327.98 C 499.88 346.72 492.27 364.98 480.23 379.21 C 476.19 383.83 471.82 388.18 467.20 392.23 C 455.09 402.48 440.94 409.95 426.62 416.63 C 405.24 426.14 383.20 434.13 361.94 443.94 C 345.70 451.31 329.75 459.68 315.58 470.60 C 309.79 474.99 304.91 480.40 299.87 485.60 C 295.71 481.58 291.99 477.11 287.48 473.47 C 271.67 460.26 253.10 450.96 234.45 442.50 C 211.99 432.32 188.70 424.09 166.40 413.57 C 155.14 407.90 143.98 401.79 134.20 393.77 C 119.32 382.06 107.56 365.98 102.32 347.67 C 99.36 336.65 98.01 325.07 99.71 313.72 C 100.34 307.35 102.19 301.21 104.02 295.10 C 109.60 272.36 114.35 249.36 116.81 226.06 C 117.24 220.43 116.82 214.76 117.45 209.15 C 118.46 200.46 117.84 191.72 118.04 183.00 C 117.17 153.81 111.53 124.63 100.47 97.56 C 96.08 86.16 90.07 75.53 83.80 65.10 C 86.00 62.54 88.25 60.02 90.70 57.69 C 97.71 51.02 103.81 43.49 110.73 36.72 C 117.80 29.80 124.16 22.19 131.16 15.19 M 309.91 65.80 C 306.09 66.87 302.75 69.08 299.29 70.94 C 297.29 69.22 295.42 67.08 292.79 66.35 C 288.22 65.50 283.39 66.29 279.24 68.35 C 276.71 69.60 274.09 71.17 272.83 73.80 C 271.33 76.72 270.44 79.90 269.33 82.98 C 265.49 81.11 262.05 77.22 257.41 78.26 C 253.58 78.81 249.79 79.75 246.20 81.16 C 243.24 82.36 241.85 85.47 239.66 87.58 C 234.63 88.18 229.23 86.15 224.48 88.62 C 213.23 94.08 205.04 105.56 203.72 118.01 C 203.38 122.45 203.73 126.90 203.76 131.35 C 196.58 133.41 189.66 137.02 184.63 142.64 C 179.95 147.87 179.73 155.35 179.49 161.99 C 179.12 168.51 180.97 174.82 181.71 181.24 C 177.25 182.19 172.59 183.07 168.78 185.74 C 164.40 188.57 162.45 193.64 159.98 198.00 C 158.03 201.31 157.99 205.27 158.35 208.99 C 158.82 214.80 161.78 219.97 164.84 224.79 C 162.11 225.49 159.11 225.94 156.96 227.91 C 152.67 231.66 150.63 237.39 150.29 242.95 C 150.10 246.76 150.09 250.77 151.73 254.30 C 153.31 257.64 156.06 260.21 158.70 262.71 C 154.60 263.39 149.91 263.70 146.90 266.95 C 142.86 270.81 142.48 277.11 144.01 282.19 C 147.28 289.01 153.89 293.61 160.79 296.29 C 158.94 297.16 156.74 297.74 155.55 299.54 C 153.17 302.80 152.40 306.89 150.39 310.34 C 147.70 312.32 144.26 313.40 142.29 316.27 C 137.35 322.31 136.34 330.93 138.50 338.27 C 139.47 341.57 143.08 342.86 146.17 343.20 C 151.67 343.65 156.81 341.24 162.05 340.01 C 165.35 339.08 168.66 340.41 171.96 340.58 C 177.72 340.94 183.51 340.73 189.27 340.34 C 183.55 346.32 177.56 352.09 170.79 356.89 C 168.79 358.20 167.23 360.02 165.74 361.86 C 169.51 362.17 173.29 362.20 177.07 362.26 C 176.39 363.20 175.73 364.15 175.04 365.08 C 169.24 368.64 165.82 374.94 159.99 378.43 C 157.51 376.96 155.01 375.52 152.65 373.87 C 151.58 381.35 150.56 388.84 149.47 396.31 C 152.03 396.45 154.63 396.58 157.16 396.01 C 162.81 394.81 168.56 394.09 174.14 392.54 C 171.98 390.37 170.05 387.95 167.57 386.13 C 173.31 380.33 180.14 375.62 185.23 369.19 C 191.08 365.28 195.95 360.18 200.91 355.26 C 196.40 355.43 191.86 355.51 187.36 355.01 C 188.82 353.56 189.95 351.76 191.76 350.70 C 197.71 346.68 203.38 342.27 209.40 338.36 C 211.88 339.00 214.39 339.62 216.98 339.61 C 225.69 339.65 234.40 339.44 243.11 339.83 C 237.59 350.15 231.04 359.86 225.02 369.88 C 223.42 372.33 222.52 375.11 221.54 377.84 C 226.11 378.09 230.69 378.15 235.27 378.28 C 234.46 380.09 233.72 381.95 232.80 383.71 C 230.80 385.45 229.09 387.50 227.88 389.86 C 225.48 394.27 222.91 398.59 219.95 402.64 C 217.31 401.51 214.70 400.29 212.11 399.05 C 211.84 405.37 212.14 411.69 211.92 418.01 C 211.96 420.59 211.51 423.50 213.37 425.60 L 213.30 424.53 C 220.19 421.49 226.92 417.96 234.25 416.07 C 235.26 415.12 238.45 415.55 237.40 413.57 C 235.26 411.97 232.74 410.97 230.39 409.75 C 233.08 403.44 237.91 398.45 242.04 393.07 C 244.54 389.83 246.45 386.20 248.79 382.85 C 251.67 378.56 255.47 374.77 257.00 369.71 L 256.52 370.34 C 250.26 369.54 243.96 369.99 237.69 369.65 C 239.62 364.92 243.40 361.38 246.03 357.07 C 250.14 350.64 254.26 344.19 258.79 338.04 C 267.59 338.74 276.45 338.39 285.27 338.15 C 287.87 354.87 290.08 371.66 293.52 388.24 L 293.53 389.10 C 292.26 390.23 290.99 391.36 289.74 392.50 C 290.14 397.93 287.50 404.12 291.16 408.86 C 294.29 413.29 300.65 414.08 305.45 412.30 C 308.47 410.59 310.58 407.35 311.23 403.98 C 310.93 399.25 310.08 394.47 307.93 390.20 C 306.96 388.48 307.37 386.48 307.47 384.62 C 308.66 373.21 309.59 361.78 310.95 350.39 L 310.91 351.37 C 312.41 347.11 312.46 342.55 312.72 338.09 C 321.55 339.00 330.49 340.18 339.36 338.90 C 343.77 345.18 347.44 351.94 351.75 358.29 C 353.92 361.43 355.84 364.75 357.45 368.21 C 351.27 368.69 345.08 368.26 338.89 368.48 C 340.14 370.74 341.38 373.01 342.93 375.09 C 347.13 380.67 350.26 386.96 354.33 392.64 C 357.69 397.29 360.21 402.59 364.46 406.56 C 365.31 408.17 366.02 409.87 366.77 411.54 C 364.55 412.89 362.77 414.79 360.87 416.52 C 365.72 418.86 370.83 420.62 375.95 422.29 C 378.60 424.43 381.77 425.75 385.09 426.46 C 385.54 418.24 385.48 410.00 385.14 401.78 C 382.42 402.58 379.72 403.43 377.02 404.27 C 374.85 401.23 372.83 398.09 371.01 394.83 C 368.02 389.42 364.19 384.51 361.59 378.89 C 366.71 378.52 371.86 378.62 376.99 378.65 C 372.90 370.72 367.86 363.33 363.34 355.64 C 360.18 349.91 356.29 344.62 353.05 338.93 C 365.47 338.45 377.89 338.88 390.31 338.53 C 394.68 341.53 398.74 344.97 403.25 347.77 C 406.05 349.50 408.66 351.53 411.15 353.69 C 406.34 353.84 401.53 353.77 396.73 354.04 C 400.42 359.66 405.71 363.87 410.44 368.56 C 413.68 371.63 416.76 374.89 420.19 377.75 C 422.49 382.00 427.42 383.69 430.10 387.65 C 427.91 389.77 425.88 392.03 423.92 394.35 C 432.34 395.03 440.52 397.27 448.84 398.65 C 448.74 395.74 449.13 392.66 447.71 390.00 L 447.63 389.08 C 447.62 384.08 446.90 379.13 445.77 374.27 C 443.50 375.94 441.25 377.64 438.96 379.29 C 434.40 375.43 430.69 370.74 426.47 366.54 C 424.74 364.77 423.16 362.86 421.60 360.94 C 425.11 360.73 428.62 360.63 432.13 360.51 C 430.76 358.88 429.37 357.27 427.95 355.68 C 427.99 356.04 428.07 356.78 428.11 357.14 C 421.41 351.01 414.26 345.37 407.82 338.95 C 417.58 338.51 427.29 337.32 437.07 337.58 C 447.79 336.87 458.83 336.74 468.92 332.62 C 468.68 330.99 468.93 329.25 468.29 327.72 C 466.83 325.55 464.74 323.93 463.03 321.98 C 461.01 319.79 459.74 317.07 458.45 314.42 C 455.51 308.24 452.08 302.30 448.72 296.34 C 447.46 294.31 446.30 292.06 444.31 290.66 C 441.86 289.68 439.54 288.30 436.92 287.83 C 439.54 287.45 442.58 287.67 444.60 285.64 C 447.67 282.97 450.95 280.06 452.13 276.01 C 453.38 271.63 453.29 266.91 452.27 262.49 C 450.99 259.78 448.40 258.01 446.30 255.98 C 448.49 253.82 451.05 251.66 451.80 248.53 C 453.09 243.80 451.24 238.95 449.03 234.80 C 447.25 231.61 445.58 228.36 443.71 225.23 C 442.21 222.55 439.06 221.68 436.53 220.32 C 436.41 219.92 436.16 219.12 436.03 218.73 C 438.49 218.64 441.52 219.50 443.41 217.41 C 446.25 214.39 446.94 210.02 447.19 206.04 C 447.26 199.39 446.14 192.32 442.24 186.77 C 437.53 180.49 429.50 178.52 422.22 176.98 C 424.86 174.15 428.23 171.21 428.24 167.01 C 428.30 160.80 426.57 154.67 423.77 149.17 C 420.53 142.77 417.89 135.49 411.72 131.27 C 407.98 128.40 403.16 127.76 398.63 127.13 C 399.73 122.50 400.87 117.79 400.69 113.00 C 400.59 109.32 399.15 105.87 397.59 102.60 C 396.52 100.43 395.36 98.14 393.28 96.76 C 388.40 93.46 382.65 91.50 376.79 90.96 C 373.39 90.46 369.82 90.68 366.59 89.38 C 364.41 87.13 363.87 83.65 361.35 81.64 C 358.90 79.61 356.06 77.83 352.86 77.36 C 349.47 76.87 346.27 78.37 342.97 78.83 C 341.38 78.32 340.22 77.02 338.93 76.04 C 334.95 72.52 330.19 70.08 325.49 67.69 C 320.73 65.28 315.12 64.67 309.91 65.80 Z" />
<path fill="#014d97" opacity="1.00" d=" M 46.60 390.00 C 53.81 391.41 60.99 389.16 68.22 389.53 C 73.92 389.68 79.63 389.42 85.33 389.82 C 83.70 392.31 81.92 394.71 79.88 396.88 C 75.17 401.84 70.95 407.26 66.00 412.00 C 63.10 414.69 61.73 418.46 60.36 422.06 C 59.71 420.67 58.55 419.60 58.09 418.12 C 56.41 413.72 54.22 409.51 53.12 404.92 C 54.53 406.21 55.97 407.47 57.42 408.73 C 59.31 407.27 61.74 406.11 62.64 403.75 C 62.57 399.67 59.79 396.33 57.93 392.88 C 55.66 393.24 53.38 393.55 51.09 393.82 C 50.81 395.63 50.51 397.45 50.23 399.28 C 47.95 396.68 47.37 393.25 46.60 390.00 M 60.97 392.41 C 62.01 395.33 63.17 398.20 64.44 401.02 C 67.82 398.19 70.91 395.05 73.87 391.79 C 69.56 391.67 65.25 391.89 60.97 392.41 Z" />
<path fill="#014d97" opacity="1.00" d=" M 541.93 397.80 C 543.83 395.91 547.05 396.35 548.66 398.40 C 550.49 400.17 549.69 403.47 547.44 404.51 C 544.85 406.28 542.28 403.78 539.99 402.74 C 540.39 401.03 540.27 398.88 541.93 397.80 Z" />
<path fill="#014d97" opacity="1.00" d=" M 513.31 397.93 C 517.04 399.85 520.70 402.07 523.22 405.52 C 519.22 405.71 515.13 405.22 511.21 406.20 C 506.60 407.40 504.30 413.29 506.26 417.48 C 508.24 422.84 513.29 426.05 517.77 429.16 C 521.34 431.70 526.11 432.50 530.29 431.19 C 532.76 429.64 534.22 426.94 535.43 424.37 C 536.94 421.25 536.14 417.73 536.00 414.43 C 536.47 414.60 537.41 414.95 537.88 415.13 C 538.80 419.38 538.81 424.10 536.96 428.12 C 533.15 434.52 525.76 439.37 518.10 438.29 C 513.82 437.47 509.61 435.60 506.45 432.57 C 501.85 427.47 500.31 419.82 502.43 413.31 C 504.26 408.09 509.22 405.08 513.27 401.72 C 513.28 400.45 513.29 399.19 513.31 397.93 Z" />
<path fill="#014d97" opacity="1.00" d=" M 91.50 404.74 C 92.99 405.78 94.62 406.72 95.69 408.24 C 99.18 412.76 102.73 417.22 106.40 421.59 C 111.03 427.07 118.38 429.51 122.49 435.50 C 124.97 438.96 125.41 444.21 122.61 447.61 C 119.18 450.61 114.34 449.06 110.35 448.34 C 110.56 455.64 109.76 463.03 111.34 470.23 C 108.16 467.85 104.62 465.95 101.79 463.14 C 101.09 461.06 101.72 458.81 101.86 456.69 C 102.50 452.42 102.54 448.09 102.09 443.81 C 99.15 446.78 96.75 450.22 94.79 453.91 C 95.46 455.62 96.12 457.34 96.76 459.08 C 91.15 455.32 85.61 451.31 80.90 446.44 C 83.07 446.86 85.25 447.82 87.49 447.56 C 93.98 440.42 99.64 432.55 105.64 425.00 C 104.11 422.64 102.86 419.98 100.62 418.19 C 98.55 417.63 96.85 419.23 95.32 420.35 C 88.92 425.60 82.70 431.05 76.38 436.38 C 76.83 438.29 77.23 440.21 77.59 442.14 C 72.97 437.53 69.27 432.11 64.99 427.20 C 67.02 427.81 69.04 428.47 71.05 429.15 C 76.64 425.46 81.20 420.50 86.60 416.57 C 88.81 414.79 91.34 413.22 92.85 410.76 C 93.15 408.69 91.95 406.72 91.50 404.74 M 103.13 441.23 C 105.46 443.04 107.77 445.18 110.82 445.63 C 114.13 443.74 116.65 440.47 117.94 436.92 C 118.34 433.79 115.50 430.27 112.26 430.31 C 108.77 433.54 106.48 437.85 103.13 441.23 Z" />
<path fill="#014d97" opacity="1.00" d=" M 479.38 435.41 C 481.76 433.71 484.30 432.25 486.87 430.84 C 489.21 433.68 491.46 436.67 492.89 440.10 C 490.56 438.76 488.28 437.33 485.80 436.30 C 483.45 436.01 481.15 436.83 478.87 437.28 C 479.90 440.01 481.14 442.67 482.94 444.99 C 487.27 450.92 490.93 457.29 495.07 463.34 C 497.05 463.07 499.03 462.79 501.01 462.51 C 500.87 462.99 500.58 463.94 500.44 464.42 C 494.69 467.07 490.01 471.49 484.27 474.11 C 485.30 472.12 486.71 470.25 487.20 468.03 C 485.98 463.98 483.02 460.82 480.72 457.37 C 477.22 452.57 474.58 447.15 470.41 442.88 C 469.16 444.61 467.76 446.28 466.96 448.28 C 466.55 451.24 467.39 454.21 467.60 457.16 C 464.50 454.57 462.58 451.06 460.97 447.43 C 466.91 443.12 473.43 439.70 479.38 435.41 Z" />
<path fill="#014d97" opacity="1.00" d=" M 142.11 447.05 C 152.20 449.27 161.28 454.41 170.73 458.38 C 169.53 461.50 168.06 464.52 166.16 467.28 C 165.71 464.56 165.90 461.66 164.76 459.11 C 162.41 456.38 158.74 454.64 155.14 454.65 C 154.77 454.85 154.04 455.24 153.68 455.43 C 151.61 459.04 150.78 463.19 149.55 467.13 C 151.23 467.29 152.93 468.26 154.63 467.73 C 156.66 466.06 158.46 464.06 160.86 462.89 C 159.54 468.75 156.21 473.89 154.47 479.62 C 153.97 479.66 152.98 479.75 152.49 479.79 C 152.73 476.93 153.94 473.62 151.99 471.10 C 151.07 469.58 149.12 469.67 147.65 469.09 C 146.51 473.36 144.52 477.47 144.22 481.92 C 145.28 483.72 146.69 485.27 148.04 486.86 C 141.87 485.63 136.29 482.62 130.42 480.49 C 130.40 480.06 130.36 479.21 130.35 478.78 C 132.42 478.28 135.24 478.52 136.29 476.23 C 138.76 472.03 140.06 467.30 141.78 462.78 C 142.97 459.21 144.62 455.76 145.21 452.03 C 144.40 450.24 143.20 448.67 142.11 447.05 Z" />
<path fill="#014d97" opacity="1.00" d=" M 507.57 447.55 C 509.76 446.77 512.41 447.32 513.76 449.32 C 515.51 451.20 514.26 454.14 512.50 455.53 C 510.28 455.98 507.29 456.25 505.88 454.06 C 504.64 451.94 505.11 448.58 507.57 447.55 Z" />
<path fill="#014d97" opacity="1.00" d=" M 434.34 458.09 C 440.10 457.18 446.40 459.31 450.51 463.44 C 455.85 470.18 457.51 480.81 451.90 487.91 C 447.11 493.18 439.51 496.93 432.34 494.80 C 426.99 493.07 421.81 489.48 419.83 484.01 C 417.64 478.07 417.70 470.85 421.58 465.60 C 424.49 461.37 429.45 459.10 434.34 458.09 M 431.51 460.59 C 428.19 461.95 425.21 465.21 425.40 468.99 C 425.47 474.87 427.68 480.51 430.52 485.58 C 432.09 488.17 433.86 490.88 436.59 492.35 C 440.49 493.82 445.16 491.84 447.17 488.28 C 449.23 479.79 445.69 471.06 440.72 464.26 C 438.65 461.50 434.96 459.54 431.51 460.59 Z" />
<path fill="#014d97" opacity="1.00" d=" M 180.39 461.68 C 185.33 460.84 190.97 460.72 195.21 463.81 C 198.04 465.85 200.94 468.10 202.68 471.19 C 205.65 478.40 204.21 487.20 199.12 493.11 C 191.85 500.00 179.02 500.58 172.00 492.97 C 166.62 488.71 166.60 481.26 167.44 475.07 C 167.80 472.41 169.50 470.22 171.14 468.21 C 173.58 465.31 176.53 462.45 180.39 461.68 M 186.32 464.04 C 183.65 464.86 181.75 467.06 180.30 469.33 C 176.19 475.87 174.10 483.92 175.65 491.58 C 177.38 496.33 184.68 498.04 188.15 494.12 C 193.71 487.97 197.13 479.63 196.48 471.28 C 196.40 466.39 190.72 463.12 186.32 464.04 Z" />
<path fill="#014d97" opacity="1.00" d=" M 213.23 470.04 C 217.84 472.48 222.56 474.71 227.45 476.53 C 231.25 478.12 235.00 480.17 237.78 483.27 C 241.14 487.17 239.16 493.41 235.10 495.97 C 232.84 496.72 230.42 496.70 228.07 496.93 C 229.43 504.08 231.29 511.12 233.59 518.02 C 229.82 516.42 225.61 515.36 222.57 512.49 C 220.41 506.95 220.31 500.75 217.36 495.48 C 215.97 498.54 214.30 501.59 213.84 504.97 C 213.97 506.72 215.65 507.89 216.55 509.32 C 216.40 509.63 216.11 510.24 215.97 510.55 C 211.62 507.71 206.86 505.56 201.95 503.90 C 203.77 502.50 205.72 500.98 206.50 498.73 C 207.50 495.97 208.22 493.10 209.62 490.51 C 211.88 486.18 214.67 481.94 215.35 477.00 C 215.35 474.53 214.03 472.31 213.23 470.04 M 218.19 491.80 C 220.46 492.12 222.73 492.54 225.04 492.53 C 227.96 492.61 230.53 490.22 231.33 487.52 C 231.72 485.44 231.72 483.31 231.83 481.21 C 229.79 480.28 227.81 479.23 225.85 478.16 C 222.83 482.44 220.90 487.33 218.19 491.80 Z" />
<path fill="#014d97" opacity="1.00" d=" M 380.06 475.08 C 383.67 474.14 387.66 472.96 391.29 474.52 C 394.36 475.65 396.49 478.77 396.45 482.05 C 396.66 485.60 393.77 488.15 391.91 490.84 C 397.15 494.99 402.51 499.00 407.99 502.84 C 405.06 503.85 402.14 505.16 399.01 505.40 C 397.12 505.21 395.54 504.02 393.96 503.09 C 390.28 500.58 386.69 497.91 382.71 495.88 C 383.66 499.50 384.48 503.29 386.59 506.46 C 388.32 507.31 390.28 507.50 392.15 507.94 C 390.65 508.75 389.30 509.88 387.63 510.37 C 383.03 511.84 378.48 513.51 373.78 514.63 C 375.39 512.37 378.54 509.94 377.06 506.86 C 373.87 498.77 371.03 490.54 367.64 482.54 C 366.04 482.10 364.45 481.65 362.87 481.22 C 364.25 480.54 365.38 479.40 366.93 479.07 C 371.31 477.75 375.67 476.39 380.06 475.08 M 377.82 477.20 C 377.32 482.65 379.77 487.72 380.72 492.99 C 383.66 492.31 386.89 491.31 388.38 488.43 C 389.27 484.52 388.00 479.78 384.44 477.62 C 382.30 476.96 380.01 477.27 377.82 477.20 Z" />
<path fill="#014d97" opacity="1.00" d=" M 467.19 474.74 C 469.90 473.56 473.04 476.04 472.48 478.96 C 472.44 481.66 469.47 483.13 467.09 482.44 C 463.33 481.84 463.53 475.41 467.19 474.74 Z" />
<path fill="#014d97" opacity="1.00" d=" M 330.93 493.95 C 336.67 491.79 342.08 488.74 348.03 487.15 C 347.00 488.82 345.99 490.51 344.94 492.18 C 345.88 495.04 347.01 497.82 348.32 500.53 C 350.60 505.12 352.06 510.06 354.35 514.65 C 355.46 517.13 357.03 519.75 356.41 522.58 C 355.78 525.69 353.47 528.14 351.02 529.99 C 348.33 532.11 344.61 532.08 341.43 531.38 C 338.89 530.77 337.12 528.08 337.48 525.52 C 338.41 523.97 340.02 522.61 341.92 522.67 C 344.94 523.55 345.59 527.03 346.89 529.49 C 347.58 529.07 348.96 528.25 349.65 527.84 C 349.08 524.59 348.12 521.44 346.57 518.54 C 342.81 510.98 340.89 502.55 336.04 495.55 C 334.01 495.84 331.99 496.16 329.96 496.48 C 330.28 495.63 330.60 494.78 330.93 493.95 Z" />
<path fill="#014d97" opacity="1.00" d=" M 249.40 495.37 C 254.07 493.08 259.62 491.99 264.70 493.52 C 268.44 494.65 270.93 497.84 273.99 500.08 C 275.67 501.43 277.94 501.37 279.95 501.79 C 277.88 505.55 276.96 510.57 273.12 512.93 C 272.16 509.76 272.72 506.42 272.17 503.20 C 270.55 498.51 265.13 494.95 260.20 496.85 C 255.18 499.26 252.30 504.37 250.04 509.22 C 248.26 512.95 246.42 517.21 247.73 521.38 C 249.15 524.42 252.23 526.67 255.60 526.97 C 259.31 527.31 263.02 526.62 266.71 526.20 C 266.69 526.83 266.66 528.08 266.64 528.70 C 263.28 529.64 259.85 530.93 256.30 530.42 C 247.25 528.98 240.12 520.20 240.55 511.05 C 240.98 504.91 243.71 498.36 249.40 495.37 Z" />
<path fill="#014d97" opacity="1.00" d=" M 411.30 493.14 C 413.34 493.39 415.40 493.52 417.46 493.52 C 417.92 496.02 419.34 499.02 417.20 501.17 C 415.54 503.50 411.66 503.00 410.47 500.47 C 408.76 498.11 410.55 495.46 411.30 493.14 Z" />
<path fill="#014d97" opacity="1.00" d=" M 284.32 504.91 C 292.98 510.00 301.40 515.50 310.02 520.66 C 308.98 524.49 307.19 528.29 303.61 530.36 C 303.86 527.33 304.79 524.24 304.14 521.23 C 302.27 518.04 298.76 516.45 295.80 514.47 C 292.16 517.85 289.04 521.96 287.72 526.82 C 289.44 527.00 291.19 527.67 292.93 527.31 C 295.36 526.44 297.58 525.10 299.91 524.01 C 298.27 528.37 295.16 531.88 292.92 535.90 C 292.01 537.53 290.66 538.83 289.48 540.25 C 289.76 537.53 290.32 534.83 290.32 532.09 C 289.85 530.16 287.08 526.84 285.22 529.13 C 282.96 532.74 280.21 536.37 279.37 540.61 C 282.06 543.57 285.96 545.67 290.01 545.74 C 293.25 545.45 296.18 543.88 299.21 542.83 C 297.53 546.12 294.94 548.77 292.07 551.05 C 285.37 547.43 278.94 543.36 272.33 539.62 C 269.94 538.31 267.92 536.49 265.86 534.74 C 268.41 534.25 271.83 535.04 273.42 532.45 C 275.73 529.30 277.35 525.72 279.57 522.51 C 281.97 518.78 284.98 515.31 286.28 511.00 C 285.94 508.88 285.06 506.90 284.32 504.91 Z" />
<path fill="#014d97" opacity="1.00" d=" M 365.26 509.83 C 367.83 508.65 370.62 510.58 371.33 513.11 C 371.16 516.43 367.68 519.00 364.48 517.69 C 361.91 515.55 361.98 511.23 365.26 509.83 Z" />
</g>
<g id="#ffffffff">
<path fill="#ffffff" opacity="1.00" d=" M 309.91 65.80 C 315.12 64.67 320.73 65.28 325.49 67.69 C 330.19 70.08 334.95 72.52 338.93 76.04 C 340.22 77.02 341.38 78.32 342.97 78.83 C 346.27 78.37 349.47 76.87 352.86 77.36 C 356.06 77.83 358.90 79.61 361.35 81.64 C 363.87 83.65 364.41 87.13 366.59 89.38 C 369.82 90.68 373.39 90.46 376.79 90.96 C 382.65 91.50 388.40 93.46 393.28 96.76 C 395.36 98.14 396.52 100.43 397.59 102.60 C 399.15 105.87 400.59 109.32 400.69 113.00 C 400.87 117.79 399.73 122.50 398.63 127.13 C 403.16 127.76 407.98 128.40 411.72 131.27 C 417.89 135.49 420.53 142.77 423.77 149.17 C 426.57 154.67 428.30 160.80 428.24 167.01 C 428.23 171.21 424.86 174.15 422.22 176.98 C 429.50 178.52 437.53 180.49 442.24 186.77 C 446.14 192.32 447.26 199.39 447.19 206.04 C 446.94 210.02 446.25 214.39 443.41 217.41 C 441.52 219.50 438.49 218.64 436.03 218.73 C 436.16 219.12 436.41 219.92 436.53 220.32 C 439.06 221.68 442.21 222.55 443.71 225.23 C 445.58 228.36 447.25 231.61 449.03 234.80 C 451.24 238.95 453.09 243.80 451.80 248.53 C 451.05 251.66 448.49 253.82 446.30 255.98 C 448.40 258.01 450.99 259.78 452.27 262.49 C 453.29 266.91 453.38 271.63 452.13 276.01 C 450.95 280.06 447.67 282.97 444.60 285.64 C 442.58 287.67 439.54 287.45 436.92 287.83 C 439.54 288.30 441.86 289.68 444.31 290.66 C 446.30 292.06 447.46 294.31 448.72 296.34 C 452.08 302.30 455.51 308.24 458.45 314.42 C 459.74 317.07 461.01 319.79 463.03 321.98 C 464.74 323.93 466.83 325.55 468.29 327.72 C 468.93 329.25 468.68 330.99 468.92 332.62 C 458.83 336.74 447.79 336.87 437.07 337.58 C 427.29 337.32 417.58 338.51 407.82 338.95 C 404.07 335.58 400.56 330.82 395.08 330.61 C 390.55 330.24 386.01 330.65 381.51 331.06 C 384.19 333.83 387.09 336.40 390.31 338.53 C 377.89 338.88 365.47 338.45 353.05 338.93 C 351.33 336.13 350.03 332.87 347.35 330.82 C 342.99 329.93 338.50 330.46 334.08 330.40 C 335.79 333.27 337.51 336.12 339.36 338.90 C 330.49 340.18 321.55 339.00 312.72 338.09 C 312.99 332.47 313.54 326.87 314.41 321.31 C 315.75 312.86 316.11 304.29 317.05 295.79 C 321.59 304.48 327.72 312.65 336.25 317.75 C 343.25 321.95 351.89 322.29 359.73 320.68 C 365.54 319.48 371.87 320.11 377.21 317.13 C 379.48 315.87 381.79 314.51 383.49 312.51 C 385.40 309.67 385.93 306.00 388.54 303.61 C 391.08 301.12 393.39 298.40 395.13 295.28 C 398.17 289.80 404.08 286.41 406.28 280.36 C 408.39 276.32 405.89 271.70 407.43 267.55 C 408.57 264.08 410.04 260.61 409.90 256.89 C 410.00 253.65 408.59 250.68 407.23 247.83 C 408.97 243.46 411.85 239.04 411.13 234.15 C 410.88 231.15 407.76 230.03 405.61 228.59 L 404.78 228.07 C 406.56 224.41 408.06 220.62 409.71 216.89 C 411.58 212.47 413.59 207.90 413.67 203.01 C 413.67 200.93 413.41 198.62 411.90 197.05 C 410.06 195.15 407.65 193.98 405.41 192.65 C 406.46 188.17 407.72 183.67 407.68 179.03 C 407.64 176.08 406.61 172.82 403.98 171.19 C 401.96 169.96 399.66 169.26 397.46 168.43 C 395.99 165.13 394.97 161.39 392.22 158.89 C 389.48 157.07 385.98 157.32 382.86 156.83 C 382.47 150.56 382.85 144.29 382.66 138.02 C 382.64 134.56 381.21 130.72 377.84 129.26 C 374.47 127.93 370.78 127.97 367.24 127.64 C 366.37 122.00 366.81 115.61 363.13 110.86 C 360.79 107.62 356.55 107.25 353.09 105.92 C 350.69 105.14 349.07 103.09 347.21 101.51 L 346.33 101.33 C 341.99 100.22 337.48 100.50 333.11 101.23 C 333.58 112.25 335.77 123.10 336.80 134.07 C 337.92 144.35 339.27 154.62 339.67 164.96 C 339.76 168.43 340.16 171.97 339.47 175.41 C 337.63 177.79 334.32 178.71 332.81 181.36 C 333.49 186.55 336.18 191.18 338.19 195.94 C 341.22 202.27 342.90 209.11 344.36 215.94 C 345.98 223.30 345.44 230.88 345.40 238.36 C 344.33 246.20 342.59 253.96 342.55 261.91 C 342.50 269.07 339.25 275.64 335.73 281.68 C 334.45 283.71 333.14 285.83 331.18 287.27 C 329.56 288.04 327.75 288.25 326.01 288.61 C 322.98 284.87 319.46 281.55 315.30 279.09 C 317.78 276.31 320.36 273.52 321.88 270.08 C 323.21 267.08 324.63 264.11 326.65 261.50 C 327.88 260.17 327.73 258.30 328.01 256.64 C 324.28 256.32 320.55 256.04 316.83 255.61 C 319.19 247.95 324.07 241.03 324.52 232.84 C 324.98 226.42 321.49 220.72 318.71 215.21 C 315.02 207.96 309.35 201.34 308.47 192.98 C 307.83 188.19 310.85 184.10 312.87 180.04 C 309.73 180.44 306.41 180.76 303.77 182.69 C 296.58 187.68 289.62 193.93 286.57 202.38 C 284.85 206.81 285.01 211.73 283.21 216.12 C 280.83 220.62 276.53 224.20 275.78 229.49 C 275.03 235.64 274.46 242.54 277.99 248.00 C 279.45 250.43 280.44 253.10 281.59 255.68 C 277.04 255.80 272.54 256.41 268.05 257.14 C 268.32 258.71 268.54 260.30 268.70 261.89 C 270.32 262.39 271.94 262.92 273.54 263.48 C 275.10 268.60 277.27 273.52 280.10 278.08 C 275.50 279.98 272.16 283.67 268.49 286.86 C 266.89 288.30 264.71 286.75 263.55 285.47 C 259.29 280.86 256.20 275.15 254.56 269.09 C 252.64 262.15 254.02 254.87 252.80 247.84 C 252.20 243.77 250.92 239.85 249.87 235.89 C 249.78 235.23 249.60 233.91 249.51 233.24 C 249.40 223.32 249.56 213.18 252.70 203.67 C 255.00 196.42 259.26 189.99 261.64 182.78 C 262.10 181.13 262.88 179.03 261.52 177.58 C 259.48 176.06 257.01 175.22 255.05 173.60 C 254.50 171.46 254.55 169.22 254.61 167.03 C 255.64 149.58 257.64 132.20 260.00 114.87 C 260.57 110.70 260.99 106.50 261.39 102.30 C 260.95 101.78 260.07 100.72 259.63 100.19 L 258.53 100.12 C 255.39 99.89 252.19 99.19 249.07 99.90 C 246.73 100.74 244.86 102.45 242.76 103.73 C 240.12 105.44 236.94 105.95 234.15 107.34 C 232.27 108.32 231.11 110.23 230.20 112.07 C 228.19 116.43 227.69 121.26 226.91 125.95 C 223.98 126.33 220.97 126.43 218.16 127.42 C 215.33 128.43 214.04 131.42 212.95 133.97 C 212.87 134.40 212.72 135.25 212.64 135.67 C 211.60 142.53 212.15 149.48 212.13 156.38 C 210.06 156.15 207.94 155.58 205.86 156.04 C 203.23 157.01 200.85 159.02 199.89 161.70 C 199.13 163.83 198.76 166.07 198.31 168.29 C 195.64 168.87 192.80 169.17 190.38 170.53 C 187.68 172.34 186.19 175.73 186.46 178.95 C 186.76 183.39 188.11 187.67 189.08 191.99 C 186.29 193.74 182.91 195.17 181.33 198.24 C 179.46 202.57 181.34 207.28 182.75 211.45 C 184.40 216.40 187.31 220.89 188.46 226.00 C 186.82 229.27 182.63 231.17 182.41 235.13 C 182.61 239.48 186.21 242.75 186.90 246.96 C 186.36 250.00 184.69 252.77 184.51 255.88 C 184.63 259.61 186.54 262.94 187.71 266.40 C 189.46 271.11 188.52 276.31 190.02 281.07 C 191.26 284.76 194.29 287.38 196.67 290.33 C 198.71 292.74 200.09 295.62 201.89 298.21 C 203.34 300.35 205.31 302.06 207.02 303.99 C 209.88 307.01 210.00 311.94 213.71 314.27 C 219.49 318.65 226.97 319.26 233.96 319.57 C 240.05 319.80 246.25 321.51 252.29 320.02 C 258.45 317.96 263.42 313.43 267.78 308.77 C 272.27 304.05 275.28 298.22 278.74 292.77 C 280.54 307.95 283.25 323.00 285.27 338.15 C 276.45 338.39 267.59 338.74 258.79 338.04 C 260.36 335.61 261.74 333.06 263.09 330.51 C 258.60 330.41 254.01 329.72 249.59 330.74 C 246.46 332.90 245.02 336.67 243.11 339.83 C 234.40 339.44 225.69 339.65 216.98 339.61 C 214.39 339.62 211.88 339.00 209.40 338.36 C 212.52 336.27 215.40 333.85 218.20 331.36 C 212.79 331.18 207.36 330.88 201.95 331.21 C 196.26 331.38 193.10 336.91 189.27 340.34 C 183.51 340.73 177.72 340.94 171.96 340.58 C 168.66 340.41 165.35 339.08 162.05 340.01 C 156.81 341.24 151.67 343.65 146.17 343.20 C 143.08 342.86 139.47 341.57 138.50 338.27 C 136.34 330.93 137.35 322.31 142.29 316.27 C 144.26 313.40 147.70 312.32 150.39 310.34 C 152.40 306.89 153.17 302.80 155.55 299.54 C 156.74 297.74 158.94 297.16 160.79 296.29 C 153.89 293.61 147.28 289.01 144.01 282.19 C 142.48 277.11 142.86 270.81 146.90 266.95 C 149.91 263.70 154.60 263.39 158.70 262.71 C 156.06 260.21 153.31 257.64 151.73 254.30 C 150.09 250.77 150.10 246.76 150.29 242.95 C 150.63 237.39 152.67 231.66 156.96 227.91 C 159.11 225.94 162.11 225.49 164.84 224.79 C 161.78 219.97 158.82 214.80 158.35 208.99 C 157.99 205.27 158.03 201.31 159.98 198.00 C 162.45 193.64 164.40 188.57 168.78 185.74 C 172.59 183.07 177.25 182.19 181.71 181.24 C 180.97 174.82 179.12 168.51 179.49 161.99 C 179.73 155.35 179.95 147.87 184.63 142.64 C 189.66 137.02 196.58 133.41 203.76 131.35 C 203.73 126.90 203.38 122.45 203.72 118.01 C 205.04 105.56 213.23 94.08 224.48 88.62 C 229.23 86.15 234.63 88.18 239.66 87.58 C 241.85 85.47 243.24 82.36 246.20 81.16 C 249.79 79.75 253.58 78.81 257.41 78.26 C 262.05 77.22 265.49 81.11 269.33 82.98 C 270.44 79.90 271.33 76.72 272.83 73.80 C 274.09 71.17 276.71 69.60 279.24 68.35 C 283.39 66.29 288.22 65.50 292.79 66.35 C 295.42 67.08 297.29 69.22 299.29 70.94 C 302.75 69.08 306.09 66.87 309.91 65.80 Z" />
<path fill="#ffffff" opacity="1.00" d=" M 44.24 268.28 C 50.05 265.89 57.15 265.90 62.47 269.51 C 73.74 276.72 80.35 289.16 84.25 301.61 C 86.16 306.92 84.54 312.50 84.12 317.90 C 82.08 339.12 87.68 360.84 99.36 378.62 C 108.25 392.12 120.39 403.27 133.82 412.16 C 149.53 422.41 166.74 430.07 184.09 437.08 C 198.29 443.21 212.84 448.53 226.90 455.00 C 247.73 464.17 268.40 474.41 286.07 488.94 C 291.12 492.95 295.30 497.88 299.87 502.41 C 311.48 488.82 326.37 478.57 341.89 469.95 C 357.16 461.66 373.00 454.46 389.11 447.98 C 404.55 441.39 420.33 435.62 435.55 428.53 C 443.47 424.49 451.62 420.87 459.22 416.24 C 477.71 405.42 494.24 390.47 504.52 371.48 C 509.72 362.20 512.79 351.89 514.67 341.46 C 515.99 335.04 515.83 328.44 515.71 321.92 C 515.61 316.29 514.13 310.50 516.08 305.01 C 520.00 292.78 526.24 280.48 537.16 273.10 C 545.54 266.74 559.28 269.09 564.79 278.17 C 570.91 287.62 568.20 302.15 558.05 307.70 C 553.12 300.94 549.83 293.17 544.94 286.39 C 537.93 289.99 532.28 296.95 531.68 304.99 C 531.11 311.55 531.82 318.34 534.64 324.35 C 540.43 337.98 550.67 348.90 559.09 360.88 C 564.54 368.54 570.70 376.54 571.52 386.26 C 572.82 397.32 569.88 408.39 565.33 418.40 C 558.58 432.44 548.39 444.52 537.08 455.10 C 515.08 475.53 488.82 490.67 462.13 504.06 C 456.16 507.16 449.65 508.96 443.45 511.53 C 439.71 513.05 436.02 514.69 432.23 516.09 C 417.73 521.33 403.53 527.39 389.27 533.25 C 362.70 544.01 336.73 556.67 313.26 573.25 C 308.29 576.71 303.65 580.61 298.82 584.24 C 295.51 581.88 292.35 579.33 289.21 576.76 C 269.23 561.42 246.92 549.48 224.15 538.87 C 204.21 530.28 184.24 521.76 164.04 513.81 C 153.04 508.73 141.37 505.18 130.75 499.31 C 105.24 485.91 80.38 470.55 59.66 450.33 C 48.05 438.85 37.80 425.60 31.86 410.27 C 28.54 401.62 27.18 392.20 28.22 382.98 C 28.94 376.85 31.67 371.13 35.07 366.05 C 41.43 356.83 48.38 348.04 55.21 339.17 C 60.48 332.34 64.84 324.74 67.56 316.52 C 69.38 310.98 69.85 304.93 68.56 299.23 C 66.85 292.47 61.92 286.93 55.99 283.45 C 50.98 290.25 47.30 297.89 42.69 304.95 C 34.44 300.30 31.02 289.55 33.70 280.70 C 35.16 275.28 39.01 270.47 44.24 268.28 M 46.60 390.00 C 47.37 393.25 47.95 396.68 50.23 399.28 C 50.51 397.45 50.81 395.63 51.09 393.82 C 53.38 393.55 55.66 393.24 57.93 392.88 C 59.79 396.33 62.57 399.67 62.64 403.75 C 61.74 406.11 59.31 407.27 57.42 408.73 C 55.97 407.47 54.53 406.21 53.12 404.92 C 54.22 409.51 56.41 413.72 58.09 418.12 C 58.55 419.60 59.71 420.67 60.36 422.06 C 61.73 418.46 63.10 414.69 66.00 412.00 C 70.95 407.26 75.17 401.84 79.88 396.88 C 81.92 394.71 83.70 392.31 85.33 389.82 C 79.63 389.42 73.92 389.68 68.22 389.53 C 60.99 389.16 53.81 391.41 46.60 390.00 M 541.93 397.80 C 540.27 398.88 540.39 401.03 539.99 402.74 C 542.28 403.78 544.85 406.28 547.44 404.51 C 549.69 403.47 550.49 400.17 548.66 398.40 C 547.05 396.35 543.83 395.91 541.93 397.80 M 513.31 397.93 C 513.29 399.19 513.28 400.45 513.27 401.72 C 509.22 405.08 504.26 408.09 502.43 413.31 C 500.31 419.82 501.85 427.47 506.45 432.57 C 509.61 435.60 513.82 437.47 518.10 438.29 C 525.76 439.37 533.15 434.52 536.96 428.12 C 538.81 424.10 538.80 419.38 537.88 415.13 C 537.41 414.95 536.47 414.60 536.00 414.43 C 536.14 417.73 536.94 421.25 535.43 424.37 C 534.22 426.94 532.76 429.64 530.29 431.19 C 526.11 432.50 521.34 431.70 517.77 429.16 C 513.29 426.05 508.24 422.84 506.26 417.48 C 504.30 413.29 506.60 407.40 511.21 406.20 C 515.13 405.22 519.22 405.71 523.22 405.52 C 520.70 402.07 517.04 399.85 513.31 397.93 M 91.50 404.74 C 91.95 406.72 93.15 408.69 92.85 410.76 C 91.34 413.22 88.81 414.79 86.60 416.57 C 81.20 420.50 76.64 425.46 71.05 429.15 C 69.04 428.47 67.02 427.81 64.99 427.20 C 69.27 432.11 72.97 437.53 77.59 442.14 C 77.23 440.21 76.83 438.29 76.38 436.38 C 82.70 431.05 88.92 425.60 95.32 420.35 C 96.85 419.23 98.55 417.63 100.62 418.19 C 102.86 419.98 104.11 422.64 105.64 425.00 C 99.64 432.55 93.98 440.42 87.49 447.56 C 85.25 447.82 83.07 446.86 80.90 446.44 C 85.61 451.31 91.15 455.32 96.76 459.08 C 96.12 457.34 95.46 455.62 94.79 453.91 C 96.75 450.22 99.15 446.78 102.09 443.81 C 102.54 448.09 102.50 452.42 101.86 456.69 C 101.72 458.81 101.09 461.06 101.79 463.14 C 104.62 465.95 108.16 467.85 111.34 470.23 C 109.76 463.03 110.56 455.64 110.35 448.34 C 114.34 449.06 119.18 450.61 122.61 447.61 C 125.41 444.21 124.97 438.96 122.49 435.50 C 118.38 429.51 111.03 427.07 106.40 421.59 C 102.73 417.22 99.18 412.76 95.69 408.24 C 94.62 406.72 92.99 405.78 91.50 404.74 M 479.38 435.41 C 473.43 439.70 466.91 443.12 460.97 447.43 C 462.58 451.06 464.50 454.57 467.60 457.16 C 467.39 454.21 466.55 451.24 466.96 448.28 C 467.76 446.28 469.16 444.61 470.41 442.88 C 474.58 447.15 477.22 452.57 480.72 457.37 C 483.02 460.82 485.98 463.98 487.20 468.03 C 486.71 470.25 485.30 472.12 484.27 474.11 C 490.01 471.49 494.69 467.07 500.44 464.42 C 500.58 463.94 500.87 462.99 501.01 462.51 C 499.03 462.79 497.05 463.07 495.07 463.34 C 490.93 457.29 487.27 450.92 482.94 444.99 C 481.14 442.67 479.90 440.01 478.87 437.28 C 481.15 436.83 483.45 436.01 485.80 436.30 C 488.28 437.33 490.56 438.76 492.89 440.10 C 491.46 436.67 489.21 433.68 486.87 430.84 C 484.30 432.25 481.76 433.71 479.38 435.41 M 142.11 447.05 C 143.20 448.67 144.40 450.24 145.21 452.03 C 144.62 455.76 142.97 459.21 141.78 462.78 C 140.06 467.30 138.76 472.03 136.29 476.23 C 135.24 478.52 132.42 478.28 130.35 478.78 C 130.36 479.21 130.40 480.06 130.42 480.49 C 136.29 482.62 141.87 485.63 148.04 486.86 C 146.69 485.27 145.28 483.72 144.22 481.92 C 144.52 477.47 146.51 473.36 147.65 469.09 C 149.12 469.67 151.07 469.58 151.99 471.10 C 153.94 473.62 152.73 476.93 152.49 479.79 C 152.98 479.75 153.97 479.66 154.47 479.62 C 156.21 473.89 159.54 468.75 160.86 462.89 C 158.46 464.06 156.66 466.06 154.63 467.73 C 152.93 468.26 151.23 467.29 149.55 467.13 C 150.78 463.19 151.61 459.04 153.68 455.43 C 154.04 455.24 154.77 454.85 155.14 454.65 C 158.74 454.64 162.41 456.38 164.76 459.11 C 165.90 461.66 165.71 464.56 166.16 467.28 C 168.06 464.52 169.53 461.50 170.73 458.38 C 161.28 454.41 152.20 449.27 142.11 447.05 M 507.57 447.55 C 505.11 448.58 504.64 451.94 505.88 454.06 C 507.29 456.25 510.28 455.98 512.50 455.53 C 514.26 454.14 515.51 451.20 513.76 449.32 C 512.41 447.32 509.76 446.77 507.57 447.55 M 434.34 458.09 C 429.45 459.10 424.49 461.37 421.58 465.60 C 417.70 470.85 417.64 478.07 419.83 484.01 C 421.81 489.48 426.99 493.07 432.34 494.80 C 439.51 496.93 447.11 493.18 451.90 487.91 C 457.51 480.81 455.85 470.18 450.51 463.44 C 446.40 459.31 440.10 457.18 434.34 458.09 M 180.39 461.68 C 176.53 462.45 173.58 465.31 171.14 468.21 C 169.50 470.22 167.80 472.41 167.44 475.07 C 166.60 481.26 166.62 488.71 172.00 492.97 C 179.02 500.58 191.85 500.00 199.12 493.11 C 204.21 487.20 205.65 478.40 202.68 471.19 C 200.94 468.10 198.04 465.85 195.21 463.81 C 190.97 460.72 185.33 460.84 180.39 461.68 M 213.23 470.04 C 214.03 472.31 215.35 474.53 215.35 477.00 C 214.67 481.94 211.88 486.18 209.62 490.51 C 208.22 493.10 207.50 495.97 206.50 498.73 C 205.72 500.98 203.77 502.50 201.95 503.90 C 206.86 505.56 211.62 507.71 215.97 510.55 C 216.11 510.24 216.40 509.63 216.55 509.32 C 215.65 507.89 213.97 506.72 213.84 504.97 C 214.30 501.59 215.97 498.54 217.36 495.48 C 220.31 500.75 220.41 506.95 222.57 512.49 C 225.61 515.36 229.82 516.42 233.59 518.02 C 231.29 511.12 229.43 504.08 228.07 496.93 C 230.42 496.70 232.84 496.72 235.10 495.97 C 239.16 493.41 241.14 487.17 237.78 483.27 C 235.00 480.17 231.25 478.12 227.45 476.53 C 222.56 474.71 217.84 472.48 213.23 470.04 M 380.06 475.08 C 375.67 476.39 371.31 477.75 366.93 479.07 C 365.38 479.40 364.25 480.54 362.87 481.22 C 364.45 481.65 366.04 482.10 367.64 482.54 C 371.03 490.54 373.87 498.77 377.06 506.86 C 378.54 509.94 375.39 512.37 373.78 514.63 C 378.48 513.51 383.03 511.84 387.63 510.37 C 389.30 509.88 390.65 508.75 392.15 507.94 C 390.28 507.50 388.32 507.31 386.59 506.46 C 384.48 503.29 383.66 499.50 382.71 495.88 C 386.69 497.91 390.28 500.58 393.96 503.09 C 395.54 504.02 397.12 505.21 399.01 505.40 C 402.14 505.16 405.06 503.85 407.99 502.84 C 402.51 499.00 397.15 494.99 391.91 490.84 C 393.77 488.15 396.66 485.60 396.45 482.05 C 396.49 478.77 394.36 475.65 391.29 474.52 C 387.66 472.96 383.67 474.14 380.06 475.08 M 467.19 474.74 C 463.53 475.41 463.33 481.84 467.09 482.44 C 469.47 483.13 472.44 481.66 472.48 478.96 C 473.04 476.04 469.90 473.56 467.19 474.74 M 330.93 493.95 C 330.60 494.78 330.28 495.63 329.96 496.48 C 331.99 496.16 334.01 495.84 336.04 495.55 C 340.89 502.55 342.81 510.98 346.57 518.54 C 348.12 521.44 349.08 524.59 349.65 527.84 C 348.96 528.25 347.58 529.07 346.89 529.49 C 345.59 527.03 344.94 523.55 341.92 522.67 C 340.02 522.61 338.41 523.97 337.48 525.52 C 337.12 528.08 338.89 530.77 341.43 531.38 C 344.61 532.08 348.33 532.11 351.02 529.99 C 353.47 528.14 355.78 525.69 356.41 522.58 C 357.03 519.75 355.46 517.13 354.35 514.65 C 352.06 510.06 350.60 505.12 348.32 500.53 C 347.01 497.82 345.88 495.04 344.94 492.18 C 345.99 490.51 347.00 488.82 348.03 487.15 C 342.08 488.74 336.67 491.79 330.93 493.95 M 249.40 495.37 C 243.71 498.36 240.98 504.91 240.55 511.05 C 240.12 520.20 247.25 528.98 256.30 530.42 C 259.85 530.93 263.28 529.64 266.64 528.70 C 266.66 528.08 266.69 526.83 266.71 526.20 C 263.02 526.62 259.31 527.31 255.60 526.97 C 252.23 526.67 249.15 524.42 247.73 521.38 C 246.42 517.21 248.26 512.95 250.04 509.22 C 252.30 504.37 255.18 499.26 260.20 496.85 C 265.13 494.95 270.55 498.51 272.17 503.20 C 272.72 506.42 272.16 509.76 273.12 512.93 C 276.96 510.57 277.88 505.55 279.95 501.79 C 277.94 501.37 275.67 501.43 273.99 500.08 C 270.93 497.84 268.44 494.65 264.70 493.52 C 259.62 491.99 254.07 493.08 249.40 495.37 M 411.30 493.14 C 410.55 495.46 408.76 498.11 410.47 500.47 C 411.66 503.00 415.54 503.50 417.20 501.17 C 419.34 499.02 417.92 496.02 417.46 493.52 C 415.40 493.52 413.34 493.39 411.30 493.14 M 284.32 504.91 C 285.06 506.90 285.94 508.88 286.28 511.00 C 284.98 515.31 281.97 518.78 279.57 522.51 C 277.35 525.72 275.73 529.30 273.42 532.45 C 271.83 535.04 268.41 534.25 265.86 534.74 C 267.92 536.49 269.94 538.31 272.33 539.62 C 278.94 543.36 285.37 547.43 292.07 551.05 C 294.94 548.77 297.53 546.12 299.21 542.83 C 296.18 543.88 293.25 545.45 290.01 545.74 C 285.96 545.67 282.06 543.57 279.37 540.61 C 280.21 536.37 282.96 532.74 285.22 529.13 C 287.08 526.84 289.85 530.16 290.32 532.09 C 290.32 534.83 289.76 537.53 289.48 540.25 C 290.66 538.83 292.01 537.53 292.92 535.90 C 295.16 531.88 298.27 528.37 299.91 524.01 C 297.58 525.10 295.36 526.44 292.93 527.31 C 291.19 527.67 289.44 527.00 287.72 526.82 C 289.04 521.96 292.16 517.85 295.80 514.47 C 298.76 516.45 302.27 518.04 304.14 521.23 C 304.79 524.24 303.86 527.33 303.61 530.36 C 307.19 528.29 308.98 524.49 310.02 520.66 C 301.40 515.50 292.98 510.00 284.32 504.91 M 365.26 509.83 C 361.98 511.23 361.91 515.55 364.48 517.69 C 367.68 519.00 371.16 516.43 371.33 513.11 C 370.62 510.58 367.83 508.65 365.26 509.83 Z" />
<path fill="#ffffff" opacity="1.00" d=" M 47.12 309.03 C 50.42 302.94 54.08 297.04 58.06 291.38 C 60.25 293.77 62.64 296.23 63.41 299.49 C 64.96 304.77 60.49 310.88 54.93 310.78 C 52.19 311.10 49.62 309.97 47.12 309.03 Z" />
<path fill="#ffffff" opacity="1.00" d=" M 537.07 304.03 C 537.18 300.00 539.87 296.79 542.82 294.33 C 546.59 300.02 550.30 305.80 553.24 311.98 C 549.99 312.87 546.55 314.05 543.19 313.00 C 539.34 311.96 536.60 308.01 537.07 304.03 Z" />
<path fill="#ffffff" opacity="1.00" d=" M 24.13 315.11 C 26.63 309.45 28.26 303.47 30.72 297.80 C 32.36 300.94 33.80 304.22 35.86 307.12 C 39.78 312.50 46.35 315.84 53.04 315.42 C 57.11 315.65 60.58 313.31 63.80 311.14 C 62.14 315.55 60.49 319.99 58.03 324.04 C 48.15 340.31 33.93 353.68 25.48 370.87 C 18.86 368.93 11.99 365.90 7.90 360.07 C 5.01 355.98 6.01 350.44 8.42 346.37 C 14.30 336.29 19.52 325.83 24.13 315.11 Z" />
<path fill="#ffffff" opacity="1.00" d=" M 560.99 313.93 C 565.27 310.67 567.39 305.58 569.85 300.97 C 572.63 308.25 574.97 315.72 578.18 322.84 C 581.37 329.85 584.63 336.84 588.35 343.59 C 589.94 346.62 591.81 349.52 593.06 352.72 C 594.52 356.54 594.08 361.20 591.34 364.35 C 587.00 369.46 580.70 372.51 574.25 373.98 C 569.04 362.73 561.04 353.18 553.73 343.28 C 547.29 334.66 540.40 325.87 537.66 315.25 C 540.33 316.42 543.00 317.77 545.93 318.18 C 551.24 318.84 556.85 317.39 560.99 313.93 Z" />
<path fill="#ffffff" opacity="1.00" d=" M 60.97 392.41 C 65.25 391.89 69.56 391.67 73.87 391.79 C 70.91 395.05 67.82 398.19 64.44 401.02 C 63.17 398.20 62.01 395.33 60.97 392.41 Z" />
<path fill="#ffffff" opacity="1.00" d=" M 103.13 441.23 C 106.48 437.85 108.77 433.54 112.26 430.31 C 115.50 430.27 118.34 433.79 117.94 436.92 C 116.65 440.47 114.13 443.74 110.82 445.63 C 107.77 445.18 105.46 443.04 103.13 441.23 Z" />
<path fill="#ffffff" opacity="1.00" d=" M 431.51 460.59 C 434.96 459.54 438.65 461.50 440.72 464.26 C 445.69 471.06 449.23 479.79 447.17 488.28 C 445.16 491.84 440.49 493.82 436.59 492.35 C 433.86 490.88 432.09 488.17 430.52 485.58 C 427.68 480.51 425.47 474.87 425.40 468.99 C 425.21 465.21 428.19 461.95 431.51 460.59 Z" />
<path fill="#ffffff" opacity="1.00" d=" M 186.32 464.04 C 190.72 463.12 196.40 466.39 196.48 471.28 C 197.13 479.63 193.71 487.97 188.15 494.12 C 184.68 498.04 177.38 496.33 175.65 491.58 C 174.10 483.92 176.19 475.87 180.30 469.33 C 181.75 467.06 183.65 464.86 186.32 464.04 Z" />
<path fill="#ffffff" opacity="1.00" d=" M 377.82 477.20 C 380.01 477.27 382.30 476.96 384.44 477.62 C 388.00 479.78 389.27 484.52 388.38 488.43 C 386.89 491.31 383.66 492.31 380.72 492.99 C 379.77 487.72 377.32 482.65 377.82 477.20 Z" />
<path fill="#ffffff" opacity="1.00" d=" M 218.19 491.80 C 220.90 487.33 222.83 482.44 225.85 478.16 C 227.81 479.23 229.79 480.28 231.83 481.21 C 231.72 483.31 231.72 485.44 231.33 487.52 C 230.53 490.22 227.96 492.61 225.04 492.53 C 222.73 492.54 220.46 492.12 218.19 491.80 Z" />
</g>
<g id="#aa0000ff">
<path fill="#aa0000" opacity="1.00" d=" M 242.76 103.73 C 244.86 102.45 246.73 100.74 249.07 99.90 C 252.19 99.19 255.39 99.89 258.53 100.12 C 254.07 100.07 249.71 101.08 245.46 102.33 C 244.21 108.16 243.03 114.03 242.64 120.00 C 241.84 131.36 239.47 142.58 239.50 154.00 C 239.17 163.14 241.39 172.07 242.99 181.00 C 246.44 178.78 249.91 176.59 253.44 174.49 C 254.61 164.09 253.78 153.57 255.39 143.22 C 256.76 132.83 257.80 122.39 259.44 112.03 C 260.10 108.12 260.02 104.13 259.63 100.19 C 260.07 100.72 260.95 101.78 261.39 102.30 C 260.99 106.50 260.57 110.70 260.00 114.87 C 257.64 132.20 255.64 149.58 254.61 167.03 C 254.55 169.22 254.50 171.46 255.05 173.60 C 257.01 175.22 259.48 176.06 261.52 177.58 C 262.88 179.03 262.10 181.13 261.64 182.78 C 259.26 189.99 255.00 196.42 252.70 203.67 C 249.56 213.18 249.40 223.32 249.51 233.24 C 248.82 228.85 248.42 224.40 248.81 219.96 C 249.40 212.83 250.26 205.56 253.19 198.95 C 255.83 192.94 259.47 187.25 260.64 180.70 C 261.31 178.80 259.56 177.08 257.82 176.71 C 253.26 175.62 247.99 177.49 245.51 181.55 C 243.58 184.62 242.49 188.12 241.38 191.55 C 238.93 199.64 236.73 207.82 235.29 216.16 C 235.55 210.92 235.37 205.57 233.53 200.60 C 229.76 189.72 225.98 178.63 225.45 167.03 C 225.18 154.21 225.25 141.37 226.34 128.59 C 223.96 128.57 221.55 128.38 219.19 128.81 C 216.56 129.71 214.70 131.93 212.95 133.97 C 214.04 131.42 215.33 128.43 218.16 127.42 C 220.97 126.43 223.98 126.33 226.91 125.95 C 227.69 121.26 228.19 116.43 230.20 112.07 C 231.11 110.23 232.27 108.32 234.15 107.34 C 236.94 105.95 240.12 105.44 242.76 103.73 M 237.32 107.05 C 233.71 108.39 231.27 111.81 230.31 115.43 C 228.90 120.51 228.54 125.81 227.69 131.00 C 225.75 141.90 226.94 153.01 226.56 164.01 C 226.20 177.56 231.43 190.23 235.18 202.98 C 235.58 202.98 236.39 202.98 236.80 202.98 C 237.94 199.33 238.66 195.55 240.11 191.99 C 241.11 189.13 242.56 186.23 242.21 183.12 C 241.10 173.80 237.30 164.71 238.58 155.19 C 239.60 147.81 239.11 140.34 240.09 132.96 C 240.91 124.16 242.33 115.43 243.01 106.62 C 241.12 106.72 239.16 106.53 237.32 107.05 Z" />
<path fill="#aa0000" opacity="1.00" d=" M 333.11 101.23 C 337.48 100.50 341.99 100.22 346.33 101.33 C 342.12 100.90 337.97 101.78 333.87 102.64 C 336.18 121.24 338.69 139.82 340.29 158.50 C 340.58 164.24 340.55 170.00 340.90 175.75 C 344.38 177.83 347.82 179.99 351.23 182.17 C 356.60 164.21 354.35 145.22 352.42 126.92 C 351.31 118.36 351.69 109.22 347.21 101.51 C 349.07 103.09 350.69 105.14 353.09 105.92 C 356.55 107.25 360.79 107.62 363.13 110.86 C 366.81 115.61 366.37 122.00 367.24 127.64 C 370.78 127.97 374.47 127.93 377.84 129.26 C 381.21 130.72 382.64 134.56 382.66 138.02 C 382.85 144.29 382.47 150.56 382.86 156.83 C 385.98 157.32 389.48 157.07 392.22 158.89 C 394.97 161.39 395.99 165.13 397.46 168.43 C 399.66 169.26 401.96 169.96 403.98 171.19 C 406.61 172.82 407.64 176.08 407.68 179.03 C 407.72 183.67 406.46 188.17 405.41 192.65 C 407.65 193.98 410.06 195.15 411.90 197.05 C 413.41 198.62 413.67 200.93 413.67 203.01 C 413.59 207.90 411.58 212.47 409.71 216.89 C 408.06 220.62 406.56 224.41 404.78 228.07 C 399.26 237.52 393.90 247.30 386.06 255.07 C 382.85 258.34 378.45 260.11 375.34 263.46 C 372.72 267.35 373.73 272.34 373.77 276.74 C 376.32 276.09 379.03 275.77 381.34 274.41 C 387.30 270.88 392.44 266.09 396.64 260.60 C 400.73 255.25 404.77 249.80 407.92 243.83 C 409.24 241.12 410.60 238.19 410.33 235.10 C 409.77 232.37 407.51 230.45 405.61 228.59 C 407.76 230.03 410.88 231.15 411.13 234.15 C 411.85 239.04 408.97 243.46 407.23 247.83 C 408.59 250.68 410.00 253.65 409.90 256.89 C 410.04 260.61 408.57 264.08 407.43 267.55 C 405.89 271.70 408.39 276.32 406.28 280.36 C 404.08 286.41 398.17 289.80 395.13 295.28 C 393.39 298.40 391.08 301.12 388.54 303.61 C 385.93 306.00 385.40 309.67 383.49 312.51 C 381.79 314.51 379.48 315.87 377.21 317.13 C 371.87 320.11 365.54 319.48 359.73 320.68 C 351.89 322.29 343.25 321.95 336.25 317.75 C 327.72 312.65 321.59 304.48 317.05 295.79 C 316.11 304.29 315.75 312.86 314.41 321.31 C 313.54 326.87 312.99 332.47 312.72 338.09 C 312.46 342.55 312.41 347.11 310.91 351.37 L 310.95 350.39 C 311.12 343.79 311.39 337.18 311.89 330.59 C 313.58 315.69 315.13 300.78 316.92 285.89 C 304.20 285.62 291.47 285.47 278.76 285.97 C 279.79 294.05 281.52 302.01 282.64 310.07 C 283.31 314.63 283.70 319.23 284.44 323.78 C 286.97 337.97 288.95 352.25 291.17 366.50 C 292.20 373.71 293.67 380.92 293.52 388.24 C 290.08 371.66 287.87 354.87 285.27 338.15 C 283.25 323.00 280.54 307.95 278.74 292.77 C 275.28 298.22 272.27 304.05 267.78 308.77 C 263.42 313.43 258.45 317.96 252.29 320.02 C 246.25 321.51 240.05 319.80 233.96 319.57 C 226.97 319.26 219.49 318.65 213.71 314.27 C 210.00 311.94 209.88 307.01 207.02 303.99 C 205.31 302.06 203.34 300.35 201.89 298.21 C 200.09 295.62 198.71 292.74 196.67 290.33 C 194.29 287.38 191.26 284.76 190.02 281.07 C 188.52 276.31 189.46 271.11 187.71 266.40 C 186.54 262.94 184.63 259.61 184.51 255.88 C 184.69 252.77 186.36 250.00 186.90 246.96 C 186.21 242.75 182.61 239.48 182.41 235.13 C 182.63 231.17 186.82 229.27 188.46 226.00 C 187.31 220.89 184.40 216.40 182.75 211.45 C 181.34 207.28 179.46 202.57 181.33 198.24 C 182.91 195.17 186.29 193.74 189.08 191.99 C 188.11 187.67 186.76 183.39 186.46 178.95 C 186.19 175.73 187.68 172.34 190.38 170.53 C 192.80 169.17 195.64 168.87 198.31 168.29 C 198.76 166.07 199.13 163.83 199.89 161.70 C 200.85 159.02 203.23 157.01 205.86 156.04 C 207.94 155.58 210.06 156.15 212.13 156.38 C 212.15 149.48 211.60 142.53 212.64 135.67 C 212.74 144.24 212.75 152.82 213.32 161.38 C 213.52 167.25 213.63 173.15 214.77 178.93 C 216.40 187.30 216.77 195.97 219.78 204.02 C 221.68 209.37 225.12 213.97 228.41 218.53 C 229.98 220.36 231.70 222.10 233.70 223.47 C 234.05 221.24 234.36 219.00 234.70 216.76 C 234.68 221.91 234.59 227.10 235.53 232.19 C 236.47 237.44 238.91 242.24 240.62 247.26 C 236.29 242.12 235.44 235.28 233.08 229.21 C 230.80 231.29 228.04 233.24 227.09 236.34 C 225.78 239.97 226.81 244.01 228.79 247.19 C 231.30 251.21 234.81 254.46 237.85 258.06 C 235.25 256.07 232.59 254.06 230.65 251.39 C 228.35 248.25 226.65 244.74 224.68 241.40 C 223.45 246.09 222.39 251.45 225.14 255.83 C 228.39 260.75 234.14 262.96 238.77 266.30 C 235.93 265.28 233.00 264.32 230.57 262.46 C 226.58 259.59 223.70 255.53 220.75 251.67 C 220.62 255.72 220.22 260.02 222.08 263.78 C 224.56 268.92 229.68 272.28 234.99 273.95 C 237.20 274.60 239.04 276.04 241.18 276.85 C 234.05 276.13 228.41 271.44 222.50 267.87 C 222.94 271.25 223.03 274.95 225.13 277.81 C 227.18 280.72 230.53 282.37 233.85 283.40 C 237.67 284.64 242.00 284.39 245.34 286.89 C 239.02 286.84 233.28 284.00 227.38 282.14 C 229.24 288.14 233.89 293.59 240.20 294.99 C 244.85 295.46 249.55 295.24 254.21 295.50 C 249.22 295.70 244.23 295.71 239.24 296.07 C 241.19 299.04 244.09 301.03 247.34 302.37 C 243.07 304.93 239.71 308.90 235.10 310.89 C 226.74 313.59 218.55 309.23 210.39 307.91 C 211.82 310.26 213.12 312.96 215.69 314.29 C 224.34 319.22 235.02 319.34 244.38 316.48 C 249.93 314.72 253.76 309.72 255.28 304.25 C 253.12 303.95 250.97 303.68 248.81 303.45 C 254.14 303.42 259.85 302.74 263.96 298.99 C 267.04 296.82 268.17 293.12 269.15 289.68 C 266.84 288.99 264.12 288.64 262.63 286.49 C 259.32 282.33 256.39 277.83 254.10 273.02 C 251.33 267.06 252.74 260.33 252.20 254.01 C 251.68 247.94 250.41 241.96 249.87 235.89 C 250.92 239.85 252.20 243.77 252.80 247.84 C 254.02 254.87 252.64 262.15 254.56 269.09 C 256.20 275.15 259.29 280.86 263.55 285.47 C 264.71 286.75 266.89 288.30 268.49 286.86 C 272.16 283.67 275.50 279.98 280.10 278.08 C 277.27 273.52 275.10 268.60 273.54 263.48 C 271.94 262.92 270.32 262.39 268.70 261.89 C 268.54 260.30 268.32 258.71 268.05 257.14 C 272.54 256.41 277.04 255.80 281.59 255.68 C 280.44 253.10 279.45 250.43 277.99 248.00 C 274.46 242.54 275.03 235.64 275.78 229.49 C 276.53 224.20 280.83 220.62 283.21 216.12 C 285.01 211.73 284.85 206.81 286.57 202.38 C 289.62 193.93 296.58 187.68 303.77 182.69 C 306.41 180.76 309.73 180.44 312.87 180.04 C 310.85 184.10 307.83 188.19 308.47 192.98 C 309.35 201.34 315.02 207.96 318.71 215.21 C 321.49 220.72 324.98 226.42 324.52 232.84 C 324.07 241.03 319.19 247.95 316.83 255.61 C 320.55 256.04 324.28 256.32 328.01 256.64 C 327.73 258.30 327.88 260.17 326.65 261.50 C 324.63 264.11 323.21 267.08 321.88 270.08 C 320.36 273.52 317.78 276.31 315.30 279.09 C 319.46 281.55 322.98 284.87 326.01 288.61 C 329.07 291.99 332.13 295.39 335.55 298.42 C 337.37 299.90 339.45 301.59 341.96 301.35 C 345.81 301.21 349.13 299.02 352.34 297.13 C 348.95 296.88 345.55 296.72 342.16 296.47 C 346.44 296.24 350.73 296.51 355.00 296.19 C 359.09 295.85 362.44 293.04 365.10 290.14 C 366.72 288.48 366.96 286.07 367.63 283.95 C 362.33 285.30 357.21 287.51 351.70 287.90 C 355.42 285.10 360.35 285.52 364.48 283.65 C 367.86 282.22 370.86 279.55 372.11 276.04 C 372.78 273.95 373.01 271.75 373.36 269.59 C 367.45 272.81 361.82 276.87 355.02 278.00 C 359.76 275.40 364.96 273.60 369.31 270.35 C 374.60 266.12 376.06 258.73 375.03 252.32 C 373.97 254.20 372.52 255.79 371.22 257.50 C 367.95 262.60 362.48 265.83 356.93 267.96 C 359.86 265.46 363.16 263.46 366.38 261.36 C 369.60 259.26 371.96 255.78 372.36 251.92 C 372.66 248.79 371.72 245.73 371.04 242.72 C 369.01 246.13 367.27 249.74 364.90 252.94 C 363.08 255.43 360.52 257.22 358.03 258.97 C 360.29 255.95 362.92 253.23 365.32 250.32 C 368.53 246.58 369.53 241.03 367.76 236.43 C 366.79 233.78 364.33 232.19 362.26 230.47 C 360.43 236.53 358.94 242.84 355.29 248.14 C 356.92 243.29 358.90 238.51 359.74 233.44 C 360.85 227.29 360.61 220.96 359.42 214.85 C 357.58 205.26 354.93 195.81 351.54 186.65 C 349.81 181.79 345.23 178.03 340.05 177.62 C 337.60 177.52 334.38 179.21 334.74 182.04 C 335.26 187.84 338.38 192.94 340.82 198.10 C 343.94 204.36 344.65 211.43 345.79 218.24 C 346.89 224.91 346.59 231.72 345.40 238.36 C 345.44 230.88 345.98 223.30 344.36 215.94 C 342.90 209.11 341.22 202.27 338.19 195.94 C 336.18 191.18 333.49 186.55 332.81 181.36 C 334.32 178.71 337.63 177.79 339.47 175.41 C 340.16 171.97 339.76 168.43 339.67 164.96 C 339.27 154.62 337.92 144.35 336.80 134.07 C 335.77 123.10 333.58 112.25 333.11 101.23 M 351.61 107.57 C 351.67 110.23 351.76 112.91 352.26 115.54 C 354.05 124.18 354.13 133.05 355.09 141.80 C 355.94 149.18 355.65 156.63 355.64 164.05 C 355.64 170.20 353.12 175.95 352.56 182.02 C 352.21 185.56 353.40 188.98 354.56 192.27 C 355.88 195.90 357.09 199.56 358.35 203.21 C 361.40 197.74 362.80 191.60 364.84 185.73 C 366.69 180.35 367.42 174.67 367.42 169.00 C 367.46 157.98 367.42 146.97 367.41 135.95 C 367.44 130.14 365.38 124.64 364.32 118.99 C 363.54 115.49 362.91 111.41 359.75 109.19 C 357.47 107.28 354.37 107.66 351.61 107.57 M 367.71 128.89 C 367.79 131.75 367.84 134.63 368.19 137.48 C 369.04 144.29 368.44 151.16 368.63 157.99 C 368.85 166.36 368.14 174.74 366.69 182.98 C 364.47 192.21 359.40 201.01 360.10 210.77 C 360.67 216.63 360.63 222.52 361.03 228.39 C 362.76 226.60 364.49 224.76 365.61 222.51 C 368.30 217.52 371.21 212.64 373.65 207.52 C 376.02 202.59 376.89 197.13 378.10 191.84 C 379.48 186.01 379.29 179.97 380.33 174.08 C 381.83 165.81 381.63 157.36 381.79 148.99 C 381.74 144.52 382.10 140.00 381.38 135.57 C 380.84 132.56 378.18 130.44 375.46 129.39 C 373.00 128.40 370.29 128.88 367.71 128.89 M 203.68 158.55 C 200.80 160.67 199.41 164.44 199.72 167.95 C 200.34 176.50 202.66 184.80 204.69 193.09 C 208.23 205.50 212.77 217.91 220.69 228.24 C 222.32 230.42 224.67 231.87 226.89 233.37 C 229.05 231.22 231.20 229.05 233.33 226.88 C 230.05 220.96 225.12 216.20 221.57 210.45 C 217.16 203.91 215.74 195.94 214.98 188.23 C 214.41 182.12 212.51 176.19 212.40 170.03 C 212.27 165.93 211.71 161.87 210.96 157.84 C 208.54 157.82 205.81 156.96 203.68 158.55 M 383.53 158.56 C 380.68 166.65 382.60 175.48 380.67 183.75 C 379.25 189.88 379.06 196.27 377.02 202.26 C 375.27 207.47 372.53 212.27 369.99 217.12 C 367.92 221.10 365.12 224.72 363.60 228.97 C 364.38 231.06 366.42 232.23 367.95 233.73 C 375.16 230.09 378.22 222.30 381.66 215.51 C 386.34 206.36 389.31 196.46 391.73 186.50 C 393.39 179.81 395.05 172.94 394.40 165.99 C 394.20 163.13 392.79 160.23 390.23 158.79 C 388.14 157.82 385.70 157.93 383.53 158.56 M 187.91 179.79 C 189.10 187.54 191.55 195.02 194.44 202.29 C 197.30 210.96 201.52 219.08 205.80 227.12 C 209.77 233.81 214.67 240.62 222.04 243.80 C 223.98 241.20 226.14 238.48 226.30 235.09 C 223.69 231.92 220.13 229.66 217.81 226.25 C 211.02 216.71 207.16 205.50 203.85 194.38 C 202.19 187.64 199.93 180.99 199.37 174.03 C 199.19 172.38 199.07 169.79 196.85 169.70 C 191.45 168.87 187.07 174.76 187.91 179.79 M 395.91 170.59 C 395.34 173.27 394.71 175.94 394.29 178.64 C 392.36 192.61 387.63 206.05 381.62 218.75 C 378.57 225.12 374.05 230.65 368.56 235.08 C 369.32 238.51 370.81 241.70 373.05 244.42 C 381.37 239.70 387.05 231.53 391.32 223.18 C 396.61 212.86 400.82 201.98 404.09 190.85 C 405.36 186.69 406.85 182.43 406.44 178.01 C 406.20 174.80 403.83 171.91 400.85 170.82 C 399.21 170.64 397.55 170.62 395.91 170.59 M 185.59 195.38 C 183.00 197.14 181.33 200.51 182.07 203.64 C 182.90 207.86 184.45 211.90 186.02 215.89 C 191.43 229.23 198.47 242.09 208.14 252.83 C 211.10 256.18 214.99 258.46 219.04 260.25 C 218.86 255.01 220.37 249.99 222.49 245.26 C 219.05 243.23 215.41 241.36 212.67 238.39 C 207.70 232.76 203.74 226.31 200.54 219.53 C 196.36 211.64 193.24 203.24 190.77 194.67 C 189.05 194.90 187.12 194.34 185.59 195.38 M 404.25 194.76 C 399.51 209.64 393.27 224.33 383.78 236.84 C 380.92 240.92 376.55 243.48 372.38 246.01 C 374.30 250.64 377.12 255.04 377.07 260.24 C 384.93 256.78 390.15 249.64 394.81 242.75 C 401.37 232.66 406.67 221.78 410.66 210.43 C 411.66 207.13 412.87 203.64 412.17 200.16 C 411.14 196.67 407.46 195.38 404.25 194.76 M 296.36 202.45 C 293.21 209.51 293.29 217.43 293.61 225.00 C 293.78 229.51 295.15 233.97 294.62 238.50 C 292.11 241.17 287.36 239.39 285.22 236.94 C 284.18 234.07 283.79 231.01 283.07 228.05 C 276.93 234.10 277.43 244.71 283.12 250.87 C 284.83 252.78 287.66 252.30 289.96 252.48 C 298.63 252.27 307.30 252.60 315.96 252.25 C 319.57 247.28 321.90 241.17 321.30 234.96 C 320.85 231.35 319.90 227.82 318.69 224.40 C 317.51 220.89 314.42 218.63 312.00 216.01 C 310.22 214.07 308.15 212.47 306.10 210.85 C 306.71 215.89 308.67 220.60 310.75 225.19 C 313.12 230.28 313.12 236.13 312.33 241.58 C 312.19 243.35 310.41 244.13 309.29 245.25 C 309.99 241.76 311.40 238.46 312.05 234.97 C 311.71 231.85 310.25 228.99 308.94 226.19 C 306.97 221.97 303.24 218.76 301.89 214.24 C 300.18 208.87 300.51 203.16 299.90 197.63 C 298.64 199.16 297.12 200.57 296.36 202.45 M 185.68 230.74 C 184.22 232.92 183.34 235.84 184.47 238.35 C 188.48 248.02 194.80 256.50 201.58 264.40 C 205.38 268.75 210.37 271.83 215.30 274.74 C 217.34 276.07 219.79 276.22 222.14 276.51 C 221.61 271.92 221.84 267.17 220.43 262.73 C 217.67 260.26 213.89 259.32 211.08 256.90 C 201.77 249.24 196.18 238.35 190.05 228.23 C 188.60 229.07 186.87 229.53 185.68 230.74 M 187.22 249.95 C 184.49 254.03 186.08 259.13 187.59 263.34 C 190.74 270.66 196.86 276.15 202.96 281.06 C 210.33 286.97 219.58 291.71 229.32 290.24 C 227.71 286.54 226.66 282.62 225.01 278.95 C 221.74 277.14 217.78 277.15 214.44 275.45 C 207.39 271.98 201.76 266.24 196.77 260.27 C 193.94 256.96 191.85 253.06 188.86 249.89 C 188.45 249.90 187.63 249.94 187.22 249.95 M 402.87 254.01 C 400.16 257.86 397.34 261.64 394.02 265.00 C 389.41 269.73 384.64 274.97 378.01 276.72 C 375.20 277.77 371.44 277.97 369.96 281.01 C 368.44 284.29 367.81 287.90 366.83 291.36 C 373.67 292.14 380.36 289.84 386.04 286.15 C 393.65 281.28 400.66 275.22 405.73 267.69 C 408.08 264.25 408.87 260.01 408.99 255.92 C 409.02 253.98 408.74 251.66 406.92 250.56 C 404.98 250.77 403.99 252.66 402.87 254.01 M 281.76 253.92 C 281.93 254.39 282.28 255.34 282.45 255.81 C 287.55 256.90 292.82 256.12 298.00 256.28 C 303.90 256.08 309.88 256.88 315.73 255.87 C 315.91 255.37 316.26 254.37 316.44 253.88 C 309.30 253.29 302.15 253.72 295.01 253.58 C 290.59 253.51 286.16 253.53 281.76 253.92 M 269.49 257.74 C 269.59 258.60 269.80 260.33 269.90 261.19 C 284.92 261.77 299.97 261.22 315.00 261.46 C 319.00 261.57 322.99 261.40 326.98 261.10 C 327.09 260.27 327.32 258.61 327.43 257.78 C 324.96 257.44 322.54 256.71 320.03 256.76 C 305.68 256.67 291.32 256.65 276.96 256.80 C 274.44 256.81 271.98 257.43 269.49 257.74 M 275.52 262.85 C 276.14 268.65 278.46 274.26 282.21 278.75 C 283.50 280.59 285.98 280.30 287.95 280.46 C 293.30 280.50 298.65 280.31 304.00 280.46 C 306.88 280.42 309.86 280.71 312.66 279.89 C 316.12 277.55 318.34 273.87 320.57 270.44 C 322.11 268.20 322.68 265.52 323.34 262.93 C 315.91 262.26 308.44 262.72 301.00 262.61 C 292.50 262.72 284.00 262.32 275.52 262.85 M 189.83 271.44 C 188.73 279.34 193.45 286.99 199.96 291.15 C 206.46 295.98 214.33 298.37 222.16 299.98 C 227.87 301.06 234.12 299.92 238.69 296.23 C 236.47 294.51 234.36 292.50 231.69 291.49 C 228.23 291.03 224.75 291.90 221.28 291.47 C 217.69 290.99 214.32 289.49 211.21 287.70 C 205.31 284.17 199.70 280.07 195.05 274.97 C 193.68 273.28 191.73 272.36 189.83 271.44 M 392.69 282.65 C 388.25 285.98 383.64 289.22 378.49 291.35 C 374.26 293.18 369.56 292.22 365.13 292.92 C 362.63 293.25 361.07 295.43 359.30 296.98 C 367.60 301.08 377.51 299.72 385.66 295.92 C 392.70 292.86 400.47 289.31 404.11 282.09 C 405.91 278.90 405.54 275.14 405.17 271.65 C 400.49 274.72 397.21 279.38 392.69 282.65 M 274.53 282.60 C 269.93 286.73 270.71 293.99 266.10 298.09 C 263.49 300.65 259.93 301.86 257.14 304.16 C 254.42 307.20 253.56 311.65 250.21 314.17 C 247.42 316.02 244.36 317.41 241.49 319.14 C 248.09 320.31 254.87 318.23 260.13 314.20 C 267.45 308.67 273.26 301.18 276.86 292.75 C 277.93 288.67 278.46 284.43 280.29 280.58 C 278.25 280.84 275.92 280.82 274.53 282.60 M 281.42 282.13 C 280.78 283.09 280.16 284.07 279.59 285.07 C 285.72 285.46 291.86 285.26 298.00 285.28 C 304.14 285.26 310.29 285.53 316.41 284.99 C 315.26 283.90 314.75 281.83 312.89 281.79 C 306.62 281.17 300.29 281.79 294.00 281.59 C 289.82 281.68 285.51 281.04 281.42 282.13 M 316.26 281.28 C 318.05 287.03 316.71 293.57 320.10 298.81 C 323.16 304.23 327.38 308.89 331.98 313.05 C 337.72 318.26 345.70 321.29 353.48 320.17 C 349.24 317.67 344.23 315.97 341.25 311.82 C 338.25 308.22 338.91 302.80 335.53 299.44 C 330.97 294.71 325.98 290.39 321.62 285.46 C 320.17 283.66 318.18 282.50 316.26 281.28 M 200.59 293.65 C 203.02 300.01 208.64 304.68 214.77 307.32 C 220.82 309.55 227.42 311.39 233.88 310.08 C 238.37 309.09 241.76 305.74 244.39 302.16 C 242.60 300.80 240.95 299.17 238.86 298.28 C 235.61 299.15 232.50 300.76 229.07 300.79 C 223.45 301.00 217.63 300.75 212.39 298.50 C 208.48 296.83 204.68 294.87 200.59 293.65 M 384.73 297.50 C 378.94 299.96 372.55 301.34 366.27 300.48 C 362.65 300.02 359.56 297.90 356.07 297.01 C 353.45 297.55 351.16 299.03 348.81 300.22 C 351.90 307.12 359.20 312.32 366.96 311.34 C 375.35 310.14 383.97 307.21 389.93 300.90 C 391.98 298.92 393.10 296.25 394.15 293.65 C 390.94 294.77 387.85 296.17 384.73 297.50 M 338.78 302.03 C 339.28 308.98 344.14 315.35 350.83 317.41 C 355.76 318.79 360.95 318.57 366.02 318.52 C 371.94 318.46 377.69 316.02 382.24 312.31 C 383.51 311.27 385.58 309.02 383.14 307.98 C 378.53 309.34 374.15 311.50 369.35 312.19 C 364.30 313.17 358.89 312.14 354.58 309.33 C 351.64 307.20 349.82 303.98 347.84 301.03 C 344.82 301.32 341.80 301.67 338.78 302.03 Z" />
<path fill="#aa0000" opacity="1.00" d=" M 334.08 330.40 C 338.50 330.46 342.99 329.93 347.35 330.82 C 350.03 332.87 351.33 336.13 353.05 338.93 C 356.29 344.62 360.18 349.91 363.34 355.64 C 367.86 363.33 372.90 370.72 376.99 378.65 C 371.86 378.62 366.71 378.52 361.59 378.89 C 364.19 384.51 368.02 389.42 371.01 394.83 C 372.83 398.09 374.85 401.23 377.02 404.27 C 379.72 403.43 382.42 402.58 385.14 401.78 C 385.48 410.00 385.54 418.24 385.09 426.46 C 381.77 425.75 378.60 424.43 375.95 422.29 C 378.71 423.18 381.47 424.08 384.23 424.99 C 384.54 417.63 384.56 410.26 384.21 402.90 C 381.74 404.10 379.26 405.30 376.82 406.56 C 370.90 396.83 364.75 387.24 359.12 377.34 C 364.25 377.49 369.38 377.44 374.51 377.18 C 372.90 373.69 371.15 370.27 369.07 367.04 C 364.05 359.31 359.67 351.18 354.49 343.54 C 351.85 339.76 350.20 335.17 346.67 332.09 C 343.47 331.12 340.07 331.66 336.79 331.73 C 344.14 345.11 352.76 357.73 360.86 370.66 C 354.39 370.67 347.93 370.39 341.47 370.20 C 348.73 382.57 357.12 394.24 364.46 406.56 C 360.21 402.59 357.69 397.29 354.33 392.64 C 350.26 386.96 347.13 380.67 342.93 375.09 C 341.38 373.01 340.14 370.74 338.89 368.48 C 345.08 368.26 351.27 368.69 357.45 368.21 C 355.84 364.75 353.92 361.43 351.75 358.29 C 347.44 351.94 343.77 345.18 339.36 338.90 C 337.51 336.12 335.79 333.27 334.08 330.40 Z" />
<path fill="#aa0000" opacity="1.00" d=" M 427.95 355.68 C 429.37 357.27 430.76 358.88 432.13 360.51 C 428.62 360.63 425.11 360.73 421.60 360.94 C 423.16 362.86 424.74 364.77 426.47 366.54 C 430.69 370.74 434.40 375.43 438.96 379.29 C 441.25 377.64 443.50 375.94 445.77 374.27 C 446.90 379.13 447.62 384.08 447.63 389.08 C 446.75 384.95 445.64 380.88 444.50 376.82 C 442.57 377.93 440.65 379.05 438.73 380.17 C 436.41 378.19 434.05 376.26 431.94 374.06 C 427.35 369.14 422.42 364.53 417.96 359.48 C 421.13 359.45 424.30 359.33 427.47 359.22 C 427.63 358.70 427.95 357.66 428.11 357.14 C 428.07 356.78 427.99 356.04 427.95 355.68 Z" />
<path fill="#aa0000" opacity="1.00" d=" M 159.99 378.43 C 165.82 374.94 169.24 368.64 175.04 365.08 C 170.79 370.86 165.35 375.59 160.21 380.55 C 158.16 379.19 156.08 377.86 154.00 376.55 C 152.45 382.72 151.51 389.03 151.04 395.37 C 157.88 394.42 164.71 393.32 171.38 391.52 C 169.63 389.64 167.87 387.76 166.10 385.90 C 172.47 380.33 178.31 374.10 185.23 369.19 C 180.14 375.62 173.31 380.33 167.57 386.13 C 170.05 387.95 171.98 390.37 174.14 392.54 C 168.56 394.09 162.81 394.81 157.16 396.01 C 154.63 396.58 152.03 396.45 149.47 396.31 C 150.56 388.84 151.58 381.35 152.65 373.87 C 155.01 375.52 157.51 376.96 159.99 378.43 Z" />
<path fill="#aa0000" opacity="1.00" d=" M 256.52 370.34 L 257.00 369.71 C 255.47 374.77 251.67 378.56 248.79 382.85 C 246.45 386.20 244.54 389.83 242.04 393.07 C 237.91 398.45 233.08 403.44 230.39 409.75 C 232.74 410.97 235.26 411.97 237.40 413.57 C 238.45 415.55 235.26 415.12 234.25 416.07 C 234.48 415.48 234.95 414.28 235.19 413.69 C 232.92 412.37 230.68 411.01 228.41 409.71 C 231.26 405.47 234.14 401.24 237.33 397.24 C 244.23 388.64 249.67 378.99 256.52 370.34 Z" />
<path fill="#aa0000" opacity="1.00" d=" M 420.19 377.75 C 424.35 380.68 428.28 383.93 431.73 387.67 C 430.04 389.43 428.36 391.21 426.70 392.99 C 433.70 394.56 440.71 396.05 447.80 397.14 C 447.80 394.76 447.88 392.37 447.71 390.00 C 449.13 392.66 448.74 395.74 448.84 398.65 C 440.52 397.27 432.34 395.03 423.92 394.35 C 425.88 392.03 427.91 389.77 430.10 387.65 C 427.42 383.69 422.49 382.00 420.19 377.75 Z" />
<path fill="#aa0000" opacity="1.00" d=" M 227.88 389.86 C 229.09 387.50 230.80 385.45 232.80 383.71 C 228.84 390.79 224.61 397.71 220.44 404.65 C 217.93 403.33 215.39 402.09 212.87 400.81 C 212.43 408.72 212.30 416.65 213.30 424.53 L 213.37 425.60 C 211.51 423.50 211.96 420.59 211.92 418.01 C 212.14 411.69 211.84 405.37 212.11 399.05 C 214.70 400.29 217.31 401.51 219.95 402.64 C 222.91 398.59 225.48 394.27 227.88 389.86 Z" />
</g>
</svg>
