<?xml version="1.0" encoding="UTF-8" standalone="no"?>
<!-- Created with Inkscape (http://www.inkscape.org/) -->

<svg
   width="54.782001mm"
   height="22.490183mm"
   viewBox="0 0 54.782001 22.490183"
   version="1.1"
   id="svg1"
   xml:space="preserve"
   inkscape:version="1.3.2 (091e20e, 2023-11-25, custom)"
   sodipodi:docname="academics_arc.svg"
   xmlns:inkscape="http://www.inkscape.org/namespaces/inkscape"
   xmlns:sodipodi="http://sodipodi.sourceforge.net/DTD/sodipodi-0.dtd"
   xmlns="http://www.w3.org/2000/svg"
   xmlns:svg="http://www.w3.org/2000/svg"
   xmlns:rdf="http://www.w3.org/1999/02/22-rdf-syntax-ns#"
   xmlns:cc="http://creativecommons.org/ns#"
   xmlns:dc="http://purl.org/dc/elements/1.1/"><title
     id="title3">Honor Guard Arc Pin</title><sodipodi:namedview
     id="namedview1"
     pagecolor="#505050"
     bordercolor="#eeeeee"
     borderopacity="1"
     inkscape:showpageshadow="0"
     inkscape:pageopacity="0"
     inkscape:pagecheckerboard="0"
     inkscape:deskcolor="#505050"
     inkscape:document-units="mm"
     inkscape:zoom="2.8970538"
     inkscape:cx="119.77686"
     inkscape:cy="81.979838"
     inkscape:window-width="1920"
     inkscape:window-height="1009"
     inkscape:window-x="-8"
     inkscape:window-y="-8"
     inkscape:window-maximized="1"
     inkscape:current-layer="layer1"
     showguides="false" /><defs
     id="defs1"><inkscape:path-effect
       effect="mirror_symmetry"
       start_point="42.363918,59.728779"
       end_point="42.363918,81.618992"
       center_point="42.363918,70.673886"
       id="path-effect3"
       is_visible="true"
       lpeversion="1.2"
       lpesatellites=""
       mode="free"
       discard_orig_path="false"
       fuse_paths="false"
       oposite_fuse="false"
       split_items="false"
       split_open="false"
       link_styles="false" /><inkscape:path-effect
       effect="mirror_symmetry"
       start_point="42.363918,59.728779"
       end_point="42.363918,81.618992"
       center_point="42.363918,70.673886"
       id="path-effect1"
       is_visible="true"
       lpeversion="1.2"
       lpesatellites=""
       mode="free"
       discard_orig_path="false"
       fuse_paths="true"
       oposite_fuse="false"
       split_items="false"
       split_open="false"
       link_styles="false" /></defs><g
     inkscape:label="Arc"
     inkscape:groupmode="layer"
     id="layer1"
     transform="translate(-14.972918,-59.428779)"><path
       style="display:inline;fill:#ffe642;fill-opacity:1;stroke:#a7874b;stroke-width:0.600001;stroke-linecap:butt;stroke-linejoin:round;stroke-opacity:1"
       d="m 42.363918,59.728779 c -10.054877,0 -16.343465,1.716847 -27.091,7.92194 v 13.968273 c 10.284174,-7.847737 16.322575,-10.26461 27.091,-10.502768 10.768425,0.238158 16.806826,2.655031 27.091,10.502768 V 67.650719 c -10.747535,-6.205093 -17.036123,-7.92194 -27.091,-7.92194 z"
       id="path1"
       sodipodi:nodetypes="cccc"
       inkscape:path-effect="#path-effect1"
       inkscape:original-d="m 42.363918,59.728779 c -10.054877,0 -16.343465,1.716847 -27.091,7.92194 v 13.968273 c 10.284174,-7.847737 16.322575,-10.26461 27.091,-10.502768"
       inkscape:label="background" /><path
       style="font-size:7.05556px;line-height:0;font-family:'DejaVu Sans';-inkscape-font-specification:'DejaVu Sans';text-align:center;letter-spacing:0.264583px;word-spacing:1.02129px;text-orientation:upright;text-anchor:middle;fill:#a7874b;stroke-width:0.6;stroke-linejoin:round;fill-opacity:1"
       d="m 21.730951,68.608292 0.446636,2.691407 1.643466,-0.936087 z m -0.680576,-0.40134 0.685525,-0.390463 4.249017,3.499199 -0.628648,0.358066 -1.060169,-0.914644 -2.014667,1.147517 0.24592,1.378425 -0.637628,0.363181 z m 7.544393,-3.112408 0.274449,0.68055 q -0.448304,-0.172105 -0.879492,-0.172808 -0.427992,-0.002 -0.843352,0.165513 -0.817938,0.329854 -1.050174,1.006716 -0.233525,0.673666 0.14787,1.619407 0.380106,0.942546 1.016929,1.268937 0.635535,0.323196 1.453473,-0.0067 0.415359,-0.167505 0.722233,-0.46585 0.310069,-0.299634 0.51356,-0.734592 l 0.271872,0.67416 q -0.245906,0.366626 -0.579734,0.634979 -0.330632,0.267065 -0.752382,0.437146 -1.083129,0.4368 -1.972886,0.02668 -0.891046,-0.413319 -1.353615,-1.560349 -0.463858,-1.150226 -0.107538,-2.062862 0.355032,-0.915831 1.438161,-1.352631 0.42814,-0.172658 0.851544,-0.209678 0.425311,-0.0415 0.849082,0.05134 z M 32.377004,64.4 l -0.367316,2.703374 1.846489,-0.40953 z m -0.53187,-0.584272 0.770212,-0.170824 3.027471,4.597059 -0.706307,0.156651 -0.74312,-1.18672 -2.263547,0.50203 -0.171716,1.38962 -0.716398,0.158889 z m 5.18496,-0.273675 0.284797,3.989606 0.83847,-0.05985 q 1.061833,-0.0758 1.518889,-0.591967 0.460493,-0.516413 0.386411,-1.554191 -0.07359,-1.030906 -0.602523,-1.473236 -0.525741,-0.446011 -1.587574,-0.370212 z m -0.734864,-0.520884 1.426087,-0.101801 q 1.491377,-0.106461 2.233357,0.465722 0.741734,0.568747 0.83593,1.888307 0.09469,1.326432 -0.561929,1.998454 -0.656616,0.672022 -2.141121,0.777993 l -1.426086,0.101801 z m 6.198872,-0.296417 3.251002,0.08722 -0.01571,0.585456 -2.555343,-0.06856 -0.04084,1.522186 2.448583,0.06569 -0.01571,0.585456 -2.448584,-0.06569 -0.04998,1.863127 2.617333,0.07022 -0.01571,0.585456 -3.312992,-0.08888 z m 5.397366,0.20455 1.024013,0.163442 0.744489,3.663352 1.854667,-3.248501 1.024013,0.163443 -0.810698,5.07924 -0.670201,-0.106971 0.711872,-4.460069 -1.865815,3.27463 -0.690613,-0.110228 -0.753753,-3.69274 -0.711872,4.460069 -0.666799,-0.106427 z m 6.903872,1.386853 0.666136,0.201378 -1.488401,4.923471 -0.666136,-0.201378 z m 6.18417,2.816218 -0.293951,0.672356 Q 60.49469,67.364087 60.193387,67.05564 59.89524,66.748573 59.484881,66.569166 q -0.80809,-0.353294 -1.454057,-0.04539 -0.644586,0.304743 -1.053083,1.239098 -0.407116,0.931198 -0.194486,1.614472 0.214009,0.680118 1.0221,1.033412 0.410358,0.179407 0.83823,0.189753 0.431029,0.01173 0.884108,-0.147386 l -0.291192,0.666043 q -0.433964,0.08099 -0.859282,0.0304 -0.422161,-0.04921 -0.838833,-0.231376 -1.070088,-0.467838 -1.399955,-1.390366 -0.328486,-0.925684 0.166954,-2.058905 0.496819,-1.136377 1.398029,-1.520684 0.902589,-0.387462 1.972677,0.08038 0.422985,0.184927 0.745782,0.461412 0.327334,0.274707 0.557637,0.642352 z m 4.455222,2.31239 -0.346262,0.583709 q -0.244071,-0.365097 -0.498839,-0.62438 -0.254767,-0.259283 -0.536251,-0.426262 -0.488892,-0.290016 -0.868052,-0.258576 -0.376197,0.0332 -0.583602,0.382831 -0.17401,0.293335 -0.08883,0.54815 0.0899,0.25361 0.527263,0.637236 l 0.317543,0.288511 q 0.594055,0.524642 0.719508,1.035679 0.130174,0.509831 -0.189723,1.049094 -0.381415,0.642968 -1.01087,0.718202 -0.626492,0.07699 -1.459091,-0.416914 Q 61.103444,72.77573 60.79007,72.493697 60.479659,72.213423 60.183007,71.84918 l 0.365596,-0.616301 q 0.243168,0.42064 0.531282,0.73175 0.288114,0.31111 0.625894,0.511485 0.512596,0.304077 0.910639,0.267815 0.398042,-0.03626 0.619509,-0.409598 0.193344,-0.325928 0.100837,-0.629155 -0.08955,-0.301469 -0.491357,-0.664004 l -0.322263,-0.287305 q -0.590539,-0.530568 -0.721064,-0.99254 -0.130525,-0.461972 0.170037,-0.968642 0.348019,-0.586671 0.960249,-0.680135 0.615193,-0.09171 1.341124,0.338924 0.311114,0.184555 0.600683,0.432438 0.28957,0.247883 0.560559,0.560851 z"
       id="header"
       inkscape:label="header"
       aria-label="ACADEMICS" /></g><metadata
     id="metadata1"><rdf:RDF><cc:Work
         rdf:about=""><dc:title>Honor Guard Arc Pin</dc:title></cc:Work></rdf:RDF></metadata></svg>
