<?xml version="1.0" encoding="UTF-8" standalone="no"?>
<!-- Created with Inkscape (http://www.inkscape.org/) -->

<svg
   width="54.782001mm"
   height="22.490183mm"
   viewBox="0 0 54.782001 22.490183"
   version="1.1"
   id="svg1"
   xml:space="preserve"
   inkscape:version="1.3.2 (091e20e, 2023-11-25, custom)"
   sodipodi:docname="cyberpatriot_arc.svg"
   xmlns:inkscape="http://www.inkscape.org/namespaces/inkscape"
   xmlns:sodipodi="http://sodipodi.sourceforge.net/DTD/sodipodi-0.dtd"
   xmlns:xlink="http://www.w3.org/1999/xlink"
   xmlns="http://www.w3.org/2000/svg"
   xmlns:svg="http://www.w3.org/2000/svg"
   xmlns:rdf="http://www.w3.org/1999/02/22-rdf-syntax-ns#"
   xmlns:cc="http://creativecommons.org/ns#"
   xmlns:dc="http://purl.org/dc/elements/1.1/"><title
     id="title3">Honor Guard Arc Pin</title><sodipodi:namedview
     id="namedview1"
     pagecolor="#505050"
     bordercolor="#eeeeee"
     borderopacity="1"
     inkscape:showpageshadow="0"
     inkscape:pageopacity="0"
     inkscape:pagecheckerboard="0"
     inkscape:deskcolor="#505050"
     inkscape:document-units="mm"
     inkscape:zoom="2.8970538"
     inkscape:cx="89.40117"
     inkscape:cy="70.243777"
     inkscape:window-width="1920"
     inkscape:window-height="1009"
     inkscape:window-x="-8"
     inkscape:window-y="-8"
     inkscape:window-maximized="1"
     inkscape:current-layer="layer1"
     showguides="false" /><defs
     id="defs1"><linearGradient
       id="linearGradient1"
       inkscape:collect="always"><stop
         style="stop-color:#f3efa3;stop-opacity:1;"
         offset="0.31063831"
         id="stop1" /><stop
         style="stop-color:#a7874b;stop-opacity:1;"
         offset="1"
         id="stop2" /></linearGradient><inkscape:path-effect
       effect="mirror_symmetry"
       start_point="42.363918,59.728779"
       end_point="42.363918,81.618992"
       center_point="42.363918,70.673886"
       id="path-effect3"
       is_visible="true"
       lpeversion="1.2"
       lpesatellites=""
       mode="free"
       discard_orig_path="false"
       fuse_paths="false"
       oposite_fuse="false"
       split_items="false"
       split_open="false"
       link_styles="false" /><inkscape:path-effect
       effect="mirror_symmetry"
       start_point="42.363918,59.728779"
       end_point="42.363918,81.618992"
       center_point="42.363918,70.673886"
       id="path-effect1"
       is_visible="true"
       lpeversion="1.2"
       lpesatellites=""
       mode="free"
       discard_orig_path="false"
       fuse_paths="true"
       oposite_fuse="false"
       split_items="false"
       split_open="false"
       link_styles="false" /><linearGradient
       inkscape:collect="always"
       xlink:href="#linearGradient1"
       id="linearGradient2"
       x1="42.173161"
       y1="82.042267"
       x2="42.173161"
       y2="59.202774"
       gradientUnits="userSpaceOnUse" /><linearGradient
       inkscape:collect="always"
       xlink:href="#linearGradient1"
       id="linearGradient5"
       x1="27.703268"
       y1="81.941574"
       x2="27.703268"
       y2="59.257812"
       gradientUnits="userSpaceOnUse" /></defs><g
     inkscape:label="Arc"
     inkscape:groupmode="layer"
     id="layer1"
     transform="translate(-14.972918,-59.428779)"><path
       style="display:inline;fill:#3b4278;fill-opacity:1;stroke:url(#linearGradient5);stroke-width:0.600001;stroke-linecap:butt;stroke-linejoin:round;stroke-opacity:1"
       d="m 42.363918,59.728779 c -10.054877,0 -16.343465,1.716847 -27.091,7.92194 v 13.968273 c 10.284174,-7.847737 16.322575,-10.26461 27.091,-10.502768 10.768425,0.238158 16.806826,2.655031 27.091,10.502768 V 67.650719 c -10.747535,-6.205093 -17.036123,-7.92194 -27.091,-7.92194 z"
       id="path1"
       sodipodi:nodetypes="cccc"
       inkscape:path-effect="#path-effect1"
       inkscape:original-d="m 42.363918,59.728779 c -10.054877,0 -16.343465,1.716847 -27.091,7.92194 v 13.968273 c 10.284174,-7.847737 16.322575,-10.26461 27.091,-10.502768"
       inkscape:label="background" /><path
       style="font-size:7.05556px;line-height:0;font-family:'DejaVu Sans';-inkscape-font-specification:'DejaVu Sans';text-align:center;letter-spacing:-0.264583px;word-spacing:1.02129px;text-orientation:upright;text-anchor:middle;fill:url(#linearGradient2);stroke-width:0.6;stroke-linejoin:round"
       d="m 20.563266,68.918552 0.397944,0.616531 q -0.472727,-0.08441 -0.8963,-0.0037 -0.420679,0.07881 -0.796965,0.321687 -0.740996,0.478282 -0.841329,1.186807 -0.102201,0.705631 0.450811,1.562407 0.551145,0.853881 1.238119,1.054233 0.685107,0.197457 1.426102,-0.280824 0.376287,-0.242877 0.621346,-0.593772 0.247955,-0.352763 0.365708,-0.818307 l 0.394208,0.610743 q -0.172302,0.406443 -0.449491,0.732971 -0.274294,0.32466 -0.65637,0.571274 -0.98124,0.633349 -1.932405,0.3985 -0.953034,-0.237743 -1.623748,-1.276873 -0.672583,-1.042025 -0.494888,-2.005505 0.175827,-0.966375 1.157067,-1.599723 0.387865,-0.250351 0.796676,-0.366606 0.409837,-0.121018 0.843515,-0.109809 z m 0.135595,-0.563244 0.660215,-0.350716 2.251928,1.198966 0.258106,-2.532332 0.660214,-0.350715 -0.342552,3.232561 1.149119,2.163193 -0.617621,0.328089 -1.149118,-2.163193 z m 6.395327,-0.199359 0.675745,1.759145 1.04198,-0.400259 q 0.524206,-0.201365 0.692283,-0.513195 0.170058,-0.316281 -0.0017,-0.763303 -0.172951,-0.450238 -0.508549,-0.564899 -0.333616,-0.119112 -0.857822,0.08225 z m -0.758516,-1.974615 0.555916,1.447194 0.961579,-0.369375 q 0.475966,-0.182834 0.639572,-0.44866 0.165587,-0.270277 0.02475,-0.636899 -0.139597,-0.363407 -0.443544,-0.45332 -0.300732,-0.09115 -0.776698,0.09168 z m -0.8547,-0.28431 1.659449,-0.637449 q 0.742893,-0.28537 1.263487,-0.131056 0.520593,0.154314 0.739253,0.723543 0.169245,0.44059 0.06349,0.780149 -0.105759,0.339558 -0.479834,0.557063 0.518714,-0.08116 0.908432,0.145573 0.391699,0.222279 0.579475,0.711109 0.247073,0.643197 -0.05565,1.161749 -0.302719,0.518553 -1.109931,0.82863 l -1.723769,0.662157 z m 5.001074,-1.767496 3.170116,-0.72594 0.130731,0.57089 -2.491765,0.570601 0.3399,1.484313 2.387661,-0.546762 0.130731,0.570889 -2.387662,0.546762 0.416032,1.816772 2.552212,-0.584443 0.13073,0.57089 -3.230563,0.739782 z m 7.441898,1.509949 q 0.230329,0.05328 0.463978,0.279327 0.237078,0.225709 0.492552,0.636542 l 0.841779,1.328872 -0.743922,0.07393 -0.785267,-1.247936 q -0.304789,-0.489022 -0.561457,-0.633157 -0.25324,-0.144476 -0.664625,-0.103595 l -0.754207,0.07495 0.214967,2.163202 -0.692499,0.06882 -0.508629,-5.118321 1.563265,-0.155348 q 0.877622,-0.08721 1.346029,0.236681 0.468407,0.323893 0.541993,1.064387 0.04803,0.483378 -0.146544,0.824687 -0.191151,0.340967 -0.607413,0.506967 z m -1.948279,-1.977107 0.180558,1.816953 0.870766,-0.08653 q 0.500519,-0.04974 0.731381,-0.304639 0.23395,-0.258669 0.189322,-0.707765 -0.04463,-0.449096 -0.324229,-0.649807 -0.276513,-0.20448 -0.777032,-0.154742 z m 5.014218,-0.332816 0.02627,1.932521 0.874974,-0.01189 q 0.485714,-0.0066 0.747543,-0.261677 0.26183,-0.255074 0.255508,-0.72012 -0.0063,-0.4616 -0.274941,-0.709463 -0.268666,-0.247864 -0.75438,-0.241261 z m -0.703619,-0.562375 1.57082,-0.02135 q 0.86464,-0.01175 1.310909,0.374957 0.449668,0.38322 0.459923,1.137626 0.01035,0.761297 -0.428736,1.156597 -0.435641,0.395254 -1.30028,0.407008 l -0.874974,0.01189 0.0281,2.066867 -0.695846,0.0095 z m 5.574391,0.761073 -1.083513,2.503829 1.888487,0.104176 z m -0.354383,-0.706166 0.78773,0.04346 1.673977,5.243694 -0.722372,-0.03985 -0.395145,-1.343276 -2.315031,-0.127707 -0.540499,1.291662 -0.732692,-0.04042 z m 2.491086,0.130554 4.298695,0.673651 -0.09067,0.578605 -1.803887,-0.282688 -0.705652,4.502908 -0.690923,-0.108275 0.705653,-4.502908 -1.803886,-0.282688 z m 6.930066,4.25617 q 0.192692,0.136965 0.322669,0.434952 0.133277,0.298979 0.213076,0.77614 l 0.272379,1.549291 -0.716032,-0.214903 -0.250942,-1.452934 q -0.09563,-0.568237 -0.278079,-0.799245 -0.179152,-0.230018 -0.575115,-0.348858 l -0.725931,-0.217874 -0.6249,2.082103 -0.666537,-0.200047 1.478568,-4.926434 1.504657,0.451593 q 0.84472,0.253525 1.154515,0.731374 0.309795,0.477848 0.09588,1.190581 -0.139637,0.465256 -0.449517,0.706765 -0.306581,0.242499 -0.754694,0.237496 z m -1.048703,-2.570013 -0.524876,1.748834 0.83812,0.251545 q 0.481755,0.144589 0.792284,-0.0032 0.314819,-0.150103 0.444553,-0.582362 0.129733,-0.432259 -0.05238,-0.724314 -0.177825,-0.294364 -0.659579,-0.438952 z m 4.400039,0.892378 0.642204,0.268077 -1.981378,4.746583 -0.642203,-0.268076 z m 3.745459,2.294136 q -0.668562,-0.357028 -1.32977,-0.06962 -0.658169,0.289035 -1.117437,1.149049 -0.457645,0.856976 -0.331773,1.564707 0.128912,0.709355 0.797474,1.066383 0.668563,0.357028 1.323693,0.06637 0.658169,-0.289034 1.115814,-1.14601 0.459268,-0.860015 0.333395,-1.567746 -0.122833,-0.706108 -0.791396,-1.063137 z m 0.266148,-0.498383 q 0.954222,0.509577 1.183116,1.455886 0.230518,0.94327 -0.343973,2.019048 -0.572868,1.072739 -1.486607,1.408855 -0.912117,0.333076 -1.866338,-0.1765 -0.95726,-0.5112 -1.190817,-1.456093 -0.230517,-0.94327 0.343974,-2.019048 0.57449,-1.075778 1.486607,-1.408854 0.916778,-0.334493 1.874038,0.176706 z m 2.533613,1.528184 3.63639,2.389404 -0.321614,0.489459 -1.52596,-1.00268 -2.502914,3.80914 -0.584471,-0.384045 2.502914,-3.80914 -1.525959,-1.002679 z"
       id="header"
       inkscape:label="header"
       aria-label="CYBERPATRIOT" /></g><metadata
     id="metadata1"><rdf:RDF><cc:Work
         rdf:about=""><dc:title>Honor Guard Arc Pin</dc:title></cc:Work></rdf:RDF></metadata></svg>
