<?xml version="1.0" encoding="UTF-8" standalone="no"?>
<!-- Created with Inkscape (http://www.inkscape.org/) -->

<svg
   width="54.782001mm"
   height="22.490183mm"
   viewBox="0 0 54.782001 22.490183"
   version="1.1"
   id="svg1"
   xml:space="preserve"
   inkscape:version="1.3.2 (091e20e, 2023-11-25, custom)"
   sodipodi:docname="honor_guard_arc.svg"
   xmlns:inkscape="http://www.inkscape.org/namespaces/inkscape"
   xmlns:sodipodi="http://sodipodi.sourceforge.net/DTD/sodipodi-0.dtd"
   xmlns="http://www.w3.org/2000/svg"
   xmlns:svg="http://www.w3.org/2000/svg"
   xmlns:rdf="http://www.w3.org/1999/02/22-rdf-syntax-ns#"
   xmlns:cc="http://creativecommons.org/ns#"
   xmlns:dc="http://purl.org/dc/elements/1.1/"><title
     id="title3">Honor Guard Arc Pin</title><sodipodi:namedview
     id="namedview1"
     pagecolor="#505050"
     bordercolor="#eeeeee"
     borderopacity="1"
     inkscape:showpageshadow="0"
     inkscape:pageopacity="0"
     inkscape:pagecheckerboard="0"
     inkscape:deskcolor="#505050"
     inkscape:document-units="mm"
     inkscape:zoom="2.8970538"
     inkscape:cx="119.43168"
     inkscape:cy="78.873233"
     inkscape:window-width="1920"
     inkscape:window-height="1009"
     inkscape:window-x="-8"
     inkscape:window-y="-8"
     inkscape:window-maximized="1"
     inkscape:current-layer="layer1"
     showguides="false" /><defs
     id="defs1"><inkscape:path-effect
       effect="mirror_symmetry"
       start_point="42.363918,59.728779"
       end_point="42.363918,81.618992"
       center_point="42.363918,70.673886"
       id="path-effect3"
       is_visible="true"
       lpeversion="1.2"
       lpesatellites=""
       mode="free"
       discard_orig_path="false"
       fuse_paths="false"
       oposite_fuse="false"
       split_items="false"
       split_open="false"
       link_styles="false" /><inkscape:path-effect
       effect="mirror_symmetry"
       start_point="42.363918,59.728779"
       end_point="42.363918,81.618992"
       center_point="42.363918,70.673886"
       id="path-effect1"
       is_visible="true"
       lpeversion="1.2"
       lpesatellites=""
       mode="free"
       discard_orig_path="false"
       fuse_paths="true"
       oposite_fuse="false"
       split_items="false"
       split_open="false"
       link_styles="false" /></defs><g
     inkscape:label="Arc"
     inkscape:groupmode="layer"
     id="layer1"
     transform="translate(-14.972918,-59.428779)"><path
       style="display:inline;fill:#f3efa3;fill-opacity:1;stroke:#a7874b;stroke-width:0.600001;stroke-linecap:butt;stroke-linejoin:round;stroke-opacity:1"
       d="m 42.363918,59.728779 c -10.054877,0 -16.343465,1.716847 -27.091,7.92194 v 13.968273 c 10.284174,-7.847737 16.322575,-10.26461 27.091,-10.502768 10.768425,0.238158 16.806826,2.655031 27.091,10.502768 V 67.650719 c -10.747535,-6.205093 -17.036123,-7.92194 -27.091,-7.92194 z"
       id="path1"
       sodipodi:nodetypes="cccc"
       inkscape:path-effect="#path-effect1"
       inkscape:original-d="m 42.363918,59.728779 c -10.054877,0 -16.343465,1.716847 -27.091,7.92194 v 13.968273 c 10.284174,-7.847737 16.322575,-10.26461 27.091,-10.502768"
       inkscape:label="background" /><path
       style="font-size:7.05556px;line-height:0;font-family:'DejaVu Sans';-inkscape-font-specification:'DejaVu Sans';text-align:center;letter-spacing:-0.529167px;word-spacing:1.02129px;text-orientation:upright;text-anchor:middle;fill:#a7874b;stroke-width:0.6;stroke-linejoin:round"
       d="m 16.924415,70.79389 0.58498,-0.376946 1.142033,1.772319 2.125623,-1.369692 -1.142032,-1.772319 0.584981,-0.376945 2.786036,4.323646 -0.584981,0.376945 -1.326773,-2.059017 -2.125623,1.369692 1.326772,2.059017 -0.584981,0.376946 z m 6.543628,-3.369905 q -0.675204,0.344304 -0.817524,1.05109 -0.139251,0.705221 0.303649,1.573778 0.441336,0.865488 1.093914,1.166933 0.655647,0.299881 1.330851,-0.04442 0.675203,-0.344305 0.811385,-1.047961 0.139251,-0.705221 -0.302085,-1.570709 -0.4429,-0.868557 -1.095478,-1.170002 -0.649509,-0.303011 -1.324712,0.04129 z m -0.256664,-0.503334 q 0.963699,-0.491416 1.87091,-0.138059 0.905647,0.350289 1.459664,1.436752 0.552452,1.083394 0.30568,2.025199 -0.248338,0.938736 -1.212037,1.430153 -0.966768,0.492981 -1.875484,0.144258 -0.905646,-0.350288 -1.459663,-1.436752 -0.554017,-1.086463 -0.30568,-2.025199 0.249842,-0.94337 1.21661,-1.436352 z m 3.363944,-1.496742 0.887095,-0.301921 3.545426,3.338641 -1.386394,-4.073462 0.639231,-0.217561 1.657234,4.869239 -0.887095,0.30192 -3.545426,-3.33864 1.386393,4.073462 -0.63923,0.217561 z m 7.429458,-1.561545 q -0.746591,0.130563 -1.09043,0.764263 -0.340446,0.633107 -0.172495,1.593495 0.167358,0.956994 0.70246,1.436987 0.538496,0.479399 1.285087,0.348836 0.746592,-0.130562 1.083643,-0.763076 0.340446,-0.633107 0.173088,-1.590101 -0.167951,-0.960388 -0.703053,-1.44038 -0.531709,-0.480586 -1.2783,-0.350024 z m -0.09733,-0.556549 q 1.065589,-0.186349 1.828807,0.418128 0.762624,0.601084 0.972711,1.802417 0.209494,1.197939 -0.303281,2.02556 -0.513368,0.824227 -1.578957,1.010575 -1.068983,0.186942 -1.835001,-0.413548 -0.762624,-0.601083 -0.972711,-1.802416 -0.210087,-1.201334 0.303281,-2.02556 0.516168,-0.828214 1.585151,-1.015156 z m 6.117449,2.209244 q 0.227678,0.06366 0.450845,0.300063 0.226608,0.236219 0.463205,0.658205 l 0.780704,1.365648 -0.746508,0.04014 -0.727917,-1.282235 q -0.282319,-0.502329 -0.532192,-0.657946 -0.246434,-0.155801 -0.659249,-0.133602 l -0.756828,0.0407 0.116732,2.170721 -0.694906,0.03737 -0.276198,-5.13611 1.568698,-0.08436 q 0.880673,-0.04736 1.333923,0.297425 0.453251,0.344785 0.49321,1.087852 0.02608,0.485058 -0.18376,0.817199 -0.206403,0.331957 -0.629759,0.478926 z m -1.856697,-2.063352 0.09805,1.823267 0.873792,-0.04699 q 0.502259,-0.02701 0.744433,-0.271187 0.24543,-0.247803 0.221196,-0.69846 -0.02424,-0.450657 -0.294454,-0.66383 -0.266964,-0.216799 -0.769222,-0.18979 z m 10.219241,4.020731 0.124426,-1.375869 -1.132261,-0.102395 0.05151,-0.569562 1.818481,0.164453 -0.198895,2.199332 q -0.427192,0.248477 -0.924319,0.352264 -0.496816,0.100355 -1.045792,0.05071 -1.200883,-0.108601 -1.816942,-0.869982 -0.612316,-0.764501 -0.499061,-2.016851 0.113566,-1.255782 0.852791,-1.894598 0.742966,-0.641938 1.943849,-0.533337 0.50094,0.0453 0.939243,0.20947 0.441735,0.164477 0.800866,0.439096 l -0.06671,0.737686 q -0.354805,-0.360707 -0.772229,-0.564496 -0.417425,-0.203789 -0.894347,-0.246919 -0.94012,-0.08502 -1.461086,0.397119 -0.517534,0.482448 -0.611551,1.52207 -0.09371,1.036191 0.328878,1.603658 0.426017,0.567778 1.366138,0.652797 0.367127,0.0332 0.660924,-0.0025 0.294108,-0.03913 0.536092,-0.15215 z m 2.42794,-4.128146 0.681731,0.15601 -0.697049,3.045963 q -0.184446,0.805988 0.02626,1.228828 0.211476,0.419481 0.866341,0.569343 0.651507,0.149093 1.024373,-0.136665 0.373634,-0.289117 0.558079,-1.095105 l 0.69705,-3.045964 0.681731,0.15601 -0.716262,3.129921 q -0.224409,0.980619 -0.82587,1.369568 -0.598103,0.389717 -1.545139,0.172994 -0.950394,-0.217492 -1.322835,-0.829312 -0.369084,-0.611052 -0.144675,-1.591671 z m 6.644151,2.600742 -1.803474,2.047106 1.764111,0.68202 z m -0.119102,-0.781071 0.73585,0.284485 -0.02637,5.504347 -0.674797,-0.260881 0.03879,-1.399653 -2.162562,-0.836064 -0.91281,1.061748 -0.684436,-0.264609 z m 4.178412,4.953076 q 0.161901,0.172272 0.230568,0.490039 0.07171,0.319388 0.05585,0.802916 l -0.03846,1.572582 -0.659598,-0.351874 0.04048,-1.47389 q 0.0183,-0.575937 -0.11502,-0.838386 -0.130279,-0.260828 -0.495034,-0.455413 l -0.668717,-0.356738 -1.02319,1.918003 -0.614004,-0.327551 2.420956,-4.538158 1.386068,0.739421 q 0.778144,0.415114 0.987632,0.944667 0.209488,0.529554 -0.140764,1.186112 -0.228637,0.428587 -0.580055,0.604251 -0.348379,0.177285 -0.786707,0.08402 z m -0.521346,-2.726342 -0.859415,1.611 0.772065,0.411871 q 0.443785,0.236745 0.77736,0.153084 0.338236,-0.08508 0.550658,-0.48327 0.212421,-0.398191 0.09147,-0.720421 -0.116289,-0.323649 -0.560074,-0.560394 z m 4.1532,2.366232 -2.190335,3.346715 0.703358,0.460329 q 0.890728,0.582957 1.567065,0.449174 0.679219,-0.131897 1.24897,-1.002446 0.565978,-0.864784 0.413118,-1.537137 -0.148091,-0.673349 -1.038818,-1.256306 z m -0.269114,-0.859606 1.196285,0.782936 q 1.251055,0.818782 1.494752,1.723513 0.245584,0.901849 -0.478868,2.008773 -0.728225,1.112689 -1.657751,1.249577 -0.929527,0.136889 -2.174816,-0.678119 l -1.196285,-0.782937 z"
       id="header"
       inkscape:label="header"
       aria-label="HONOR GUARD" /></g><metadata
     id="metadata1"><rdf:RDF><cc:Work
         rdf:about=""><dc:title>Honor Guard Arc Pin</dc:title></cc:Work></rdf:RDF></metadata></svg>
