<?xml version="1.0" encoding="UTF-8" standalone="no"?>
<!-- Created with Inkscape (http://www.inkscape.org/) -->

<svg
   width="54.782001mm"
   height="22.490183mm"
   viewBox="0 0 54.782001 22.490183"
   version="1.1"
   id="svg1"
   xml:space="preserve"
   inkscape:version="1.3.2 (091e20e, 2023-11-25, custom)"
   sodipodi:docname="honor_roll_arc.svg"
   xmlns:inkscape="http://www.inkscape.org/namespaces/inkscape"
   xmlns:sodipodi="http://sodipodi.sourceforge.net/DTD/sodipodi-0.dtd"
   xmlns:xlink="http://www.w3.org/1999/xlink"
   xmlns="http://www.w3.org/2000/svg"
   xmlns:svg="http://www.w3.org/2000/svg"
   xmlns:rdf="http://www.w3.org/1999/02/22-rdf-syntax-ns#"
   xmlns:cc="http://creativecommons.org/ns#"
   xmlns:dc="http://purl.org/dc/elements/1.1/"><title
     id="title3">Honor Guard Arc Pin</title><sodipodi:namedview
     id="namedview1"
     pagecolor="#505050"
     bordercolor="#eeeeee"
     borderopacity="1"
     inkscape:showpageshadow="0"
     inkscape:pageopacity="0"
     inkscape:pagecheckerboard="0"
     inkscape:deskcolor="#505050"
     inkscape:document-units="mm"
     inkscape:zoom="2.8970538"
     inkscape:cx="119.77686"
     inkscape:cy="81.979838"
     inkscape:window-width="1920"
     inkscape:window-height="1009"
     inkscape:window-x="-8"
     inkscape:window-y="-8"
     inkscape:window-maximized="1"
     inkscape:current-layer="layer1"
     showguides="false" /><defs
     id="defs1"><linearGradient
       id="linearGradient1"
       inkscape:collect="always"><stop
         style="stop-color:#f3efa3;stop-opacity:1;"
         offset="0.31063831"
         id="stop1" /><stop
         style="stop-color:#a7874b;stop-opacity:1;"
         offset="1"
         id="stop2" /></linearGradient><inkscape:path-effect
       effect="mirror_symmetry"
       start_point="42.363918,59.728779"
       end_point="42.363918,81.618992"
       center_point="42.363918,70.673886"
       id="path-effect3"
       is_visible="true"
       lpeversion="1.2"
       lpesatellites=""
       mode="free"
       discard_orig_path="false"
       fuse_paths="false"
       oposite_fuse="false"
       split_items="false"
       split_open="false"
       link_styles="false" /><inkscape:path-effect
       effect="mirror_symmetry"
       start_point="42.363918,59.728779"
       end_point="42.363918,81.618992"
       center_point="42.363918,70.673886"
       id="path-effect1"
       is_visible="true"
       lpeversion="1.2"
       lpesatellites=""
       mode="free"
       discard_orig_path="false"
       fuse_paths="true"
       oposite_fuse="false"
       split_items="false"
       split_open="false"
       link_styles="false" /><linearGradient
       inkscape:collect="always"
       xlink:href="#linearGradient1"
       id="linearGradient2"
       x1="42.173161"
       y1="82.042267"
       x2="42.173161"
       y2="59.202774"
       gradientUnits="userSpaceOnUse" /><linearGradient
       inkscape:collect="always"
       xlink:href="#linearGradient1"
       id="linearGradient5"
       x1="27.703268"
       y1="81.941574"
       x2="27.703268"
       y2="59.257812"
       gradientUnits="userSpaceOnUse" /></defs><g
     inkscape:label="Arc"
     inkscape:groupmode="layer"
     id="layer1"
     transform="translate(-14.972918,-59.428779)"><path
       style="display:inline;fill:#3b4278;fill-opacity:1;stroke:url(#linearGradient5);stroke-width:0.600001;stroke-linecap:butt;stroke-linejoin:round;stroke-opacity:1"
       d="m 42.363918,59.728779 c -10.054877,0 -16.343465,1.716847 -27.091,7.92194 v 13.968273 c 10.284174,-7.847737 16.322575,-10.26461 27.091,-10.502768 10.768425,0.238158 16.806826,2.655031 27.091,10.502768 V 67.650719 c -10.747535,-6.205093 -17.036123,-7.92194 -27.091,-7.92194 z"
       id="path1"
       sodipodi:nodetypes="cccc"
       inkscape:path-effect="#path-effect1"
       inkscape:original-d="m 42.363918,59.728779 c -10.054877,0 -16.343465,1.716847 -27.091,7.92194 v 13.968273 c 10.284174,-7.847737 16.322575,-10.26461 27.091,-10.502768"
       inkscape:label="background" /><path
       style="font-size:7.05556px;line-height:0;font-family:'DejaVu Sans';-inkscape-font-specification:'DejaVu Sans';text-align:center;letter-spacing:-0.529167px;word-spacing:1.02129px;text-orientation:upright;text-anchor:middle;fill:url(#linearGradient2);stroke-width:0.6;stroke-linejoin:round"
       d="m 19.189408,69.292615 0.601375,-0.350196 1.060992,1.821989 2.185197,-1.272497 -1.060992,-1.821989 0.601376,-0.350197 2.588334,4.444821 -0.601375,0.350197 -1.232623,-2.116723 -2.185197,1.272497 1.232623,2.116723 -0.601375,0.350196 z m 6.815295,-3.062816 q -0.697255,0.297121 -0.887779,0.992464 -0.187355,0.693993 0.19485,1.590916 0.380855,0.893754 1.011189,1.239305 0.633505,0.3442 1.330759,0.04708 0.697255,-0.297121 0.881441,-0.989763 0.187355,-0.693992 -0.1935,-1.587746 -0.382205,-0.896923 -1.01254,-1.242475 -0.627165,-0.346901 -1.32442,-0.04978 z m -0.22149,-0.519771 q 0.995173,-0.424073 1.875975,-0.0092 0.879451,0.411659 1.357545,1.533605 0.476743,1.118777 0.165873,2.041411 -0.312221,0.919465 -1.307394,1.343537 -0.998342,0.425422 -1.880962,0.01511 -0.879451,-0.411659 -1.357545,-1.533605 -0.478095,-1.121947 -0.165874,-2.041411 0.31404,-0.923985 1.312382,-1.349407 z m 3.525329,-1.258428 0.908516,-0.229547 3.265228,3.61315 -1.054059,-4.171827 0.654666,-0.165409 1.259977,4.986819 -0.908517,0.229547 -3.265228,-3.61315 1.05406,4.171827 -0.654666,0.165409 z m 7.470911,-0.969292 q -0.753739,0.07952 -1.139854,0.688382 -0.382688,0.608504 -0.280401,1.578086 0.101926,0.966156 0.603167,1.481408 0.504667,0.514891 1.258406,0.435374 0.753739,-0.07952 1.133002,-0.687659 0.382689,-0.608503 0.280763,-1.574659 -0.102288,-0.969583 -0.603529,-1.484835 -0.497815,-0.515613 -1.251554,-0.436097 z m -0.05928,-0.561878 q 1.075791,-0.113492 1.796159,0.541462 0.720006,0.651527 0.847956,1.864361 0.127588,1.209408 -0.440252,2.000263 -0.568202,0.787428 -1.643993,0.90092 -1.079217,0.113854 -1.802649,-0.537312 -0.720006,-0.651527 -0.847956,-1.864361 -0.12795,-1.212835 0.440252,-2.000263 0.571266,-0.791216 1.650483,-0.90507 z m 5.897264,2.553311 q 0.224465,0.0742 0.436373,0.320746 0.215353,0.246523 0.432028,0.679077 l 0.716216,1.400546 -0.747568,0.0053 -0.667373,-1.314763 q -0.258603,-0.51494 -0.500953,-0.682032 -0.238905,-0.167117 -0.652306,-0.164179 l -0.757903,0.0054 0.01545,2.173802 -0.695892,0.0049 -0.03655,-5.143401 1.570925,-0.01116 q 0.881922,-0.0063 1.318613,0.359265 0.436691,0.365532 0.441979,1.109654 0.0035,0.485747 -0.221643,0.807748 -0.221649,0.321977 -0.651394,0.449058 z m -1.758524,-2.147635 0.01297,1.825856 0.875033,-0.0062 q 0.502972,-0.0036 0.756262,-0.236201 0.256711,-0.236097 0.253504,-0.687394 -0.0032,-0.451296 -0.263198,-0.676831 -0.256571,-0.229004 -0.759543,-0.22543 z m 9.213499,2.713162 q 0.210403,0.107798 0.381924,0.38397 0.17493,0.276677 0.32259,0.73738 l 0.49258,1.493941 -0.739511,-0.109583 -0.457495,-1.401674 q -0.176435,-0.548552 -0.390242,-0.750887 -0.2104,-0.201831 -0.619346,-0.26243 l -0.749735,-0.111098 -0.318649,2.150376 -0.688392,-0.102008 0.75395,-5.087973 1.553996,0.230276 q 0.872419,0.129277 1.247778,0.55755 0.37536,0.428272 0.266282,1.164375 -0.0712,0.480512 -0.343088,0.764116 -0.268477,0.284109 -0.712642,0.343669 z m -1.407761,-2.392269 -0.267645,1.806179 0.865603,0.128268 q 0.497551,0.07373 0.783569,-0.117231 0.289931,-0.193862 0.356084,-0.640295 0.06615,-0.446433 -0.156108,-0.709227 -0.218349,-0.265698 -0.7159,-0.339426 z m 6.31818,1.218916 q -0.725584,-0.219027 -1.317612,0.192438 -0.588731,0.412461 -0.870479,1.345826 -0.280752,0.930067 -0.01857,1.599386 0.26548,0.670315 0.991064,0.889341 0.725584,0.219027 1.311017,-0.194429 0.58873,-0.412461 0.869483,-1.342528 0.281748,-0.933365 0.01957,-1.602684 -0.258884,-0.668324 -0.984468,-0.88735 z m 0.163275,-0.54089 q 1.035606,0.31261 1.445584,1.19568 0.410974,0.879771 0.05854,2.047302 -0.351438,1.164233 -1.181549,1.672965 -0.829116,0.505435 -1.864722,0.192824 -1.038905,-0.313606 -1.453177,-1.194373 -0.410973,-0.879771 -0.05854,-2.047302 0.352433,-1.167531 1.181549,-1.672966 0.833409,-0.507737 1.872314,-0.19413 z m 3.384219,1.29011 0.633891,0.28718 -1.880882,4.151675 2.281382,1.033561 -0.241685,0.533473 -2.915274,-1.32074 z m 3.475455,1.648356 0.606621,0.341029 -2.233569,3.973071 2.183237,1.227366 -0.287004,0.510523 -2.789859,-1.568394 z"
       id="header"
       inkscape:label="header"
       aria-label="HONOR ROLL" /></g><metadata
     id="metadata1"><rdf:RDF><cc:Work
         rdf:about=""><dc:title>Honor Guard Arc Pin</dc:title></cc:Work></rdf:RDF></metadata></svg>
