<?xml version="1.0" encoding="UTF-8" standalone="no"?>
<!-- Created with Inkscape (http://www.inkscape.org/) -->

<svg
   width="54.782001mm"
   height="22.490183mm"
   viewBox="0 0 54.782001 22.490183"
   version="1.1"
   id="svg1"
   xml:space="preserve"
   inkscape:version="1.3.2 (091e20e, 2023-11-25, custom)"
   sodipodi:docname="jclc_arc.svg"
   xmlns:inkscape="http://www.inkscape.org/namespaces/inkscape"
   xmlns:sodipodi="http://sodipodi.sourceforge.net/DTD/sodipodi-0.dtd"
   xmlns:xlink="http://www.w3.org/1999/xlink"
   xmlns="http://www.w3.org/2000/svg"
   xmlns:svg="http://www.w3.org/2000/svg"
   xmlns:rdf="http://www.w3.org/1999/02/22-rdf-syntax-ns#"
   xmlns:cc="http://creativecommons.org/ns#"
   xmlns:dc="http://purl.org/dc/elements/1.1/"><title
     id="title3">Honor Guard Arc Pin</title><sodipodi:namedview
     id="namedview1"
     pagecolor="#505050"
     bordercolor="#eeeeee"
     borderopacity="1"
     inkscape:showpageshadow="0"
     inkscape:pageopacity="0"
     inkscape:pagecheckerboard="0"
     inkscape:deskcolor="#505050"
     inkscape:document-units="mm"
     inkscape:zoom="2.8970538"
     inkscape:cx="118.74132"
     inkscape:cy="44.010229"
     inkscape:window-width="1920"
     inkscape:window-height="1009"
     inkscape:window-x="-8"
     inkscape:window-y="-8"
     inkscape:window-maximized="1"
     inkscape:current-layer="layer1"
     showguides="false" /><defs
     id="defs1"><linearGradient
       id="linearGradient1"
       inkscape:collect="always"><stop
         style="stop-color:#f3efa3;stop-opacity:1;"
         offset="0.31063831"
         id="stop1" /><stop
         style="stop-color:#a7874b;stop-opacity:1;"
         offset="1"
         id="stop2" /></linearGradient><inkscape:path-effect
       effect="mirror_symmetry"
       start_point="42.363918,59.728779"
       end_point="42.363918,81.618992"
       center_point="42.363918,70.673886"
       id="path-effect3"
       is_visible="true"
       lpeversion="1.2"
       lpesatellites=""
       mode="free"
       discard_orig_path="false"
       fuse_paths="false"
       oposite_fuse="false"
       split_items="false"
       split_open="false"
       link_styles="false" /><inkscape:path-effect
       effect="mirror_symmetry"
       start_point="42.363918,59.728779"
       end_point="42.363918,81.618992"
       center_point="42.363918,70.673886"
       id="path-effect1"
       is_visible="true"
       lpeversion="1.2"
       lpesatellites=""
       mode="free"
       discard_orig_path="false"
       fuse_paths="true"
       oposite_fuse="false"
       split_items="false"
       split_open="false"
       link_styles="false" /><linearGradient
       inkscape:collect="always"
       xlink:href="#linearGradient1"
       id="linearGradient2"
       x1="42.173161"
       y1="82.042267"
       x2="42.173161"
       y2="59.202774"
       gradientUnits="userSpaceOnUse" /><linearGradient
       inkscape:collect="always"
       xlink:href="#linearGradient1"
       id="linearGradient5"
       x1="27.703268"
       y1="81.941574"
       x2="27.703268"
       y2="59.257812"
       gradientUnits="userSpaceOnUse" /></defs><g
     inkscape:label="Arc"
     inkscape:groupmode="layer"
     id="layer1"
     transform="translate(-14.972918,-59.428779)"><path
       style="display:inline;fill:#7c4f2e;fill-opacity:1;stroke:url(#linearGradient5);stroke-width:0.600001;stroke-linecap:butt;stroke-linejoin:round;stroke-opacity:1"
       d="m 42.363918,59.728779 c -10.054877,0 -16.343465,1.716847 -27.091,7.92194 v 13.968273 c 10.284174,-7.847737 16.322575,-10.26461 27.091,-10.502768 10.768425,0.238158 16.806826,2.655031 27.091,10.502768 V 67.650719 c -10.747535,-6.205093 -17.036123,-7.92194 -27.091,-7.92194 z"
       id="path1"
       sodipodi:nodetypes="cccc"
       inkscape:path-effect="#path-effect1"
       inkscape:original-d="m 42.363918,59.728779 c -10.054877,0 -16.343465,1.716847 -27.091,7.92194 v 13.968273 c 10.284174,-7.847737 16.322575,-10.26461 27.091,-10.502768"
       inkscape:label="background" /><path
       style="font-size:8.46667px;line-height:0;font-family:'DejaVu Sans';-inkscape-font-specification:'DejaVu Sans';text-align:center;letter-spacing:6.61458px;word-spacing:1.02129px;text-orientation:upright;text-anchor:middle;fill:url(#linearGradient2);stroke-width:0.6;stroke-linejoin:round"
       d="m 22.772929,66.365501 0.746702,-0.373917 2.571141,5.134501 q 0.49979,0.998067 0.344877,1.639706 -0.151217,0.639788 -0.990332,1.059981 L 25.160683,73.968305 24.846,73.339892 25.078883,73.223275 q 0.495337,-0.248044 0.559816,-0.627094 0.06448,-0.37905 -0.294629,-1.09618 z m 15.141571,-3.8167 0.117239,0.872728 q -0.470215,-0.333102 -0.971373,-0.461827 -0.497061,-0.129276 -1.029711,-0.05772 -1.048912,0.140907 -1.51973,0.859042 -0.471369,0.714037 -0.308445,1.926841 0.162374,1.208707 0.806024,1.777128 0.643099,0.564323 1.692011,0.423416 0.53265,-0.07155 0.977971,-0.327426 0.449419,-0.256422 0.815055,-0.70181 l 0.116138,0.864533 q -0.394685,0.353351 -0.86245,0.566354 -0.463667,0.212452 -1.004512,0.285108 -1.388989,0.186592 -2.301901,-0.55422 -0.913463,-0.744909 -1.111063,-2.215843 -0.198151,-1.475032 0.486888,-2.430507 0.684488,-0.959573 2.073477,-1.146165 0.549039,-0.07376 1.052337,0.0088 0.506845,0.07791 0.972045,0.311571 z m 9.41506,-0.386743 0.828988,0.100783 -0.660077,5.429459 2.983534,0.362718 -0.08482,0.697663 -3.812522,-0.463501 z m 16.932317,5.939558 -0.405931,0.781421 q -0.193152,-0.542911 -0.529143,-0.936407 -0.332322,-0.391591 -0.809245,-0.639342 -0.939172,-0.48788 -1.737314,-0.171089 -0.796237,0.313122 -1.360348,1.399039 -0.562205,1.082249 -0.362477,1.917412 0.201634,0.831494 1.140806,1.319373 0.476923,0.247751 0.988388,0.29449 0.515134,0.04864 1.070385,-0.105487 l -0.40212,0.774083 q -0.526092,0.06213 -1.031268,-0.03259 -0.501508,-0.09281 -0.985768,-0.344374 -1.243669,-0.646059 -1.564558,-1.777094 -0.318983,-1.134705 0.365192,-2.451747 0.68608,-1.32071 1.795962,-1.708492 1.111786,-0.39145 2.355456,0.254609 0.491597,0.255374 0.855889,0.612327 0.369866,0.355191 0.616094,0.813865 z"
       id="header"
       inkscape:label="header"
       aria-label="JCLC" /></g><metadata
     id="metadata1"><rdf:RDF><cc:Work
         rdf:about=""><dc:title>Honor Guard Arc Pin</dc:title></cc:Work></rdf:RDF></metadata></svg>
