<?xml version="1.0" encoding="UTF-8" standalone="no"?>
<!-- Created with Inkscape (http://www.inkscape.org/) -->

<svg
   width="54.782001mm"
   height="22.490183mm"
   viewBox="0 0 54.782001 22.490183"
   version="1.1"
   id="svg1"
   xml:space="preserve"
   inkscape:version="1.3.2 (091e20e, 2023-11-25, custom)"
   sodipodi:docname="pt_team_arc.svg"
   xmlns:inkscape="http://www.inkscape.org/namespaces/inkscape"
   xmlns:sodipodi="http://sodipodi.sourceforge.net/DTD/sodipodi-0.dtd"
   xmlns:xlink="http://www.w3.org/1999/xlink"
   xmlns="http://www.w3.org/2000/svg"
   xmlns:svg="http://www.w3.org/2000/svg"
   xmlns:rdf="http://www.w3.org/1999/02/22-rdf-syntax-ns#"
   xmlns:cc="http://creativecommons.org/ns#"
   xmlns:dc="http://purl.org/dc/elements/1.1/"><title
     id="title3">Honor Guard Arc Pin</title><sodipodi:namedview
     id="namedview1"
     pagecolor="#505050"
     bordercolor="#eeeeee"
     borderopacity="1"
     inkscape:showpageshadow="0"
     inkscape:pageopacity="0"
     inkscape:pagecheckerboard="0"
     inkscape:deskcolor="#505050"
     inkscape:document-units="mm"
     inkscape:zoom="2.8970538"
     inkscape:cx="119.77686"
     inkscape:cy="81.979838"
     inkscape:window-width="1920"
     inkscape:window-height="1009"
     inkscape:window-x="-8"
     inkscape:window-y="-8"
     inkscape:window-maximized="1"
     inkscape:current-layer="layer1"
     showguides="false" /><defs
     id="defs1"><linearGradient
       id="linearGradient1"
       inkscape:collect="always"><stop
         style="stop-color:#f3efa3;stop-opacity:1;"
         offset="0.31063831"
         id="stop1" /><stop
         style="stop-color:#a7874b;stop-opacity:1;"
         offset="1"
         id="stop2" /></linearGradient><inkscape:path-effect
       effect="mirror_symmetry"
       start_point="42.363918,59.728779"
       end_point="42.363918,81.618992"
       center_point="42.363918,70.673886"
       id="path-effect3"
       is_visible="true"
       lpeversion="1.2"
       lpesatellites=""
       mode="free"
       discard_orig_path="false"
       fuse_paths="false"
       oposite_fuse="false"
       split_items="false"
       split_open="false"
       link_styles="false" /><inkscape:path-effect
       effect="mirror_symmetry"
       start_point="42.363918,59.728779"
       end_point="42.363918,81.618992"
       center_point="42.363918,70.673886"
       id="path-effect1"
       is_visible="true"
       lpeversion="1.2"
       lpesatellites=""
       mode="free"
       discard_orig_path="false"
       fuse_paths="true"
       oposite_fuse="false"
       split_items="false"
       split_open="false"
       link_styles="false" /><linearGradient
       inkscape:collect="always"
       xlink:href="#linearGradient1"
       id="linearGradient2"
       x1="42.173161"
       y1="82.042267"
       x2="42.173161"
       y2="59.202774"
       gradientUnits="userSpaceOnUse" /><linearGradient
       inkscape:collect="always"
       xlink:href="#linearGradient1"
       id="linearGradient5"
       x1="27.703268"
       y1="81.941574"
       x2="27.703268"
       y2="59.257812"
       gradientUnits="userSpaceOnUse" /></defs><g
     inkscape:label="Arc"
     inkscape:groupmode="layer"
     id="layer1"
     transform="translate(-14.972918,-59.428779)"><path
       style="display:inline;fill:#222222;fill-opacity:1;stroke:url(#linearGradient5);stroke-width:0.600001;stroke-linecap:butt;stroke-linejoin:round;stroke-opacity:1"
       d="m 42.363918,59.728779 c -10.054877,0 -16.343465,1.716847 -27.091,7.92194 v 13.968273 c 10.284174,-7.847737 16.322575,-10.26461 27.091,-10.502768 10.768425,0.238158 16.806826,2.655031 27.091,10.502768 V 67.650719 c -10.747535,-6.205093 -17.036123,-7.92194 -27.091,-7.92194 z"
       id="path1"
       sodipodi:nodetypes="cccc"
       inkscape:path-effect="#path-effect1"
       inkscape:original-d="m 42.363918,59.728779 c -10.054877,0 -16.343465,1.716847 -27.091,7.92194 v 13.968273 c 10.284174,-7.847737 16.322575,-10.26461 27.091,-10.502768"
       inkscape:label="background" /><path
       style="font-size:7.76111px;line-height:0;font-family:'DejaVu Sans';-inkscape-font-specification:'DejaVu Sans';text-align:center;letter-spacing:1.05833px;word-spacing:1.02129px;text-orientation:upright;text-anchor:middle;fill:url(#linearGradient2);stroke-width:0.6;stroke-linejoin:round"
       d="m 18.958061,69.619749 1.137551,1.796029 0.813176,-0.515041 q 0.451408,-0.285909 0.549898,-0.675751 0.09849,-0.389842 -0.175252,-0.822042 -0.271715,-0.428998 -0.666252,-0.506571 -0.394537,-0.07757 -0.845945,0.208335 z m -0.983299,-0.121846 1.459873,-0.92464 q 0.803571,-0.508958 1.44452,-0.403537 0.642123,0.10019 1.086193,0.801314 0.448126,0.707526 0.264268,1.330869 -0.180656,0.621315 -0.984227,1.130273 l -0.813175,0.515041 1.216632,1.920886 -0.646698,0.409599 z m 6.526406,1.569629 0.708637,-0.370413 0.445899,0.85305 -0.708636,0.370413 z m 0.824179,-5.673747 4.478352,-1.689006 0.227341,0.602787 -1.879277,0.708768 1.769243,4.691101 -0.719798,0.271471 -1.769244,-4.691101 -1.879277,0.708767 z m 7.217652,2.552483 0.77966,-0.177485 0.213656,0.938548 -0.77966,0.177485 z m 7.351502,-5.712461 4.786267,-0.0057 7.7e-4,0.644232 -2.008489,0.0024 0.006,5.013643 -0.769289,9.2e-4 -0.006,-5.013643 -2.008489,0.0024 z m 7.285248,0.151039 3.550446,0.438204 -0.07891,0.639381 -2.790712,-0.344435 -0.205176,1.662391 2.674118,0.330046 -0.07891,0.639381 -2.674119,-0.330045 -0.251131,2.034736 2.85841,0.352792 -0.07891,0.639381 -3.618145,-0.446559 z m 8.503015,2.456453 -1.852332,2.361159 1.980104,0.638468 z m -0.179739,-0.850321 0.825945,0.266319 0.31593,6.046599 -0.757416,-0.244223 -0.0451,-1.539547 -2.427339,-0.782676 -0.935934,1.22322 -0.768236,-0.247711 z m 5.617372,2.190731 0.995439,0.556982 -0.620039,4.065041 3.146671,-2.651304 0.99544,0.556983 -2.762708,4.937514 -0.651501,-0.364537 2.425928,-4.33562 -3.168088,2.67406 -0.671344,-0.37564 0.621615,-4.098899 -2.425928,4.33562 -0.648193,-0.362686 z"
       id="header"
       inkscape:label="header"
       aria-label="P.T. TEAM" /></g><metadata
     id="metadata1"><rdf:RDF><cc:Work
         rdf:about=""><dc:title>Honor Guard Arc Pin</dc:title></cc:Work></rdf:RDF></metadata></svg>
