<?xml version="1.0" encoding="UTF-8" standalone="no"?>
<!-- Created with Inkscape (http://www.inkscape.org/) -->

<svg
   width="54.782001mm"
   height="22.490183mm"
   viewBox="0 0 54.782001 22.490183"
   version="1.1"
   id="svg1"
   xml:space="preserve"
   inkscape:version="1.3.2 (091e20e, 2023-11-25, custom)"
   sodipodi:docname="sabre_guard_arc.svg"
   xmlns:inkscape="http://www.inkscape.org/namespaces/inkscape"
   xmlns:sodipodi="http://sodipodi.sourceforge.net/DTD/sodipodi-0.dtd"
   xmlns="http://www.w3.org/2000/svg"
   xmlns:svg="http://www.w3.org/2000/svg"
   xmlns:rdf="http://www.w3.org/1999/02/22-rdf-syntax-ns#"
   xmlns:cc="http://creativecommons.org/ns#"
   xmlns:dc="http://purl.org/dc/elements/1.1/"><title
     id="title3">Honor Guard Arc Pin</title><sodipodi:namedview
     id="namedview1"
     pagecolor="#505050"
     bordercolor="#eeeeee"
     borderopacity="1"
     inkscape:showpageshadow="0"
     inkscape:pageopacity="0"
     inkscape:pagecheckerboard="0"
     inkscape:deskcolor="#505050"
     inkscape:document-units="mm"
     inkscape:zoom="2.8970538"
     inkscape:cx="98.375805"
     inkscape:cy="71.62449"
     inkscape:window-width="1920"
     inkscape:window-height="1009"
     inkscape:window-x="-8"
     inkscape:window-y="-8"
     inkscape:window-maximized="1"
     inkscape:current-layer="layer1"
     showguides="false" /><defs
     id="defs1"><inkscape:path-effect
       effect="mirror_symmetry"
       start_point="42.363918,59.728779"
       end_point="42.363918,81.618992"
       center_point="42.363918,70.673886"
       id="path-effect3"
       is_visible="true"
       lpeversion="1.2"
       lpesatellites=""
       mode="free"
       discard_orig_path="false"
       fuse_paths="false"
       oposite_fuse="false"
       split_items="false"
       split_open="false"
       link_styles="false" /><inkscape:path-effect
       effect="mirror_symmetry"
       start_point="42.363918,59.728779"
       end_point="42.363918,81.618992"
       center_point="42.363918,70.673886"
       id="path-effect1"
       is_visible="true"
       lpeversion="1.2"
       lpesatellites=""
       mode="free"
       discard_orig_path="false"
       fuse_paths="true"
       oposite_fuse="false"
       split_items="false"
       split_open="false"
       link_styles="false" /></defs><g
     inkscape:label="Arc"
     inkscape:groupmode="layer"
     id="layer1"
     transform="translate(-14.972918,-59.428779)"><path
       style="display:inline;fill:#ffe642;fill-opacity:1;stroke:#a7874b;stroke-width:0.600001;stroke-linecap:butt;stroke-linejoin:round;stroke-opacity:1"
       d="m 42.363918,59.728779 c -10.054877,0 -16.343465,1.716847 -27.091,7.92194 v 13.968273 c 10.284174,-7.847737 16.322575,-10.26461 27.091,-10.502768 10.768425,0.238158 16.806826,2.655031 27.091,10.502768 V 67.650719 c -10.747535,-6.205093 -17.036123,-7.92194 -27.091,-7.92194 z"
       id="path1"
       sodipodi:nodetypes="cccc"
       inkscape:path-effect="#path-effect1"
       inkscape:original-d="m 42.363918,59.728779 c -10.054877,0 -16.343465,1.716847 -27.091,7.92194 v 13.968273 c 10.284174,-7.847737 16.322575,-10.26461 27.091,-10.502768"
       inkscape:label="background" /><path
       style="font-size:7.05556px;line-height:0;font-family:'DejaVu Sans';-inkscape-font-specification:'DejaVu Sans';text-align:center;letter-spacing:-0.529167px;word-spacing:1.02129px;text-orientation:upright;text-anchor:middle;fill:#a7874b;stroke-width:0.6;stroke-linejoin:round;fill-opacity:1"
       d="m 20.945534,68.446673 0.35698,0.577216 q -0.436618,0.04724 -0.784407,0.152959 -0.347789,0.105721 -0.626142,0.277869 -0.483455,0.298993 -0.631184,0.649602 -0.1448,0.348797 0.06903,0.69454 0.179396,0.290073 0.444683,0.332592 0.266406,0.03778 0.808965,-0.172198 l 0.402766,-0.147823 q 0.740105,-0.283539 1.251135,-0.158058 0.512148,0.120739 0.841946,0.654004 0.393221,0.635816 0.16839,1.228543 -0.221901,0.590914 -1.045239,1.100109 -0.310583,0.19208 -0.705677,0.339209 -0.392163,0.145317 -0.852374,0.239551 l -0.376913,-0.609446 q 0.485427,-0.02071 0.894593,-0.131988 0.409166,-0.111274 0.74319,-0.317851 0.506895,-0.31349 0.659096,-0.683067 0.152201,-0.369577 -0.07612,-0.738761 -0.199328,-0.322303 -0.510919,-0.380744 -0.308661,-0.06025 -0.81606,0.127977 l -0.403883,0.152565 q -0.74373,0.277679 -1.213623,0.179416 -0.469892,-0.09826 -0.779758,-0.599298 -0.358792,-0.580145 -0.158095,-1.166047 0.203627,-0.587715 0.921484,-1.031674 0.307653,-0.190269 0.661456,-0.332115 0.353803,-0.141846 0.756685,-0.237082 z m 3.028899,-1.039593 0.294227,2.712303 1.693614,-0.841967 z m -0.656873,-0.439063 0.706444,-0.351202 4.045032,3.733128 -0.647831,0.322064 -1.00693,-0.972945 -2.076144,1.032137 0.167836,1.390094 -0.657086,0.326665 z m 4.824013,0.767857 0.616773,1.780677 1.054734,-0.365328 q 0.530623,-0.183791 0.708994,-0.489849 0.180499,-0.310441 0.02377,-0.762935 -0.157858,-0.455749 -0.48945,-0.581526 -0.329463,-0.130159 -0.860086,0.05363 z m -0.692319,-1.998786 0.5074,1.464908 0.97335,-0.337139 q 0.481792,-0.166878 0.654162,-0.427107 0.174498,-0.264611 0.04596,-0.635721 -0.127414,-0.367855 -0.428198,-0.467843 -0.297528,-0.101116 -0.77932,0.06576 z m -0.844756,-0.312622 1.679762,-0.581819 q 0.751986,-0.260466 1.267151,-0.0889 0.515164,0.171569 0.714741,0.747766 0.154476,0.445983 0.03746,0.781831 -0.11701,0.335847 -0.498123,0.540771 0.521129,-0.06383 0.903079,0.175751 0.384077,0.235204 0.555466,0.730017 0.225511,0.65107 -0.09431,1.159251 -0.319824,0.508181 -1.136918,0.791198 l -1.744868,0.60437 z m 7.708231,0.670688 q 0.234342,0.0312 0.488369,0.234083 0.257408,0.202217 0.550679,0.58698 l 0.963968,1.243085 -0.733563,0.144119 -0.900038,-1.167871 q -0.349776,-0.457924 -0.618952,-0.577078 -0.265796,-0.119817 -0.671453,-0.04012 l -0.743705,0.146112 0.419075,2.133079 -0.682856,0.134157 -0.991566,-5.047049 1.541496,-0.302849 q 0.865402,-0.170021 1.362405,0.108008 0.497003,0.278029 0.640458,1.008211 0.09364,0.476647 -0.0677,0.834865 -0.157966,0.357553 -0.556616,0.562268 z m -2.126938,-1.783501 0.351995,1.791652 0.858641,-0.168693 q 0.49355,-0.09696 0.699207,-0.372603 0.208374,-0.279683 0.121371,-0.722525 -0.087,-0.442842 -0.384372,-0.616143 -0.294652,-0.177345 -0.788202,-0.08038 z m 4.086887,-1.272449 3.241523,-0.262975 0.04736,0.583749 -2.547892,0.206703 0.12313,1.517747 2.441444,-0.198067 0.04736,0.583748 -2.441444,0.198067 0.15071,1.857695 2.6097,-0.211717 0.04736,0.583748 -3.303332,0.26799 z m 10.619116,4.278445 0.07867,-1.379242 -1.135038,-0.06474 0.03257,-0.570958 1.822939,0.103982 -0.12576,2.204724 q -0.418706,0.262525 -0.912113,0.38276 -0.493211,0.116796 -1.043532,0.08541 -1.203827,-0.06867 -1.844826,-0.809173 -0.637363,-0.743749 -0.565752,-1.999169 0.07181,-1.25886 0.789413,-1.921869 0.721242,-0.666253 1.925069,-0.597585 0.502168,0.02864 0.94568,0.178168 0.446952,0.14972 0.815004,0.412263 l -0.04218,0.739494 q -0.366586,-0.348727 -0.790546,-0.538544 -0.423961,-0.189817 -0.902052,-0.217087 -0.942425,-0.05376 -1.447095,0.445412 -0.50123,0.499366 -0.560677,1.541537 -0.05925,1.038731 0.381945,1.591854 0.444634,0.553319 1.387059,0.607076 0.368027,0.02099 0.660477,-0.02444 0.292646,-0.04887 0.530745,-0.169866 z m 2.22777,-4.227019 0.688129,0.124805 -0.557627,3.074545 q -0.147553,0.813551 0.08219,1.226357 0.230358,0.409417 0.891368,0.529303 0.65762,0.119272 1.017087,-0.183168 0.360081,-0.305831 0.507634,-1.119382 l 0.557627,-3.074544 0.688128,0.124805 -0.572997,3.159289 q -0.179522,0.989821 -0.762648,1.405754 -0.579737,0.416548 -1.535659,0.243173 -0.959312,-0.17399 -1.359227,-0.768216 -0.396525,-0.593611 -0.217002,-1.583431 z m 6.751928,2.281786 -1.704845,2.129944 1.794334,0.597998 z m -0.155833,-0.774579 0.748456,0.249438 0.233452,5.499457 -0.686357,-0.228742 -0.02732,-1.399923 -2.199612,-0.733065 -0.86168,1.103647 -0.696163,-0.23201 z m 4.42018,4.781818 q 0.168261,0.166066 0.24882,0.481028 0.08366,0.316468 0.08598,0.80025 l 0.02066,1.572916 -0.672355,-0.326838 -0.01493,-1.47437 q -0.0034,-0.576218 -0.146444,-0.833472 -0.139988,-0.255748 -0.511798,-0.436488 l -0.68165,-0.331357 -0.950392,1.955098 -0.62588,-0.304246 2.24871,-4.625929 1.412875,0.686813 q 0.793194,0.385579 1.022434,0.906886 0.22924,0.521307 -0.09609,1.190564 -0.21237,0.436876 -0.556938,0.625621 -0.341471,0.190252 -0.782994,0.113524 z m -0.623429,-2.704826 -0.798269,1.642158 0.786996,0.382567 q 0.452368,0.219901 0.782564,0.123764 0.3348,-0.09773 0.532109,-0.503622 0.197308,-0.405892 0.06433,-0.723349 -0.128369,-0.31905 -0.580737,-0.538951 z m 4.284844,2.25313 -2.108778,3.398695 0.714282,0.443188 q 0.904562,0.561251 1.577467,0.411154 0.675832,-0.14828 1.224368,-1.03235 0.544904,-0.878216 0.375832,-1.546676 -0.164327,-0.669572 -1.068889,-1.230822 z m -0.289819,-0.852848 1.214865,0.753784 q 1.270485,0.788294 1.535986,1.686869 0.267317,0.895648 -0.43016,2.019764 -0.701109,1.12997 -1.627055,1.289293 -0.925945,0.159322 -2.190575,-0.62534 l -1.214865,-0.753783 z"
       id="header"
       inkscape:label="header"
       aria-label="SABRE GUARD" /></g><metadata
     id="metadata1"><rdf:RDF><cc:Work
         rdf:about=""><dc:title>Honor Guard Arc Pin</dc:title></cc:Work></rdf:RDF></metadata></svg>
