<?xml version="1.0" encoding="UTF-8" standalone="no"?>
<!-- Created with Inkscape (http://www.inkscape.org/) -->

<svg
   width="54.782001mm"
   height="22.490183mm"
   viewBox="0 0 54.782001 22.490183"
   version="1.1"
   id="svg1"
   xml:space="preserve"
   inkscape:version="1.3.2 (091e20e, 2023-11-25, custom)"
   sodipodi:docname="summer_camp_arc.svg"
   xmlns:inkscape="http://www.inkscape.org/namespaces/inkscape"
   xmlns:sodipodi="http://sodipodi.sourceforge.net/DTD/sodipodi-0.dtd"
   xmlns:xlink="http://www.w3.org/1999/xlink"
   xmlns="http://www.w3.org/2000/svg"
   xmlns:svg="http://www.w3.org/2000/svg"
   xmlns:rdf="http://www.w3.org/1999/02/22-rdf-syntax-ns#"
   xmlns:cc="http://creativecommons.org/ns#"
   xmlns:dc="http://purl.org/dc/elements/1.1/"><title
     id="title3">Honor Guard Arc Pin</title><sodipodi:namedview
     id="namedview1"
     pagecolor="#505050"
     bordercolor="#eeeeee"
     borderopacity="1"
     inkscape:showpageshadow="0"
     inkscape:pageopacity="0"
     inkscape:pagecheckerboard="0"
     inkscape:deskcolor="#505050"
     inkscape:document-units="mm"
     inkscape:zoom="2.8970538"
     inkscape:cx="119.77686"
     inkscape:cy="81.979838"
     inkscape:window-width="1920"
     inkscape:window-height="1009"
     inkscape:window-x="-8"
     inkscape:window-y="-8"
     inkscape:window-maximized="1"
     inkscape:current-layer="layer1"
     showguides="false" /><defs
     id="defs1"><linearGradient
       id="linearGradient1"
       inkscape:collect="always"><stop
         style="stop-color:#f3efa3;stop-opacity:1;"
         offset="0.31063831"
         id="stop1" /><stop
         style="stop-color:#a7874b;stop-opacity:1;"
         offset="1"
         id="stop2" /></linearGradient><inkscape:path-effect
       effect="mirror_symmetry"
       start_point="42.363918,59.728779"
       end_point="42.363918,81.618992"
       center_point="42.363918,70.673886"
       id="path-effect3"
       is_visible="true"
       lpeversion="1.2"
       lpesatellites=""
       mode="free"
       discard_orig_path="false"
       fuse_paths="false"
       oposite_fuse="false"
       split_items="false"
       split_open="false"
       link_styles="false" /><inkscape:path-effect
       effect="mirror_symmetry"
       start_point="42.363918,59.728779"
       end_point="42.363918,81.618992"
       center_point="42.363918,70.673886"
       id="path-effect1"
       is_visible="true"
       lpeversion="1.2"
       lpesatellites=""
       mode="free"
       discard_orig_path="false"
       fuse_paths="true"
       oposite_fuse="false"
       split_items="false"
       split_open="false"
       link_styles="false" /><linearGradient
       inkscape:collect="always"
       xlink:href="#linearGradient1"
       id="linearGradient2"
       x1="42.173161"
       y1="82.042267"
       x2="42.173161"
       y2="59.202774"
       gradientUnits="userSpaceOnUse" /><linearGradient
       inkscape:collect="always"
       xlink:href="#linearGradient1"
       id="linearGradient5"
       x1="27.703268"
       y1="81.941574"
       x2="27.703268"
       y2="59.257812"
       gradientUnits="userSpaceOnUse" /></defs><g
     inkscape:label="Arc"
     inkscape:groupmode="layer"
     id="layer1"
     transform="translate(-14.972918,-59.428779)"><path
       style="display:inline;fill:#7c4f2e;fill-opacity:1;stroke:url(#linearGradient5);stroke-width:0.600001;stroke-linecap:butt;stroke-linejoin:round;stroke-opacity:1"
       d="m 42.363918,59.728779 c -10.054877,0 -16.343465,1.716847 -27.091,7.92194 v 13.968273 c 10.284174,-7.847737 16.322575,-10.26461 27.091,-10.502768 10.768425,0.238158 16.806826,2.655031 27.091,10.502768 V 67.650719 c -10.747535,-6.205093 -17.036123,-7.92194 -27.091,-7.92194 z"
       id="path1"
       sodipodi:nodetypes="cccc"
       inkscape:path-effect="#path-effect1"
       inkscape:original-d="m 42.363918,59.728779 c -10.054877,0 -16.343465,1.716847 -27.091,7.92194 v 13.968273 c 10.284174,-7.847737 16.322575,-10.26461 27.091,-10.502768"
       inkscape:label="background" /><path
       style="font-size:7.05556px;line-height:0;font-family:'DejaVu Sans';-inkscape-font-specification:'DejaVu Sans';text-align:center;letter-spacing:-0.529167px;word-spacing:1.02129px;text-orientation:upright;text-anchor:middle;fill:url(#linearGradient2);stroke-width:0.6;stroke-linejoin:round"
       d="m 20.082509,68.962644 0.366655,0.571118 q -0.435759,0.05459 -0.781717,0.166155 -0.345958,0.111567 -0.621371,0.288381 -0.478347,0.307097 -0.620148,0.660146 -0.138901,0.351187 0.08072,0.693278 0.184259,0.287009 0.450225,0.325051 0.267005,0.03328 0.805949,-0.185805 l 0.400217,-0.154589 q 0.735223,-0.29597 1.248294,-0.179119 0.51411,0.112091 0.852847,0.639723 0.40388,0.6291 0.189069,1.225531 -0.211912,0.59457 -1.026553,1.117566 -0.307302,0.197287 -0.69986,0.351053 -0.389659,0.151904 -0.848217,0.253881 L 19.49149,74.132006 q 0.485009,-0.02889 0.892242,-0.147044 0.407233,-0.118154 0.737728,-0.33033 0.50154,-0.321987 0.647492,-0.694077 0.145952,-0.37209 -0.08856,-0.737373 -0.204731,-0.318899 -0.517263,-0.37208 -0.309632,-0.05504 -0.813787,0.14171 l -0.401255,0.159349 q -0.738945,0.290172 -1.210427,0.199842 -0.471482,-0.09033 -0.789746,-0.586073 -0.368517,-0.574017 -0.177722,-1.163218 0.193695,-0.591062 0.903968,-1.047055 0.304403,-0.195426 0.655765,-0.343214 0.351363,-0.147788 0.752583,-0.249799 z m 0.959435,-0.800157 0.619193,-0.325111 1.45259,2.766542 q 0.384367,0.732051 0.819498,0.91604 0.43353,0.180939 1.028321,-0.13136 0.591741,-0.310697 0.688949,-0.770302 0.09561,-0.462656 -0.288762,-1.194707 l -1.452589,-2.766542 0.619193,-0.325111 1.492627,2.842797 q 0.467648,0.890662 0.263995,1.577366 -0.200602,0.685102 -1.060762,1.136734 -0.86321,0.453234 -1.544119,0.230974 -0.677859,-0.223861 -1.145506,-1.114523 z m 4.876601,-2.493826 0.978987,-0.341906 2.393259,2.87171 0.09161,-3.739539 0.978987,-0.341906 1.695901,4.855906 -0.640733,0.223773 -1.489167,-4.263961 -0.08903,3.76783 -0.660247,0.230588 -2.415356,-2.893186 1.489167,4.263961 -0.63748,0.222637 z m 6.151399,-1.971206 1.023495,-0.166657 1.858057,3.243768 0.739783,-3.666778 1.023495,-0.166657 0.826641,5.07667 -0.669862,0.109074 -0.725872,-4.457812 -0.742155,3.695088 -0.690263,0.112397 -1.876088,-3.268756 0.725872,4.457812 -0.666462,0.108521 z m 6.102236,-0.830287 3.249022,-0.143096 0.02577,0.585099 -2.553787,0.112476 0.067,1.521259 2.447093,-0.107777 0.02577,0.585099 -2.447092,0.107777 0.08201,1.861993 2.615739,-0.115205 0.02577,0.5851 -3.310974,0.145825 z m 6.670953,2.656326 q 0.221494,0.08265 0.423913,0.337042 0.205862,0.254502 0.406001,0.694951 l 0.662661,1.426665 -0.747232,-0.023 -0.617103,-1.339094 Q 44.732457,66.09569 44.496609,65.91954 44.264204,65.743496 43.850988,65.730776 l -0.757563,-0.02332 -0.06689,2.172827 -0.695581,-0.02141 0.158264,-5.141095 1.570221,0.04834 q 0.881528,0.02714 1.304062,0.408944 0.422534,0.381808 0.399637,1.125596 -0.01495,0.485529 -0.252073,0.798775 -0.233684,0.313352 -0.667934,0.424067 z m -1.675929,-2.212692 -0.05618,1.825037 0.87464,0.02692 q 0.502746,0.01548 0.764665,-0.207391 0.265468,-0.226205 0.279355,-0.677299 0.01389,-0.451095 -0.237377,-0.686314 -0.247714,-0.238556 -0.750461,-0.254033 z m 11.014576,1.184453 -0.153611,0.717548 q -0.275102,-0.393593 -0.631984,-0.635582 -0.353514,-0.241267 -0.791453,-0.33502 -0.862405,-0.184621 -1.433782,0.246196 -0.570656,0.427448 -0.784124,1.424604 -0.212747,0.993786 0.132181,1.620763 0.345649,0.623608 1.208054,0.808229 0.43794,0.09375 0.859243,0.01836 0.424673,-0.07468 0.836799,-0.321149 l -0.152168,0.71081 q -0.409014,0.166107 -0.83586,0.201563 -0.423477,0.03618 -0.868155,-0.05902 -1.142012,-0.244478 -1.649639,-1.082443 -0.506905,-0.841333 -0.248003,-2.050721 0.259623,-1.212757 1.065816,-1.769463 0.806915,-0.560074 1.948927,-0.315596 0.451415,0.09664 0.822968,0.303012 0.375642,0.203727 0.674791,0.517912 z m 2.676736,1.222973 -1.766778,2.078857 1.775962,0.650536 z m -0.132974,-0.77883 0.740793,0.271353 0.07153,5.503945 -0.67933,-0.248839 0.01389,-1.400121 -2.177089,-0.797469 -0.893782,1.077816 -0.689034,-0.252394 z m 3.428086,1.354043 0.915113,0.487734 -0.48797,3.70625 2.810716,-2.468282 0.915113,0.487733 -2.419223,4.539083 -0.598928,-0.319214 2.124315,-3.985759 -2.82976,2.489364 -0.617169,-0.328937 0.488772,-3.737054 -2.124314,3.985759 -0.595888,-0.317594 z m 5.522913,3.806598 -1.060464,1.61578 0.731566,0.480139 q 0.406105,0.266533 0.765871,0.201834 0.359766,-0.0647 0.614958,-0.453523 0.253302,-0.385944 0.169521,-0.741751 -0.08378,-0.355807 -0.489886,-0.62234 z m -0.268004,-0.859952 1.313361,0.861981 q 0.722925,0.474468 0.876092,1.044768 0.157938,0.56931 -0.25604,1.200069 -0.417758,0.636519 -1.002906,0.71813 -0.582268,0.0835 -1.305193,-0.390968 L 64.302286,72.193928 63.1681,73.922035 62.586304,73.540193 Z"
       id="header"
       inkscape:label="header"
       aria-label="SUMMER CAMP" /></g><metadata
     id="metadata1"><rdf:RDF><cc:Work
         rdf:about=""><dc:title>Honor Guard Arc Pin</dc:title></cc:Work></rdf:RDF></metadata></svg>
