<?xml version="1.0" encoding="UTF-8" standalone="no"?>
<!-- Created with Inkscape (http://www.inkscape.org/) -->

<svg
   width="54.782001mm"
   height="22.490183mm"
   viewBox="0 0 54.782001 22.490183"
   version="1.1"
   id="svg1"
   xml:space="preserve"
   inkscape:version="1.3.2 (091e20e, 2023-11-25, custom)"
   sodipodi:docname="cadet_challenge_arc.svg"
   xmlns:inkscape="http://www.inkscape.org/namespaces/inkscape"
   xmlns:sodipodi="http://sodipodi.sourceforge.net/DTD/sodipodi-0.dtd"
   xmlns:xlink="http://www.w3.org/1999/xlink"
   xmlns="http://www.w3.org/2000/svg"
   xmlns:svg="http://www.w3.org/2000/svg"
   xmlns:rdf="http://www.w3.org/1999/02/22-rdf-syntax-ns#"
   xmlns:cc="http://creativecommons.org/ns#"
   xmlns:dc="http://purl.org/dc/elements/1.1/"><title
     id="title3">Honor Guard Arc Pin</title><sodipodi:namedview
     id="namedview1"
     pagecolor="#505050"
     bordercolor="#eeeeee"
     borderopacity="1"
     inkscape:showpageshadow="0"
     inkscape:pageopacity="0"
     inkscape:pagecheckerboard="0"
     inkscape:deskcolor="#505050"
     inkscape:document-units="mm"
     inkscape:zoom="2.8970538"
     inkscape:cx="56.954413"
     inkscape:cy="53.67522"
     inkscape:window-width="1920"
     inkscape:window-height="1009"
     inkscape:window-x="-8"
     inkscape:window-y="-8"
     inkscape:window-maximized="1"
     inkscape:current-layer="layer1"
     showguides="false" /><defs
     id="defs1"><linearGradient
       id="linearGradient1"
       inkscape:collect="always"><stop
         style="stop-color:#f3efa3;stop-opacity:1;"
         offset="0.31063831"
         id="stop1" /><stop
         style="stop-color:#a7874b;stop-opacity:1;"
         offset="1"
         id="stop2" /></linearGradient><inkscape:path-effect
       effect="mirror_symmetry"
       start_point="42.363918,59.728779"
       end_point="42.363918,81.618992"
       center_point="42.363918,70.673886"
       id="path-effect3"
       is_visible="true"
       lpeversion="1.2"
       lpesatellites=""
       mode="free"
       discard_orig_path="false"
       fuse_paths="false"
       oposite_fuse="false"
       split_items="false"
       split_open="false"
       link_styles="false" /><inkscape:path-effect
       effect="mirror_symmetry"
       start_point="42.363918,59.728779"
       end_point="42.363918,81.618992"
       center_point="42.363918,70.673886"
       id="path-effect1"
       is_visible="true"
       lpeversion="1.2"
       lpesatellites=""
       mode="free"
       discard_orig_path="false"
       fuse_paths="true"
       oposite_fuse="false"
       split_items="false"
       split_open="false"
       link_styles="false" /><linearGradient
       inkscape:collect="always"
       xlink:href="#linearGradient1"
       id="linearGradient2"
       x1="42.173161"
       y1="82.042267"
       x2="42.173161"
       y2="59.202774"
       gradientUnits="userSpaceOnUse" /><linearGradient
       inkscape:collect="always"
       xlink:href="#linearGradient1"
       id="linearGradient5"
       x1="27.703268"
       y1="81.941574"
       x2="27.703268"
       y2="59.257812"
       gradientUnits="userSpaceOnUse" /></defs><g
     inkscape:label="Arc"
     inkscape:groupmode="layer"
     id="layer1"
     transform="translate(-14.972918,-59.428779)"><path
       style="display:inline;fill:#222222;fill-opacity:1;stroke:url(#linearGradient5);stroke-width:0.600001;stroke-linecap:butt;stroke-linejoin:round;stroke-opacity:1"
       d="m 42.363918,59.728779 c -10.054877,0 -16.343465,1.716847 -27.091,7.92194 v 13.968273 c 10.284174,-7.847737 16.322575,-10.26461 27.091,-10.502768 10.768425,0.238158 16.806826,2.655031 27.091,10.502768 V 67.650719 c -10.747535,-6.205093 -17.036123,-7.92194 -27.091,-7.92194 z"
       id="path1"
       sodipodi:nodetypes="cccc"
       inkscape:path-effect="#path-effect1"
       inkscape:original-d="m 42.363918,59.728779 c -10.054877,0 -16.343465,1.716847 -27.091,7.92194 v 13.968273 c 10.284174,-7.847737 16.322575,-10.26461 27.091,-10.502768"
       inkscape:label="background" /><path
       style="font-size:5.64444px;line-height:0;font-family:'DejaVu Sans';-inkscape-font-specification:'DejaVu Sans';text-align:center;letter-spacing:-0.264583px;word-spacing:1.02129px;text-orientation:upright;text-anchor:middle;fill:url(#linearGradient2);stroke-width:0.6;stroke-linejoin:round"
       d="m 19.088269,70.578956 0.331039,0.484802 q -0.379805,-0.0577 -0.716875,0.01561 -0.334794,0.07175 -0.630683,0.273798 -0.582673,0.39787 -0.648212,0.96658 -0.06709,0.566435 0.392943,1.24015 0.458483,0.67144 1.012033,0.817414 0.551997,0.143698 1.13467,-0.254171 0.295889,-0.202043 0.48459,-0.487749 0.190977,-0.287259 0.275489,-0.662012 l 0.327932,0.48025 q -0.129362,0.32862 -0.344264,0.595505 -0.212625,0.265332 -0.513066,0.470483 -0.771587,0.526866 -1.537134,0.358785 -0.767102,-0.170357 -1.325052,-0.987465 -0.559504,-0.819384 -0.437386,-1.593594 0.120564,-0.776486 0.892151,-1.303353 0.304993,-0.208259 0.629519,-0.309714 0.325248,-0.105285 0.672306,-0.105318 z m 1.984145,-0.953774 0.408075,2.144081 1.296712,-0.77972 z m -0.551893,-0.308119 0.540887,-0.325239 3.464392,2.71827 -0.49601,0.298254 -0.865183,-0.711473 -1.589594,0.955832 0.222732,1.097782 -0.503096,0.302515 z m 3.201542,-1.302993 1.398534,2.877992 0.604849,-0.293921 q 0.765977,-0.37222 0.951816,-0.891521 0.188317,-0.520506 -0.175471,-1.269131 -0.361378,-0.743668 -0.885777,-0.914772 -0.523124,-0.174788 -1.289101,0.197432 z m -0.700698,-0.168168 1.028739,-0.499907 q 1.075839,-0.522793 1.797085,-0.318647 0.720042,0.201668 1.182606,1.153562 0.464973,0.956852 0.177311,1.651268 -0.287662,0.694417 -1.358543,1.214801 l -1.028739,0.499907 z m 4.11495,-1.907269 2.450924,-0.872922 0.1572,0.441374 -1.926468,0.686131 0.40872,1.147573 1.845982,-0.657465 0.1572,0.441374 -1.845982,0.657465 0.500265,1.404608 1.973202,-0.702776 0.1572,0.441374 -2.497658,0.889566 z m 2.989601,-1.05346 3.384255,-0.814639 0.109651,0.455521 -1.420155,0.341852 0.853339,3.545027 -0.543945,0.130935 -0.85334,-3.545026 -1.420154,0.341851 z m 9.958582,-1.186263 0.041,0.58561 q -0.298721,-0.241552 -0.626692,-0.348441 -0.325222,-0.107081 -0.682637,-0.08206 -0.703832,0.04928 -1.047519,0.507109 -0.34388,0.455078 -0.286899,1.268883 0.05679,0.811056 0.460922,1.216523 0.403941,0.402717 1.107773,0.353436 0.357414,-0.02502 0.664541,-0.176382 0.309876,-0.15155 0.572022,-0.432373 l 0.04062,0.580112 q -0.27757,0.218358 -0.597812,0.340242 -0.317493,0.121692 -0.680406,0.147102 -0.932027,0.06526 -1.507997,-0.466317 -0.576163,-0.534325 -0.645272,-1.52134 -0.0693,-0.989763 0.426973,-1.596415 0.496081,-0.609402 1.428109,-0.674661 0.368412,-0.0258 0.699764,0.05047 0.33391,0.07332 0.633509,0.248502 z m 0.87617,-0.332022 0.556725,0.0015 -0.0044,1.686712 2.022951,0.0053 0.0044,-1.686711 0.556725,0.0015 -0.01085,4.114805 -0.556725,-0.0015 0.0052,-1.959562 -2.022951,-0.0053 -0.0052,1.959562 -0.556725,-0.0015 z m 5.610272,0.699554 -0.908082,1.98469 1.508739,0.114593 z m -0.271753,-0.570679 0.629328,0.0478 1.252068,4.221769 -0.577113,-0.04383 -0.293806,-1.080933 -1.849511,-0.140475 -0.453693,1.024157 -0.585358,-0.04446 z m 2.867478,0.274075 0.549641,0.08854 -0.579888,3.599879 1.978165,0.318654 -0.07451,0.462569 -2.527807,-0.407193 z m 3.198614,0.566258 0.53953,0.1373 -0.899251,3.53366 1.941776,0.494147 -0.11555,0.45406 -2.481307,-0.631447 z m 3.180895,0.864871 2.4438,0.892673 -0.160757,0.440091 -1.920868,-0.701656 -0.417967,1.144237 1.840616,0.672341 -0.160757,0.440091 -1.840616,-0.672341 -0.511585,1.400525 1.967466,0.718677 -0.160757,0.440091 -2.490397,-0.909694 z m 3.495054,1.34181 0.672566,0.33111 0.116481,3.894225 1.520426,-3.088363 0.484643,0.238594 -1.81745,3.691694 -0.672566,-0.331109 -0.116481,-3.894226 -1.520426,3.088364 -0.484643,-0.238594 z m 4.409218,6.447212 0.576034,-0.943197 -0.776198,-0.474042 0.238458,-0.390451 1.24662,0.76134 -0.920791,1.507705 q -0.394426,0.02716 -0.787843,-0.07425 -0.391981,-0.103756 -0.768319,-0.333595 -0.82324,-0.502772 -0.995914,-1.267028 -0.168886,-0.765172 0.355434,-1.623694 0.525756,-0.860873 1.282166,-1.057716 0.760199,-0.197757 1.583439,0.305015 0.343409,0.209727 0.599822,0.482584 0.258765,0.274293 0.419295,0.598391 l -0.308845,0.505705 q -0.12697,-0.384338 -0.354385,-0.678238 -0.227415,-0.293899 -0.554359,-0.493571 -0.644479,-0.393599 -1.188853,-0.231961 -0.542023,0.163074 -0.97728,0.875764 -0.433821,0.710338 -0.331364,1.267011 0.104808,0.558109 0.749287,0.951708 0.251676,0.153704 0.475111,0.232032 0.224871,0.07597 0.438485,0.08049 z m 3.121046,-2.164961 2.140055,1.47959 -0.266452,0.385391 -1.682119,-1.162983 -0.692774,1.002018 1.611842,1.114394 -0.266451,0.385391 -1.611843,-1.114394 -0.847942,1.226451 1.722925,1.191195 -0.266451,0.385391 -2.180861,-1.507802 z"
       id="header"
       inkscape:label="header"
       aria-label="CADET CHALLENGE" /></g><metadata
     id="metadata1"><rdf:RDF><cc:Work
         rdf:about=""><dc:title>Honor Guard Arc Pin</dc:title></cc:Work></rdf:RDF></metadata></svg>
