<?xml version="1.0" encoding="UTF-8" standalone="no"?>
<!-- Created with Inkscape (http://www.inkscape.org/) -->

<svg
   width="54.782001mm"
   height="22.490183mm"
   viewBox="0 0 54.782001 22.490183"
   version="1.1"
   id="svg1"
   xml:space="preserve"
   inkscape:version="1.3.2 (091e20e, 2023-11-25, custom)"
   sodipodi:docname="color_guard_arc.svg"
   xmlns:inkscape="http://www.inkscape.org/namespaces/inkscape"
   xmlns:sodipodi="http://sodipodi.sourceforge.net/DTD/sodipodi-0.dtd"
   xmlns:xlink="http://www.w3.org/1999/xlink"
   xmlns="http://www.w3.org/2000/svg"
   xmlns:svg="http://www.w3.org/2000/svg"
   xmlns:rdf="http://www.w3.org/1999/02/22-rdf-syntax-ns#"
   xmlns:cc="http://creativecommons.org/ns#"
   xmlns:dc="http://purl.org/dc/elements/1.1/"><title
     id="title3">Honor Guard Arc Pin</title><sodipodi:namedview
     id="namedview1"
     pagecolor="#505050"
     bordercolor="#eeeeee"
     borderopacity="1"
     inkscape:showpageshadow="0"
     inkscape:pageopacity="0"
     inkscape:pagecheckerboard="0"
     inkscape:deskcolor="#505050"
     inkscape:document-units="mm"
     inkscape:zoom="2.8970538"
     inkscape:cx="76.629575"
     inkscape:cy="52.984863"
     inkscape:window-width="1920"
     inkscape:window-height="1009"
     inkscape:window-x="-8"
     inkscape:window-y="-8"
     inkscape:window-maximized="1"
     inkscape:current-layer="layer1"
     showguides="false" /><defs
     id="defs1"><linearGradient
       id="linearGradient3"
       inkscape:collect="always"><stop
         style="stop-color:#f3efa3;stop-opacity:1;"
         offset="0.31063831"
         id="stop1" /><stop
         style="stop-color:#a7874b;stop-opacity:1;"
         offset="1"
         id="stop2" /></linearGradient><inkscape:path-effect
       effect="mirror_symmetry"
       start_point="42.363918,59.728779"
       end_point="42.363918,81.618992"
       center_point="42.363918,70.673886"
       id="path-effect3"
       is_visible="true"
       lpeversion="1.2"
       lpesatellites=""
       mode="free"
       discard_orig_path="false"
       fuse_paths="false"
       oposite_fuse="false"
       split_items="false"
       split_open="false"
       link_styles="false" /><inkscape:path-effect
       effect="mirror_symmetry"
       start_point="42.363918,59.728779"
       end_point="42.363918,81.618992"
       center_point="42.363918,70.673886"
       id="path-effect1"
       is_visible="true"
       lpeversion="1.2"
       lpesatellites=""
       mode="free"
       discard_orig_path="false"
       fuse_paths="true"
       oposite_fuse="false"
       split_items="false"
       split_open="false"
       link_styles="false" /><linearGradient
       inkscape:collect="always"
       xlink:href="#linearGradient3"
       id="linearGradient2"
       x1="42.173161"
       y1="82.042267"
       x2="42.173161"
       y2="59.202774"
       gradientUnits="userSpaceOnUse" /><linearGradient
       inkscape:collect="always"
       xlink:href="#linearGradient3"
       id="linearGradient5"
       x1="27.703268"
       y1="81.941574"
       x2="27.703268"
       y2="59.257812"
       gradientUnits="userSpaceOnUse" /></defs><g
     inkscape:label="Arc"
     inkscape:groupmode="layer"
     id="layer1"
     transform="translate(-14.972918,-59.428779)"><path
       style="display:inline;fill:#ffffff;fill-opacity:1;stroke:url(#linearGradient5);stroke-width:0.600001;stroke-linecap:butt;stroke-linejoin:round;stroke-opacity:1"
       d="m 42.363918,59.728779 c -10.054877,0 -16.343465,1.716847 -27.091,7.92194 v 13.968273 c 10.284174,-7.847737 16.322575,-10.26461 27.091,-10.502768 10.768425,0.238158 16.806826,2.655031 27.091,10.502768 V 67.650719 c -10.747535,-6.205093 -17.036123,-7.92194 -27.091,-7.92194 z"
       id="path1"
       sodipodi:nodetypes="cccc"
       inkscape:path-effect="#path-effect1"
       inkscape:original-d="m 42.363918,59.728779 c -10.054877,0 -16.343465,1.716847 -27.091,7.92194 v 13.968273 c 10.284174,-7.847737 16.322575,-10.26461 27.091,-10.502768"
       inkscape:label="background" /><path
       style="font-size:7.05556px;line-height:0;font-family:'DejaVu Sans';-inkscape-font-specification:'DejaVu Sans';text-align:center;letter-spacing:-0.529167px;word-spacing:1.02129px;text-orientation:upright;text-anchor:middle;fill:url(#linearGradient2);stroke-width:0.6;stroke-linejoin:round"
       d="m 21.276774,68.497347 0.389459,0.621927 q -0.471527,-0.09088 -0.896166,-0.01602 -0.421719,0.07304 -0.801298,0.310735 -0.747481,0.468082 -0.857514,1.175165 -0.111862,0.704165 0.429357,1.568439 0.53939,0.861354 1.223555,1.071102 0.682336,0.206827 1.429816,-0.261254 0.37958,-0.237698 0.629425,-0.585201 0.252766,-0.349332 0.376888,-0.813219 l 0.385801,0.616088 q -0.177856,0.404043 -0.459493,0.726743 -0.278718,0.32087 -0.664138,0.562225 -0.989827,0.619842 -1.937685,0.37198 -0.949685,-0.250782 -1.606096,-1.299006 -0.65824,-1.051144 -0.467357,-2.012099 0.189053,-0.963874 1.178881,-1.583716 0.391259,-0.245011 0.801625,-0.355653 0.411457,-0.11539 0.84494,-0.09824 z m 2.802455,-1.380666 q -0.680582,0.333546 -0.8341,1.037985 -0.150425,0.702922 0.278637,1.578398 0.427545,0.872382 1.075258,1.184146 0.650805,0.310247 1.331387,-0.0233 0.680582,-0.333546 0.827914,-1.034952 0.150425,-0.702923 -0.277121,-1.575305 -0.429062,-0.875476 -1.076774,-1.18724 -0.644619,-0.313279 -1.325201,0.02027 z m -0.248643,-0.507343 q 0.971376,-0.476061 1.872866,-0.108352 0.899973,0.364616 1.436679,1.459734 0.53519,1.092025 0.273503,2.029796 -0.263203,0.934677 -1.234579,1.410738 -0.97447,0.477578 -1.877537,0.114478 -0.899973,-0.364616 -1.436679,-1.459734 -0.536707,-1.095119 -0.273503,-2.029796 0.26478,-0.939286 1.23925,-1.416864 z m 3.293075,-1.363321 0.657329,-0.228492 1.49651,4.305181 2.365735,-0.822345 0.192295,0.553198 -3.023064,1.050837 z m 5.772717,-1.174767 q -0.742362,0.152785 -1.067137,0.796464 -0.3214,0.642985 -0.124863,1.597933 0.195842,0.951574 0.745031,1.415383 0.552563,0.463116 1.294925,0.310331 0.742362,-0.152785 1.060388,-0.795075 0.3214,-0.642985 0.125558,-1.594559 Q 34.733743,64.84678 34.184554,64.38297 33.63874,63.918465 32.896378,64.07125 Z m -0.113894,-0.553397 q 1.059553,-0.218066 1.84047,0.363366 0.780223,0.578057 1.026067,1.772585 0.24515,1.191154 -0.242697,2.033709 -0.488543,0.83918 -1.548096,1.057245 -1.062928,0.21876 -1.846525,-0.358602 -0.780222,-0.578057 -1.026067,-1.772585 -0.245844,-1.194529 0.242698,-2.033709 0.491222,-0.843249 1.55415,-1.062009 z m 6.202837,2.047472 q 0.228993,0.05876 0.457184,0.290314 0.231627,0.2313 0.477229,0.648109 l 0.809844,1.348572 -0.745473,0.05616 -0.755279,-1.266311 q -0.293038,-0.496153 -0.546195,-0.646369 -0.249722,-0.150474 -0.661966,-0.119417 l -0.755779,0.05694 0.163309,2.167714 -0.693943,0.05228 -0.386404,-5.128997 1.566525,-0.118017 q 0.879453,-0.06626 1.340001,0.268718 0.460549,0.334974 0.516452,1.077012 0.03649,0.484386 -0.166172,0.820956 -0.19923,0.336312 -0.619333,0.492336 z m -1.900567,-2.023014 0.137169,1.820742 0.872582,-0.06574 q 0.501563,-0.03779 0.73844,-0.287107 0.240053,-0.253016 0.206149,-0.703048 -0.0339,-0.450033 -0.308638,-0.657356 -0.271557,-0.211017 -0.77312,-0.173231 z m 10.303379,3.820459 0.09317,-1.378339 -1.134294,-0.07667 0.03857,-0.570584 1.821745,0.123136 -0.148925,2.20328 q -0.421443,0.25811 -0.916086,0.373153 -0.494411,0.111605 -1.044372,0.07443 -1.203039,-0.08132 -1.836219,-0.828518 -0.629511,-0.750407 -0.54471,-2.005005 0.08503,-1.258035 0.809569,-1.913466 0.728205,-0.658635 1.931244,-0.577318 0.501839,0.03392 0.943756,0.188097 0.445353,0.154409 0.810625,0.420806 l -0.04995,0.73901 q -0.362901,-0.352561 -0.784843,-0.546823 -0.421942,-0.194262 -0.899721,-0.226556 -0.941808,-0.06366 -1.451696,0.430178 -0.506451,0.494071 -0.576847,1.535559 -0.07016,1.038051 0.365192,1.59578 0.438794,0.557962 1.380602,0.621621 0.367786,0.02486 0.660698,-0.0175 0.293143,-0.04579 0.5325,-0.164278 z m 2.292492,-4.196523 0.686209,0.134963 -0.603012,3.065966 q -0.159562,0.811281 0.06405,1.227438 0.224281,0.412777 0.883447,0.542421 0.655786,0.12898 1.019683,-0.168114 0.364563,-0.300475 0.524125,-1.111756 l 0.603012,-3.065966 0.686208,0.134963 -0.619632,3.150474 q -0.194134,0.987059 -0.783345,1.394327 -0.58583,0.407933 -1.539085,0.220448 -0.956636,-0.188151 -1.347723,-0.788223 -0.387707,-0.599408 -0.193573,-1.586466 z m 6.72037,2.387574 -1.738304,2.102725 1.784656,0.62629 z m -0.143568,-0.776947 0.744419,0.261239 0.146483,5.502461 -0.682655,-0.239564 -0.0052,-1.40018 -2.187749,-0.767747 -0.87902,1.089887 -0.692408,-0.242987 z m 4.340417,4.841973 q 0.166103,0.168224 0.24259,0.4842 0.07957,0.317521 0.07565,0.801293 l 3.53e-4,1.573052 -0.66808,-0.33549 0.0041,-1.474439 q 0.0041,-0.576214 -0.135674,-0.835293 -0.136675,-0.257534 -0.506121,-0.443058 l -0.677316,-0.340128 -0.975549,1.942668 -0.6219,-0.3123 2.308232,-4.596517 1.403893,0.704992 q 0.78815,0.395785 1.010642,0.920008 0.222492,0.524223 -0.111452,1.189225 -0.217991,0.434098 -0.564967,0.61838 -0.343898,0.185828 -0.784394,0.103407 z M 60.00938,66.9062 l -0.819399,1.631718 0.781993,0.392693 q 0.449492,0.225721 0.780901,0.133854 0.336034,-0.0934 0.538564,-0.496711 0.202531,-0.403311 0.07367,-0.722459 -0.12424,-0.32068 -0.573732,-0.546402 z m 4.239325,2.292643 -2.137352,3.380797 0.710521,0.449194 q 0.899798,0.568856 1.573944,0.424437 0.677058,-0.142577 1.233028,-1.021992 0.552287,-0.873591 0.388857,-1.543453 -0.158678,-0.670933 -1.058477,-1.239789 z m -0.282618,-0.855261 1.208467,0.763998 q 1.263795,0.798976 1.521712,1.699757 0.259757,0.897869 -0.447171,2.016066 -0.71061,1.12402 -1.637865,1.275531 -0.927255,0.151512 -2.185227,-0.643782 l -1.208467,-0.763998 z"
       id="header"
       inkscape:label="header"
       aria-label="COLOR GUARD" /></g><metadata
     id="metadata1"><rdf:RDF><cc:Work
         rdf:about=""><dc:title>Honor Guard Arc Pin</dc:title></cc:Work></rdf:RDF></metadata></svg>
