<?xml version="1.0" encoding="UTF-8" standalone="no"?>
<!-- Created with Inkscape (http://www.inkscape.org/) -->

<svg
   width="54.782001mm"
   height="22.490183mm"
   viewBox="0 0 54.782001 22.490183"
   version="1.1"
   id="svg1"
   xml:space="preserve"
   inkscape:version="1.3.2 (091e20e, 2023-11-25, custom)"
   sodipodi:docname="community_service_arc.svg"
   xmlns:inkscape="http://www.inkscape.org/namespaces/inkscape"
   xmlns:sodipodi="http://sodipodi.sourceforge.net/DTD/sodipodi-0.dtd"
   xmlns:xlink="http://www.w3.org/1999/xlink"
   xmlns="http://www.w3.org/2000/svg"
   xmlns:svg="http://www.w3.org/2000/svg"
   xmlns:rdf="http://www.w3.org/1999/02/22-rdf-syntax-ns#"
   xmlns:cc="http://creativecommons.org/ns#"
   xmlns:dc="http://purl.org/dc/elements/1.1/"><title
     id="title3">Honor Guard Arc Pin</title><sodipodi:namedview
     id="namedview1"
     pagecolor="#505050"
     bordercolor="#eeeeee"
     borderopacity="1"
     inkscape:showpageshadow="0"
     inkscape:pageopacity="0"
     inkscape:pagecheckerboard="0"
     inkscape:deskcolor="#505050"
     inkscape:document-units="mm"
     inkscape:zoom="2.8970538"
     inkscape:cx="119.77686"
     inkscape:cy="81.979838"
     inkscape:window-width="1920"
     inkscape:window-height="1009"
     inkscape:window-x="-8"
     inkscape:window-y="-8"
     inkscape:window-maximized="1"
     inkscape:current-layer="layer1"
     showguides="false" /><defs
     id="defs1"><linearGradient
       id="linearGradient1"
       inkscape:collect="always"><stop
         style="stop-color:#f3efa3;stop-opacity:1;"
         offset="0.31063831"
         id="stop1" /><stop
         style="stop-color:#a7874b;stop-opacity:1;"
         offset="1"
         id="stop2" /></linearGradient><inkscape:path-effect
       effect="mirror_symmetry"
       start_point="42.363918,59.728779"
       end_point="42.363918,81.618992"
       center_point="42.363918,70.673886"
       id="path-effect3"
       is_visible="true"
       lpeversion="1.2"
       lpesatellites=""
       mode="free"
       discard_orig_path="false"
       fuse_paths="false"
       oposite_fuse="false"
       split_items="false"
       split_open="false"
       link_styles="false" /><inkscape:path-effect
       effect="mirror_symmetry"
       start_point="42.363918,59.728779"
       end_point="42.363918,81.618992"
       center_point="42.363918,70.673886"
       id="path-effect1"
       is_visible="true"
       lpeversion="1.2"
       lpesatellites=""
       mode="free"
       discard_orig_path="false"
       fuse_paths="true"
       oposite_fuse="false"
       split_items="false"
       split_open="false"
       link_styles="false" /><linearGradient
       inkscape:collect="always"
       xlink:href="#linearGradient1"
       id="linearGradient2"
       x1="42.173161"
       y1="82.042267"
       x2="42.173161"
       y2="59.202774"
       gradientUnits="userSpaceOnUse" /><linearGradient
       inkscape:collect="always"
       xlink:href="#linearGradient1"
       id="linearGradient5"
       x1="27.703268"
       y1="81.941574"
       x2="27.703268"
       y2="59.257812"
       gradientUnits="userSpaceOnUse" /></defs><g
     inkscape:label="Arc"
     inkscape:groupmode="layer"
     id="layer1"
     transform="translate(-14.972918,-59.428779)"><path
       style="display:inline;fill:#34baf3;fill-opacity:1;stroke:url(#linearGradient5);stroke-width:0.600001;stroke-linecap:butt;stroke-linejoin:round;stroke-opacity:1"
       d="m 42.363918,59.728779 c -10.054877,0 -16.343465,1.716847 -27.091,7.92194 v 13.968273 c 10.284174,-7.847737 16.322575,-10.26461 27.091,-10.502768 10.768425,0.238158 16.806826,2.655031 27.091,10.502768 V 67.650719 c -10.747535,-6.205093 -17.036123,-7.92194 -27.091,-7.92194 z"
       id="path1"
       sodipodi:nodetypes="cccc"
       inkscape:path-effect="#path-effect1"
       inkscape:original-d="m 42.363918,59.728779 c -10.054877,0 -16.343465,1.716847 -27.091,7.92194 v 13.968273 c 10.284174,-7.847737 16.322575,-10.26461 27.091,-10.502768"
       inkscape:label="background" /><path
       style="font-size:5.64444px;line-height:0;font-family:'DejaVu Sans';-inkscape-font-specification:'DejaVu Sans';text-align:center;letter-spacing:-0.529167px;word-spacing:1.02129px;text-orientation:upright;text-anchor:middle;fill:url(#linearGradient2);stroke-width:0.6;stroke-linejoin:round"
       d="m 18.401885,70.797851 0.335695,0.48159 q -0.380344,-0.05404 -0.716692,0.02251 -0.334087,0.07498 -0.628016,0.279861 -0.578813,0.403465 -0.63887,0.97278 -0.06163,0.567055 0.404873,1.236307 0.464929,0.666992 1.019861,0.807626 0.553355,0.138374 1.132168,-0.26509 0.293929,-0.204884 0.479869,-0.492395 0.188201,-0.289086 0.269098,-0.664635 l 0.332543,0.477068 q -0.12619,0.329851 -0.338511,0.598794 -0.210059,0.267368 -0.508509,0.475404 -0.766475,0.534275 -1.533607,0.373577 -0.768707,-0.162959 -1.334503,-0.974654 -0.567372,-0.813955 -0.452718,-1.589306 0.113078,-0.777612 0.879553,-1.311887 0.302973,-0.211189 0.626506,-0.315765 0.324219,-0.108413 0.67126,-0.11179 z m 1.890334,-1.131255 q -0.515295,0.319554 -0.581574,0.892511 -0.06394,0.571504 0.347125,1.23436 0.409611,0.660515 0.949974,0.857269 0.542705,0.195302 1.058,-0.124253 0.515295,-0.319554 0.57689,-0.889605 0.06394,-0.571504 -0.345673,-1.232018 -0.411062,-0.662857 -0.951426,-0.859611 -0.538021,-0.198207 -1.053316,0.121347 z m -0.238213,-0.384129 q 0.735467,-0.456091 1.482291,-0.234949 0.745372,0.218799 1.259564,1.047955 0.512739,0.826814 0.378877,1.594103 -0.135314,0.764946 -0.870781,1.221036 -0.737808,0.457544 -1.485522,0.240197 -0.745372,-0.218799 -1.259564,-1.047955 -0.514192,-0.829157 -0.378877,-1.594103 0.136203,-0.768741 0.874012,-1.226284 z m 2.271415,-1.304525 0.741671,-0.371651 2.193269,2.033019 -0.310755,-2.976346 0.74167,-0.371651 1.843439,3.678786 -0.485413,0.24324 -1.618719,-3.230334 0.315706,2.998527 -0.500197,0.250649 -2.213003,-2.047792 1.618719,3.230334 -0.482948,0.242005 z m 4.380031,-2.13333 0.783129,-0.273694 1.915102,2.29695 0.07264,-2.991642 0.78313,-0.273694 1.357559,3.884426 -0.512547,0.179129 -1.192069,-3.410906 -0.07057,3.014275 -0.528157,0.184584 -1.932783,-2.314127 1.19207,3.410906 -0.509945,0.178219 z m 4.566345,-1.501949 0.547451,-0.115406 0.515634,2.446 q 0.136442,0.647233 0.431325,0.883634 0.294315,0.233705 0.820191,0.122846 0.52318,-0.11029 0.698109,-0.442914 0.17436,-0.335321 0.03792,-0.982554 l -0.515634,-2.446001 0.547451,-0.115406 0.529847,2.51342 q 0.166003,0.787467 -0.140326,1.271724 -0.303632,0.483688 -1.064131,0.644007 -0.763195,0.160887 -1.238939,-0.158504 -0.473047,-0.319959 -0.63905,-1.107425 z m 4.017367,-0.784289 0.7456,-0.07785 2.172123,3.23426 -0.357466,-3.423726 0.53727,-0.0561 0.4273,4.092573 -0.745599,0.07785 -2.172124,-3.23426 0.357467,3.423726 -0.537271,0.0561 z m 3.906732,-0.344503 0.556088,-0.02665 0.197009,4.1101 -0.556089,0.02665 z m 0.713748,-0.05591 3.480702,-0.03909 0.0053,0.468503 -1.460628,0.0164 0.04095,3.646056 -0.559448,0.0063 -0.04095,-3.646056 -1.460628,0.0164 z m 3.14093,-0.04709 0.597591,0.02389 1.072505,1.736459 1.199441,-1.64563 0.597591,0.02389 -1.540141,2.095399 -0.07828,1.958005 -0.559037,-0.02235 0.07828,-1.958005 z m 8.695112,0.989772 -0.09192,0.535109 q -0.286711,-0.203055 -0.551174,-0.323988 -0.264464,-0.120933 -0.522511,-0.16526 -0.448188,-0.07699 -0.722516,0.05486 -0.271612,0.132315 -0.326671,0.452838 -0.04619,0.268912 0.09027,0.434973 0.139648,0.16381 0.576087,0.32547 l 0.319723,0.124833 q 0.593817,0.222251 0.833601,0.568253 0.242967,0.343752 0.158046,0.838117 -0.101252,0.589435 -0.550089,0.825536 -0.446122,0.236567 -1.209399,0.105453 -0.287927,-0.04946 -0.602683,-0.170642 -0.31204,-0.120716 -0.637795,-0.308107 l 0.09705,-0.564988 q 0.301909,0.244816 0.6061,0.394945 0.304191,0.150128 0.613848,0.203321 0.469918,0.08072 0.756978,-0.06013 0.28706,-0.140848 0.345852,-0.4831 0.05133,-0.298792 -0.104453,-0.498931 -0.153062,-0.199672 -0.556906,-0.355733 l -0.322906,-0.122583 q -0.592884,-0.227684 -0.822436,-0.535574 -0.229552,-0.307891 -0.149764,-0.772376 0.09239,-0.537826 0.523144,-0.782625 0.433472,-0.244334 1.098963,-0.130017 0.285211,0.04899 0.572421,0.151462 0.28721,0.102468 0.579137,0.25888 z m 0.983317,0.07547 2.510234,0.683922 -0.123164,0.452055 -1.973086,-0.537575 -0.320227,1.175342 1.890653,0.515116 -0.123164,0.452054 -1.890653,-0.515115 -0.391951,1.438598 2.020951,0.550615 -0.123164,0.452055 -2.558098,-0.696963 z m 4.353943,3.692761 q 0.145631,0.120668 0.231705,0.366093 0.08865,0.24641 0.124091,0.631813 l 0.125681,1.252148 -0.558548,-0.213798 -0.114276,-1.174006 q -0.04269,-0.459001 -0.174586,-0.654092 -0.129325,-0.194106 -0.4382,-0.312335 l -0.56627,-0.216754 -0.62169,1.624164 -0.519938,-0.199019 1.470971,-3.842913 1.173723,0.449272 q 0.658932,0.252223 0.877829,0.651777 0.218897,0.399554 0.0061,0.955528 -0.13892,0.362927 -0.400428,0.537279 -0.258935,0.175337 -0.616148,0.144843 z m -0.684672,-2.112403 -0.52218,1.364195 0.653784,0.250253 q 0.375798,0.143846 0.632282,0.0443 0.260043,-0.101135 0.38911,-0.438323 0.129067,-0.337188 0.001,-0.580963 -0.124461,-0.245363 -0.500258,-0.389209 z m 1.994278,4.816751 0.416155,-4.3848 0.521257,0.257819 -0.367419,3.68326 2.706896,-2.526125 0.518786,0.256597 -3.229952,2.993062 z m 4.036969,-2.53129 0.484644,0.273981 -2.025013,3.582046 -0.484644,-0.27398 z m 3.592503,2.543676 -0.310916,0.497947 q -0.09978,-0.370978 -0.302359,-0.650179 -0.200239,-0.277741 -0.504151,-0.467502 -0.598472,-0.373683 -1.145583,-0.205171 -0.545651,0.166175 -0.977722,0.858158 -0.430612,0.689646 -0.341846,1.255197 0.09022,0.563213 0.688697,0.936896 0.303912,0.189761 0.641363,0.247751 0.339788,0.05945 0.716913,-0.01375 l -0.307996,0.493272 q -0.352903,0.01359 -0.683649,-0.07595 -0.328407,-0.08808 -0.636994,-0.280765 -0.792508,-0.494838 -0.946218,-1.2634 -0.15225,-0.7709 0.371782,-1.610163 0.525492,-0.841602 1.283517,-1.040881 0.759485,-0.201618 1.551993,0.293221 0.313263,0.195599 0.536572,0.452004 0.227106,0.255526 0.366597,0.573318 z m 0.596358,0.03478 2.139093,1.48098 -0.266702,0.385218 -1.681363,-1.164075 -0.693426,1.001566 1.611118,1.115442 -0.266702,0.385218 -1.611118,-1.115442 -0.848739,1.2259 1.722151,1.192315 -0.266702,0.385218 -2.179881,-1.50922 z"
       id="header"
       inkscape:label="header"
       aria-label="COMMUNITY SERVICE" /></g><metadata
     id="metadata1"><rdf:RDF><cc:Work
         rdf:about=""><dc:title>Honor Guard Arc Pin</dc:title></cc:Work></rdf:RDF></metadata></svg>
