<?xml version="1.0" encoding="UTF-8" standalone="no"?>
<!-- Created with Inkscape (http://www.inkscape.org/) -->

<svg
   width="54.782001mm"
   height="22.490183mm"
   viewBox="0 0 54.782001 22.490183"
   version="1.1"
   id="svg1"
   xml:space="preserve"
   inkscape:version="1.3.2 (091e20e, 2023-11-25, custom)"
   sodipodi:docname="drill_team_arc.svg"
   xmlns:inkscape="http://www.inkscape.org/namespaces/inkscape"
   xmlns:sodipodi="http://sodipodi.sourceforge.net/DTD/sodipodi-0.dtd"
   xmlns:xlink="http://www.w3.org/1999/xlink"
   xmlns="http://www.w3.org/2000/svg"
   xmlns:svg="http://www.w3.org/2000/svg"
   xmlns:rdf="http://www.w3.org/1999/02/22-rdf-syntax-ns#"
   xmlns:cc="http://creativecommons.org/ns#"
   xmlns:dc="http://purl.org/dc/elements/1.1/"><title
     id="title3">Honor Guard Arc Pin</title><sodipodi:namedview
     id="namedview1"
     pagecolor="#505050"
     bordercolor="#eeeeee"
     borderopacity="1"
     inkscape:showpageshadow="0"
     inkscape:pageopacity="0"
     inkscape:pagecheckerboard="0"
     inkscape:deskcolor="#505050"
     inkscape:document-units="mm"
     inkscape:zoom="2.8970538"
     inkscape:cx="119.77686"
     inkscape:cy="81.979838"
     inkscape:window-width="1920"
     inkscape:window-height="1009"
     inkscape:window-x="-8"
     inkscape:window-y="-8"
     inkscape:window-maximized="1"
     inkscape:current-layer="layer1"
     showguides="false" /><defs
     id="defs1"><linearGradient
       id="linearGradient1"
       inkscape:collect="always"><stop
         style="stop-color:#f3efa3;stop-opacity:1;"
         offset="0.31063831"
         id="stop1" /><stop
         style="stop-color:#a7874b;stop-opacity:1;"
         offset="1"
         id="stop2" /></linearGradient><inkscape:path-effect
       effect="mirror_symmetry"
       start_point="42.363918,59.728779"
       end_point="42.363918,81.618992"
       center_point="42.363918,70.673886"
       id="path-effect3"
       is_visible="true"
       lpeversion="1.2"
       lpesatellites=""
       mode="free"
       discard_orig_path="false"
       fuse_paths="false"
       oposite_fuse="false"
       split_items="false"
       split_open="false"
       link_styles="false" /><inkscape:path-effect
       effect="mirror_symmetry"
       start_point="42.363918,59.728779"
       end_point="42.363918,81.618992"
       center_point="42.363918,70.673886"
       id="path-effect1"
       is_visible="true"
       lpeversion="1.2"
       lpesatellites=""
       mode="free"
       discard_orig_path="false"
       fuse_paths="true"
       oposite_fuse="false"
       split_items="false"
       split_open="false"
       link_styles="false" /><linearGradient
       inkscape:collect="always"
       xlink:href="#linearGradient1"
       id="linearGradient2"
       x1="42.173161"
       y1="82.042267"
       x2="42.173161"
       y2="59.202774"
       gradientUnits="userSpaceOnUse" /><linearGradient
       inkscape:collect="always"
       xlink:href="#linearGradient1"
       id="linearGradient5"
       x1="27.703268"
       y1="81.941574"
       x2="27.703268"
       y2="59.257812"
       gradientUnits="userSpaceOnUse" /></defs><g
     inkscape:label="Arc"
     inkscape:groupmode="layer"
     id="layer1"
     transform="translate(-14.972918,-59.428779)"><path
       style="display:inline;fill:#cf131d;fill-opacity:1;stroke:url(#linearGradient5);stroke-width:0.600001;stroke-linecap:butt;stroke-linejoin:round;stroke-opacity:1"
       d="m 42.363918,59.728779 c -10.054877,0 -16.343465,1.716847 -27.091,7.92194 v 13.968273 c 10.284174,-7.847737 16.322575,-10.26461 27.091,-10.502768 10.768425,0.238158 16.806826,2.655031 27.091,10.502768 V 67.650719 c -10.747535,-6.205093 -17.036123,-7.92194 -27.091,-7.92194 z"
       id="path1"
       sodipodi:nodetypes="cccc"
       inkscape:path-effect="#path-effect1"
       inkscape:original-d="m 42.363918,59.728779 c -10.054877,0 -16.343465,1.716847 -27.091,7.92194 v 13.968273 c 10.284174,-7.847737 16.322575,-10.26461 27.091,-10.502768"
       inkscape:label="background" /><path
       style="font-size:7.05556px;line-height:0;font-family:'DejaVu Sans';-inkscape-font-specification:'DejaVu Sans';text-align:center;letter-spacing:-0.264583px;word-spacing:1.02129px;text-orientation:upright;text-anchor:middle;fill:url(#linearGradient2);stroke-width:0.6;stroke-linejoin:round"
       d="m 22.121914,68.231942 1.83625,3.553344 0.746784,-0.385913 q 0.945722,-0.488718 1.16196,-1.143371 0.2193,-0.656234 -0.258347,-1.580532 -0.474483,-0.918177 -1.135052,-1.115847 -0.659089,-0.202312 -1.604811,0.286406 z m -0.880786,-0.188573 1.270144,-0.656368 q 1.328296,-0.686419 2.235867,-0.453519 0.905989,0.229839 1.513328,1.405105 0.610502,1.181387 0.272413,2.058003 -0.338089,0.876615 -1.660263,1.559871 l -1.270145,0.656368 z m 8.501606,-0.815359 q 0.236403,-0.0019 0.516324,0.163429 0.283176,0.164201 0.62741,0.504133 l 1.128457,1.095937 -0.706173,0.245367 -1.054629,-1.030411 Q 29.8437,67.802 29.560497,67.721692 q -0.279949,-0.08144 -0.670459,0.05425 l -0.715936,0.248759 0.713485,2.053434 -0.657359,0.228405 -1.688167,-4.8586 1.483939,-0.515609 q 0.833089,-0.289465 1.364112,-0.08373 0.531024,0.205734 0.775259,0.908653 0.159432,0.45885 0.04981,0.836123 -0.106369,0.376143 -0.472445,0.634636 z m -2.355614,-1.468272 0.599282,1.724755 0.82658,-0.287204 q 0.475121,-0.165085 0.640178,-0.466794 0.16718,-0.306093 0.01905,-0.7324 -0.148124,-0.426307 -0.466821,-0.556284 -0.316573,-0.134362 -0.791694,0.03072 z m 4.095832,-1.857746 0.677735,-0.158008 1.167852,5.009195 -0.677734,0.158008 z m 2.189657,-0.479751 0.688462,-0.101539 0.665029,4.509087 2.477783,-0.36544 0.08545,0.579399 -3.166244,0.466979 z m 4.097667,-0.518988 0.694818,-0.03896 0.255167,4.550716 2.500658,-0.140216 0.03279,0.584748 -3.195476,0.179176 z m 6.618783,-0.175537 4.339439,0.319129 -0.04295,0.584089 -1.820985,-0.133918 -0.334289,4.545589 -0.697471,-0.05129 0.334289,-4.545589 -1.820984,-0.133918 z m 5.302907,0.461339 3.19792,0.591552 -0.106529,0.575896 -2.513619,-0.464969 -0.276977,1.497331 2.408603,0.445543 -0.10653,0.575897 -2.408602,-0.445544 -0.339015,1.832707 2.574597,0.476249 -0.10653,0.575896 -3.258897,-0.602831 z m 6.224802,2.198506 -1.707726,2.127635 1.793524,0.600425 z m -0.154785,-0.77479 0.748118,0.250451 0.226011,5.499768 -0.686047,-0.229671 -0.02542,-1.399958 -2.198618,-0.736041 -0.863173,1.102481 -0.695848,-0.232952 z m 3.769998,1.392692 0.92229,0.474022 -0.432607,3.71312 2.773568,-2.509953 0.92229,0.474023 -2.351215,4.57468 -0.603625,-0.310241 2.064597,-4.017016 -2.792295,2.531316 -0.622009,-0.31969 0.432948,-3.743932 -2.064596,4.017017 -0.600561,-0.308666 z"
       id="header"
       inkscape:label="header"
       aria-label="DRILL TEAM" /></g><metadata
     id="metadata1"><rdf:RDF><cc:Work
         rdf:about=""><dc:title>Honor Guard Arc Pin</dc:title></cc:Work></rdf:RDF></metadata></svg>
