<?xml version="1.0" encoding="UTF-8" standalone="no"?>
<!-- Created with Inkscape (http://www.inkscape.org/) -->

<svg
   width="54.782001mm"
   height="22.490183mm"
   viewBox="0 0 54.782001 22.490183"
   version="1.1"
   id="svg1"
   xml:space="preserve"
   inkscape:version="1.3.2 (091e20e, 2023-11-25, custom)"
   sodipodi:docname="flag_detail_arc.svg"
   xmlns:inkscape="http://www.inkscape.org/namespaces/inkscape"
   xmlns:sodipodi="http://sodipodi.sourceforge.net/DTD/sodipodi-0.dtd"
   xmlns:xlink="http://www.w3.org/1999/xlink"
   xmlns="http://www.w3.org/2000/svg"
   xmlns:svg="http://www.w3.org/2000/svg"
   xmlns:rdf="http://www.w3.org/1999/02/22-rdf-syntax-ns#"
   xmlns:cc="http://creativecommons.org/ns#"
   xmlns:dc="http://purl.org/dc/elements/1.1/"><title
     id="title3">Honor Guard Arc Pin</title><sodipodi:namedview
     id="namedview1"
     pagecolor="#505050"
     bordercolor="#eeeeee"
     borderopacity="1"
     inkscape:showpageshadow="0"
     inkscape:pageopacity="0"
     inkscape:pagecheckerboard="0"
     inkscape:deskcolor="#505050"
     inkscape:document-units="mm"
     inkscape:zoom="2.8970538"
     inkscape:cx="117.36061"
     inkscape:cy="80.253946"
     inkscape:window-width="1920"
     inkscape:window-height="1009"
     inkscape:window-x="-8"
     inkscape:window-y="-8"
     inkscape:window-maximized="1"
     inkscape:current-layer="layer1"
     showguides="false" /><defs
     id="defs1"><linearGradient
       id="linearGradient1"
       inkscape:collect="always"><stop
         style="stop-color:#f3efa3;stop-opacity:1;"
         offset="0.31063831"
         id="stop1" /><stop
         style="stop-color:#a7874b;stop-opacity:1;"
         offset="1"
         id="stop2" /></linearGradient><inkscape:path-effect
       effect="mirror_symmetry"
       start_point="42.363918,59.728779"
       end_point="42.363918,81.618992"
       center_point="42.363918,70.673886"
       id="path-effect3"
       is_visible="true"
       lpeversion="1.2"
       lpesatellites=""
       mode="free"
       discard_orig_path="false"
       fuse_paths="false"
       oposite_fuse="false"
       split_items="false"
       split_open="false"
       link_styles="false" /><inkscape:path-effect
       effect="mirror_symmetry"
       start_point="42.363918,59.728779"
       end_point="42.363918,81.618992"
       center_point="42.363918,70.673886"
       id="path-effect1"
       is_visible="true"
       lpeversion="1.2"
       lpesatellites=""
       mode="free"
       discard_orig_path="false"
       fuse_paths="true"
       oposite_fuse="false"
       split_items="false"
       split_open="false"
       link_styles="false" /><linearGradient
       inkscape:collect="always"
       xlink:href="#linearGradient1"
       id="linearGradient2"
       x1="42.173161"
       y1="82.042267"
       x2="42.173161"
       y2="59.202774"
       gradientUnits="userSpaceOnUse" /><linearGradient
       inkscape:collect="always"
       xlink:href="#linearGradient1"
       id="linearGradient5"
       x1="27.703268"
       y1="81.941574"
       x2="27.703268"
       y2="59.257812"
       gradientUnits="userSpaceOnUse" /></defs><g
     inkscape:label="Arc"
     inkscape:groupmode="layer"
     id="layer1"
     transform="translate(-14.972918,-59.428779)"><path
       style="display:inline;fill:#3b4278;fill-opacity:1;stroke:url(#linearGradient5);stroke-width:0.600001;stroke-linecap:butt;stroke-linejoin:round;stroke-opacity:1"
       d="m 42.363918,59.728779 c -10.054877,0 -16.343465,1.716847 -27.091,7.92194 v 13.968273 c 10.284174,-7.847737 16.322575,-10.26461 27.091,-10.502768 10.768425,0.238158 16.806826,2.655031 27.091,10.502768 V 67.650719 c -10.747535,-6.205093 -17.036123,-7.92194 -27.091,-7.92194 z"
       id="path1"
       sodipodi:nodetypes="cccc"
       inkscape:path-effect="#path-effect1"
       inkscape:original-d="m 42.363918,59.728779 c -10.054877,0 -16.343465,1.716847 -27.091,7.92194 v 13.968273 c 10.284174,-7.847737 16.322575,-10.26461 27.091,-10.502768"
       inkscape:label="background" /><path
       style="font-size:7.76111px;line-height:0;font-family:'DejaVu Sans';-inkscape-font-specification:'DejaVu Sans';text-align:center;letter-spacing:-0.264583px;word-spacing:1.02129px;text-orientation:upright;text-anchor:middle;fill:url(#linearGradient2);stroke-width:0.6;stroke-linejoin:round"
       d="m 18.110095,69.852908 2.766039,-1.709137 0.338641,0.54805 -2.114828,1.306752 0.876481,1.418482 1.908503,-1.179264 0.33864,0.548049 -1.908503,1.179265 1.420297,2.298586 -0.651212,0.402384 z m 4.055782,-2.432298 0.685901,-0.339899 2.226167,4.492308 2.468563,-1.223298 0.286053,0.577243 -3.154463,1.563197 z m 6.57087,-2.02162 -0.09148,2.99964 1.973027,-0.66001 z m -0.648938,-0.578126 0.822994,-0.275305 3.839794,4.681575 -0.75471,0.252463 -0.949209,-1.212948 -2.418665,0.809083 -0.02832,1.539947 -0.765492,0.256069 z m 8.783339,2.954871 -0.236022,-1.50119 -1.235394,0.194233 -0.0977,-0.62144 1.984117,-0.311951 0.377283,2.399659 q -0.389151,0.379585 -0.891691,0.623551 -0.50313,0.240222 -1.102109,0.334396 -1.310266,0.206005 -2.171573,-0.441153 -0.858153,-0.651491 -1.072986,-2.017911 -0.215423,-1.370164 0.401999,-2.249813 0.620576,-0.883981 1.930842,-1.089986 0.546568,-0.08593 1.058171,-0.02827 0.515346,0.05708 0.972089,0.253797 l 0.126546,0.804878 q -0.475201,-0.289722 -0.975149,-0.395254 -0.499948,-0.105532 -1.020311,-0.02372 -1.025751,0.161273 -1.452316,0.815271 -0.422822,0.65341 -0.244481,1.787726 0.177753,1.130572 0.780682,1.622709 0.606673,0.491549 1.632424,0.330276 0.400567,-0.06298 0.704436,-0.179805 0.303281,-0.120569 0.531148,-0.306006 z m 6.186027,-4.476938 -0.159665,4.396833 0.924054,0.03356 q 1.170216,0.0425 1.731026,-0.468034 0.564597,-0.510392 0.60613,-1.654099 0.04126,-1.136132 -0.484971,-1.682344 -0.522303,-0.549861 -1.692519,-0.592356 z m -0.742167,-0.65644 1.57165,0.05707 q 1.643605,0.05969 2.387496,0.773069 0.744029,0.709597 0.69122,2.163847 -0.05308,1.461824 -0.850547,2.119235 -0.797462,0.657412 -2.433492,0.598001 l -1.57165,-0.05707 z m 6.401931,0.351815 3.531827,0.569118 -0.10249,0.636029 -2.776075,-0.447337 -0.266473,1.653673 2.660094,0.428647 -0.10249,0.636028 -2.660094,-0.428647 -0.326158,2.024066 2.84342,0.458188 -0.102489,0.636028 -3.599171,-0.57997 z m 4.547943,0.779287 4.581915,1.383631 -0.186236,0.616727 -1.922736,-0.580621 -1.449362,4.799583 -0.736444,-0.222388 1.449362,-4.799584 -1.922736,-0.580621 z m 6.577481,3.157338 -2.120835,2.123268 1.889774,0.870175 z m -0.07699,-0.865692 0.788266,0.362969 -0.407815,6.041097 -0.722864,-0.332854 0.138921,-1.533929 -2.316608,-1.066718 -1.075203,1.102804 -0.733191,-0.337609 z m 3.646679,1.854206 0.663831,0.381207 -2.817533,4.906435 -0.663831,-0.381207 z m 2.011149,1.180583 0.642039,0.416864 -2.730252,4.205042 2.310707,1.500297 -0.350826,0.54033 -2.952747,-1.917161 z"
       id="header"
       inkscape:label="header"
       aria-label="FLAG DETAIL" /></g><metadata
     id="metadata1"><rdf:RDF><cc:Work
         rdf:about=""><dc:title>Honor Guard Arc Pin</dc:title></cc:Work></rdf:RDF></metadata></svg>
