<?xml version="1.0" encoding="UTF-8" standalone="no"?>
<!-- Created with Inkscape (http://www.inkscape.org/) -->

<svg
   width="54.782001mm"
   height="22.490183mm"
   viewBox="0 0 54.782001 22.490183"
   version="1.1"
   id="svg1"
   xml:space="preserve"
   inkscape:version="1.3.2 (091e20e, 2023-11-25, custom)"
   sodipodi:docname="leadership_arc.svg"
   xmlns:inkscape="http://www.inkscape.org/namespaces/inkscape"
   xmlns:sodipodi="http://sodipodi.sourceforge.net/DTD/sodipodi-0.dtd"
   xmlns:xlink="http://www.w3.org/1999/xlink"
   xmlns="http://www.w3.org/2000/svg"
   xmlns:svg="http://www.w3.org/2000/svg"
   xmlns:rdf="http://www.w3.org/1999/02/22-rdf-syntax-ns#"
   xmlns:cc="http://creativecommons.org/ns#"
   xmlns:dc="http://purl.org/dc/elements/1.1/"><title
     id="title3">Honor Guard Arc Pin</title><sodipodi:namedview
     id="namedview1"
     pagecolor="#505050"
     bordercolor="#eeeeee"
     borderopacity="1"
     inkscape:showpageshadow="0"
     inkscape:pageopacity="0"
     inkscape:pagecheckerboard="0"
     inkscape:deskcolor="#505050"
     inkscape:document-units="mm"
     inkscape:zoom="2.8970538"
     inkscape:cx="119.77686"
     inkscape:cy="81.979838"
     inkscape:window-width="1920"
     inkscape:window-height="1009"
     inkscape:window-x="-8"
     inkscape:window-y="-8"
     inkscape:window-maximized="1"
     inkscape:current-layer="layer1"
     showguides="false" /><defs
     id="defs1"><linearGradient
       id="linearGradient1"
       inkscape:collect="always"><stop
         style="stop-color:#f3efa3;stop-opacity:1;"
         offset="0.31063831"
         id="stop1" /><stop
         style="stop-color:#a7874b;stop-opacity:1;"
         offset="1"
         id="stop2" /></linearGradient><inkscape:path-effect
       effect="mirror_symmetry"
       start_point="42.363918,59.728779"
       end_point="42.363918,81.618992"
       center_point="42.363918,70.673886"
       id="path-effect3"
       is_visible="true"
       lpeversion="1.2"
       lpesatellites=""
       mode="free"
       discard_orig_path="false"
       fuse_paths="false"
       oposite_fuse="false"
       split_items="false"
       split_open="false"
       link_styles="false" /><inkscape:path-effect
       effect="mirror_symmetry"
       start_point="42.363918,59.728779"
       end_point="42.363918,81.618992"
       center_point="42.363918,70.673886"
       id="path-effect1"
       is_visible="true"
       lpeversion="1.2"
       lpesatellites=""
       mode="free"
       discard_orig_path="false"
       fuse_paths="true"
       oposite_fuse="false"
       split_items="false"
       split_open="false"
       link_styles="false" /><linearGradient
       inkscape:collect="always"
       xlink:href="#linearGradient1"
       id="linearGradient2"
       x1="42.173161"
       y1="82.042267"
       x2="42.173161"
       y2="59.202774"
       gradientUnits="userSpaceOnUse" /><linearGradient
       inkscape:collect="always"
       xlink:href="#linearGradient1"
       id="linearGradient5"
       x1="27.703268"
       y1="81.941574"
       x2="27.703268"
       y2="59.257812"
       gradientUnits="userSpaceOnUse" /></defs><g
     inkscape:label="Arc"
     inkscape:groupmode="layer"
     id="layer1"
     transform="translate(-14.972918,-59.428779)"><path
       style="display:inline;fill:#7c4f2e;fill-opacity:1;stroke:url(#linearGradient5);stroke-width:0.600001;stroke-linecap:butt;stroke-linejoin:round;stroke-opacity:1"
       d="m 42.363918,59.728779 c -10.054877,0 -16.343465,1.716847 -27.091,7.92194 v 13.968273 c 10.284174,-7.847737 16.322575,-10.26461 27.091,-10.502768 10.768425,0.238158 16.806826,2.655031 27.091,10.502768 V 67.650719 c -10.747535,-6.205093 -17.036123,-7.92194 -27.091,-7.92194 z"
       id="path1"
       sodipodi:nodetypes="cccc"
       inkscape:path-effect="#path-effect1"
       inkscape:original-d="m 42.363918,59.728779 c -10.054877,0 -16.343465,1.716847 -27.091,7.92194 v 13.968273 c 10.284174,-7.847737 16.322575,-10.26461 27.091,-10.502768"
       inkscape:label="background" /><path
       style="font-size:7.76111px;line-height:0;font-family:'DejaVu Sans';-inkscape-font-specification:'DejaVu Sans';text-align:center;letter-spacing:-0.264583px;word-spacing:1.02129px;text-orientation:upright;text-anchor:middle;fill:url(#linearGradient2);stroke-width:0.6;stroke-linejoin:round"
       d="m 18.465857,69.167657 0.653492,-0.398671 2.6111,4.280048 2.351923,-1.434823 0.335516,0.549969 -3.005416,1.833493 z m 3.976542,-2.361342 3.224749,-1.54877 0.27891,0.580728 -2.534708,1.21736 0.725166,1.509893 2.42881,-1.1665 0.27891,0.580728 -2.42881,1.1665 0.88759,1.848082 2.596196,-1.246891 0.27891,0.580728 -3.286238,1.578301 z m 7.021715,-2.097375 -0.161415,2.996689 1.987884,-0.613813 z m -0.635278,-0.593105 0.829191,-0.256035 3.729561,4.769857 -0.760393,0.234792 -0.92066,-1.234756 -2.436879,0.752452 -0.06423,1.538868 -0.771255,0.238146 z m 5.211401,-0.645114 0.590287,4.359953 0.916303,-0.124056 q 1.160401,-0.157105 1.626235,-0.755559 0.46959,-0.598962 0.316044,-1.733075 -0.152529,-1.126603 -0.76397,-1.575382 -0.608194,-0.453042 -1.768595,-0.295938 z m -0.842979,-0.520684 1.558468,-0.210998 q 1.629819,-0.220659 2.484179,0.355847 0.853852,0.572751 1.049089,2.014802 0.196254,1.449563 -0.47781,2.232999 -0.674065,0.783437 -2.296373,1.003079 l -1.558467,0.210998 z m 6.331632,-0.678605 3.576786,-0.06556 0.01181,0.644125 -2.811414,0.05154 0.0307,1.674724 2.693956,-0.04938 0.01181,0.644124 -2.693956,0.04938 0.03758,2.049832 2.879615,-0.05279 0.01181,0.644124 -3.644987,0.06681 z m 7.619319,3.157737 q 0.239406,0.101543 0.449539,0.390904 0.213912,0.289644 0.412534,0.783355 l 0.659172,1.599882 -0.820046,-0.06144 -0.613344,-1.501444 q -0.237175,-0.587804 -0.487831,-0.792797 -0.246878,-0.204708 -0.700359,-0.238687 l -0.831382,-0.06229 -0.178668,2.384557 -0.763361,-0.0572 0.422744,-5.642064 1.723229,0.129117 q 0.967427,0.07249 1.413286,0.512517 0.445858,0.440032 0.384697,1.256298 -0.03992,0.532841 -0.315672,0.865601 -0.271968,0.333043 -0.754538,0.433694 z m -1.734645,-2.512715 -0.150069,2.002876 0.959868,0.07192 q 0.551736,0.04134 0.850354,-0.190901 0.30268,-0.235736 0.339773,-0.730787 0.03709,-0.49505 -0.227645,-0.765701 -0.260676,-0.274147 -0.812412,-0.315487 z m 8.418412,0.757314 -0.153882,0.730521 q -0.383484,-0.293782 -0.740633,-0.473579 -0.357148,-0.179797 -0.70943,-0.254004 -0.611857,-0.128886 -0.99559,0.03814 -0.380024,0.167806 -0.472197,0.605377 -0.07733,0.367115 0.101616,0.602321 0.183438,0.232278 0.774788,0.4769 l 0.432876,0.188003 q 0.804471,0.335989 1.116108,0.823766 0.316127,0.48485 0.173962,1.159747 -0.169504,0.804685 -0.798392,1.105962 -0.625179,0.302058 -1.66719,0.08256 -0.393072,-0.0828 -0.819312,-0.265532 -0.422532,-0.181952 -0.860472,-0.456222 l 0.162474,-0.771311 q 0.402214,0.351946 0.812445,0.573907 0.410232,0.22196 0.832969,0.311009 0.641524,0.135135 1.043213,-0.0436 0.40169,-0.178733 0.500112,-0.64597 0.08592,-0.407905 -0.117805,-0.690932 -0.200022,-0.282245 -0.746874,-0.517493 l -0.437365,-0.185076 q -0.802908,-0.343405 -1.102451,-0.778289 -0.299543,-0.434883 -0.16597,-1.06899 0.154663,-0.734229 0.759155,-1.04839 0.6082,-0.31338 1.516716,-0.122004 0.389363,0.08202 0.778719,0.237617 0.389355,0.155599 0.78241,0.38556 z m 2.160347,0.411798 0.713271,0.277912 -0.84199,2.160999 2.591786,1.009837 0.84199,-2.160999 0.713271,0.277912 -2.05407,5.271849 -0.713271,-0.277912 0.978194,-2.510572 -2.591786,-1.009838 -0.978194,2.510573 -0.713271,-0.277912 z m 5.683577,2.441698 0.678641,0.354173 -2.617719,5.015889 -0.67864,-0.354172 z m 2.44957,2.072841 -1.109638,1.813407 0.821044,0.502403 q 0.455776,0.278893 0.849066,0.195227 0.393291,-0.08367 0.660316,-0.520048 0.265047,-0.433148 0.160539,-0.821421 -0.104507,-0.388272 -0.560284,-0.667165 z m -0.324614,-0.936136 1.473999,0.901952 q 0.811346,0.496468 0.999613,1.118148 0.193477,0.620424 -0.239697,1.328332 -0.43713,0.714372 -1.077627,0.824482 -0.637264,0.112088 -1.44861,-0.384381 L 62.687491,70.9501 61.500712,72.889572 60.847757,72.490024 Z"
       id="header"
       inkscape:label="header"
       aria-label="LEADERSHIP" /></g><metadata
     id="metadata1"><rdf:RDF><cc:Work
         rdf:about=""><dc:title>Honor Guard Arc Pin</dc:title></cc:Work></rdf:RDF></metadata></svg>
