<?xml version="1.0" encoding="UTF-8" standalone="no"?>
<!-- Created with Inkscape (http://www.inkscape.org/) -->

<svg
   width="54.782001mm"
   height="22.490183mm"
   viewBox="0 0 54.782001 22.490183"
   version="1.1"
   id="svg1"
   xml:space="preserve"
   inkscape:version="1.3.2 (091e20e, 2023-11-25, custom)"
   sodipodi:docname="orienteering_arc.svg"
   xmlns:inkscape="http://www.inkscape.org/namespaces/inkscape"
   xmlns:sodipodi="http://sodipodi.sourceforge.net/DTD/sodipodi-0.dtd"
   xmlns:xlink="http://www.w3.org/1999/xlink"
   xmlns="http://www.w3.org/2000/svg"
   xmlns:svg="http://www.w3.org/2000/svg"
   xmlns:rdf="http://www.w3.org/1999/02/22-rdf-syntax-ns#"
   xmlns:cc="http://creativecommons.org/ns#"
   xmlns:dc="http://purl.org/dc/elements/1.1/"><title
     id="title3">Honor Guard Arc Pin</title><sodipodi:namedview
     id="namedview1"
     pagecolor="#505050"
     bordercolor="#eeeeee"
     borderopacity="1"
     inkscape:showpageshadow="0"
     inkscape:pageopacity="0"
     inkscape:pagecheckerboard="0"
     inkscape:deskcolor="#505050"
     inkscape:document-units="mm"
     inkscape:zoom="2.8970538"
     inkscape:cx="119.77686"
     inkscape:cy="81.979838"
     inkscape:window-width="1920"
     inkscape:window-height="1009"
     inkscape:window-x="-8"
     inkscape:window-y="-8"
     inkscape:window-maximized="1"
     inkscape:current-layer="layer1"
     showguides="false" /><defs
     id="defs1"><linearGradient
       id="linearGradient1"
       inkscape:collect="always"><stop
         style="stop-color:#f3efa3;stop-opacity:1;"
         offset="0.31063831"
         id="stop1" /><stop
         style="stop-color:#a7874b;stop-opacity:1;"
         offset="1"
         id="stop2" /></linearGradient><inkscape:path-effect
       effect="mirror_symmetry"
       start_point="42.363918,59.728779"
       end_point="42.363918,81.618992"
       center_point="42.363918,70.673886"
       id="path-effect3"
       is_visible="true"
       lpeversion="1.2"
       lpesatellites=""
       mode="free"
       discard_orig_path="false"
       fuse_paths="false"
       oposite_fuse="false"
       split_items="false"
       split_open="false"
       link_styles="false" /><inkscape:path-effect
       effect="mirror_symmetry"
       start_point="42.363918,59.728779"
       end_point="42.363918,81.618992"
       center_point="42.363918,70.673886"
       id="path-effect1"
       is_visible="true"
       lpeversion="1.2"
       lpesatellites=""
       mode="free"
       discard_orig_path="false"
       fuse_paths="true"
       oposite_fuse="false"
       split_items="false"
       split_open="false"
       link_styles="false" /><linearGradient
       inkscape:collect="always"
       xlink:href="#linearGradient1"
       id="linearGradient2"
       x1="42.173161"
       y1="82.042267"
       x2="42.173161"
       y2="59.202774"
       gradientUnits="userSpaceOnUse" /><linearGradient
       inkscape:collect="always"
       xlink:href="#linearGradient1"
       id="linearGradient5"
       x1="27.703268"
       y1="81.941574"
       x2="27.703268"
       y2="59.257812"
       gradientUnits="userSpaceOnUse" /></defs><g
     inkscape:label="Arc"
     inkscape:groupmode="layer"
     id="layer1"
     transform="translate(-14.972918,-59.428779)"><path
       style="display:inline;fill:#316141;fill-opacity:1;stroke:url(#linearGradient5);stroke-width:0.600001;stroke-linecap:butt;stroke-linejoin:round;stroke-opacity:1"
       d="m 42.363918,59.728779 c -10.054877,0 -16.343465,1.716847 -27.091,7.92194 v 13.968273 c 10.284174,-7.847737 16.322575,-10.26461 27.091,-10.502768 10.768425,0.238158 16.806826,2.655031 27.091,10.502768 V 67.650719 c -10.747535,-6.205093 -17.036123,-7.92194 -27.091,-7.92194 z"
       id="path1"
       sodipodi:nodetypes="cccc"
       inkscape:path-effect="#path-effect1"
       inkscape:original-d="m 42.363918,59.728779 c -10.054877,0 -16.343465,1.716847 -27.091,7.92194 v 13.968273 c 10.284174,-7.847737 16.322575,-10.26461 27.091,-10.502768"
       inkscape:label="background" /><path
       style="font-size:7.05556px;line-height:0;font-family:'DejaVu Sans';-inkscape-font-specification:'DejaVu Sans';text-align:center;letter-spacing:-0.529167px;word-spacing:1.02129px;text-orientation:upright;text-anchor:middle;fill:url(#linearGradient2);stroke-width:0.6;stroke-linejoin:round"
       d="m 20.297165,69.205817 q -0.648328,0.392577 -0.738782,1.107853 -0.08751,0.713491 0.41749,1.547476 0.503212,0.831037 1.176016,1.084143 0.67575,0.251321 1.324078,-0.141255 0.648327,-0.392577 0.732888,-1.104284 0.08751,-0.713492 -0.415705,-1.54453 -0.504997,-0.833984 -1.177801,-1.08709 -0.669857,-0.25489 -1.318184,0.137687 z m -0.292648,-0.483299 q 0.925339,-0.560314 1.855882,-0.273984 0.928757,0.283383 1.560449,1.326601 0.629908,1.04027 0.4524,1.99755 -0.179293,0.954333 -1.104633,1.514647 -0.928287,0.562099 -1.859991,0.2805 -0.928758,-0.283383 -1.56045,-1.3266 -0.631692,-1.043218 -0.452399,-1.997551 0.180455,-0.959064 1.108742,-1.521163 z m 6.440302,-0.224644 q 0.235025,-0.02556 0.53009,0.110924 0.29819,0.13503 0.674723,0.438796 l 1.232492,0.977474 -0.678064,0.314823 -1.152477,-0.919667 q -0.448848,-0.36135 -0.738668,-0.412906 -0.286695,-0.05301 -0.661662,0.121089 l -0.687439,0.319175 0.915452,1.9717 -0.631194,0.29306 -2.166037,-4.665211 1.424874,-0.661562 q 0.799929,-0.371404 1.348879,-0.219858 0.54895,0.151545 0.862322,0.826485 0.204562,0.440586 0.133254,0.826938 -0.06818,0.3849 -0.406545,0.67874 z m -2.490758,-1.2251 0.768921,1.656104 0.79368,-0.368502 q 0.45621,-0.211816 0.590236,-0.528531 0.1357,-0.321291 -0.05435,-0.73063 -0.190054,-0.409339 -0.520161,-0.506761 -0.328432,-0.101997 -0.784642,0.109819 z m 3.555223,-2.154271 0.654737,-0.235816 1.742936,4.839224 -0.654738,0.235816 z m 1.897789,-0.677158 3.146213,-0.823388 0.14828,0.566585 -2.472977,0.647197 0.385527,1.473121 2.369658,-0.620157 0.14828,0.566585 -2.369659,0.620157 0.471878,1.803073 2.532968,-0.662896 0.14828,0.566585 -3.206204,0.839087 z m 4.470513,-1.078951 0.929636,-0.117773 2.803372,3.98217 -0.540801,-4.268807 0.669885,-0.08487 0.64645,5.102746 -0.929637,0.117772 -2.803371,-3.982169 0.540801,4.268807 -0.669885,0.08486 z m 4.502607,-0.529248 4.349313,-0.126736 0.01706,0.585418 -1.825127,0.05318 0.132757,4.55593 -0.699058,0.02037 -0.132757,-4.55593 -1.825127,0.05318 z m 4.851129,-0.104489 3.249636,0.128411 -0.02313,0.58521 -2.554269,-0.100933 -0.06012,1.521546 2.447554,0.09672 -0.02313,0.58521 -2.447554,-0.09672 -0.07359,1.862344 2.616232,0.103381 -0.02313,0.58521 -3.311599,-0.130859 z m 4.392853,0.217653 3.224354,0.424459 -0.07644,0.580657 -2.534396,-0.333632 -0.198741,1.509708 2.428513,0.319694 -0.07644,0.580657 -2.428512,-0.319694 -0.243255,1.847856 2.595878,0.341725 -0.07644,0.580657 -3.285836,-0.432552 z m 6.195096,3.926518 q 0.197361,0.130147 0.337672,0.423411 0.143643,0.294138 0.240067,0.76822 l 0.326354,1.538826 -0.723105,-0.189749 -0.301562,-1.443278 q -0.115426,-0.564549 -0.305839,-0.78904 -0.187081,-0.223617 -0.586954,-0.328547 l -0.733102,-0.192372 -0.551759,2.102668 -0.67312,-0.176633 1.305509,-4.975093 1.519519,0.398735 q 0.853064,0.223852 1.179368,0.690583 0.326305,0.46673 0.13743,1.186503 -0.123293,0.469851 -0.424545,0.722042 -0.297919,0.253064 -0.745933,0.263724 z m -1.137872,-2.531796 -0.463443,1.766108 0.846399,0.222103 q 0.486513,0.127665 0.791688,-0.03089 0.309381,-0.161014 0.42393,-0.597543 0.114549,-0.436528 -0.07766,-0.72204 -0.188003,-0.28797 -0.674515,-0.415635 z m 4.145994,0.63492 0.652896,0.24087 L 55.7,70.042429 55.047105,69.801559 Z m 1.907265,0.698883 0.845321,0.404382 0.200475,4.865838 1.856889,-3.881642 0.609129,0.291393 -2.219644,4.639945 -0.845322,-0.404382 -0.200474,-4.865838 -1.856889,3.881642 -0.609129,-0.291393 z m 5.40024,7.97862 0.727998,-1.174103 -0.966219,-0.5991 0.301365,-0.486038 1.551807,0.962192 -1.163708,1.876808 q -0.493251,0.03061 -0.984155,-0.09947 -0.489088,-0.133006 -0.957558,-0.423479 -1.024778,-0.63541 -1.234157,-1.592169 -0.204635,-0.957873 0.458007,-2.02657 0.664457,-1.071624 1.611614,-1.311279 0.9519,-0.240766 1.976678,0.394644 0.427479,0.265056 0.745682,0.608287 0.321131,0.345046 0.51905,0.751517 l -0.390323,0.629507 q -0.15546,-0.481486 -0.437238,-0.850774 -0.281779,-0.369289 -0.688762,-0.621637 -0.802255,-0.497435 -1.484075,-0.299994 -0.678892,0.199257 -1.228975,1.086422 -0.548268,0.884237 -0.424906,1.580929 0.126291,0.698507 0.928545,1.195942 0.31329,0.194254 0.591915,0.29405 0.28044,0.09687 0.547415,0.104313 z"
       id="header"
       inkscape:label="header"
       aria-label="ORIENTEERING" /></g><metadata
     id="metadata1"><rdf:RDF><cc:Work
         rdf:about=""><dc:title>Honor Guard Arc Pin</dc:title></cc:Work></rdf:RDF></metadata></svg>
