<?xml version="1.0" encoding="UTF-8" standalone="no"?>
<!-- Created with Inkscape (http://www.inkscape.org/) -->

<svg
   width="54.782001mm"
   height="22.490183mm"
   viewBox="0 0 54.782001 22.490183"
   version="1.1"
   id="svg1"
   xml:space="preserve"
   inkscape:version="1.3.2 (091e20e, 2023-11-25, custom)"
   sodipodi:docname="parade_arc.svg"
   xmlns:inkscape="http://www.inkscape.org/namespaces/inkscape"
   xmlns:sodipodi="http://sodipodi.sourceforge.net/DTD/sodipodi-0.dtd"
   xmlns:xlink="http://www.w3.org/1999/xlink"
   xmlns="http://www.w3.org/2000/svg"
   xmlns:svg="http://www.w3.org/2000/svg"
   xmlns:rdf="http://www.w3.org/1999/02/22-rdf-syntax-ns#"
   xmlns:cc="http://creativecommons.org/ns#"
   xmlns:dc="http://purl.org/dc/elements/1.1/"><title
     id="title3">Honor Guard Arc Pin</title><sodipodi:namedview
     id="namedview1"
     pagecolor="#505050"
     bordercolor="#eeeeee"
     borderopacity="1"
     inkscape:showpageshadow="0"
     inkscape:pageopacity="0"
     inkscape:pagecheckerboard="0"
     inkscape:deskcolor="#505050"
     inkscape:document-units="mm"
     inkscape:zoom="2.8970538"
     inkscape:cx="119.77686"
     inkscape:cy="81.979838"
     inkscape:window-width="1920"
     inkscape:window-height="1009"
     inkscape:window-x="-8"
     inkscape:window-y="-8"
     inkscape:window-maximized="1"
     inkscape:current-layer="layer1"
     showguides="false" /><defs
     id="defs1"><linearGradient
       id="linearGradient1"
       inkscape:collect="always"><stop
         style="stop-color:#f3efa3;stop-opacity:1;"
         offset="0.31063831"
         id="stop1" /><stop
         style="stop-color:#a7874b;stop-opacity:1;"
         offset="1"
         id="stop2" /></linearGradient><inkscape:path-effect
       effect="mirror_symmetry"
       start_point="42.363918,59.728779"
       end_point="42.363918,81.618992"
       center_point="42.363918,70.673886"
       id="path-effect3"
       is_visible="true"
       lpeversion="1.2"
       lpesatellites=""
       mode="free"
       discard_orig_path="false"
       fuse_paths="false"
       oposite_fuse="false"
       split_items="false"
       split_open="false"
       link_styles="false" /><inkscape:path-effect
       effect="mirror_symmetry"
       start_point="42.363918,59.728779"
       end_point="42.363918,81.618992"
       center_point="42.363918,70.673886"
       id="path-effect1"
       is_visible="true"
       lpeversion="1.2"
       lpesatellites=""
       mode="free"
       discard_orig_path="false"
       fuse_paths="true"
       oposite_fuse="false"
       split_items="false"
       split_open="false"
       link_styles="false" /><linearGradient
       inkscape:collect="always"
       xlink:href="#linearGradient1"
       id="linearGradient2"
       x1="42.173161"
       y1="82.042267"
       x2="42.173161"
       y2="59.202774"
       gradientUnits="userSpaceOnUse" /><linearGradient
       inkscape:collect="always"
       xlink:href="#linearGradient1"
       id="linearGradient5"
       x1="27.703268"
       y1="81.941574"
       x2="27.703268"
       y2="59.257812"
       gradientUnits="userSpaceOnUse" /></defs><g
     inkscape:label="Arc"
     inkscape:groupmode="layer"
     id="layer1"
     transform="translate(-14.972918,-59.428779)"><path
       style="display:inline;fill:#120f3d;fill-opacity:1;stroke:url(#linearGradient5);stroke-width:0.600001;stroke-linecap:butt;stroke-linejoin:round;stroke-opacity:1"
       d="m 42.363918,59.728779 c -10.054877,0 -16.343465,1.716847 -27.091,7.92194 v 13.968273 c 10.284174,-7.847737 16.322575,-10.26461 27.091,-10.502768 10.768425,0.238158 16.806826,2.655031 27.091,10.502768 V 67.650719 c -10.747535,-6.205093 -17.036123,-7.92194 -27.091,-7.92194 z"
       id="path1"
       sodipodi:nodetypes="cccc"
       inkscape:path-effect="#path-effect1"
       inkscape:original-d="m 42.363918,59.728779 c -10.054877,0 -16.343465,1.716847 -27.091,7.92194 v 13.968273 c 10.284174,-7.847737 16.322575,-10.26461 27.091,-10.502768"
       inkscape:label="background" /><path
       style="font-size:7.76111px;line-height:0;font-family:'DejaVu Sans';-inkscape-font-specification:'DejaVu Sans';text-align:center;letter-spacing:1.5875px;word-spacing:1.02129px;text-orientation:upright;text-anchor:middle;fill:url(#linearGradient2);stroke-width:0.6;stroke-linejoin:round"
       d="m 22.114407,68.099629 1.000028,1.876082 0.84942,-0.452775 q 0.471529,-0.251344 0.598902,-0.632728 0.127373,-0.381383 -0.113276,-0.832847 -0.238866,-0.448119 -0.626495,-0.554985 -0.38763,-0.106866 -0.859159,0.144478 z m -0.971432,-0.195051 1.524944,-0.812857 q 0.839387,-0.447428 1.470656,-0.294363 0.63283,0.147939 1.023216,0.880314 0.39395,0.739062 0.163983,1.346907 -0.226623,0.606062 -1.066011,1.05349 l -0.84942,0.452776 1.069549,2.006504 -0.675524,0.360082 z m 8.185745,-2.788196 -0.149492,2.997309 1.985426,-0.621717 z m -0.637633,-0.590572 0.828165,-0.259332 3.748509,4.754981 -0.759453,0.237816 -0.925566,-1.231084 -2.433865,0.762142 -0.05811,1.539111 -0.770302,0.241212 z m 9.378748,1.220793 q 0.253443,0.05825 0.510807,0.306541 0.261135,0.247913 0.542792,0.699433 l 0.928011,1.460454 -0.818198,0.08247 -0.865724,-1.371512 Q 38.031499,66.386537 37.748942,66.228386 37.470155,66.069855 37.017695,66.11546 l -0.829509,0.08361 0.239809,2.379185 -0.761641,0.07677 -0.56741,-5.629355 1.719348,-0.173302 q 0.965248,-0.09729 1.480996,0.258266 0.515748,0.355557 0.597838,1.169985 0.05359,0.531641 -0.159922,0.90738 -0.209738,0.37536 -0.667369,0.558604 z m -2.146162,-2.1718 0.201425,1.998365 0.957707,-0.09653 q 0.550492,-0.05549 0.804046,-0.336234 0.256945,-0.284897 0.207158,-0.778833 -0.04979,-0.493935 -0.357656,-0.714285 -0.30448,-0.2245 -0.854973,-0.169013 z m 8.448606,-0.193918 -1.131731,2.779459 2.079334,0.06942 z m -0.40661,-0.768128 0.867336,0.02896 1.966285,5.726682 -0.795374,-0.02656 -0.466666,-1.467808 -2.548984,-0.0851 -0.563532,1.433412 -0.806736,-0.02693 z m 7.079788,1.277692 -0.954468,4.294953 0.902643,0.200594 q 1.143102,0.254032 1.787205,-0.146317 0.647802,-0.399526 0.896079,-1.516732 0.246632,-1.109807 -0.171802,-1.742401 -0.413913,-0.635471 -1.557014,-0.889503 z m -0.6108,-0.780159 1.535233,0.341175 q 1.605521,0.356794 2.207689,1.193266 0.602989,0.832772 0.2873,2.253325 -0.317334,1.427952 -1.220804,1.929825 -0.90347,0.501874 -2.501593,0.146723 l -1.535233,-0.341175 z m 8.449772,2.446329 3.238798,1.519172 -0.273579,0.583258 -2.54575,-1.194095 -0.711308,1.516471 2.439392,1.144207 -0.27358,0.583258 -2.439391,-1.144207 -0.870627,1.856133 2.607507,1.223062 -0.27358,0.583258 -3.300555,-1.548139 z"
       id="header"
       inkscape:label="header"
       aria-label="PARADE" /></g><metadata
     id="metadata1"><rdf:RDF><cc:Work
         rdf:about=""><dc:title>Honor Guard Arc Pin</dc:title></cc:Work></rdf:RDF></metadata></svg>
