<?xml version="1.0" encoding="UTF-8" standalone="no"?>
<!-- Created with Inkscape (http://www.inkscape.org/) -->

<svg
   width="54.782001mm"
   height="22.490183mm"
   viewBox="0 0 54.782001 22.490183"
   version="1.1"
   id="svg1"
   xml:space="preserve"
   inkscape:version="1.3.2 (091e20e, 2023-11-25, custom)"
   sodipodi:docname="rappelling_arc.svg"
   xmlns:inkscape="http://www.inkscape.org/namespaces/inkscape"
   xmlns:sodipodi="http://sodipodi.sourceforge.net/DTD/sodipodi-0.dtd"
   xmlns:xlink="http://www.w3.org/1999/xlink"
   xmlns="http://www.w3.org/2000/svg"
   xmlns:svg="http://www.w3.org/2000/svg"
   xmlns:rdf="http://www.w3.org/1999/02/22-rdf-syntax-ns#"
   xmlns:cc="http://creativecommons.org/ns#"
   xmlns:dc="http://purl.org/dc/elements/1.1/"><title
     id="title3">Honor Guard Arc Pin</title><sodipodi:namedview
     id="namedview1"
     pagecolor="#505050"
     bordercolor="#eeeeee"
     borderopacity="1"
     inkscape:showpageshadow="0"
     inkscape:pageopacity="0"
     inkscape:pagecheckerboard="0"
     inkscape:deskcolor="#505050"
     inkscape:document-units="mm"
     inkscape:zoom="2.8970538"
     inkscape:cx="119.77686"
     inkscape:cy="81.979838"
     inkscape:window-width="1920"
     inkscape:window-height="1009"
     inkscape:window-x="-8"
     inkscape:window-y="-8"
     inkscape:window-maximized="1"
     inkscape:current-layer="layer1"
     showguides="false" /><defs
     id="defs1"><linearGradient
       id="linearGradient1"
       inkscape:collect="always"><stop
         style="stop-color:#f3efa3;stop-opacity:1;"
         offset="0.31063831"
         id="stop1" /><stop
         style="stop-color:#a7874b;stop-opacity:1;"
         offset="1"
         id="stop2" /></linearGradient><inkscape:path-effect
       effect="mirror_symmetry"
       start_point="42.363918,59.728779"
       end_point="42.363918,81.618992"
       center_point="42.363918,70.673886"
       id="path-effect3"
       is_visible="true"
       lpeversion="1.2"
       lpesatellites=""
       mode="free"
       discard_orig_path="false"
       fuse_paths="false"
       oposite_fuse="false"
       split_items="false"
       split_open="false"
       link_styles="false" /><inkscape:path-effect
       effect="mirror_symmetry"
       start_point="42.363918,59.728779"
       end_point="42.363918,81.618992"
       center_point="42.363918,70.673886"
       id="path-effect1"
       is_visible="true"
       lpeversion="1.2"
       lpesatellites=""
       mode="free"
       discard_orig_path="false"
       fuse_paths="true"
       oposite_fuse="false"
       split_items="false"
       split_open="false"
       link_styles="false" /><linearGradient
       inkscape:collect="always"
       xlink:href="#linearGradient1"
       id="linearGradient2"
       x1="42.173161"
       y1="82.042267"
       x2="42.173161"
       y2="59.202774"
       gradientUnits="userSpaceOnUse" /><linearGradient
       inkscape:collect="always"
       xlink:href="#linearGradient1"
       id="linearGradient5"
       x1="27.703268"
       y1="81.941574"
       x2="27.703268"
       y2="59.257812"
       gradientUnits="userSpaceOnUse" /></defs><g
     inkscape:label="Arc"
     inkscape:groupmode="layer"
     id="layer1"
     transform="translate(-14.972918,-59.428779)"><path
       style="display:inline;fill:#222222;fill-opacity:1;stroke:url(#linearGradient5);stroke-width:0.600001;stroke-linecap:butt;stroke-linejoin:round;stroke-opacity:1"
       d="m 42.363918,59.728779 c -10.054877,0 -16.343465,1.716847 -27.091,7.92194 v 13.968273 c 10.284174,-7.847737 16.322575,-10.26461 27.091,-10.502768 10.768425,0.238158 16.806826,2.655031 27.091,10.502768 V 67.650719 c -10.747535,-6.205093 -17.036123,-7.92194 -27.091,-7.92194 z"
       id="path1"
       sodipodi:nodetypes="cccc"
       inkscape:path-effect="#path-effect1"
       inkscape:original-d="m 42.363918,59.728779 c -10.054877,0 -16.343465,1.716847 -27.091,7.92194 v 13.968273 c 10.284174,-7.847737 16.322575,-10.26461 27.091,-10.502768"
       inkscape:label="background" /><path
       style="font-size:7.05556px;line-height:0;font-family:'DejaVu Sans';-inkscape-font-specification:'DejaVu Sans';text-align:center;letter-spacing:0px;word-spacing:1.02129px;text-orientation:upright;text-anchor:middle;fill:url(#linearGradient2);stroke-width:0.6;stroke-linejoin:round"
       d="m 23.460059,69.979532 q 0.232146,-0.04469 0.537386,0.0672 0.308235,0.110189 0.708351,0.382141 l 1.308311,0.873393 -0.650044,0.369227 -1.223835,-0.822325 q -0.476899,-0.323428 -0.769964,-0.351107 -0.29007,-0.02938 -0.649541,0.174801 l -0.659031,0.374331 1.073649,1.890219 -0.60511,0.343704 -2.540346,-4.472421 1.365991,-0.775886 q 0.766872,-0.435585 1.326378,-0.329446 0.559505,0.106139 0.92703,0.753187 0.239913,0.422379 0.200443,0.813268 -0.03647,0.389188 -0.349668,0.709717 z m -2.582614,-1.017275 0.901797,1.587664 0.760881,-0.432182 q 0.437357,-0.24842 0.54503,-0.575036 0.108967,-0.331313 -0.11393,-0.723736 -0.222897,-0.392422 -0.559866,-0.462519 -0.335675,-0.07479 -0.773031,0.173626 z m 5.579389,-2.691358 0.106963,2.726117 1.747518,-0.723476 z m -0.625117,-0.483206 0.728929,-0.301778 3.778666,4.002526 -0.668449,0.276739 -0.937621,-1.039903 -2.142222,0.886885 0.07182,1.398346 -0.677999,0.280693 z m 4.803186,-1.081862 0.472168,1.874136 0.848539,-0.21378 q 0.47104,-0.118673 0.666833,-0.427352 0.195794,-0.308679 0.08217,-0.759675 -0.112782,-0.447654 -0.431457,-0.626718 -0.318675,-0.179065 -0.789715,-0.06039 z m -0.814537,-0.384543 1.523362,-0.383795 q 0.838517,-0.211255 1.362076,0.06185 0.526058,0.268926 0.71038,1.000541 0.186006,0.738296 -0.149839,1.224369 -0.332503,0.485232 -1.17102,0.696487 l -0.84854,0.21378 0.504993,2.004424 -0.674823,0.170014 z m 5.549869,-0.574968 0.23135,1.918804 0.868763,-0.104747 q 0.482266,-0.05815 0.715527,-0.339585 0.23326,-0.281437 0.177588,-0.743182 -0.05526,-0.458323 -0.34873,-0.676253 -0.293469,-0.21793 -0.775735,-0.159783 z m -0.759363,-0.484471 1.559669,-0.18805 q 0.858502,-0.103509 1.343316,0.233622 0.487822,0.333299 0.578136,1.082351 0.09114,0.755892 -0.303485,1.195587 -0.391202,0.439283 -1.249704,0.542792 l -0.868763,0.104747 0.247434,2.052196 -0.690906,0.0833 z m 4.723093,-0.463199 3.251237,-0.07798 0.01404,0.585498 -2.555528,0.06129 0.03651,1.522295 2.448761,-0.05873 0.01404,0.585499 -2.44876,0.05873 0.04469,1.863262 2.617521,-0.06278 0.01404,0.585498 -3.313231,0.07946 z m 4.850993,-0.04458 0.69498,0.03595 -0.235482,4.551777 2.501241,0.1294 -0.03026,0.584884 -3.196221,-0.165353 z m 4.415816,0.304097 0.688299,0.102638 -0.67223,4.508019 2.477196,0.369396 -0.08638,0.579262 -3.165495,-0.472034 z m 4.331439,0.769157 0.676059,0.165029 -1.219743,4.996813 -0.676059,-0.165029 z m 2.615513,0.66591 0.877345,0.329179 0.623742,4.829856 1.511562,-4.028692 0.632205,0.237203 -1.806856,4.815722 -0.877345,-0.329179 -0.623741,-4.829856 -1.511563,4.028692 -0.632204,-0.237203 z m 6.510262,7.849024 0.670111,-1.208076 -0.994177,-0.551464 0.277403,-0.500101 1.596709,0.885684 -1.071176,1.931114 q -0.491182,0.05453 -0.987825,-0.05155 -0.494971,-0.109093 -0.976997,-0.376469 -1.054431,-0.584886 -1.310032,-1.530347 -0.250919,-0.946802 0.359033,-2.046423 0.611624,-1.102633 1.546022,-1.388009 0.939083,-0.286717 1.993514,0.298169 0.439848,0.243981 0.774347,0.571351 0.337511,0.329041 0.554939,0.725419 l -0.359287,0.647722 q -0.178663,-0.473366 -0.478045,-0.828532 -0.299382,-0.355167 -0.718142,-0.58745 -0.825469,-0.457882 -1.496894,-0.227557 -0.668413,0.231996 -1.174757,1.144832 -0.504673,0.909823 -0.347617,1.599701 0.160069,0.691549 0.985537,1.149431 0.322355,0.178808 0.605498,0.264952 0.284815,0.08313 0.551836,0.0776 z"
       id="header"
       inkscape:label="header"
       aria-label="RAPPELLING" /></g><metadata
     id="metadata1"><rdf:RDF><cc:Work
         rdf:about=""><dc:title>Honor Guard Arc Pin</dc:title></cc:Work></rdf:RDF></metadata></svg>
