<?xml version="1.0" encoding="UTF-8" standalone="no"?>
<!-- Created with Inkscape (http://www.inkscape.org/) -->

<svg
   width="54.782001mm"
   height="22.490183mm"
   viewBox="0 0 54.782001 22.490183"
   version="1.1"
   id="svg1"
   xml:space="preserve"
   inkscape:version="1.3.2 (091e20e, 2023-11-25, custom)"
   sodipodi:docname="rifle_team_arc.svg"
   xmlns:inkscape="http://www.inkscape.org/namespaces/inkscape"
   xmlns:sodipodi="http://sodipodi.sourceforge.net/DTD/sodipodi-0.dtd"
   xmlns:xlink="http://www.w3.org/1999/xlink"
   xmlns="http://www.w3.org/2000/svg"
   xmlns:svg="http://www.w3.org/2000/svg"
   xmlns:rdf="http://www.w3.org/1999/02/22-rdf-syntax-ns#"
   xmlns:cc="http://creativecommons.org/ns#"
   xmlns:dc="http://purl.org/dc/elements/1.1/"><title
     id="title3">Honor Guard Arc Pin</title><sodipodi:namedview
     id="namedview1"
     pagecolor="#505050"
     bordercolor="#eeeeee"
     borderopacity="1"
     inkscape:showpageshadow="0"
     inkscape:pageopacity="0"
     inkscape:pagecheckerboard="0"
     inkscape:deskcolor="#505050"
     inkscape:document-units="mm"
     inkscape:zoom="2.8970538"
     inkscape:cx="119.77686"
     inkscape:cy="81.979838"
     inkscape:window-width="1920"
     inkscape:window-height="1009"
     inkscape:window-x="-8"
     inkscape:window-y="-8"
     inkscape:window-maximized="1"
     inkscape:current-layer="layer1"
     showguides="false" /><defs
     id="defs1"><linearGradient
       id="linearGradient1"
       inkscape:collect="always"><stop
         style="stop-color:#f3efa3;stop-opacity:1;"
         offset="0.31063831"
         id="stop1" /><stop
         style="stop-color:#a7874b;stop-opacity:1;"
         offset="1"
         id="stop2" /></linearGradient><inkscape:path-effect
       effect="mirror_symmetry"
       start_point="42.363918,59.728779"
       end_point="42.363918,81.618992"
       center_point="42.363918,70.673886"
       id="path-effect3"
       is_visible="true"
       lpeversion="1.2"
       lpesatellites=""
       mode="free"
       discard_orig_path="false"
       fuse_paths="false"
       oposite_fuse="false"
       split_items="false"
       split_open="false"
       link_styles="false" /><inkscape:path-effect
       effect="mirror_symmetry"
       start_point="42.363918,59.728779"
       end_point="42.363918,81.618992"
       center_point="42.363918,70.673886"
       id="path-effect1"
       is_visible="true"
       lpeversion="1.2"
       lpesatellites=""
       mode="free"
       discard_orig_path="false"
       fuse_paths="true"
       oposite_fuse="false"
       split_items="false"
       split_open="false"
       link_styles="false" /><linearGradient
       inkscape:collect="always"
       xlink:href="#linearGradient1"
       id="linearGradient2"
       x1="42.173161"
       y1="82.042267"
       x2="42.173161"
       y2="59.202774"
       gradientUnits="userSpaceOnUse" /><linearGradient
       inkscape:collect="always"
       xlink:href="#linearGradient1"
       id="linearGradient5"
       x1="27.703268"
       y1="81.941574"
       x2="27.703268"
       y2="59.257812"
       gradientUnits="userSpaceOnUse" /></defs><g
     inkscape:label="Arc"
     inkscape:groupmode="layer"
     id="layer1"
     transform="translate(-14.972918,-59.428779)"><path
       style="display:inline;fill:#7c4f2e;fill-opacity:1;stroke:url(#linearGradient5);stroke-width:0.600001;stroke-linecap:butt;stroke-linejoin:round;stroke-opacity:1"
       d="m 42.363918,59.728779 c -10.054877,0 -16.343465,1.716847 -27.091,7.92194 v 13.968273 c 10.284174,-7.847737 16.322575,-10.26461 27.091,-10.502768 10.768425,0.238158 16.806826,2.655031 27.091,10.502768 V 67.650719 c -10.747535,-6.205093 -17.036123,-7.92194 -27.091,-7.92194 z"
       id="path1"
       sodipodi:nodetypes="cccc"
       inkscape:path-effect="#path-effect1"
       inkscape:original-d="m 42.363918,59.728779 c -10.054877,0 -16.343465,1.716847 -27.091,7.92194 v 13.968273 c 10.284174,-7.847737 16.322575,-10.26461 27.091,-10.502768"
       inkscape:label="background" /><path
       style="font-size:7.05556px;line-height:0;font-family:'DejaVu Sans';-inkscape-font-specification:'DejaVu Sans';text-align:center;letter-spacing:0.264583px;word-spacing:1.02129px;text-orientation:upright;text-anchor:middle;fill:url(#linearGradient2);stroke-width:0.6;stroke-linejoin:round"
       d="m 22.587894,70.472016 q 0.231364,-0.04859 0.538439,0.05816 0.310043,0.104997 0.714671,0.37019 l 1.322795,0.851295 -0.64375,0.380093 -1.237474,-0.801653 q -0.482265,-0.315372 -0.775754,-0.338124 -0.290522,-0.0245 -0.646513,0.185685 l -0.65265,0.385348 1.105246,1.871919 -0.599251,0.353819 -2.615108,-4.429121 1.352766,-0.798721 q 0.759447,-0.448404 1.320657,-0.351678 0.561209,0.09673 0.939551,0.73751 0.246972,0.41829 0.214074,0.809787 -0.02993,0.389746 -0.337699,0.715491 z m -2.599335,-0.973754 0.928337,1.572293 0.753514,-0.444901 q 0.433122,-0.25573 0.535294,-0.584109 0.103387,-0.333097 -0.12607,-0.72172 -0.229456,-0.388624 -0.567555,-0.45305 -0.336884,-0.06915 -0.770006,0.186586 z m 4.015318,-2.872087 0.627928,-0.299994 2.217284,4.641073 -0.627928,0.299995 z m 2.610453,-1.187329 2.782423,-0.997711 0.197682,0.551296 -2.127354,0.762818 0.511647,1.426884 1.919807,-0.688397 0.197682,0.551296 -1.919808,0.688397 0.8291,2.312201 -0.655069,0.234892 z m 4.790409,-1.538028 0.681149,-0.142567 0.933747,4.461193 2.451464,-0.513102 0.119983,0.573245 -3.132614,0.655669 z m 4.749972,-0.848274 3.240864,-0.270969 0.0488,0.58363 -2.547374,0.212986 0.126873,1.517439 2.440947,-0.204088 0.0488,0.583631 -2.440948,0.204087 0.15529,1.857317 2.609171,-0.218152 0.0488,0.58363 -3.30266,0.276135 z m 8.352745,-0.321348 4.338667,0.329465 -0.04435,0.583986 -1.82066,-0.138256 -0.345117,4.54478 -0.697347,-0.05295 0.345117,-4.54478 -1.82066,-0.138255 z m 5.911003,0.568409 3.18584,0.653494 -0.117685,0.573721 -2.504123,-0.513657 -0.305979,1.491674 2.399504,0.492197 -0.117684,0.573721 -2.399504,-0.492197 -0.374513,1.825783 2.564871,0.526118 -0.117685,0.573721 -3.246586,-0.665954 z m 6.750946,2.534398 -1.785865,2.062484 1.76989,0.666878 z m -0.12579,-0.780022 0.73826,0.278169 0.0208,5.504371 -0.677007,-0.25509 0.02679,-1.399933 -2.169647,-0.817502 -0.903678,1.069531 -0.686679,-0.258734 z m 4.199485,1.775389 0.902773,0.510213 -0.579467,3.693051 2.87089,-2.398026 0.902773,0.510213 -2.530722,4.477873 -0.590852,-0.333926 2.222222,-3.932011 -2.890449,2.41863 -0.608847,-0.344097 0.58103,-3.723825 -2.222222,3.932011 -0.587852,-0.332232 z"
       id="header"
       inkscape:label="header"
       aria-label="RIFLE TEAM" /></g><metadata
     id="metadata1"><rdf:RDF><cc:Work
         rdf:about=""><dc:title>Honor Guard Arc Pin</dc:title></cc:Work></rdf:RDF></metadata></svg>
