<?xml version="1.0" encoding="UTF-8" standalone="no"?>
<!-- Created with Inkscape (http://www.inkscape.org/) -->

<svg
   width="54.782001mm"
   height="22.490183mm"
   viewBox="0 0 54.782001 22.490183"
   version="1.1"
   id="svg1"
   xml:space="preserve"
   inkscape:version="1.3.2 (091e20e, 2023-11-25, custom)"
   sodipodi:docname="staff_arc.svg"
   xmlns:inkscape="http://www.inkscape.org/namespaces/inkscape"
   xmlns:sodipodi="http://sodipodi.sourceforge.net/DTD/sodipodi-0.dtd"
   xmlns:xlink="http://www.w3.org/1999/xlink"
   xmlns="http://www.w3.org/2000/svg"
   xmlns:svg="http://www.w3.org/2000/svg"
   xmlns:rdf="http://www.w3.org/1999/02/22-rdf-syntax-ns#"
   xmlns:cc="http://creativecommons.org/ns#"
   xmlns:dc="http://purl.org/dc/elements/1.1/"><title
     id="title3">Honor Guard Arc Pin</title><sodipodi:namedview
     id="namedview1"
     pagecolor="#505050"
     bordercolor="#eeeeee"
     borderopacity="1"
     inkscape:showpageshadow="0"
     inkscape:pageopacity="0"
     inkscape:pagecheckerboard="0"
     inkscape:deskcolor="#505050"
     inkscape:document-units="mm"
     inkscape:zoom="2.8970538"
     inkscape:cx="96.304736"
     inkscape:cy="53.67522"
     inkscape:window-width="1920"
     inkscape:window-height="1009"
     inkscape:window-x="-8"
     inkscape:window-y="-8"
     inkscape:window-maximized="1"
     inkscape:current-layer="layer1"
     showguides="false" /><defs
     id="defs1"><linearGradient
       id="linearGradient3"
       inkscape:collect="always"><stop
         style="stop-color:#f3efa3;stop-opacity:1;"
         offset="0.31063831"
         id="stop1" /><stop
         style="stop-color:#a7874b;stop-opacity:1;"
         offset="1"
         id="stop2" /></linearGradient><inkscape:path-effect
       effect="mirror_symmetry"
       start_point="42.363918,59.728779"
       end_point="42.363918,81.618992"
       center_point="42.363918,70.673886"
       id="path-effect3"
       is_visible="true"
       lpeversion="1.2"
       lpesatellites=""
       mode="free"
       discard_orig_path="false"
       fuse_paths="false"
       oposite_fuse="false"
       split_items="false"
       split_open="false"
       link_styles="false" /><inkscape:path-effect
       effect="mirror_symmetry"
       start_point="42.363918,59.728779"
       end_point="42.363918,81.618992"
       center_point="42.363918,70.673886"
       id="path-effect1"
       is_visible="true"
       lpeversion="1.2"
       lpesatellites=""
       mode="free"
       discard_orig_path="false"
       fuse_paths="true"
       oposite_fuse="false"
       split_items="false"
       split_open="false"
       link_styles="false" /><linearGradient
       inkscape:collect="always"
       xlink:href="#linearGradient3"
       id="linearGradient2"
       x1="42.173161"
       y1="82.042267"
       x2="42.173161"
       y2="59.202774"
       gradientUnits="userSpaceOnUse" /><linearGradient
       inkscape:collect="always"
       xlink:href="#linearGradient3"
       id="linearGradient5"
       x1="27.703268"
       y1="81.941574"
       x2="27.703268"
       y2="59.257812"
       gradientUnits="userSpaceOnUse" /></defs><g
     inkscape:label="Arc"
     inkscape:groupmode="layer"
     id="layer1"
     transform="translate(-14.972918,-59.428779)"><path
       style="display:inline;fill:#34baf3;fill-opacity:1;stroke:url(#linearGradient5);stroke-width:0.600001;stroke-linecap:butt;stroke-linejoin:round;stroke-opacity:1"
       d="m 42.363918,59.728779 c -10.054877,0 -16.343465,1.716847 -27.091,7.92194 v 13.968273 c 10.284174,-7.847737 16.322575,-10.26461 27.091,-10.502768 10.768425,0.238158 16.806826,2.655031 27.091,10.502768 V 67.650719 c -10.747535,-6.205093 -17.036123,-7.92194 -27.091,-7.92194 z"
       id="path1"
       sodipodi:nodetypes="cccc"
       inkscape:path-effect="#path-effect1"
       inkscape:original-d="m 42.363918,59.728779 c -10.054877,0 -16.343465,1.716847 -27.091,7.92194 v 13.968273 c 10.284174,-7.847737 16.322575,-10.26461 27.091,-10.502768"
       inkscape:label="background" /><path
       style="font-size:8.46667px;line-height:0;font-family:'DejaVu Sans';-inkscape-font-specification:'DejaVu Sans';text-align:center;letter-spacing:1.85208px;word-spacing:1.02129px;text-orientation:upright;text-anchor:middle;fill:url(#linearGradient2);stroke-width:0.6;stroke-linejoin:round"
       d="m 27.437085,64.952682 0.314325,0.75132 q -0.526343,-0.02627 -0.958431,0.0335 -0.432089,0.05977 -0.7944,0.211353 -0.629278,0.263267 -0.870404,0.650951 -0.237313,0.386088 -0.04904,0.836117 0.15796,0.377567 0.464348,0.477933 0.308606,0.09496 0.99116,-0.05168 l 0.505174,-0.09931 q 0.930529,-0.196602 1.512522,0.04838 0.584211,0.239571 0.874603,0.933683 0.346236,0.827596 -0.03188,1.487694 -0.374299,0.658502 -1.445978,1.106854 -0.404263,0.16913 -0.900213,0.269065 -0.492136,0.09834 -1.055295,0.123323 l -0.331876,-0.793271 q 0.579192,0.0669 1.085065,0.01211 0.505874,-0.05479 0.940647,-0.236687 0.659789,-0.276031 0.909788,-0.685353 0.25,-0.409321 0.04896,-0.88986 -0.175511,-0.419519 -0.533775,-0.547477 -0.354449,-0.129553 -0.991237,-0.0021 l -0.507392,0.104722 q -0.93372,0.188976 -1.472088,-0.016 -0.538368,-0.204974 -0.811209,-0.857134 -0.31592,-0.755134 0.03231,-1.41169 0.352039,-0.658152 1.286421,-1.049064 0.400449,-0.167534 0.84647,-0.268988 0.44602,-0.101454 0.941425,-0.138423 z m 3.752286,-1.373113 5.136607,-0.937102 0.126135,0.691388 -2.155505,0.393242 0.98162,5.380627 -0.825599,0.150619 -0.98162,-5.380627 -2.155504,0.393241 z m 10.237338,-0.303313 -1.085597,3.088627 2.269364,-0.03474 z m -0.483827,-0.815379 0.946602,-0.01449 2.446515,6.135505 -0.868063,0.01329 -0.58641,-1.574575 -2.781935,0.04259 -0.537937,1.591787 -0.880464,0.01348 z m 6.988919,0.209817 3.513946,0.483634 -0.09582,0.696236 -2.686654,-0.369771 -0.248017,1.802024 2.424541,0.333695 -0.09582,0.696237 -2.424541,-0.333696 -0.4019,2.920097 -0.827293,-0.113862 z m 7.855317,1.567775 3.335969,1.205417 -0.238835,0.660972 -2.550578,-0.921623 -0.618162,1.710753 2.301741,0.831709 -0.238836,0.660973 -2.301741,-0.831709 -1.001703,2.772198 -0.785392,-0.283793 z"
       id="header"
       inkscape:label="header"
       aria-label="STAFF" /></g><metadata
     id="metadata1"><rdf:RDF><cc:Work
         rdf:about=""><dc:title>Honor Guard Arc Pin</dc:title></cc:Work></rdf:RDF></metadata></svg>
