<?xml version="1.0" encoding="UTF-8" standalone="no"?>
<svg
   width="300"
   height="255"
   version="1.0"
   viewBox="0 0 630 472"
   id="svg13"
   sodipodi:docname="gold_oak_leaf.svg"
   inkscape:version="1.3.2 (091e20e, 2023-11-25, custom)"
   xmlns:inkscape="http://www.inkscape.org/namespaces/inkscape"
   xmlns:sodipodi="http://sodipodi.sourceforge.net/DTD/sodipodi-0.dtd"
   xmlns:xlink="http://www.w3.org/1999/xlink"
   xmlns="http://www.w3.org/2000/svg"
   xmlns:svg="http://www.w3.org/2000/svg">
  <sodipodi:namedview
     id="namedview13"
     pagecolor="#505050"
     bordercolor="#eeeeee"
     borderopacity="1"
     inkscape:showpageshadow="0"
     inkscape:pageopacity="0"
     inkscape:pagecheckerboard="0"
     inkscape:deskcolor="#505050"
     inkscape:zoom="2.0388246"
     inkscape:cx="144.93645"
     inkscape:cy="149.84124"
     inkscape:window-width="1920"
     inkscape:window-height="1009"
     inkscape:window-x="-8"
     inkscape:window-y="-8"
     inkscape:window-maximized="1"
     inkscape:current-layer="svg13" />
  <defs
     id="defs3">
    <linearGradient
       id="a">
      <stop
         offset="0"
         stop-color="#decd87"
         stop-opacity="0"
         id="stop1"
         style="stop-color:#dab85e;stop-opacity:0;" />
      <stop
         offset="0.5"
         stop-color="#decd87"
         id="stop2"
         style="stop-color:#dab85e;stop-opacity:1;" />
      <stop
         offset="1"
         stop-color="#decd87"
         stop-opacity="0"
         id="stop3"
         style="stop-color:#dab85e;stop-opacity:0;" />
    </linearGradient>
    <linearGradient
       xlink:href="#a"
       id="b"
       x1="56.189"
       x2="408.83"
       y1="16.215"
       y2="547.12"
       gradientUnits="userSpaceOnUse" />
  </defs>
  <path
     fill="#b39c28"
     d="m 400.2,-19.124 c 17.6,-12.243 42.1,-11.069 59.89,0.125 13.09,10.344 16.72,28.081 28.71,39.372 10.85,10.107 18.9,24.011 32.96,30.14 15.56,6.041 31.49,-5.141 47.16,0 27.45,6.594 46.35,32.545 52.01,59.197 1.97,10.35 7.65,20.67 4.93,31.4 -3.55,13.29 -8.41,26.17 -13.11,39.07 -3.64,10.77 4.43,20.53 6.4,30.78 5.12,25.61 2.6,54.14 -13.22,75.71 -7.05,7.91 -15.99,13.8 -24.19,20.41 -6.91,5.69 -16.2,5.88 -24.61,7.24 -1.64,14.32 2.34,30.67 -6.77,43.12 -8.73,9.23 -21.37,14.12 -33.73,16.04 -19.91,1.3 -40.08,0.88 -59.67,-3.26 -2.56,6.36 -3.61,14 -9.29,18.54 -15.49,13.67 -35.54,25.47 -57,22 -13.86,-0.98 -20.9,-14.73 -32.24,-20.69 -11.65,-3.47 -18.67,8.38 -26.48,14.6 -12.74,12.21 -33.15,10.36 -47.59,2.25 -20.88,-11.07 -43.16,-19.33 -63.61,-31.19 -6.35,-3.11 -13.67,-1.55 -20.45,-1.59 -3.83,11.17 -7.74,22.37 -9.43,34.11 -2.34,15.14 -15.99,24.39 -26.85,33.58 -6.42,6.29 -16.63,1.9 -22.89,-2.51 -11.52,-12.11 -16.91,-28.53 -26.98,-41.67 -3,-4.15 -8.72,-1.15 -12.67,-0.35 -19.238,5.03 -30.791,22.8 -40.406,38.84 -11.834,17 -19.707,36.28 -29.635,54.37 -2.633,3.84 -6.269,6.83 -9.554,10.09 -7.043,-12.65 -9.374,-27.12 -14.077,-40.67 -1.5918,-10.51 -8.0313,-21.81 -2.3742,-32.1 5.7596,-11.52 10.937,-23.58 18.849,-33.82 5.537,-5.75 10.983,-11.68 14.192,-19.1 -5.254,-4.8 -11.271,-8.99 -15.358,-14.89 -4.923,-9.86 -4.559,-21.28 -7.927,-31.63 -2.172,-7.86 -6.9711,-14.79 -8.4486,-22.86 -2.3161,-12.64 -2.6906,-26.01 1.208,-38.37 5.7596,-11.77 20.589,-17.15 33.022,-14.63 9.14,2.12 17.861,5.71 26.952,8.04 2.303,-15.16 -2.204,-31.05 3.587,-45.74 5.777,-9.81 15.227,-17.2 25.542,-21.76 13.119,-4.81 25.499,3.74 36.869,9.2 6.41,-12.21 19.14,-20.51 21.95,-34.57 6.62,-17.88 11.74,-36.42 19.81,-53.69 9.3,-11.66 19.25,-25.034 34.57,-28.695 10.21,-2.935 20.74,-0.158 31.05,0.531 6.39,0.906 13.39,-3.049 15.42,-9.26 3.73,-8.918 7.47,-17.993 13.66,-25.542 6.51,-8.22 11.15,-18.479 20.12,-24.381 8.79,-3.899 17.51,-8.153 26.66,-11.177 13.92,-1.546 27.9,3.814 41.8,0.976 8.5,-1.982 16.2,-6.4758 23.2,-11.565 8.36,-6.0616 10.51,-17.208 18.04,-24.021 z"
     id="path3"
     style="display:inline;fill:#b38028;fill-opacity:1" />
  <path
     fill="url(#b)"
     stroke="#b39c28"
     stroke-miterlimit="10"
     stroke-width=".55224"
     d="M426.59-20.897C408.74-23.09 399.03-5.632 394.38 8.83c-3.45 15.887-10.63 35.06-26.83 40.465-16.36-5.202-25.28-25.197-44.08-24.953-20.13-.803-39.31 12.688-46.08 31.539-7.95 15.393-16.58 31.585-31.47 41.347-11.79-.586-23.7-7.728-35.31-1.757-16.75 3.598-25.49 18.949-31.91 33.349-13.05 23.22-13.99 52.23-33.31 72.04-12.96 8.97 1.81 25.6 1.7 39.18 8.37 11.46 9.49 25.55 8.66 39.3 14.77-14.62 22.56-34.63 31.14-53.15 9.39-27.43 16.63-56.78 36.78-78.75 9.02-13.53 33.53-9.61 35.44 7.67 18.42 6.57 19.15-15.37 24.51-27.32 7.36-24.06 23.12-45.285 42.76-60.748 13.47-12.609 38.09-5.227 41.94 12.942 1.18 12.469 4.79 25.276 17.84 12.363 14.09-13.442 22.63-31.639 37.01-44.948 8.77-11.302 19.73-20.882 33.69-25.013 15.56-1.881 19.69-15.276 8.24-25.927-8.15-13.582-23.38-18.532-38.51-17.356z"
     id="path4"
     style="stroke:#b38528;stroke-opacity:1" />
  <path
     fill="url(#b)"
     stroke="#b39c28"
     stroke-miterlimit="10"
     stroke-width=".5522415"
     d="M383.6 13.95c-8.94 10.192-22.37 11.768-35.11 12.403 5.9 7.761 16.56 15.499 26.45 10.5 4.69-6.804 6.2-15.155 8.66-22.903z"
     id="path5"
     style="stroke:#b38528;stroke-opacity:1" />
  <path
     fill="url(#b)"
     stroke="#b39c28"
     stroke-miterlimit="10"
     stroke-width=".55224"
     d="M476.86 24.581c-21.64 1.053-39.25 15.737-52.22 31.845-17.03 14.313-23.35 40.001-44.71 48.674-24.16 3.67-10.16-33.826-33.35-37.508-22.25 3.802-38.65 26.137-49.41 46.208-10.48 15.31-8.39 40.28-27.23 48.59-16.33 4.71-25.76-22.18-43.08-7.11-14.43 18.07-22.11 41.88-30.28 63.7-8.26 30-23.92 58.22-48.39 77.91-6.83 8.48 18.31-6.27 22.04-11.95 19.62-18.22 30.52-42.95 43.24-65.93 9.78-18.17 12.01-45.87 34.49-53.15 4.24 6.46-5.69 27.15-8.63 38.68-2.04 11-20.48 39.66 2.37 25.66 17.75-15.66 34.25-34.38 44.11-56.28 10.37-20.15 20.42-40.93 34.38-58.86 8.03-9.07 38.22-13.16 18.45 1.92-8.22 15.12-9.85 33.21-15.22 49.62 9.09 3.08 30.01-12.01 44.02-14.52 17.59-10.21 35.5-20.51 47.06-37.89 18.32-18.127 30.31-45.288 56.71-53.45-9.35 21.552-19.74 43.3-31.52 64.03-6.55 9.56-11.99 18.72 3.49 12.05 31.47-7.34 63.91-8.41 95.85-11.68 10.1-6.09 45.12-19.14 27.55.3-23.29 8.43-46.16 18.17-68.79 28.01-18.44 5.1-37.15 9.14-55.78 13.47 18.75 9.32 35.3 23.78 56.72 27.37 13.62-2.7 24.77 12.12 6.49 13.06-32.91 8.07-64.51-8.77-94.33-20.27-27.98-8.92-56.19 4.38-80.12 18.04 22.88 5.67 41.69 22.15 65.12 24.61 11.87 11.17-20.72 11.73-30.29 11.75-27.11-.67-54.72-13.75-81.29-2.3-14.23 4.94-38.11 20.17-40.65 28.4 20.93 2.77 42.46 2.14 62.11-6.36-9.66 24.76-40.29 28.25-62.42 36.34-24.18 5.83-47.16 15.62-69.94 25.48 25.34-2.82 48.33 13.33 73.8 8.31 25.57 1.92-5.21-37.97 20.37-38.17 17.57 4.55 34.48 19.5 53.36 9.35 23.45-2.09 23.03-26.56 11.87-41.57 20.16-13.64 32.81 11.53 47.48 20.6 20.22 8.89 52.49-1.68 56.53-24.86-2.49-16.12-1.31-34.04 20.09-30.45 18.54 6.04 33.91 22.88 55.57 15.99 16.51-2.29 43.46-23.59 19.3-34.76 4.71-28.55 33.91-9.1 52.99-15.28 23.64-2.33 28.9-28.19 33.34-47.09 3.56-21.71-3.63-44.73-15.93-62.59-12.41-13.736-28.65-30.852-49.13-26.162-12.34 11.133-23.21 35.858-44.34 23.695-15.84-9.716-6.18-32.021-15.4-46.063-2.78-6.586-9.59-9.68-16.45-9.409z"
     id="path6"
     style="stroke:#b38528;stroke-opacity:1" />
  <path
     fill="url(#b)"
     stroke="#b39c28"
     stroke-miterlimit="10"
     stroke-width=".5522415"
     d="M509.08 53.39c.8 8.416 2.88 16.631 6.36 24.347 10.76-1.326 16.83-10.732 23.5-18.112-9.98-2.021-19.9-4.204-29.86-6.235z"
     id="path7"
     style="stroke:#b38528;stroke-opacity:1" />
  <path
     fill="url(#b)"
     stroke="#b39c28"
     stroke-miterlimit="10"
     stroke-width=".55224"
     d="M451.98 81.478c-17.13 17.397-30.07 38.792-48.59 55.142-21.24 23.41-54.12 27.55-80.93 41.81-22.13 10.04 0-26.62-.7-38.35 3.79-31.71-17.38 12.97-22.1 24.06-12.13 18.96-19.07 41.79-37.61 55.92-8.39 12.17-30.71 29.69-41.38 23.16 2.28-9.24 11.21-37.81 5.33-34.3-11.53 26.79-26.12 52.53-44.39 75.32-16.92 17.26-38.17 30.35-62.38 33.92-24.004 2.43-12.15 38.42-34.395 47.46-19.684 11.35-45.13 14.67-56.89 36.98-9.583 14.58-21.977 31.8-14.354 49.97 3.996 10.81 7.963 45.08 19.227 20.85 14.083-25.24 25.464-52.66 47.396-72.5 12.074-15.81 44.656-3.3 34.916-31.16-4.37-25.47 20.08-44.27 43.02-46.97 21.53-7.62 39.69-23.23 62.75-27.21 19.21-7.28 41.54-7.06 58.29-19.98-16.87-4.11-50.72 3.78-56.69-6.48 17.89-12.27 35.31-26.52 55.61-35.16 29.66-12.58 62.26-1.26 93.09-1.28-16.2-11.93-42.16-19.11-55.81-23.29 8.55-13.87 26.52-20.87 41.9-25.21 18.43-4.88 37.88-10.44 56.5-2.63 23.58 2.75 43.8 21.13 67.99 18.18-14.44-15.41-52.85-21.78-53.9-38.79 23.52-4.88 48.49-4.89 69.44-18.26 9.29-4.05 27.38-7.19 7.41-5.34-21.8 3.03-44.75.21-65.73 7.4-9.44 5.23-35.66 18.49-25.27-1.47 22.29-13.64 27.32-40.02 38.25-61.792z"
     id="path8"
     style="stroke:#b38528;stroke-opacity:1" />
  <path
     fill="url(#b)"
     stroke="#b39c28"
     stroke-miterlimit="10"
     stroke-width=".55224"
     d="M604.89 192.78c-17.4 11.59-7.74 36.82-21.19 51.88-11.65 22.18-38.27 28.24-61.3 27-11.07 2.33-35.29-8.15-31.28 10.44.74 17.07-10.87 33.37-28.15 36.08-23.91 8.97-48.88-.62-73.13-2.12.85 14.51.22 29.7-18.19 29.58-25.99 5.46-52.04-2.71-77.23-8.45 6.23 14.95 5.45 27.89-12.65 30.6-21.34 7.42-42.86-4.67-64.41-5.02-11.84-1.33-15.46 1.41-2.1 4.73 15.15 3.95 30.19 8.44 42.54 18.58 20.09 8.2 40.97 22.16 63.64 15.71 13.78-4.56 23.71-24.01 40.17-16.67 12.79 7.01 23.97 20.02 40.15 17.34 19.56-1.28 40.05-11.14 47.49-30.39 3.9-19.41 23.78-4.85 36.99-5.94 18 2.31 36.71-.25 53.34-7.45 19.77-12.35 1.15-38.83 17.15-53.74 8.87-6.85 25.48-2.73 34.51-12.95 26.72-20.99 30.86-61.54 18.17-91.36-1.28-2.73-2.82-5.45-4.52-7.85zm-498.16 8.14c-10.206 0-20.84 4.96-25.868 14.14-6.901 11.73-7.189 26.19-4.225 39.17-.05 4.23 5.325 2.83 8.182 3.88 12.124 1.81 24.711 1.99 36.631-1.14 8.1-2.89 13.34-10.55 16.39-18.25 1.43-8.03-.18-16.44-3.63-23.74-5.84-9.16-16.79-14.18-27.48-14.06z"
     id="path9"
     style="stroke:#b38528;stroke-opacity:1" />
  <path
     fill="url(#b)"
     stroke="#b39c28"
     stroke-miterlimit="10"
     stroke-width=".55224"
     d="M540.71 200.98c11.41 13.81 10.1 33.05-8.14 40.29-14.76 10.39-36.21 19.79-52.01 5.95-8.44-7.88-35.94-25.56-36.23-5.48.87 13.34-.36 28.14-11.25 37.47-11.94 10.93-29.87 12.2-45.28 11.22-18.91-1.6-28.47-20.08-44.01-28.46-1.27 6.82 9.54 30.1-4.08 39.78-13.17 13.22-35.67 17.06-52.52 9.26-7.75-5.32-31.33-19.89-21.41-.39 7.51 13.82-6.11 27.21-19.5 28.3-20.98 2.49-41.11-7.57-62.11-7.18 9.25 12.56 14.65 30.39 33.59 25.24 24.2 2.02 49.14 8.38 73.05 1.01-5.25-12.74-6.19-32.55 12.64-26.31 19.41 1.43 37.48 12.41 57.41 9.53 13.43-.28 23.99-7.16 18.07-21.5 5.43-15.28 27.44-7.29 39.83-5.82 20.24 4.54 43.53 2.84 58.7-12.91 13.3-8.85-2.54-34.73 16.85-37.12 24.14-2.89 50.7 3.22 72.77-9.29 15.08-13.16 18.87-33.98 21.4-52.84-15.92.62-31.91-.49-47.77-.75zM142.1 248.43c-7.59 11.49-21.29 16.88-34.4 18.97-7.5 1.59-15.298 1.02-22.619-1.16-4.871-1.33-9.619-3.07-14.444-4.56 3.697 8.17 6.919 17.11 14.127 22.94 5.101 4.44 11.294 8.45 13.448 15.24 2.128 5.17 3.508 10.6 5.238 15.9 10.44-2.35 21.87-4.55 29.57-12.64 8.86-9.05 14.34-21.09 16.55-33.48.81-7.85-4.39-14.46-7.47-21.21zm-106.769 9.78c-5.438.13-11.497.82-15.463 4.96-6.241 6.29-7.849 15.64-7.883 24.17 0 14.4 3.681 29.37 13.043 40.63 3.883 2.51 8.381-.1 11.928-1.94 9.353-5.29 19.347-10.47 25.962-19.23 3.856-5.31 5.828-11.72 7.445-18.01 1.443-6.23 1.476-13.84-3.56-18.53-8.775-7.26-19.972-12.08-31.472-12.05z"
     id="path10"
     style="stroke:#b38528;stroke-opacity:1" />
  <path
     fill="url(#b)"
     stroke="#b39c28"
     stroke-miterlimit="10"
     stroke-width=".5522415"
     d="M79.431 287.54c-6.513 12.51-10.772 26.94-22.706 35.63-8.109 8.55-19.97 10.77-31.041 12.8-1.39 12.89 7.121 24.26 16.209 32.42 6.694 5.82 16.224 2.78 23.494-.2 16.51-6.84 31.464-21.14 33.666-39.57.21-15.88-8.614-30.26-19.622-41.08z"
     id="path11"
     style="stroke:#b38528;stroke-opacity:1" />
  <path
     fill="url(#b)"
     stroke="#b39c28"
     stroke-miterlimit="10"
     stroke-width=".55224"
     d="M152.67 332.03c-9.54.26-19.09 5.48-23.36 14.21-4.3 8.39-4.93 17.98-5.84 27.2 11.71-3.31 23.61-8.11 36.02-6.56 11.37 1.5 22.05 5.86 32.95 9.19.71-8.8 1.7-18.27-2.44-26.42-2.59-5.19-7.94-7.92-12.66-10.83-7.49-4.19-15.99-7.11-24.67-6.79z"
     id="path12"
     style="stroke:#b38528;stroke-opacity:1" />
  <path
     fill="url(#b)"
     stroke="#b39c28"
     stroke-miterlimit="10"
     stroke-width=".55224"
     d="M150.37 373.57c-4.47.21-9.01.56-13.33 1.74-6.24 3.12-12.02 8.94-12.45 16.23 0 4.43 1.9 8.62 3.17 12.82 4.1 11.44 10.59 22.47 20.39 29.91 4.1 2.76 9.62 2.37 13.68-.27 5.9-3.65 10.34-9.14 15.92-13.23 6.76-6.21 8.44-15.73 9.89-24.37 1.75-6.36-1.81-12.91-6.88-16.63-4.35-3.57-9.98-4.75-15.42-5.37-4.96-.67-9.97-.99-14.97-.83z"
     id="path13"
     style="stroke:#b38528;stroke-opacity:1" />
</svg>
