<?xml version="1.0" encoding="UTF-8" standalone="no"?>
<svg xmlns="http://www.w3.org/2000/svg" xmlns:xlink="http://www.w3.org/1999/xlink" width="296.87479" height="251.64624" version="1.0" viewBox="0 0 623.43705 465.79226">
  <defs>
    <linearGradient id="a">
      <stop offset="0" stop-color="#72372b" stop-opacity="0"/>
      <stop offset=".5" stop-color="#a0573b"/>
      <stop offset="1" stop-color="#8b3c2d" stop-opacity="0"/>
    </linearGradient>
    <linearGradient xlink:href="#a" id="b" x1="56.188984" x2="408.83392" y1="16.215467" y2="547.12457" gradientUnits="userSpaceOnUse"/>
  </defs>
  <path fill="#622e1c" d="M397.05475-23.016639c17.59244-12.243347 42.09311-11.069203 59.8811.124676 13.08978 10.344381 16.72151 28.0808035 28.71367 39.372331 10.85391 10.107223 18.90036 24.01064 32.95803 30.139472 15.5588 6.041335 31.49005-5.140627 47.16456.00003 27.45114 6.594129 46.34743 32.545458 52.00751 59.1935 1.97471 10.34932 7.65293 20.67587 4.93377 31.40742-3.54957 13.2878-8.41297 26.16313-13.11336 39.06877-3.64196 10.7711 4.42545 20.52656 6.39863 30.77632 5.12273 25.61301 2.59985 54.14469-13.22336 75.70902-7.04159 7.91062-15.98466 13.80194-24.18498 20.41468-6.90731 5.68848-16.20116 5.87872-24.61293 7.23963-1.63622 14.3226 2.34466 30.66489-6.76572 43.11928-8.72981 9.22369-21.37403 14.1185-33.72721 16.04052-19.91893 1.29366-40.08453.88206-59.67348-3.26557-2.55972 6.36753-3.61053 14.00025-9.29262 18.53967-15.48478 13.67-35.53822 25.47285-57.00056 22.00485-13.85332-.9782-20.89392-14.73435-32.23875-20.69167-11.65038-3.46926-18.67234 8.38452-26.47752 14.60326-12.74531 12.21193-33.15505 10.35627-47.5877 2.25134-20.88713-11.07736-43.1628-19.33558-63.61783-31.19455-6.34233-3.1098-13.66327-1.55291-20.44487-1.58798-3.82948 11.17095-7.74017 22.36468-9.42837 34.11182-2.34466 15.13789-15.99148 24.38575-26.85179 33.58054-6.41982 6.28625-16.63351 1.89775-22.8864-2.51603-11.52385-12.109-16.91443-28.52628-26.98466-41.67057-3.00013-4.14923-8.72424-1.14446-12.66902-.34428-19.238387 5.02356-30.79153 22.79982-40.406609 38.83601-11.834713 17.00063-19.707466 36.2782-29.635091 54.37547-2.633492 3.83477-6.269422 6.82418-9.554168 10.08577-7.04338-12.65188-9.374078-27.11808-14.0773719-40.66896-1.5918126-10.51287-8.0313723-21.8077-2.3741969-32.10475C8.04263 412.41423 13.220418 400.35903 21.132374 390.11311c5.536594-5.74254 10.982506-11.67703 14.191692-19.09585-5.254428-4.7963-11.270613-8.989-15.358126-14.89025-4.922542-9.8604-4.558877-21.27513-7.927086-31.62572-2.171436-7.86686-6.970991-14.79157-8.4484844-22.86629-2.3160931-12.64044-2.6905523-26.01078 1.2080442-38.37066 5.7595372-11.76951 20.5885582-17.14736 33.0217522-14.6278 9.140226 2.12169 17.860927 5.71136 26.951678 8.04384 2.303533-15.16074-2.203981-31.04995 3.587216-45.74463 5.777154-9.81102 15.226714-17.19877 25.54232-21.76171 13.11627-4.80605 25.50347 3.74138 36.86522 9.20379 6.40866-12.20896 19.14316-20.51372 21.95329-34.57255 6.6233-17.87491 11.73961-36.41429 19.81179-53.68885 9.3025-11.656706 19.25284-25.033382 34.56545-28.694192 10.20908-2.934927 20.74277-.157788 31.05215.53036 6.38778.906493 13.38838-3.048928 15.4219-9.259412 3.73083-8.91767 7.46422-17.993049 13.65731-25.541796 6.50701-8.220175 11.15221-18.479322 20.11664-24.381415 8.79711-3.89904 17.51713-8.152712 26.66353-11.176554 13.92488-1.546824 27.89754 3.813885 41.80559.975702 8.4971-1.982354 16.19379-6.4758435 23.19235-11.5652504 8.36034-6.0615873 10.50865-17.2076296 18.04815-24.0205116z"/>
  <path fill="url(#b)" stroke="#7c381c" stroke-miterlimit="10" stroke-width=".5522415" d="M423.43721-24.789957c-6.905.01003-13.71 1.10032-18.9 5.840625-8.9693 10.0100113-13.6387 23.0321194-16.8 35.896875-.5552 3.071029-1.6042 5.950032-2.9531 8.6625-.3373.678116-.672 1.377558-1.05 2.034375-4.1587 7.224982-10.7149 13.14256-17.2594 18.1125-11.2909-1.300012-18.2524-12.377319-27.3656-18.24375-17.988-14.489134-44.9147-4.946662-58.0125 11.55-10.7572 19.178712-19.1859 41.680029-38.325 54.27188-9.9301.03118-19.4017-6.211369-29.4-3.54375-10.40693 2.89137-21.76713 7.040416-27.75942 16.668742-9.26175 16.20563-18.18428 32.82296-22.77187 51.05625-4.64672 17.93283-14.11799 34.39684-27.89063 46.85625 7.77027 11.74516 4.31949 27.11621 12.53438 38.5875 6.65645 9.50657 4.73592 21.57368 5.11875 32.48437 13.35579-12.16618 19.13692-29.59874 27.89062-44.8875 6.19292-14.5324 9.85631-30.02655 15.75-44.69062 5.13874-16.78764 15.11947-31.55529 26.38127-44.82188 4.8433-6.33371 13.7648-5.54896 20.8031-4.725 6.9369.29462 9.0736 7.08905 11.4844 12.6.3444.78728.6799 1.58477 1.05 2.29688 4.491.14538 9.0186.22321 13.5187.32812 10.0801-18.63485 12.4377-40.82821 25.5938-57.815612 9.19-12.860265 19.2671-25.811651 33.2062-33.79688 9.2269-5.630989 21.8135-3.296265 29.6625 3.675 8.1423 8.12868 9.0693 20.183702 10.8938 30.90938 14.8701-1.3398 22.8058-15.492932 30.7781-26.31563 8.5633-13.033716 20.0244-23.768181 30.1875-35.503125 7.2813-8.337252 17.7528-11.533361 27.6281-15.75 1.6459-.702774 3.2601-1.446174 4.8563-2.23125 1.5962-.785077 3.1476-1.635777 4.6594-2.559375 4.5511-1.929685 1.9104-7.2338156.525-10.3687506-6.3154-12.4521074-16.7675-25.3375334-31.8938-25.9874994-3.8713-.191756-7.9976-.596644-12.1406-.590625zm-42.9844 34.846875c-8.9392 10.192646-22.3776 11.767815-35.1094 12.403125 5.896 7.760604 16.5598 15.49923 26.4469 10.5 4.6875-6.804358 6.1995-15.154856 8.6625-22.903125zm93.2531 10.63125c-1.9718.0013-3.8845.201872-5.7093.525-16.5239 3.542027-31.8266 12.624133-41.6063 26.578125-13.4811 12.305094-23.483 27.467871-33.9281 42.262505-3.0248 4.30824-8.1135 8.505116-13.5844 10.499992-.6839.24936-1.4085.47993-2.1.65625-4.8403 1.23423-9.7705.53917-13.65-3.412496-2.5019-7.486866-2.5172-15.594982-5.5781-22.903126-3.9893-5.752472-10.6281-8.769813-16.275-12.6-9.3953 6.497463-20.1357 11.177789-28.6781 18.834375-5.9947 7.440115-9.8784 16.288841-15.4875 24.018747-9.0078 12.33752-11.3967 27.80581-17.7844 41.40937-.4259.90691-.8476 1.80159-1.3125 2.69063-2.1902 4.59891-6.4327 7.81034-11.2219 9.25312-1.5964.48093-3.2605.7747-4.9219.85313-.5312.083-1.012.12718-1.5093.13125-.4973.004-.977-.0643-1.4438-.13125-6.5349-.93751-10.2554-8.46763-15.8156-11.74688-7.4792-.88044-15.642.86586-21.7875 5.31563-6.73 8.24899-9.2199 18.96029-14.2406 28.21875-9.29007 17.15964-13.87817 36.54492-20.86879 54.73125-.69907 1.81864-1.47813 3.58921-2.23125 5.38125-3.76562 8.96017-8.26972 17.53871-14.4375 25.33125-7.10348 12.04831-18.7853 19.99865-28.0875 30.12187 1.18475-.32894 2.34156-.70616 3.47812-1.11562 17.04841-6.14202 28.83225-20.99469 39.6375-34.9125.91837-1.22338 1.79113-2.46662 2.625-3.74063.83387-1.274 1.65764-2.55979 2.42813-3.87187 4.62294-7.87252 8.2544-16.35846 13.25625-24.01875 11.51174-17.7942 15.45884-39.36445 27.16874-57.02813 3.809-6.11505 10.7871-8.57667 17.1938-10.95937-4.317 24.08328-14.0132 46.67833-21.5907 69.825 1.7145-.53036 3.4977-1.02617 5.25-1.575 5.2569-1.64649 10.4552-3.70772 14.1094-8.00625 7.4736-8.2471 14.6567-16.70151 21.9188-25.13438 11.9418-13.91479 17.2026-31.85337 26.6437-47.31562 6.8835-11.51474 12.6627-23.71596 20.6719-34.51875 6.8346-9.26951 18.9961-11.95462 29.925-11.22188-5.6511 6.55826-12.7921 12.76395-14.0438 21.85313-2.5284 13.68825-7.7394 26.63548-10.3687 40.29375 1.5985-.42836 3.1683-.90671 4.725-1.44375 3.1134-1.07408 6.1024-2.29126 9.1219-3.60938 1.5097-.65905 3.0235-1.36198 4.5281-2.03437 6.0183-2.68956 12.0809-5.39036 18.5062-7.02188 10.8284-2.74991 18.8122-11.00813 28.6125-15.88125 13.8151-6.62581 20.9637-20.97663 31.9594-30.975 1.8511-2.20156 3.7051-4.506646 5.5125-6.824996 1.8074-2.318346 3.5667-4.666546 5.3813-7.021866 4.5364-5.888309 9.2335-11.750463 14.3718-16.99688 1.0277-1.049284 2.0792-2.090697 3.15-3.084375 6.425-5.962066 13.6633-10.815559 22.4438-13.51875-1.0934 11.835432-11.2426 19.537305-14.7656 30.45-5.6736 17.439907-16.7537 32.330367-25.2 48.431247 2.0397-.50898 4.122-1.03596 6.1687-1.50938 30.7008-7.1012 62.1402-10.26154 93.5813-11.74687 14.8857-.17688 26.0318-12.57768 40.95-12.79688-.3115 3.40734-.6101 6.76114-.9844 10.17188-23.3649 9.08845-47.0907 17.38432-69.4969 28.67812-19.5927 5.57778-39.6016 9.89421-59.4562 14.50313 8.8943 2.9655 15.9518 9.20947 23.625 14.30625 15.1764 8.21704 31.7468 14.47754 49.1531 15.35625.2303 2.83352.349 5.67521.3937 8.53125-6.6084 1.46253-13.2798 3.1577-20.0156 4.00312-1.3471.16909-2.7156.29946-4.0687.39375-2.7064.18859-5.4054.2108-8.1375 0-11.1527-.89298-21.9537-3.95962-32.6813-6.95625-18.1458-4.89882-34.036-17.07419-53.2875-17.98125-7.4912-.78647-14.8191-.13496-21.9187 1.44375-1.42.31575-2.795.66248-4.2 1.05-2.8102.77505-5.6478 1.67412-8.4 2.69063-1.3762.50825-2.7067 1.08342-4.0688 1.64062-9.5346 3.90043-18.7299 8.90803-27.6281 13.71563 1.6727.83458 3.3909 1.58907 5.1187 2.29687 1.7278.7078 3.4878 1.34157 5.25 1.96875 10.5737 3.76309 21.559 6.51312 30.7782 13.19063 7.8881 6.10848 18.0344 6.59364 27.5625 7.48125-.0952 1.77091-.2331 5.31665-.3282 7.0875-3.2374.85707-6.5526 1.59226-9.8437 2.23125-1.6456.31949-3.2661.59837-4.9219.85312-8.2788 1.27376-16.6987 1.70865-25.0687.85313-22.5783-1.25967-45.3019-11.56302-67.7907-3.9375-19.7334 4.4084-35.6102 17.36899-50.5968 30.1875 7.2634.6758 14.5545 1.38163 21.8531 1.64062 1.4597.0518 2.9366.11865 4.3969.13125 2.9205.0252 5.8725-.0859 8.7937-.2625 10.3778-.51223 19.9543-4.70847 29.7938-7.6125-2.2673 11.30682-13.4997 16.84742-22.3125 22.64063-19.1005 7.55013-38.758 13.79479-58.7344 18.6375-17.18222 6.62982-34.58147 12.81418-51.31877 20.54062 11.93892-.428 24.04357.33111 35.30625 4.65938 9.48982 3.5273 19.46122 4.45603 29.46562 4.2 2.0009-.0512 4.0385-.19438 6.0375-.32813 3.9981-.26752 7.9978-.65545 11.9438-1.11562 3.4696-7.51559 2.3729-15.55628.1968-23.23125-2.5073-6.71408 4.0885-15.29964 11.2219-14.04375 14.579 2.3373 26.6757 15.54865 42.1969 12.27187 9.7752-2.40975 20.4058-4.78838 28.2187-11.48437 3.4765-4.66811 3.6657-9.56519 2.4282-14.50313-.1768-.70541-.3625-1.39526-.5907-2.1-1.8252-5.63791-5.1364-11.25747-7.0218-16.40625 5.3511-1.98395 11.0574-6.02561 16.9312-3.4125 13.5099 4.72469 20.091 19.36251 32.8781 25.2 19.0188 6.17673 40.944-2.1669 52.6969-17.91562.7942-2.6753 1.2793-5.39129 1.5094-8.1375.115-1.37311.1784-2.75033.1969-4.13438.0922-6.92021-.8183-13.94946-.9188-20.80312 6.5412-2.96331 13.3441-6.75362 20.8031-5.5125 2.062.20487 3.9929.69342 5.8407 1.37812.6159.22823 1.2398.45257 1.8375.72188 7.1713 3.23169 13.0965 9.25085 20.2125 12.66562 5.4286 1.82902 11.2089 1.96098 16.9312 1.8375 1.9075-.0412 3.8262-.0701 5.7094-.13125 6.7965-.1604 13.366-2.27936 19.1625-5.775.8281-.49938 1.7-1.02066 2.4937-1.575 6.3499-4.43469 11.4848-10.57902 14.6344-17.5875-4.0115-3.28455-9.6881-5.42225-11.9437-10.30312 1.1577-6.81416 6.5175-11.91128 10.3031-17.39063 10.221 1.60315 20.9332 3.5125 31.4344 3.28125 2.3335-.0514 4.6561-.16859 6.9562-.45937 5.7504-.72697 11.3809-2.3037 16.7344-5.11875 8.0522-3.49666 11.3309-12.23597 14.3062-19.81875 5.3551-14.74174 10.0509-30.72951 6.4969-46.4625-3.6188-15.54934-8.0897-32.055561-19.95-43.509372-10.7693-11.160064-23.8224-23.754997-40.6219-22.378125-3.272-.0393-5.7984 1.062259-7.9406 2.821875-.4284.351922-.8491.782296-1.2469 1.18125-1.591 1.595819-2.9716 3.496508-4.2656 5.5125-.647 1.007995-1.2723 2.071034-1.9031 3.084375-1.2617 2.026678-2.5082 3.994496-3.9375 5.64375-8.1095 12.516919-29.9915 11.806132-37.0781-1.3125-3.6828-13.43307-1.2653-28.688409-9.1219-40.884375-3.092-5.351122-9.1784-7.091287-15.0938-7.0875zm32.2219 28.809375c.8051 8.41551 2.8827 16.630824 6.3656 24.346875 10.7616-1.326585 16.8283-10.731899 23.4938-18.1125-9.9737-2.020368-19.8944-4.203759-29.8594-6.234375zm-57.0937 28.0875c-10.356 7.657805-15.5616 19.805081-24.15 29.071867-11.597 12.84564-22.9903 26.04609-36.6844 36.75-6.4431 5.34963-13.9744 8.75035-21.7219 11.74688-1.5495.5993-3.1016 1.19526-4.6594 1.77187-3.1155 1.15324-6.2579 2.27277-9.3187 3.47813-12.9261 4.5219-24.8377 11.51076-37.8 15.88125-1.8518.62435-3.7442 1.20302-5.6438 1.70625 1.4854-19.15482 11.8574-36.58175 10.7625-56.10938-7.5339 5.3271-11.7729 13.56276-15.0937 21.91875-6.0717 15.15959-15.7083 28.48335-22.8375 43.11563-4.1421 8.56816-9.0757 16.91776-16.4719 23.1-8.9103 7.70298-15.417 17.91495-25.2656 24.54375-5.0779 3.50269-11.0704 5.02509-17.0625 6.16875-1.9974.38121-3.9977.75696-5.9719 1.11562 3.0833-13.47532 8.2927-26.5991 8.2031-40.62187-3.112 5.02348-5.9083 10.23897-8.0718 15.75-6.838 18.83259-19.14616 34.82142-29.59692 51.7125-8.16614 13.67694-21.46548 22.97553-34.19062 32.025-14.64738 10.62602-33.4382 11.00771-49.80938 17.5875-2.23965 9.17278-4.18771 18.49676-7.874999 27.23437-3.2446 7.66645-9.63024 13.34294-16.40625 17.98125-.96799.66262-1.91152 1.27966-2.8875 1.90313-10.42371 6.2678-23.64774 6.35724-33.40312 13.9125-12.21306 10.01389-21.72604 22.98494-28.74375 37.07812-3.17424 6.62281-7.44799 13.66332-5.97188 21.32813 2.59657 14.67803 6.98924 29.01937 12.8625 42.72187 17.44176-18.13276 22.31626-44.16025 38.52188-63.13125 7.51415-9.1413 14.40984-19.32909 24.60937-25.725 8.29368-5.2417 18.365589-5.73816 27.824999-6.89062.67036-12.50596-1.1605-25.22587 1.44375-37.5375.49298-.97006 1.01245-1.95754 1.575-2.8875 3.93782-6.50973 9.46369-12.0427 15.55313-16.5375 9.64435-6.95959 22.06885-6.97154 32.68125-11.68125.70749-.31397 1.40992-.69124 2.1-1.05 7.58711-3.83477 14.78429-8.50045 22.3125-12.46875 1.50563-.79366 3.05516-1.57336 4.59375-2.29688 3.07719-1.44702 6.23601-2.72519 9.51562-3.74062 17.04237-5.21418 34.11427-10.33612 51.51567-14.24063 8.317-1.73924 16.0804-5.32648 22.7718-10.56562-19.6112-1.95412-39.3405-.52057-58.9312-2.75625 5.0249-10.97966 18.1254-12.82017 26.5781-20.14688 12.3155-10.67199 27.3004-17.94164 42.7219-22.90312 27.1268-4.7488 54.4423 2.32957 81.6375 2.8875-4.4989-2.20662-8.9495-4.58619-13.3219-7.02188-4.3724-2.43569-8.6539-4.92383-12.9937-7.41562-9.1819-5.41838-20.2331-4.87284-30.45-6.23438 1.3998-3.35828 2.0149-7.4717 5.4468-9.45 11.4624-7.81887 23.5295-15.75589 37.4063-18.375 14.2642-2.68757 28.517-9.22818 43.2469-5.775 11.8322 2.55109 23.5227 5.81084 35.1093 9.31875 5.7281 1.69771 11.2759 4.29091 16.8657 6.69375 1.8632.80095 3.7647 1.57952 5.6437 2.29688 7.5161 2.86942 15.2338 4.72551 23.625 3.01875-15.3423-12.89269-34.9127-18.97387-51.2531-30.31875-2.7135-1.88685-4.1299-4.97204-6.0375-7.54688 17.9909-5.35025 37.3262-4.34328 54.9937-10.69687 11.6378-6.21155 23.7005-11.63281 36.6844-14.37188-20.3542.66366-40.6233 3.13883-60.9656 4.00313-15.3117.66139-27.5588 10.83892-41.8688 14.9625-1.064-3.27004-2.1054-6.5183-3.15-9.77813 9.3753-7.23089 19.6798-14.44659 24.6094-25.65937 5.667-12.98334 11.6365-25.819882 17.1938-38.849997zm152.9062 111.299997c-5.0488 3.98453-10.5043 8.51405-10.2375 15.61875-1.2263 18.22684-8.1412 37.17012-21.8531 49.6125-.9141.8295-1.8472 1.59268-2.8219 2.3625-.7163.51708-1.437 1.03738-2.1656 1.50937-2.9144 1.88797-5.969 3.41395-9.0563 4.65938-.7718.31134-1.5157.57699-2.2968.85312-4.6871 1.65678-9.5531 2.70972-14.5032 3.34688-1.65.21239-3.3176.39434-4.9875.525-1.6698.13066-3.368.19778-5.0531.2625-1.6851.0647-3.3575.11669-5.0531.13125-11.8692.10187-23.9034-.80277-35.3719-.0656-.2422 5.51563-.1933 11.28807-.9187 16.86563-.1814 1.3944-.4277 2.77067-.7219 4.13437-.8827 4.09108-2.3624 7.98412-4.8563 11.55-2.1723 3.88469-5.3183 6.72009-8.925 8.85938-.6011.35656-1.2114.6628-1.8375.98437-5.6345 2.89418-12.1808 4.47874-18.1125 6.10313-1.3822.37084-2.7527.65854-4.1343.91875-2.7634.52042-5.5073.83966-8.2688.98437-17.95.94057-35.9076-5.09315-53.8781-5.90625-.3813 7.79949-.7258 15.55141-1.05 23.3625-29.7542 15.68398-63.8229 4.78662-94.3688-2.23125 1.549 7.40924 3.2144 14.82115 4.725 22.24688-8.8655 4.93542-18.3591 9.99446-28.5468 10.89375-.7837.0692-1.5707.11321-2.3625.13125-1.5837.036-3.1742-.0706-4.7907-.2625-19.7568-2.18255-39.0393-9.48999-59.19372-7.0875 9.52612 4.62987 19.86052 6.96534 29.99062 9.84375 2.0691.50366 4.0317 1.28348 5.9063 2.16562.6248.29404 1.2283.59407 1.8375.91875 7.3103 3.89607 13.6105 9.77491 21.4593 12.73125 2.1107.76814 4.2067 1.59789 6.3 2.49375 2.0934.89586 4.1443 1.87896 6.2344 2.82188 12.5407 5.65757 25.1661 11.40902 39.375 8.59687 11.5619.18226 18.8066-9.97987 27.825-15.61875.8199-.51263 1.7059-.95107 2.5594-1.37812 3.4138-1.70823 7.103-2.65205 11.4187-2.1 12.4094 2.98939 20.0302 15.48607 32.6813 18.04687 6.3265 1.24516 12.7572 1.13614 19.0312 0 .8963-.16231 1.8009-.32287 2.6907-.525 5.3384-1.21279 10.5575-3.14233 15.4875-5.5125 1.6433-.79006 3.2146-1.61019 4.7906-2.49375 12.1787-6.72168 16.582-20.87102 23.4281-32.09062 5.4357 1.00178 10.9639 2.0711 16.4719 3.01875 2.754.47382 5.5039.92043 8.2687 1.3125 8.2944 1.17623 16.6336 1.88746 24.9375 1.50937 1.384-.063 2.7523-.20204 4.1344-.32812 2.7643-.25217 5.5156-.64269 8.2688-1.18125 1.3765-.26929 2.7614-.56935 4.1343-.91875 9.166-2.65705 21.5788-3.68418 25.3969-14.04375 4.1047-7.05119 3.3319-15.25873 2.2313-22.96875-1.8882-9.58331 4.9404-17.63404 9.3843-25.39688 10.063-.98021 20.9367-1.36787 29.3344-7.74375 18.8429-11.46068 27.1583-34.23441 28.4156-55.32187.2658-15.97395-2.0602-32.7701-11.3531-46.2zm-498.15937 8.1375c-8.477009.0561-16.914029 3.23723-22.837499 9.77812-10.29827 12.77486-10.70532 30.78455-6.62812 46.06875 13.35047 2.74638 27.171479 3.78141 40.621869 1.05 9.89155-1.30246 16.57545-10.4278 19.95-19.09687 1.46177-7.7917-.21813-16.11007-3.34687-23.29688-5.90915-9.55332-16.86036-14.5752-27.75938-14.50312zm433.97817.0656c2.974 6.71074 7.1197 13.05573 8.7937 20.27813-1.3092 9.24479-9.6105 15.29999-16.9312 20.01562-7.6207 4.59904-15.8597 9.79982-24.6094 12.00938-1.75.4419-3.5258.81532-5.3156.98437-3.5797.3381-7.2306.0579-10.9594-1.05-12.7736-4.72592-21.851-16.26158-34.8469-20.54062-4.2406-.43246-8.3776.71246-12.5344 1.3125-.2192 10.28122.9821 20.84659-1.6406 30.90937-2.2068 5.23022-5.4577 10.27713-9.5812 14.30625-.5155.50365-1.032.97318-1.575 1.44375-3.8012 3.29404-8.2722 5.70803-13.3219 6.75938-1.0495.29627-2.1348.58334-3.2156.85312-1.0809.26979-2.1749.55003-3.2813.7875-15.4891 3.3247-33.2135 3.17004-45.0187-8.4-7.4365-7.47182-15.6433-14.10973-24.5438-19.75312 1.563 6.91662 4.3281 14.2927 4.725 21.525.0397.72324.0106 1.44597 0 2.16562-.0531 3.59821-.7212 7.14924-2.5594 10.56563-6.7523 13.08384-21.5067 18.7812-35.7656 19.62187-1.0968.0647-2.1935.0569-3.2812.0656-2.1756.0174-4.2721-.0703-6.3657-.2625-13.7245-.69928-22.3877-14.11681-36.1593-14.7 1.4911 7.22034 4.9525 14.15324 5.1843 21.59062-2.431 11.07362-12.9674 16.39168-23.625 17.71875-.8881.11059-1.7396.20698-2.625.2625-2.656.16655-5.2785.0973-7.7437-.19687-16.6156-2.29975-32.85702-7.19015-49.74377-7.54688 4.30338 6.09651 8.49368 12.27205 12.6 18.50625 1.36878 2.07808 2.73473 4.13278 4.06875 6.23438 30.04492-1.12663 60.36922 10.59454 89.97192 1.50937-2.5737-8.48228-4.3878-17.40809-2.1-26.18437 11.1925-.70669 22.6116-.38311 33.2718 3.47812 18.6699 6.20916 40.5945 10.43513 58.4063-.525-.3195-6.48738-3.0304-13.67106-.3281-19.81875 10.5276-7.21159 23.8483-3.55416 35.4375-1.64062 8.6259 1.62323 17.857 3.02608 26.8406 2.69062 1.1229-.0419 2.2329-.16428 3.3469-.2625 1.1139-.0982 2.2451-.23356 3.3468-.39375 1.1017-.16019 2.1951-.29713 3.2813-.525 3.2587-.68363 6.4546-1.68886 9.5156-3.08437 1.0204-.46517 2.0269-1.01932 3.0188-1.575.9918-.55568 1.9273-1.12 2.8875-1.77188 6.287-4.45498 14.4585-9.4294 15.5531-17.45625.0782-.57334.1282-1.16615.1312-1.77187.003-.60573-.0525-1.19751-.1312-1.8375 1.2926-7.82847-2.3266-21.47267 8.7281-23.16563 24.3891-3.22673 50.49 2.54758 73.5656-8.33437 16.3506-13.00793 20.2359-34.55115 22.9032-54.075-15.9439.63729-31.8412-.53059-47.775-.72188zm-398.60629 47.44688c-8.87868 13.28275-25.00256 18.10496-40.09688 19.75312-10.894039 1.06285-21.183939-3.35643-31.368749-6.49687.63966 1.436 1.26252 2.89061 1.90313 4.33125.6406 1.44064 1.28744 2.84415 1.96875 4.26562 1.3626 2.84294 2.82985 5.64537 4.59375 8.26875.5772.83988 1.23625 1.60801 1.90312 2.3625 1.33377 1.509 2.79355 2.8857 4.33125 4.2 3.84426 3.28575 8.03179 6.29072 10.89375 10.5 3.35658 6.33541 5.001569 13.36222 7.218749 20.14688 10.0883-2.29572 21.02121-4.3411 28.74375-11.8125 8.99604-8.72069 14.57677-20.59552 17.12813-32.74688 1.80154-8.36738-3.91988-15.59365-7.21875-22.77187zm-106.771879 9.77812c-3.55652.0269-7.10075.54567-10.56562 1.64063-9.25636 4.15655-12.24935 15.31049-12.73125 24.60937-.52007 15.28042 3.01946 31.54597 12.99375 43.50938 4.36277 2.79062 9.1081-.62584 13.05937-2.49375 11.31833-6.60587 24.29333-13.27645 29.00625-26.44688 3.68825-9.24134 7.83273-23.30011-1.96875-30.12187-8.42713-6.41527-19.12417-10.77743-29.79375-10.69688zm44.1 29.33438c-6.51332 12.50816-10.77216 26.94298-22.70625 35.63437-8.10871 8.54555-19.97003 10.77015-31.04062 12.79688-1.38995 12.88574 7.12126 24.26231 16.20937 32.41875 6.69329 5.82225 16.22403 2.77941 23.49375-.19688 16.50989-6.84001 31.46359-21.14649 33.66563-39.57187.21033-15.8851-8.61353-30.2597-19.62188-41.08125zm73.237499 44.49375c-4.9211.20393-9.75754 1.48592-14.24062 4.26562-12.64333 7.75679-13.67606 23.88706-14.9625 37.14375 2.92847-.84033 5.83705-1.72737 8.79375-2.625 8.87006-2.69289 17.91499-5.09787 27.23437-3.9375 8.52071 1.11949 16.6694 3.85995 24.80625 6.5625 2.71228.90086 5.40924 1.80571 8.1375 2.625 1.00256-11.42137 2.30662-26.57054-9.05625-33.40312-8.70502-6.21151-19.8861-11.07988-30.7125-10.63125zm-2.29687 41.54062c-4.36101.1415-8.7494.63863-12.99375 1.575-7.34765 3.40032-14.88623 11.74033-12.27188 20.40938 3.63277 14.49552 10.72934 29.0573 22.64063 38.45625 4.27081 2.74686 8.19348 2.64472 11.8125 1.11562.60316-.25485 1.18316-.52586 1.77187-.85312 5.29849-2.94546 10.01732-8.56158 14.56875-12.00938 8.39439-6.01698 10.22893-16.80409 11.8125-26.31562 2.30446-9.79421-6.8813-18.31807-15.68437-20.40938-7.07245-1.42907-14.38792-2.20458-21.65625-1.96875z"/>
</svg>