<?xml version="1.0" encoding="UTF-8" standalone="no"?>
<!-- Created with Inkscape (http://www.inkscape.org/) -->
<svg
   xmlns:dc="http://purl.org/dc/elements/1.1/"
   xmlns:cc="http://web.resource.org/cc/"
   xmlns:rdf="http://www.w3.org/1999/02/22-rdf-syntax-ns#"
   xmlns:svg="http://www.w3.org/2000/svg"
   xmlns="http://www.w3.org/2000/svg"
   xmlns:xlink="http://www.w3.org/1999/xlink"
   xmlns:sodipodi="http://sodipodi.sourceforge.net/DTD/sodipodi-0.dtd"
   xmlns:inkscape="http://www.inkscape.org/namespaces/inkscape"
   version="1.0"
   width="300"
   height="255"
   viewBox="0 0 630 472"
   id="svg2"
   sodipodi:version="0.32"
   inkscape:version="0.45.1"
   sodipodi:docname="Oakleaf-silver.svg"
   inkscape:output_extension="org.inkscape.output.svg.inkscape"
   sodipodi:docbase="C:\My Pictures\svg">
  <metadata
     id="metadata33">
    <rdf:RDF>
      <cc:Work
         rdf:about="">
        <dc:format>image/svg+xml</dc:format>
        <dc:type
           rdf:resource="http://purl.org/dc/dcmitype/StillImage" />
      </cc:Work>
    </rdf:RDF>
  </metadata>
  <sodipodi:namedview
     inkscape:window-height="712"
     inkscape:window-width="1024"
     inkscape:pageshadow="2"
     inkscape:pageopacity="0.0"
     guidetolerance="10.0"
     gridtolerance="10.0"
     objecttolerance="10.0"
     borderopacity="1.0"
     bordercolor="#666666"
     pagecolor="#ffffff"
     id="base"
     inkscape:zoom="0.73921565"
     inkscape:cx="212.18876"
     inkscape:cy="221.36866"
     inkscape:window-x="1024"
     inkscape:window-y="22"
     inkscape:current-layer="svg2" />
  <defs
     id="defs4">
    <linearGradient
       id="linearGradient5222">
      <stop
         style="stop-color:#e6e6e6;stop-opacity:0;"
         offset="0"
         id="stop5224" />
      <stop
         id="stop3164"
         offset="0.5"
         style="stop-color:#e6e6e6;stop-opacity:1;" />
      <stop
         style="stop-color:#e6e6e6;stop-opacity:0;"
         offset="1"
         id="stop5226" />
    </linearGradient>
    <radialGradient
       inkscape:collect="always"
       xlink:href="#linearGradient5222"
       id="radialGradient5228"
       cx="311.66321"
       cy="194.25934"
       fx="311.66321"
       fy="194.25934"
       r="304.39719"
       gradientTransform="matrix(2.4049999,-1.3140624,0.2306722,0.4221769,-496.2727,544.34499)"
       gradientUnits="userSpaceOnUse" />
    <radialGradient
       gradientUnits="userSpaceOnUse"
       gradientTransform="matrix(2.4049999,-1.3140624,0.2306722,0.4221769,-496.2727,544.34499)"
       r="304.39719"
       fy="194.25934"
       fx="311.66321"
       cy="194.25934"
       cx="311.66321"
       id="radialGradient5152"
       xlink:href="#linearGradient5222"
       inkscape:collect="always" />
    <linearGradient
       id="linearGradient2174">
      <stop
         id="stop2176"
         offset="0"
         style="stop-color:#b39c28;stop-opacity:0;" />
      <stop
         style="stop-color:#b39c28;stop-opacity:1;"
         offset="0.5"
         id="stop3135" />
      <stop
         id="stop2179"
         offset="1"
         style="stop-color:#b39c28;stop-opacity:0;" />
    </linearGradient>
    <linearGradient
       inkscape:collect="always"
       xlink:href="#linearGradient5222"
       id="linearGradient2189"
       gradientUnits="userSpaceOnUse"
       x1="56.188984"
       y1="16.215467"
       x2="408.83392"
       y2="547.12457"
       gradientTransform="translate(-3.146373e-7,2.8e-6)" />
  </defs>
  <path
     d="M 400.20475,-19.12373 C 417.79715,-31.367077 442.29785,-30.192933 460.08585,-18.999054 C 473.17565,-8.654672 476.80735,9.0817497 488.79955,20.373277 C 499.65345,30.4805 507.69985,44.383917 521.75755,50.512749 C 537.31635,56.554084 553.24765,45.372122 568.92215,50.512779 C 596.37325,57.106908 615.26955,83.058237 620.92965,109.70628 C 622.90435,120.0556 628.58255,130.38215 625.86335,141.1137 C 622.31385,154.4015 617.45045,167.27683 612.75005,180.18247 C 609.10805,190.95357 617.17545,200.70903 619.14865,210.95879 C 624.27135,236.5718 621.74855,265.10348 605.92535,286.66781 C 598.88375,294.57843 589.94065,300.46975 581.74035,307.08249 C 574.83305,312.77097 565.53915,312.96121 557.12735,314.32212 C 555.49115,328.64472 559.47205,344.98701 550.36165,357.4414 C 541.63185,366.66509 528.98765,371.5599 516.63445,373.48192 C 496.71555,374.77558 476.54995,374.36398 456.96095,370.21635 C 454.40125,376.58388 453.35045,384.2166 447.66835,388.75602 C 432.18355,402.42602 412.13015,414.22887 390.66785,410.76087 C 376.81445,409.78267 369.77385,396.02652 358.42905,390.0692 C 346.77865,386.59994 339.75675,398.45372 331.95155,404.67246 C 319.20625,416.88439 298.79645,415.02873 284.36385,406.9238 C 263.4767,395.84644 241.20103,387.58822 220.746,375.72925 C 214.40367,372.61945 207.08273,374.17634 200.30113,374.14127 C 196.47165,385.31222 192.56096,396.50595 190.87276,408.25309 C 188.5281,423.39098 174.88128,432.63884 164.02097,441.83363 C 157.60115,448.11988 147.38746,443.73138 141.13457,439.3176 C 129.61072,427.2086 124.22014,410.79132 114.14991,397.64703 C 111.14978,393.4978 105.42567,396.50257 101.48089,397.30275 C 82.2425,402.32631 70.68936,420.10257 61.07428,436.13876 C 49.23957,453.13939 41.36682,472.41696 31.43919,490.51423 C 28.8057,494.349 25.16977,497.33841 21.88502,500.6 C 14.84164,487.94812 12.51094,473.48192 7.8076497,459.93104 C 6.2158397,449.41817 -0.22372031,438.12334 5.4334497,427.82629 C 11.19263,416.30714 16.37042,404.25194 24.28237,394.00602 C 29.81897,388.26348 35.26488,382.32899 38.47407,374.91017 C 33.21964,370.11387 27.20345,365.92117 23.11594,360.01992 C 18.1934,350.15952 18.55706,338.74479 15.18885,328.3942 C 13.01742,320.52734 8.2178597,313.60263 6.7403697,305.52791 C 4.4242797,292.88747 4.0498197,279.51713 7.9484097,267.15725 C 13.70795,255.38774 28.53697,250.00989 40.97017,252.52945 C 50.11039,254.65114 58.83109,258.24081 67.92184,260.57329 C 70.22538,245.41255 65.71786,229.52334 71.50906,214.82866 C 77.28621,205.01764 86.73577,197.62989 97.05138,193.06695 C 110.16765,188.2609 122.55485,196.80833 133.9166,202.27074 C 140.32526,190.06178 153.05976,181.75702 155.86989,167.69819 C 162.49319,149.82328 167.6095,131.2839 175.68168,114.00934 C 184.98418,102.35263 194.93452,88.975957 210.24713,85.315147 C 220.45621,82.38022 230.9899,85.157359 241.29928,85.845507 C 247.68706,86.752 254.68766,82.796579 256.72118,76.586095 C 260.45201,67.668425 264.1854,58.593046 270.37849,51.044299 C 276.8855,42.824124 281.53075,32.564977 290.49515,26.662884 C 299.29225,22.763844 308.01225,18.510172 317.15865,15.48633 C 331.08355,13.939506 345.05625,19.300215 358.96425,16.462032 C 367.46135,14.479678 375.15805,9.9861887 382.15665,4.8967818 C 390.51695,-1.164806 392.66525,-12.310848 400.20475,-19.12373 z "
     style="fill:#6f6e6c;fill-opacity:1;fill-rule:nonzero;stroke:none"
     id="path2184" />
  <path
     style="fill:url(#linearGradient2189);fill-opacity:1;stroke:#ffffff;stroke-width:0.5522415;stroke-linecap:butt;stroke-linejoin:miter;stroke-miterlimit:10;stroke-opacity:1"
     d="M 426.58725,-20.897048 C 419.68225,-20.887017 412.87725,-19.796728 407.68725,-15.056423 C 398.71795,-5.046412 394.04855,7.9756966 390.88725,20.840452 C 390.33205,23.911481 389.28305,26.790484 387.93415,29.502952 C 387.59685,30.181068 387.26215,30.88051 386.88415,31.537327 C 382.72545,38.762309 376.16925,44.679887 369.62475,49.649827 C 358.33385,48.349815 351.37235,37.272508 342.25915,31.406077 C 324.27115,16.916943 297.34445,26.459415 284.24665,42.956077 C 273.48941,62.134789 265.06071,84.636106 245.92161,97.227957 C 235.99151,97.259137 226.51991,91.016588 216.52161,93.684207 C 206.11468,96.575577 194.75448,100.72462 188.76219,110.35295 C 179.50044,126.55858 170.57791,143.17591 165.99032,161.4092 C 161.3436,179.34203 151.87233,195.80604 138.09969,208.26545 C 145.86996,220.01061 142.41918,235.38166 150.63407,246.85295 C 157.29052,256.35952 155.36999,268.42663 155.75282,279.33732 C 169.10861,267.17114 174.88974,249.73858 183.64344,234.44982 C 189.83636,219.91742 193.49975,204.42327 199.39344,189.7592 C 204.53218,172.97156 214.51291,158.20391 225.77471,144.93732 C 230.61801,138.60361 239.53951,139.38836 246.57781,140.21232 C 253.51471,140.50694 255.65141,147.30137 258.06221,152.81232 C 258.40661,153.5996 258.74211,154.39709 259.11221,155.1092 C 263.60321,155.25458 268.13081,155.33241 272.63091,155.43732 C 282.71105,136.80247 285.06865,114.60911 298.22475,97.621707 C 307.41475,84.761442 317.49185,71.810056 331.43095,63.824827 C 340.65785,58.193838 353.24445,60.528562 361.09345,67.499827 C 369.23575,75.628507 370.16275,87.683529 371.98725,98.409207 C 386.85735,97.069407 394.79305,82.916275 402.76535,72.093577 C 411.32865,59.059861 422.78975,48.325396 432.95285,36.590452 C 440.23415,28.2532 450.70565,25.057091 460.58095,20.840452 C 462.22685,20.137678 463.84105,19.394278 465.43725,18.609202 C 467.03345,17.824125 468.58485,16.973425 470.09665,16.049827 C 474.64775,14.120142 472.00705,8.8160116 470.62165,5.6810766 C 464.30625,-6.771031 453.85415,-19.656457 438.72785,-20.306423 C 434.85655,-20.498179 430.73025,-20.903067 426.58725,-20.897048 z M 383.60285,13.949827 C 374.66365,24.142473 361.22525,25.717642 348.49345,26.352952 C 354.38945,34.113556 365.05325,41.852182 374.94035,36.852952 C 379.62785,30.048594 381.13985,21.698096 383.60285,13.949827 z M 476.85595,24.581077 C 474.88415,24.582339 472.97145,24.782949 471.14665,25.106077 C 454.62275,28.648104 439.32005,37.73021 429.54035,51.684202 C 416.05925,63.989296 406.05735,79.152073 395.61225,93.946707 C 392.58745,98.254947 387.49875,102.45182 382.02785,104.4467 C 381.34395,104.69606 380.61935,104.92663 379.92785,105.10295 C 375.08755,106.33718 370.15735,105.64212 366.27785,101.69045 C 363.77595,94.203587 363.76065,86.095471 360.69975,78.787327 C 356.71045,73.034855 350.07165,70.017514 344.42475,66.187327 C 335.02945,72.68479 324.28905,77.365116 315.74665,85.021702 C 309.75195,92.461817 305.86825,101.31054 300.25915,109.04045 C 291.25135,121.37797 288.86245,136.84626 282.47475,150.44982 C 282.04885,151.35673 281.62715,152.25141 281.16225,153.14045 C 278.97205,157.73936 274.72951,160.95079 269.94031,162.39357 C 268.34391,162.8745 266.67981,163.16827 265.01841,163.2467 C 264.48721,163.32968 264.00641,163.37388 263.50911,163.37795 C 263.01181,163.38202 262.53211,163.31366 262.06531,163.2467 C 255.53041,162.30919 251.80991,154.77907 246.24971,151.49982 C 238.77051,150.61938 230.60771,152.36568 224.46221,156.81545 C 217.73221,165.06444 215.24231,175.77574 210.22161,185.0342 C 200.93154,202.19384 196.34344,221.57912 189.35282,239.76545 C 188.65375,241.58409 187.87469,243.35466 187.12157,245.1467 C 183.35595,254.10687 178.85185,262.68541 172.68407,270.47795 C 165.58059,282.52626 153.89877,290.4766 144.59657,300.59982 C 145.78132,300.27088 146.93813,299.89366 148.07469,299.4842 C 165.1231,293.34218 176.90694,278.48951 187.71219,264.5717 C 188.63056,263.34832 189.50332,262.10508 190.33719,260.83107 C 191.17106,259.55707 191.99483,258.27128 192.76532,256.9592 C 197.38826,249.08668 201.01972,240.60074 206.02157,232.94045 C 217.53331,215.14625 221.48041,193.576 233.19031,175.91232 C 236.99931,169.79727 243.97741,167.33565 250.38411,164.95295 C 246.06711,189.03623 236.37091,211.63128 228.79341,234.77795 C 230.50791,234.24759 232.29111,233.75178 234.04341,233.20295 C 239.30031,231.55646 244.49861,229.49523 248.15281,225.1967 C 255.62641,216.9496 262.80951,208.49519 270.07161,200.06232 C 282.01345,186.14753 287.27425,168.20895 296.71535,152.7467 C 303.59885,141.23196 309.37805,129.03074 317.38725,118.22795 C 324.22185,108.95844 336.38335,106.27333 347.31225,107.00607 C 341.66115,113.56433 334.52015,119.77002 333.26845,128.8592 C 330.74005,142.54745 325.52905,155.49468 322.89975,169.15295 C 324.49825,168.72459 326.06805,168.24624 327.62475,167.7092 C 330.73815,166.63512 333.72715,165.41794 336.74665,164.09982 C 338.25635,163.44077 339.77015,162.73784 341.27475,162.06545 C 347.29305,159.37589 353.35565,156.67509 359.78095,155.04357 C 370.60935,152.29366 378.59315,144.03544 388.39345,139.16232 C 402.20855,132.53651 409.35715,118.18569 420.35285,108.18732 C 422.20395,105.98576 424.05795,103.68067 425.86535,101.36232 C 427.67275,99.043977 429.43205,96.695777 431.24665,94.340457 C 435.78305,88.452148 440.48015,82.589994 445.61845,77.343577 C 446.64615,76.294293 447.69765,75.25288 448.76845,74.259202 C 455.19345,68.297136 462.43175,63.443643 471.21225,60.740452 C 470.11885,72.575884 459.96965,80.277757 456.44665,91.190452 C 450.77305,108.63036 439.69295,123.52082 431.24665,139.6217 C 433.28635,139.11272 435.36865,138.58574 437.41535,138.11232 C 468.11615,131.01112 499.55555,127.85078 530.99665,126.36545 C 545.88235,126.18857 557.02845,113.78777 571.94665,113.56857 C 571.63515,116.97591 571.33655,120.32971 570.96225,123.74045 C 547.59735,132.8289 523.87155,141.12477 501.46535,152.41857 C 481.87265,157.99635 461.86375,162.31278 442.00915,166.9217 C 450.90345,169.8872 457.96095,176.13117 465.63415,181.22795 C 480.81055,189.44499 497.38095,195.70549 514.78725,196.5842 C 515.01755,199.41772 515.13625,202.25941 515.18095,205.11545 C 508.57255,206.57798 501.90115,208.27315 495.16535,209.11857 C 493.81825,209.28766 492.44975,209.41803 491.09665,209.51232 C 488.39025,209.70091 485.69125,209.72312 482.95915,209.51232 C 471.80645,208.61934 461.00545,205.5527 450.27785,202.55607 C 432.13205,197.65725 416.24185,185.48188 396.99035,184.57482 C 389.49915,183.78835 382.17125,184.43986 375.07165,186.01857 C 373.65165,186.33432 372.27665,186.68105 370.87165,187.06857 C 368.06145,187.84362 365.22385,188.74269 362.47165,189.7592 C 361.09545,190.26745 359.76495,190.84262 358.40285,191.39982 C 348.86825,195.30025 339.67295,200.30785 330.77475,205.11545 C 332.44745,205.95003 334.16565,206.70452 335.89345,207.41232 C 337.62125,208.12012 339.38125,208.75389 341.14345,209.38107 C 351.71715,213.14416 362.70245,215.89419 371.92165,222.5717 C 379.80975,228.68018 389.95605,229.16534 399.48415,230.05295 C 399.38895,231.82386 399.25105,235.3696 399.15595,237.14045 C 395.91855,237.99752 392.60335,238.73271 389.31225,239.3717 C 387.66665,239.69119 386.04615,239.97007 384.39035,240.22482 C 376.11155,241.49858 367.69165,241.93347 359.32165,241.07795 C 336.74335,239.81828 314.01975,229.51493 291.53095,237.14045 C 271.79751,241.54885 255.92071,254.50944 240.93411,267.32795 C 248.19751,268.00375 255.48861,268.70958 262.78721,268.96857 C 264.24691,269.02038 265.72381,269.08722 267.18411,269.09982 C 270.10461,269.12504 273.05661,269.01389 275.97781,268.83732 C 286.35565,268.32509 295.93215,264.12885 305.77165,261.22482 C 303.50435,272.53164 292.27195,278.07224 283.45915,283.86545 C 264.35861,291.41558 244.70111,297.66024 224.72471,302.50295 C 207.54249,309.13277 190.14324,315.31713 173.40594,323.04357 C 185.34486,322.61557 197.44951,323.37468 208.71219,327.70295 C 218.20201,331.23025 228.17341,332.15898 238.17781,331.90295 C 240.17871,331.85175 242.21631,331.70857 244.21531,331.57482 C 248.21341,331.3073 252.21311,330.91937 256.15911,330.4592 C 259.62871,322.94361 258.53201,314.90292 256.35591,307.22795 C 253.84861,300.51387 260.44441,291.92831 267.57781,293.1842 C 282.15685,295.5215 294.25355,308.73285 309.77475,305.45607 C 319.54995,303.04632 330.18055,300.66769 337.99345,293.9717 C 341.46995,289.30359 341.65915,284.40651 340.42165,279.46857 C 340.24485,278.76316 340.05915,278.07331 339.83095,277.36857 C 338.00575,271.73066 334.69455,266.1111 332.80915,260.96232 C 338.16025,258.97837 343.86655,254.93671 349.74035,257.54982 C 363.25025,262.27451 369.83135,276.91233 382.61845,282.74982 C 401.63725,288.92655 423.56245,280.58292 435.31535,264.8342 C 436.10955,262.1589 436.59465,259.44291 436.82475,256.6967 C 436.93975,255.32359 437.00315,253.94637 437.02165,252.56232 C 437.11385,245.64211 436.20335,238.61286 436.10285,231.7592 C 442.64405,228.79589 449.44695,225.00558 456.90595,226.2467 C 458.96795,226.45157 460.89885,226.94012 462.74665,227.62482 C 463.36255,227.85305 463.98645,228.07739 464.58415,228.3467 C 471.75545,231.57839 477.68065,237.59755 484.79665,241.01232 C 490.22525,242.84134 496.00555,242.9733 501.72785,242.84982 C 503.63535,242.80866 505.55405,242.7797 507.43725,242.71857 C 514.23375,242.55817 520.80325,240.43921 526.59975,236.94357 C 527.42785,236.44419 528.29975,235.92291 529.09345,235.36857 C 535.44335,230.93388 540.57825,224.78955 543.72785,217.78107 C 539.71635,214.49652 534.03975,212.35882 531.78415,207.47795 C 532.94185,200.66379 538.30165,195.56667 542.08725,190.08732 C 552.30825,191.69047 563.02045,193.59982 573.52165,193.36857 C 575.85515,193.31719 578.17775,193.19998 580.47785,192.9092 C 586.22825,192.18223 591.85875,190.6055 597.21225,187.79045 C 605.26445,184.29379 608.54315,175.55448 611.51845,167.9717 C 616.87355,153.22996 621.56935,137.24219 618.01535,121.5092 C 614.39655,105.95986 609.92565,89.453638 598.06535,77.999827 C 587.29605,66.839763 574.24295,54.24483 557.44345,55.621702 C 554.17145,55.582404 551.64505,56.683961 549.50285,58.443577 C 549.07445,58.795499 548.65375,59.225873 548.25595,59.624827 C 546.66495,61.220646 545.28435,63.121335 543.99035,65.137327 C 543.34335,66.145322 542.71805,67.208361 542.08725,68.221702 C 540.82555,70.24838 539.57905,72.216198 538.14975,73.865452 C 530.04025,86.382371 508.15825,85.671584 501.07165,72.552952 C 497.38885,59.119882 499.80635,43.864543 491.94975,31.668577 C 488.85775,26.317455 482.77135,24.57729 476.85595,24.581077 z M 509.07785,53.390452 C 509.88295,61.805962 511.96055,70.021276 515.44345,77.737327 C 526.20505,76.410742 532.27175,67.005428 538.93725,59.624827 C 528.96355,57.604459 519.04285,55.421068 509.07785,53.390452 z M 451.98415,81.477952 C 441.62815,89.135757 436.42255,101.28303 427.83415,110.54982 C 416.23715,123.39546 404.84385,136.59591 391.14975,147.29982 C 384.70665,152.64945 377.17535,156.05017 369.42785,159.0467 C 367.87835,159.646 366.32625,160.24196 364.76845,160.81857 C 361.65295,161.97181 358.51055,163.09134 355.44975,164.2967 C 342.52365,168.8186 330.61205,175.80746 317.64975,180.17795 C 315.79795,180.8023 313.90555,181.38097 312.00595,181.8842 C 313.49135,162.72938 323.86335,145.30245 322.76845,125.77482 C 315.23455,131.10192 310.99555,139.33758 307.67475,147.69357 C 301.60305,162.85316 291.96645,176.17692 284.83725,190.8092 C 280.69515,199.37736 275.76151,207.72696 268.36531,213.9092 C 259.45501,221.61218 252.94831,231.82415 243.09971,238.45295 C 238.02181,241.95564 232.02931,243.47804 226.03721,244.6217 C 224.03981,245.00291 222.03951,245.37866 220.06531,245.73732 C 223.14861,232.262 228.35801,219.13822 228.26841,205.11545 C 225.15641,210.13893 222.36011,215.35442 220.19661,220.86545 C 213.35861,239.69804 201.05045,255.68687 190.59969,272.57795 C 182.43355,286.25489 169.13421,295.55348 156.40907,304.60295 C 141.76169,315.22897 122.97087,315.61066 106.59969,322.19045 C 104.36004,331.36323 102.41198,340.68721 98.72469,349.42482 C 95.48009,357.09127 89.09445,362.76776 82.31844,367.40607 C 81.35045,368.06869 80.40692,368.68573 79.43094,369.3092 C 69.00723,375.577 55.7832,375.66644 46.02782,383.2217 C 33.81476,393.23559 24.30178,406.20664 17.28407,420.29982 C 14.10983,426.92263 9.8360797,433.96314 11.31219,441.62795 C 13.90876,456.30598 18.30143,470.64732 24.17469,484.34982 C 41.61645,466.21706 46.49095,440.18957 62.69657,421.21857 C 70.21072,412.07727 77.10641,401.88948 87.30594,395.49357 C 95.59962,390.25187 105.67153,389.75541 115.13094,388.60295 C 115.8013,376.09699 113.97044,363.37708 116.57469,351.06545 C 117.06767,350.09539 117.58714,349.10791 118.14969,348.17795 C 122.08751,341.66822 127.61338,336.13525 133.70282,331.64045 C 143.34717,324.68086 155.77167,324.66891 166.38407,319.9592 C 167.09156,319.64523 167.79399,319.26796 168.48407,318.9092 C 176.07118,315.07443 183.26836,310.40875 190.79657,306.44045 C 192.3022,305.64679 193.85173,304.86709 195.39032,304.14357 C 198.46751,302.69655 201.62633,301.41838 204.90594,300.40295 C 221.94831,295.18877 239.02021,290.06683 256.42161,286.16232 C 264.73861,284.42308 272.50201,280.83584 279.19345,275.5967 C 259.58221,273.64258 239.85291,275.07613 220.26221,272.84045 C 225.28711,261.86079 238.38761,260.02028 246.84031,252.69357 C 259.15581,242.02158 274.14071,234.75193 289.56225,229.79045 C 316.68905,225.04165 344.00455,232.12002 371.19975,232.67795 C 366.70085,230.47133 362.25025,228.09176 357.87785,225.65607 C 353.50545,223.22038 349.22395,220.73224 344.88415,218.24045 C 335.70225,212.82207 324.65105,213.36761 314.43415,212.00607 C 315.83395,208.64779 316.44905,204.53437 319.88095,202.55607 C 331.34335,194.7372 343.41045,186.80018 357.28725,184.18107 C 371.55145,181.4935 385.80425,174.95289 400.53415,178.40607 C 412.36635,180.95716 424.05685,184.21691 435.64345,187.72482 C 441.37155,189.42253 446.91935,192.01573 452.50915,194.41857 C 454.37235,195.21952 456.27385,195.99809 458.15285,196.71545 C 465.66895,199.58487 473.38665,201.44096 481.77785,199.7342 C 466.43555,186.84151 446.86515,180.76033 430.52475,169.41545 C 427.81125,167.5286 426.39485,164.44341 424.48725,161.86857 C 442.47815,156.51832 461.81345,157.52529 479.48095,151.1717 C 491.11875,144.96015 503.18145,139.53889 516.16535,136.79982 C 495.81115,137.46348 475.54205,139.93865 455.19975,140.80295 C 439.88805,141.46434 427.64095,151.64187 413.33095,155.76545 C 412.26695,152.49541 411.22555,149.24715 410.18095,145.98732 C 419.55625,138.75643 429.86075,131.54073 434.79035,120.32795 C 440.45735,107.34461 446.42685,94.508067 451.98415,81.477952 z M 604.89035,192.77795 C 599.84155,196.76248 594.38605,201.292 594.65285,208.3967 C 593.42655,226.62354 586.51165,245.56682 572.79975,258.0092 C 571.88565,258.8387 570.95255,259.60188 569.97785,260.3717 C 569.26155,260.88878 568.54085,261.40908 567.81225,261.88107 C 564.89785,263.76904 561.84325,265.29502 558.75595,266.54045 C 557.98415,266.85179 557.24025,267.11744 556.45915,267.39357 C 551.77205,269.05035 546.90605,270.10329 541.95595,270.74045 C 540.30595,270.95284 538.63835,271.13479 536.96845,271.26545 C 535.29865,271.39611 533.60045,271.46323 531.91535,271.52795 C 530.23025,271.59267 528.55785,271.64464 526.86225,271.6592 C 514.99305,271.76107 502.95885,270.85643 491.49035,271.59357 C 491.24815,277.1092 491.29705,282.88164 490.57165,288.4592 C 490.39025,289.8536 490.14395,291.22987 489.84975,292.59357 C 488.96705,296.68465 487.48735,300.57769 484.99345,304.14357 C 482.82115,308.02826 479.67515,310.86366 476.06845,313.00295 C 475.46735,313.35951 474.85705,313.66575 474.23095,313.98732 C 468.59645,316.8815 462.05015,318.46606 456.11845,320.09045 C 454.73625,320.46129 453.36575,320.74899 451.98415,321.0092 C 449.22075,321.52962 446.47685,321.84886 443.71535,321.99357 C 425.76535,322.93414 407.80775,316.90042 389.83725,316.08732 C 389.45595,323.88681 389.11145,331.63873 388.78725,339.44982 C 359.03305,355.1338 324.96435,344.23644 294.41845,337.21857 C 295.96745,344.62781 297.63285,352.03972 299.14345,359.46545 C 290.27795,364.40087 280.78435,369.45991 270.59661,370.3592 C 269.81291,370.42837 269.02591,370.47241 268.23411,370.49045 C 266.65041,370.5265 265.05991,370.41985 263.44341,370.22795 C 243.68661,368.0454 224.40411,360.73796 204.24969,363.14045 C 213.77581,367.77032 224.11021,370.10579 234.24031,372.9842 C 236.30941,373.48786 238.27201,374.26768 240.14661,375.14982 C 240.77141,375.44386 241.37491,375.74389 241.98411,376.06857 C 249.29441,379.96464 255.59461,385.84348 263.44341,388.79982 C 265.55411,389.56796 267.65011,390.39771 269.74341,391.29357 C 271.83681,392.18943 273.88771,393.17253 275.97781,394.11545 C 288.51855,399.77302 301.14395,405.52447 315.35285,402.71232 C 326.91475,402.89458 334.15945,392.73245 343.17785,387.09357 C 343.99775,386.58094 344.88375,386.1425 345.73725,385.71545 C 349.15105,384.00722 352.84025,383.0634 357.15595,383.61545 C 369.56535,386.60484 377.18615,399.10152 389.83725,401.66232 C 396.16375,402.90748 402.59445,402.79846 408.86845,401.66232 C 409.76475,401.50001 410.66935,401.33945 411.55915,401.13732 C 416.89755,399.92453 422.11665,397.99499 427.04665,395.62482 C 428.68995,394.83476 430.26125,394.01463 431.83725,393.13107 C 444.01595,386.40939 448.41925,372.26005 455.26535,361.04045 C 460.70105,362.04223 466.22925,363.11155 471.73725,364.0592 C 474.49125,364.53302 477.24115,364.97963 480.00595,365.3717 C 488.30035,366.54793 496.63955,367.25916 504.94345,366.88107 C 506.32745,366.81805 507.69575,366.67903 509.07785,366.55295 C 511.84215,366.30078 514.59345,365.91026 517.34665,365.3717 C 518.72315,365.10241 520.10805,364.80235 521.48095,364.45295 C 530.64695,361.7959 543.05975,360.76877 546.87785,350.4092 C 550.98255,343.35801 550.20975,335.15047 549.10915,327.44045 C 547.22095,317.85714 554.04955,309.80641 558.49345,302.04357 C 568.55645,301.06336 579.43015,300.6757 587.82785,294.29982 C 606.67075,282.83914 614.98615,260.06541 616.24345,238.97795 C 616.50925,223.004 614.18325,206.20785 604.89035,192.77795 z M 106.73094,200.91545 C 98.25393,200.97151 89.81691,204.15268 83.89344,210.69357 C 73.59517,223.46843 73.18812,241.47812 77.26532,256.76232 C 90.61579,259.5087 104.4368,260.54373 117.88719,257.81232 C 127.77874,256.50986 134.46264,247.38452 137.83719,238.71545 C 139.29896,230.92375 137.61906,222.60538 134.49032,215.41857 C 128.58117,205.86525 117.62996,200.84337 106.73094,200.91545 z M 540.70915,200.98107 C 543.68315,207.69181 547.82885,214.0368 549.50285,221.2592 C 548.19365,230.50399 539.89235,236.55919 532.57165,241.27482 C 524.95095,245.87386 516.71195,251.07464 507.96225,253.2842 C 506.21225,253.7261 504.43645,254.09952 502.64665,254.26857 C 499.06695,254.60667 495.41605,254.32651 491.68725,253.21857 C 478.91365,248.49265 469.83625,236.95699 456.84035,232.67795 C 452.59975,232.24549 448.46275,233.39041 444.30595,233.99045 C 444.08675,244.27167 445.28805,254.83704 442.66535,264.89982 C 440.45855,270.13004 437.20765,275.17695 433.08415,279.20607 C 432.56865,279.70972 432.05215,280.17925 431.50915,280.64982 C 427.70795,283.94386 423.23695,286.35785 418.18725,287.4092 C 417.13775,287.70547 416.05245,287.99254 414.97165,288.26232 C 413.89075,288.53211 412.79675,288.81235 411.69035,289.04982 C 396.20125,292.37452 378.47685,292.21986 366.67165,280.64982 C 359.23515,273.178 351.02835,266.54009 342.12785,260.8967 C 343.69085,267.81332 346.45595,275.1894 346.85285,282.4217 C 346.89255,283.14494 346.86345,283.86767 346.85285,284.58732 C 346.79975,288.18553 346.13165,291.73656 344.29345,295.15295 C 337.54115,308.23679 322.78675,313.93415 308.52785,314.77482 C 307.43105,314.83948 306.33435,314.83171 305.24665,314.84045 C 303.07105,314.8579 300.97455,314.77012 298.88095,314.57795 C 285.15645,313.87867 276.49321,300.46114 262.72161,299.87795 C 264.21271,307.09829 267.67411,314.03119 267.90591,321.46857 C 265.47491,332.54219 254.93851,337.86025 244.28091,339.18732 C 243.39281,339.29791 242.54131,339.3943 241.65591,339.44982 C 238.99991,339.61637 236.37741,339.54712 233.91221,339.25295 C 217.29661,336.9532 201.05519,332.0628 184.16844,331.70607 C 188.47182,337.80258 192.66212,343.97812 196.76844,350.21232 C 198.13722,352.2904 199.50317,354.3451 200.83719,356.4467 C 230.88211,355.32007 261.20641,367.04124 290.80915,357.95607 C 288.23545,349.47379 286.42135,340.54798 288.70915,331.7717 C 299.90165,331.06501 311.32075,331.38859 321.98095,335.24982 C 340.65085,341.45898 362.57545,345.68495 380.38725,334.72482 C 380.06775,328.23744 377.35685,321.05376 380.05915,314.90607 C 390.58675,307.69448 403.90745,311.35191 415.49665,313.26545 C 424.12255,314.88868 433.35365,316.29153 442.33725,315.95607 C 443.46015,315.91414 444.57015,315.79179 445.68415,315.69357 C 446.79805,315.59536 447.92925,315.46001 449.03095,315.29982 C 450.13265,315.13963 451.22605,315.00269 452.31225,314.77482 C 455.57095,314.09119 458.76685,313.08596 461.82785,311.69045 C 462.84825,311.22528 463.85475,310.67113 464.84665,310.11545 C 465.83845,309.55977 466.77395,308.99545 467.73415,308.34357 C 474.02115,303.88859 482.19265,298.91417 483.28725,290.88732 C 483.36545,290.31398 483.41545,289.72117 483.41845,289.11545 C 483.42145,288.50972 483.36595,287.91794 483.28725,287.27795 C 484.57985,279.44948 480.96065,265.80528 492.01535,264.11232 C 516.40445,260.88559 542.50535,266.6599 565.58095,255.77795 C 581.93155,242.77002 585.81685,221.2268 588.48415,201.70295 C 572.54025,202.34024 556.64295,201.17236 540.70915,200.98107 z M 142.10282,248.42795 C 133.22414,261.7107 117.10026,266.53291 102.00594,268.18107 C 91.1119,269.24392 80.822,264.82464 70.63719,261.6842 C 71.27685,263.1202 71.89971,264.57481 72.54032,266.01545 C 73.18092,267.45609 73.82776,268.8596 74.50907,270.28107 C 75.87167,273.12401 77.33892,275.92644 79.10282,278.54982 C 79.68002,279.3897 80.33907,280.15783 81.00594,280.91232 C 82.33971,282.42132 83.79949,283.79802 85.33719,285.11232 C 89.18145,288.39807 93.36898,291.40304 96.23094,295.61232 C 99.58752,301.94773 101.23251,308.97454 103.44969,315.7592 C 113.53799,313.46348 124.4709,311.4181 132.19344,303.9467 C 141.18948,295.22601 146.77021,283.35118 149.32157,271.19982 C 151.12311,262.83244 145.40169,255.60617 142.10282,248.42795 z M 35.33094,258.20607 C 31.77442,258.23293 28.23019,258.75174 24.76532,259.8467 C 15.50896,264.00325 12.51597,275.15719 12.03407,284.45607 C 11.514,299.73649 15.05353,316.00204 25.02782,327.96545 C 29.39059,330.75607 34.13592,327.33961 38.08719,325.4717 C 49.40552,318.86583 62.38052,312.19525 67.09344,299.02482 C 70.78169,289.78348 74.92617,275.72471 65.12469,268.90295 C 56.69756,262.48768 46.00052,258.12552 35.33094,258.20607 z M 79.43094,287.54045 C 72.91762,300.04861 68.65878,314.48343 56.72469,323.17482 C 48.61598,331.72037 36.75466,333.94497 25.68407,335.9717 C 24.29412,348.85744 32.80533,360.23401 41.89344,368.39045 C 48.58673,374.2127 58.11747,371.16986 65.38719,368.19357 C 81.89708,361.35356 96.85078,347.04708 99.05282,328.6217 C 99.26315,312.7366 90.43929,298.362 79.43094,287.54045 z M 152.66844,332.0342 C 147.74734,332.23813 142.9109,333.52012 138.42782,336.29982 C 125.78449,344.05661 124.75176,360.18688 123.46532,373.44357 C 126.39379,372.60324 129.30237,371.7162 132.25907,370.81857 C 141.12913,368.12568 150.17406,365.7207 159.49344,366.88107 C 168.01415,368.00056 176.16284,370.74102 184.29969,373.44357 C 187.01197,374.34443 189.70893,375.24928 192.43719,376.06857 C 193.43975,364.6472 194.74381,349.49803 183.38094,342.66545 C 174.67592,336.45394 163.49484,331.58557 152.66844,332.0342 z M 150.37157,373.57482 C 146.01056,373.71632 141.62217,374.21345 137.37782,375.14982 C 130.03017,378.55014 122.49159,386.89015 125.10594,395.5592 C 128.73871,410.05472 135.83528,424.6165 147.74657,434.01545 C 152.01738,436.76231 155.94005,436.66017 159.55907,435.13107 C 160.16223,434.87622 160.74223,434.60521 161.33094,434.27795 C 166.62943,431.33249 171.34826,425.71637 175.89969,422.26857 C 184.29408,416.25159 186.12862,405.46448 187.71219,395.95295 C 190.01665,386.15874 180.83089,377.63488 172.02782,375.54357 C 164.95537,374.1145 157.6399,373.33899 150.37157,373.57482 z "
     id="path2186" />
</svg>
